<svg width="31" height="31" viewBox="0 0 31 31" fill="none" xmlns="http://www.w3.org/2000/svg">
<path d="M29.9667 16.5333H24.8V13.4333C24.8 13.108 24.6468 12.8018 24.3867 12.6067L16.5333 6.71667V6.2H21.7C21.974 6.2 22.2369 6.09118 22.4307 5.89733C22.6245 5.70358 22.7333 5.44073 22.7333 5.16667V1.03333C22.7333 0.759285 22.6245 0.496441 22.4307 0.30267C22.2369 0.108811 21.9741 0 21.7 0H15.5C15.226 0 14.9631 0.108822 14.7693 0.30267C14.5755 0.496419 14.4667 0.759266 14.4667 1.03333V6.71667L6.61333 12.6067C6.35317 12.8018 6.2 13.108 6.2 13.4333V16.5333H1.03333C0.759285 16.5333 0.496441 16.6422 0.30267 16.836C0.108811 17.0298 0 17.2926 0 17.5667V29.9667C0 30.2407 0.108822 30.5036 0.30267 30.6973C0.496419 30.8912 0.759266 31 1.03333 31H29.9667C30.2407 31 30.5036 30.8912 30.6973 30.6973C30.8912 30.5036 31 30.2407 31 29.9667V17.5667C31 17.2926 30.8912 17.0298 30.6973 16.836C30.5036 16.6421 30.2407 16.5333 29.9667 16.5333ZM20.6667 4.13333H16.5333V2.06667H20.6667V4.13333ZM2.06667 18.6H6.2V28.9333H2.06667V18.6ZM17.05 28.9333H13.95V24.8H17.05V28.9333ZM22.7333 28.9333H19.1167V23.7667C19.1167 23.4926 19.0078 23.2298 18.814 23.036C18.6202 22.8421 18.3574 22.7333 18.0833 22.7333H12.9167C12.6426 22.7333 12.3798 22.8422 12.186 23.036C11.9921 23.2298 11.8833 23.4926 11.8833 23.7667V28.9333H8.26667V13.95L15.5 8.52486L22.7333 13.95V28.9333ZM28.9333 28.9333H24.8V18.6H28.9333V28.9333Z" fill="white"/>
<path d="M11.3667 15.4999C11.3667 16.5961 11.8022 17.6475 12.5773 18.4227C13.3524 19.1979 14.4038 19.6333 15.5001 19.6333C16.5964 19.6333 17.6478 19.1978 18.423 18.4227C19.1982 17.6476 19.6336 16.5962 19.6336 15.4999C19.6336 14.4036 19.1981 13.3523 18.423 12.5771C17.6478 11.8019 16.5964 11.3665 15.5001 11.3665C14.4038 11.3665 13.3525 11.802 12.5773 12.5771C11.8021 13.3522 11.3667 14.4036 11.3667 15.4999ZM17.5667 15.4999C17.5667 16.048 17.3489 16.5737 16.9613 16.9612C16.5738 17.3488 16.0481 17.5666 15.5 17.5666C14.952 17.5666 14.4262 17.3488 14.0387 16.9612C13.6511 16.5737 13.4334 16.048 13.4334 15.4999C13.4334 14.9518 13.6511 14.4261 14.0387 14.0386C14.4262 13.651 14.952 13.4332 15.5 13.4332C16.0481 13.4332 16.5738 13.651 16.9613 14.0386C17.3489 14.4261 17.5667 14.9518 17.5667 15.4999Z" fill="white"/>
</svg>
