<svg width="351" height="85" viewBox="0 0 351 85" fill="none" xmlns="http://www.w3.org/2000/svg">
<path d="M55.9517 65.5H54.3017V49.704H55.9517V65.5ZM60.9524 58.746V65.5H59.4124V53.906H60.8424V56.084C61.5904 54.654 62.9984 53.686 64.6704 53.686C67.0904 53.686 68.6524 55.226 68.6524 57.976V65.5H67.1124V58.504C67.1124 56.282 66.1004 55.028 64.2084 55.028C62.4044 55.028 60.9524 56.59 60.9524 58.746ZM77.8353 64.026V65.39C77.2413 65.632 76.7353 65.72 76.1633 65.72C74.2493 65.72 72.7753 64.73 72.7753 62.222V55.204H70.0473V53.906H72.7753V50.474H74.3153V53.906H77.9453V55.204H74.3153V61.892C74.3153 63.696 75.1953 64.312 76.4713 64.312C76.9553 64.312 77.3513 64.224 77.8353 64.026ZM84.4625 65.72C81.2065 65.72 79.0505 63.278 79.0505 59.604C79.0505 56.216 81.2945 53.686 84.3745 53.686C87.6745 53.686 89.8305 56.348 89.5665 60.066H80.5905C80.7225 62.816 82.1745 64.51 84.4405 64.51C86.3765 64.51 87.7185 63.432 88.0925 61.584H89.6105C89.0825 64.158 87.1245 65.72 84.4625 65.72ZM84.3525 54.874C82.2625 54.874 80.7885 56.48 80.5905 59.01H87.9605C87.8285 56.414 86.4865 54.874 84.3525 54.874ZM96.2747 69.988C93.3267 69.988 91.4787 68.448 91.3467 65.852H92.8207C92.9527 67.744 94.1847 68.756 96.2527 68.756C98.5407 68.756 99.7507 67.546 99.7507 65.258V62.838C99.0467 64.466 97.6387 65.412 95.9227 65.412C92.9967 65.412 91.0387 63.058 91.0387 59.538C91.0387 56.018 92.9747 53.686 95.9007 53.686C97.6387 53.686 99.0907 54.676 99.8387 56.37V53.906H101.269V65.236C101.269 68.228 99.4427 69.988 96.2747 69.988ZM92.5787 59.538C92.5787 62.376 93.9207 64.092 96.1427 64.092C98.3207 64.092 99.7727 62.332 99.7727 59.648C99.7727 56.81 98.3427 55.006 96.1427 55.006C93.9427 55.006 92.5787 56.722 92.5787 59.538ZM106.155 59.296V65.5H104.615V53.906H106.045V56.546C106.837 54.83 108.553 53.73 110.467 53.73V55.336C108.025 55.248 106.155 56.766 106.155 59.296ZM119.478 65.5V63.388C118.796 64.84 117.388 65.72 115.584 65.72C113.186 65.72 111.624 64.378 111.624 62.288C111.624 60.022 113.428 58.834 116.948 58.834C117.652 58.834 118.18 58.878 119.324 58.966V57.998C119.324 56.062 118.29 54.918 116.53 54.918C114.638 54.918 113.45 56.084 113.428 57.976H112.02C112.086 55.402 113.868 53.686 116.508 53.686C119.214 53.686 120.798 55.27 120.798 57.954V65.5H119.478ZM113.098 62.244C113.098 63.652 114.176 64.598 115.804 64.598C117.96 64.598 119.324 63.19 119.324 61.012V59.978C118.334 59.89 117.652 59.868 117.014 59.868C114.374 59.868 113.098 60.638 113.098 62.244ZM129.935 64.026V65.39C129.341 65.632 128.835 65.72 128.263 65.72C126.349 65.72 124.875 64.73 124.875 62.222V55.204H122.147V53.906H124.875V50.474H126.415V53.906H130.045V55.204H126.415V61.892C126.415 63.696 127.295 64.312 128.571 64.312C129.055 64.312 129.451 64.224 129.935 64.026ZM136.562 65.72C133.306 65.72 131.15 63.278 131.15 59.604C131.15 56.216 133.394 53.686 136.474 53.686C139.774 53.686 141.93 56.348 141.666 60.066H132.69C132.822 62.816 134.274 64.51 136.54 64.51C138.476 64.51 139.818 63.432 140.192 61.584H141.71C141.182 64.158 139.224 65.72 136.562 65.72ZM136.452 54.874C134.362 54.874 132.888 56.48 132.69 59.01H140.06C139.928 56.414 138.586 54.874 136.452 54.874ZM143.138 59.692C143.138 56.128 145.118 53.686 148.242 53.686C149.98 53.686 151.454 54.676 152.224 56.326V49.704H153.764V65.5H152.334V63.058C151.52 64.752 150.024 65.72 148.242 65.72C145.118 65.72 143.138 63.256 143.138 59.692ZM144.7 59.692C144.7 62.64 146.196 64.378 148.462 64.378C150.706 64.378 152.246 62.552 152.246 59.648C152.246 56.722 150.662 55.028 148.462 55.028C146.196 55.028 144.7 56.744 144.7 59.692ZM163.701 51.222C163.701 51.904 163.195 52.388 162.447 52.388C161.721 52.388 161.215 51.904 161.215 51.222C161.215 50.562 161.721 50.078 162.447 50.078C163.195 50.078 163.701 50.562 163.701 51.222ZM163.239 65.5H161.699V53.906H163.239V65.5ZM168.116 58.746V65.5H166.576V53.906H168.006V56.084C168.754 54.654 170.162 53.686 171.834 53.686C174.254 53.686 175.816 55.226 175.816 57.976V65.5H174.276V58.504C174.276 56.282 173.264 55.028 171.372 55.028C169.568 55.028 168.116 56.59 168.116 58.746ZM190.785 65.5V63.388C190.103 64.84 188.695 65.72 186.891 65.72C184.493 65.72 182.931 64.378 182.931 62.288C182.931 60.022 184.735 58.834 188.255 58.834C188.959 58.834 189.487 58.878 190.631 58.966V57.998C190.631 56.062 189.597 54.918 187.837 54.918C185.945 54.918 184.757 56.084 184.735 57.976H183.327C183.393 55.402 185.175 53.686 187.815 53.686C190.521 53.686 192.105 55.27 192.105 57.954V65.5H190.785ZM184.405 62.244C184.405 63.652 185.483 64.598 187.111 64.598C189.267 64.598 190.631 63.19 190.631 61.012V59.978C189.641 59.89 188.959 59.868 188.321 59.868C185.681 59.868 184.405 60.638 184.405 62.244ZM196.884 65.5H195.344V49.704H196.884V65.5ZM201.761 65.5H200.221V49.704H201.761V65.5ZM216.626 65.83C212.226 65.83 208.904 62.244 208.904 57.58C208.904 52.938 212.226 49.374 216.626 49.374C220.388 49.374 223.49 51.904 224.106 55.666H222.368C221.862 52.85 219.53 50.848 216.626 50.848C213.128 50.848 210.598 53.708 210.598 57.58C210.598 61.496 213.128 64.356 216.626 64.356C219.552 64.356 221.884 62.332 222.368 59.516H224.106C223.49 63.278 220.388 65.83 216.626 65.83ZM233.796 65.5V63.388C233.114 64.84 231.706 65.72 229.902 65.72C227.504 65.72 225.942 64.378 225.942 62.288C225.942 60.022 227.746 58.834 231.266 58.834C231.97 58.834 232.498 58.878 233.642 58.966V57.998C233.642 56.062 232.608 54.918 230.848 54.918C228.956 54.918 227.768 56.084 227.746 57.976H226.338C226.404 55.402 228.186 53.686 230.826 53.686C233.532 53.686 235.116 55.27 235.116 57.954V65.5H233.796ZM227.416 62.244C227.416 63.652 228.494 64.598 230.122 64.598C232.278 64.598 233.642 63.19 233.642 61.012V59.978C232.652 59.89 231.97 59.868 231.332 59.868C228.692 59.868 227.416 60.638 227.416 62.244ZM239.896 65.5H238.356V53.906H239.786V56.084C240.556 54.588 241.92 53.686 243.57 53.686C245.374 53.686 246.716 54.676 247.2 56.37C247.926 54.742 249.378 53.686 251.204 53.686C253.602 53.686 255.098 55.27 255.098 57.976V65.5H253.58V58.482C253.58 56.282 252.568 55.028 250.698 55.028C248.938 55.028 247.508 56.568 247.508 58.702V65.5H245.968V58.482C245.968 56.282 244.956 55.028 243.086 55.028C241.304 55.028 239.896 56.568 239.896 58.702V65.5ZM268.962 59.692C268.962 63.278 266.96 65.72 263.88 65.72C262.142 65.72 260.668 64.774 259.876 63.124V69.746H258.336V53.906H259.766V56.414C260.558 54.698 262.098 53.686 263.88 53.686C266.96 53.686 268.962 56.15 268.962 59.692ZM267.4 59.692C267.4 56.766 265.882 55.028 263.616 55.028C261.46 55.028 259.854 56.744 259.854 59.692C259.854 62.574 261.416 64.378 263.616 64.378C265.882 64.378 267.4 62.662 267.4 59.692ZM278.856 60.814V53.906H280.374V65.5H278.944V63.41C278.35 64.752 276.942 65.72 275.248 65.72C272.894 65.72 271.332 64.378 271.332 61.452V53.906H272.872V61.122C272.872 63.476 274.038 64.378 275.666 64.378C277.514 64.378 278.856 62.882 278.856 60.814ZM292.377 62.266C292.377 64.4 290.661 65.72 287.801 65.72C284.919 65.72 283.159 64.268 282.939 61.87H284.413C284.523 63.52 285.821 64.554 287.801 64.554C289.693 64.554 290.837 63.828 290.837 62.508C290.837 61.364 290.177 60.836 288.417 60.484L286.745 60.154C284.545 59.736 283.379 58.658 283.379 56.986C283.379 55.05 285.095 53.686 287.625 53.686C290.287 53.686 292.047 55.116 292.223 57.426H290.771C290.617 55.82 289.451 54.874 287.625 54.874C285.997 54.874 284.875 55.644 284.875 56.854C284.875 57.998 285.579 58.548 287.295 58.878L289.033 59.208C291.343 59.648 292.377 60.616 292.377 62.266ZM299.607 65.72C296.351 65.72 294.195 63.278 294.195 59.604C294.195 56.216 296.439 53.686 299.519 53.686C302.819 53.686 304.975 56.348 304.711 60.066H295.735C295.867 62.816 297.319 64.51 299.585 64.51C301.521 64.51 302.863 63.432 303.237 61.584H304.755C304.227 64.158 302.269 65.72 299.607 65.72ZM299.497 54.874C297.407 54.874 295.933 56.48 295.735 59.01H303.105C302.973 56.414 301.631 54.874 299.497 54.874ZM315.924 62.266C315.924 64.4 314.208 65.72 311.348 65.72C308.466 65.72 306.706 64.268 306.486 61.87H307.96C308.07 63.52 309.368 64.554 311.348 64.554C313.24 64.554 314.384 63.828 314.384 62.508C314.384 61.364 313.724 60.836 311.964 60.484L310.292 60.154C308.092 59.736 306.926 58.658 306.926 56.986C306.926 55.05 308.642 53.686 311.172 53.686C313.834 53.686 315.594 55.116 315.77 57.426H314.318C314.164 55.82 312.998 54.874 311.172 54.874C309.544 54.874 308.422 55.644 308.422 56.854C308.422 57.998 309.126 58.548 310.842 58.878L312.58 59.208C314.89 59.648 315.924 60.616 315.924 62.266Z" fill="white" fill-opacity="0.71"/>
<path d="M69.064 31L67.832 27.276H60.776L59.516 31H54.168L61.616 10.896H67.412L74.776 31H69.064ZM64.36 16.72L62.204 23.104H66.46L64.36 16.72ZM81.3013 24.056V31H76.5133V15.936H80.9093V18.596C82.0573 16.832 84.4373 15.824 86.8453 15.824V20.808C83.4573 20.472 81.3013 20.724 81.3013 24.056ZM99.7737 26.296V30.468C98.7097 31.056 97.7017 31.28 96.3577 31.28C92.9697 31.28 90.9817 29.264 90.9817 25.82V20.108H88.1817V15.936H90.9817V11.512H95.7697V15.936H99.8857V20.108H95.7697V24.7C95.7697 26.156 96.3857 26.828 97.7017 26.828C98.4857 26.828 99.2417 26.632 99.7737 26.296ZM107.457 12.436C107.457 14.004 106.197 15.152 104.377 15.152C102.557 15.152 101.297 14.004 101.297 12.436C101.297 10.84 102.557 9.692 104.377 9.692C106.197 9.692 107.457 10.84 107.457 12.436ZM106.813 31H102.025V15.936H106.813V31ZM127.175 12.436C127.175 14.004 125.915 15.152 124.095 15.152C122.275 15.152 121.015 14.004 121.015 12.436C121.015 10.84 122.275 9.692 124.095 9.692C125.915 9.692 127.175 10.84 127.175 12.436ZM116.199 31H111.411V20.108H108.611V15.936H111.411V15.404C111.411 12.296 113.091 10.56 116.451 10.56C117.543 10.56 118.467 10.756 119.167 11.064V14.844C118.775 14.676 118.159 14.564 117.655 14.564C116.843 14.564 116.199 14.816 116.199 15.516V15.936H119.895V20.108H116.199V31ZM126.531 31H121.743V15.936H126.531V31ZM136.306 31.28C131.826 31.28 128.718 28.06 128.718 23.468C128.718 18.988 131.966 15.656 136.306 15.656C140.45 15.656 143.53 18.456 143.95 22.656H138.854C138.77 21.004 137.79 19.968 136.334 19.968C134.654 19.968 133.674 21.256 133.674 23.468C133.674 25.736 134.626 26.996 136.334 26.996C137.818 26.996 138.742 25.988 138.854 24.28H143.95C143.53 28.592 140.59 31.28 136.306 31.28ZM151.562 12.436C151.562 14.004 150.303 15.152 148.483 15.152C146.663 15.152 145.403 14.004 145.403 12.436C145.403 10.84 146.663 9.692 148.483 9.692C150.303 9.692 151.562 10.84 151.562 12.436ZM150.919 31H146.131V15.936H150.919V31ZM162.88 31V29.544C161.816 30.748 160.5 31.28 158.568 31.28C155.432 31.28 153.332 29.404 153.332 26.548C153.332 23.608 155.712 22.012 160.024 22.012C160.836 22.012 161.592 22.068 162.236 22.18V21.452C162.236 20.136 161.48 19.408 160.136 19.408C158.82 19.408 158.036 20.136 157.868 21.452H153.556C153.836 17.952 156.44 15.656 160.164 15.656C164.308 15.656 166.744 17.896 166.744 21.704V31H162.88ZM157.84 26.408C157.84 27.388 158.512 27.976 159.688 27.976C161.284 27.976 162.236 27.22 162.236 25.988V25.036C161.508 24.896 160.948 24.84 160.332 24.84C158.708 24.84 157.84 25.372 157.84 26.408ZM174.572 31H169.728V10.896H174.572V31ZM189.248 31H183.956V10.896H189.248V31ZM197.567 23.076V31H192.779V15.936H197.175V17.756C198.351 16.44 199.751 15.656 201.655 15.656C204.623 15.656 206.723 17.644 206.723 21.312V31H201.935V22.908C201.935 21.004 201.263 19.968 199.807 19.968C198.631 19.968 197.567 20.808 197.567 23.076ZM219.703 26.296V30.468C218.639 31.056 217.631 31.28 216.287 31.28C212.899 31.28 210.911 29.264 210.911 25.82V20.108H208.111V15.936H210.911V11.512H215.699V15.936H219.815V20.108H215.699V24.7C215.699 26.156 216.315 26.828 217.631 26.828C218.415 26.828 219.171 26.632 219.703 26.296ZM228.485 31.252C223.837 31.252 220.729 28.116 220.729 23.44C220.729 18.932 223.977 15.656 228.457 15.656C233.441 15.656 236.773 19.716 235.905 24.672H225.685C225.937 26.576 226.833 27.528 228.373 27.528C229.717 27.528 230.613 26.968 231.033 25.876H235.821C234.897 29.32 232.237 31.252 228.485 31.252ZM228.345 19.184C226.917 19.184 226.077 19.996 225.741 21.676H230.781C230.725 20.164 229.773 19.184 228.345 19.184ZM243.068 31H238.224V10.896H243.068V31ZM251.053 31H246.209V10.896H251.053V31ZM259.625 12.436C259.625 14.004 258.365 15.152 256.545 15.152C254.725 15.152 253.465 14.004 253.465 12.436C253.465 10.84 254.725 9.692 256.545 9.692C258.365 9.692 259.625 10.84 259.625 12.436ZM258.981 31H254.193V15.936H258.981V31ZM268.843 36.684C264.671 36.684 261.815 34.388 261.647 30.888H266.295C266.463 32.232 267.331 32.96 268.815 32.96C270.607 32.96 271.531 32.008 271.531 30.188V28.424C270.747 29.544 269.319 30.216 267.695 30.216C264.027 30.216 261.171 27.052 261.171 22.936C261.171 18.68 263.803 15.656 267.499 15.656C269.403 15.656 270.775 16.216 271.923 17.476V15.936H276.319V30.132C276.319 34.192 273.463 36.684 268.843 36.684ZM266.015 22.964C266.015 24.84 267.051 26.044 268.675 26.044C270.355 26.044 271.475 24.784 271.475 22.936C271.475 21.06 270.355 19.828 268.675 19.828C267.051 19.828 266.015 21.06 266.015 22.964ZM286.263 31.252C281.615 31.252 278.507 28.116 278.507 23.44C278.507 18.932 281.755 15.656 286.235 15.656C291.219 15.656 294.551 19.716 293.683 24.672H283.463C283.715 26.576 284.611 27.528 286.151 27.528C287.495 27.528 288.391 26.968 288.811 25.876H293.599C292.675 29.32 290.015 31.252 286.263 31.252ZM286.123 19.184C284.695 19.184 283.855 19.996 283.519 21.676H288.559C288.503 20.164 287.551 19.184 286.123 19.184ZM300.79 23.076V31H296.002V15.936H300.398V17.756C301.574 16.44 302.974 15.656 304.878 15.656C307.846 15.656 309.946 17.644 309.946 21.312V31H305.158V22.908C305.158 21.004 304.486 19.968 303.03 19.968C301.854 19.968 300.79 20.808 300.79 23.076ZM319.591 31.28C315.111 31.28 312.003 28.06 312.003 23.468C312.003 18.988 315.251 15.656 319.591 15.656C323.735 15.656 326.815 18.456 327.235 22.656H322.139C322.055 21.004 321.075 19.968 319.619 19.968C317.939 19.968 316.959 21.256 316.959 23.468C316.959 25.736 317.911 26.996 319.619 26.996C321.103 26.996 322.027 25.988 322.139 24.28H327.235C326.815 28.592 323.875 31.28 319.591 31.28ZM336.22 31.252C331.572 31.252 328.464 28.116 328.464 23.44C328.464 18.932 331.712 15.656 336.192 15.656C341.176 15.656 344.508 19.716 343.64 24.672H333.42C333.672 26.576 334.568 27.528 336.108 27.528C337.452 27.528 338.348 26.968 338.768 25.876H343.556C342.632 29.32 339.972 31.252 336.22 31.252ZM336.08 19.184C334.652 19.184 333.812 19.996 333.476 21.676H338.516C338.46 20.164 337.508 19.184 336.08 19.184Z" fill="white"/>
<path d="M24.0786 0H26.8676V5.67112H24.0786V0Z" fill="white"/>
<path d="M31.5162 0H34.3052V5.67112H31.5162V0Z" fill="white"/>
<path d="M16.6412 0H19.4303V5.67112H16.6412V0Z" fill="white"/>
<path d="M9.2038 0H11.9928V5.67112H9.2038V0Z" fill="white"/>
<path d="M0 16.6414H5.67112V19.4304H0V16.6414Z" fill="white"/>
<path d="M0 9.20361H5.67112V11.9926H0V9.20361Z" fill="white"/>
<path d="M0 24.0789H5.67112V26.8679H0V24.0789Z" fill="white"/>
<path d="M0 31.5161H5.67112V34.3051H0V31.5161Z" fill="white"/>
<path d="M16.6412 37.8391H19.4303V43.5102H16.6412V37.8391Z" fill="white"/>
<path d="M9.2038 37.8391H11.9928V43.5102H9.2038V37.8391Z" fill="white"/>
<path d="M24.0786 37.8391H26.8676V43.5102H24.0786V37.8391Z" fill="white"/>
<path d="M31.5162 37.8391H34.3052V43.5102H31.5162V37.8391Z" fill="white"/>
<path d="M37.8394 24.0789H43.5105V26.8679H37.8394V24.0789Z" fill="white"/>
<path d="M37.8394 31.5161H43.5105V34.3051H37.8394V31.5161Z" fill="white"/>
<path d="M37.8394 16.6414H43.5105V19.4304H37.8394V16.6414Z" fill="white"/>
<path d="M37.8394 9.20361H43.5105V11.9926H37.8394V9.20361Z" fill="white"/>
<path d="M12.8745 30.7016H30.6343V12.8076H12.8745V30.7016ZM27.2389 26.5731H25.2012V20.0329H27.2389V26.5731ZM26.2199 16.9361C26.8698 16.9361 27.3603 17.4295 27.3642 18.085C27.3726 18.3917 27.2641 18.6771 27.0585 18.8898C26.8419 19.1139 26.5353 19.2372 26.195 19.2372C25.5603 19.2372 25.0633 18.7346 25.0633 18.0929C25.0631 17.4442 25.5713 16.9361 26.2199 16.9361ZM18.7737 17.182H20.7594L23.9642 26.573H21.8102L20.9068 23.9129H18.5794L17.701 26.573H15.5828L18.7737 17.182Z" fill="white"/>
<path d="M19.7455 20.3086C19.7434 20.3031 19.7416 20.2973 19.7397 20.2917L19.119 22.1258H20.3639L19.7455 20.3086Z" fill="white"/>
<path d="M5.6825 5.57812V37.9309H37.8266V5.57812H5.6825ZM33.4395 32.1039C33.4395 32.8785 32.8115 33.5065 32.037 33.5065H11.4719C10.6973 33.5065 10.0693 32.8785 10.0693 32.1039V11.4051C10.0693 10.6306 10.6973 10.0026 11.4719 10.0026H32.037C32.8115 10.0026 33.4395 10.6306 33.4395 11.4051L33.4397 32.1039H33.4395Z" fill="white"/>
</svg>
