<svg width="16" height="27" viewBox="0 0 16 27" fill="none" xmlns="http://www.w3.org/2000/svg">
<path d="M6.72549 26.9999H9.09159C9.62901 26.9999 10.0749 26.5542 10.0749 26.0024V23.6955L10.5663 23.5625C14.5775 22.5386 16 19.7399 16 17.6589C16 13.8028 12.7227 12.2005 9.51091 11.1366C6.49606 10.1261 5.53245 9.5143 5.53245 8.61009C5.53245 7.79908 6.45652 6.98775 8.5279 6.98775C10.8088 6.98775 12.2376 7.64582 12.847 7.93185C12.9782 7.99149 13.1156 8.02505 13.2532 8.02505C13.6333 8.02505 13.9806 7.79907 14.1446 7.4531L15.0819 5.43855C15.1932 5.20593 15.2065 4.92665 15.1145 4.68052C15.0292 4.42774 14.8459 4.22826 14.6099 4.11522C13.4825 3.57683 12.257 3.23075 10.8737 3.06483L10.297 2.99179V0.99065C10.297 0.445508 9.85766 0 9.31368 0H6.98692C6.4495 0 6.00364 0.445614 6.00364 0.99065V3.21776L5.51221 3.34421C2.27423 4.17527 0.340716 6.2827 0.340716 8.97569C0.340716 12.5262 3.80813 14.1082 7.20974 15.1921C10.3491 16.2294 10.7752 17.1268 10.7752 17.8715C10.7752 19.0217 9.30707 19.8592 7.2884 19.8592C5.57105 19.8592 3.72292 19.4136 2.34633 18.6691C2.20222 18.5893 2.0449 18.5494 1.88102 18.5494C1.77624 18.5494 1.67115 18.5696 1.56637 18.6027C1.31093 18.6959 1.10106 18.8887 0.989624 19.1411L0.0850116 21.1821C-0.118301 21.6541 0.0523382 22.1993 0.497777 22.452C1.64462 23.1235 3.34875 23.6221 5.15797 23.8283L5.74128 23.8883V26.0025C5.74189 26.5545 6.18118 27 6.72516 27L6.72549 26.9999Z" fill="white"/>
</svg>
