<svg width="15" height="18" viewBox="0 0 15 18" fill="none" xmlns="http://www.w3.org/2000/svg">
<path d="M12.2695 15.4011L12.2695 15.4012C12.1251 15.5228 11.9165 15.6 11.6875 15.6H3.37505C3.14602 15.6 2.93745 15.5228 2.79305 15.4012L2.79301 15.4011C2.65055 15.2812 2.58753 15.1347 2.58753 15V2.99995C2.58753 2.8652 2.65056 2.71877 2.79301 2.5988L2.79305 2.59876C2.93745 2.47713 3.14602 2.39993 3.37505 2.39993H11.6875C11.9165 2.39993 12.1251 2.47713 12.2695 2.59877L12.2695 2.5988C12.412 2.71876 12.475 2.8652 12.475 2.99995V15C12.475 15.1347 12.412 15.2812 12.2695 15.4011ZM11.6875 0.6H3.37505C2.65917 0.6 1.96162 0.838868 1.43801 1.2798C0.912378 1.72244 0.6 2.33907 0.6 2.99998V15C0.6 15.6609 0.912378 16.2776 1.43801 16.7202C1.96162 17.1611 2.65917 17.4 3.37505 17.4H11.6875C12.4033 17.4 13.1009 17.1611 13.6245 16.7202C14.1501 16.2776 14.4625 15.6609 14.4625 15V2.99998C14.4625 2.33907 14.1501 1.72244 13.6245 1.2798C13.1009 0.838868 12.4033 0.6 11.6875 0.6Z" fill="#FFBB38" stroke="#FFBB38" stroke-width="0.8"/>
<path d="M7.5314 15.9C8.34099 15.9 9.11893 15.3348 9.11893 14.5C9.11893 13.6651 8.341 13.1 7.5314 13.1C6.7218 13.1 5.94387 13.6651 5.94387 14.5C5.94387 15.3348 6.72181 15.9 7.5314 15.9Z" fill="#FFBB38" stroke="#FFBB38" stroke-width="0.8"/>
<path d="M6.04678 2.1H9.01553C9.33941 2.1 9.66827 2.24467 9.85961 2.52375L6.04678 2.1ZM6.04678 2.1C6.04676 2.1 6.04673 2.1 6.04671 2.1M6.04678 2.1H6.04671M6.04671 2.1C5.72286 2.10002 5.39403 2.24467 5.20269 2.52375L6.04671 2.1ZM9.01553 3.89996H6.04678C5.7229 3.89996 5.39404 3.7553 5.20269 3.47622L9.01553 3.89996ZM9.01553 3.89996C9.01555 3.89996 9.01557 3.89996 9.0156 3.89996M9.01553 3.89996H9.0156M9.0156 3.89996C9.33944 3.89994 9.66828 3.75529 9.85961 3.47622M9.0156 3.89996L9.85961 3.47622M9.85961 3.47622C10.0592 3.18517 10.0592 2.81485 9.85964 2.52379L9.85961 3.47622ZM5.20266 2.5238C5.00311 2.81484 5.00312 3.18513 5.20267 3.47617L5.20266 2.5238Z" fill="#FFBB38" stroke="#FFBB38" stroke-width="0.8"/>
</svg>
