<svg width="67" height="65" viewBox="0 0 67 65" fill="none" xmlns="http://www.w3.org/2000/svg">
<mask id="path-1-outside-1_40_3555" maskUnits="userSpaceOnUse" x="0" y="0" width="67" height="65" fill="black">
<rect fill="white" width="67" height="65"/>
<path fill-rule="evenodd" clip-rule="evenodd" d="M63.0428 52.6483H57.0057C56.6038 52.6486 56.218 52.808 55.9324 53.0918C55.6468 53.3758 55.4844 53.7611 55.4804 54.1643L55.4347 59.3636L48.0904 53.0188C47.8131 52.7795 47.4595 52.648 47.0938 52.6483H28.4254V26.9848H63.0426L63.0428 52.6483ZM25.3727 26.9264C25.3738 26.1307 25.6891 25.368 26.2501 24.8052C26.811 24.2426 27.5714 23.9259 28.3648 23.9248H38.6675V4.06007H4.05257V29.7223H10.0868H10.0866C10.4892 29.7223 10.8752 29.8818 11.1611 30.166C11.4469 30.4502 11.6093 30.8361 11.6126 31.2398L11.6583 36.4385L19.0037 30.0937C19.2803 29.8537 19.634 29.7218 19.9997 29.7222H25.3733L25.3727 26.9264ZM63.1012 23.9248H41.7182V4.0015C41.7178 3.20589 41.4027 2.44295 40.8419 1.8802C40.2812 1.31739 39.5208 1.00092 38.7274 1H3.99342C3.19991 1.00045 2.43903 1.31695 1.87763 1.87951C1.31647 2.44231 1.00092 3.20543 1 4.0015V29.7821C1.00089 30.5777 1.31647 31.3404 1.8774 31.903C2.43832 32.4655 3.19876 32.7821 3.99211 32.7829H8.57307L8.63525 39.7651C8.63905 40.1561 8.79181 40.5307 9.06221 40.8122C9.33262 41.0935 9.70033 41.2606 10.0897 41.2788C10.4788 41.2969 10.8604 41.1648 11.1558 40.9098L20.5642 32.786H25.3728V52.7064C25.3737 53.502 25.6891 54.265 26.25 54.8275C26.8109 55.3903 27.5716 55.7068 28.3649 55.708H46.5284L55.9356 63.8318H55.9354C56.2127 64.0715 56.5668 64.2034 56.9329 64.203C57.1499 64.2025 57.3641 64.1559 57.562 64.0668C57.826 63.9457 58.0498 63.7517 58.208 63.5076C58.3659 63.2636 58.4515 62.9796 58.4544 62.6886L58.5209 55.7076H63.1027C63.8956 55.7062 64.6555 55.3895 65.2156 54.8267C65.7756 54.2639 66.09 53.501 66.0896 52.706V26.926C66.0899 26.1311 65.7754 25.3682 65.2153 24.8056C64.6553 24.2428 63.8955 23.9259 63.1027 23.9245L63.1012 23.9248ZM39.0014 35.2684C38.3034 36.6618 38.9292 38.5693 40.8602 40.9405H40.86C42.3317 42.6568 43.9635 44.2276 45.7333 45.632C47.5033 44.2281 49.1349 42.6569 50.6057 40.9405C52.5368 38.5693 53.1623 36.6609 52.4645 35.2684C52.2183 34.778 51.8463 34.3626 51.3867 34.0645C50.9271 33.7663 50.3968 33.5965 49.85 33.5723C48.7031 33.5367 47.6219 34.1093 47.0048 35.0797C46.7219 35.5066 46.2446 35.7632 45.7333 35.7632C45.2221 35.7632 44.745 35.5065 44.4618 35.0797C43.8707 34.1495 42.8511 33.5817 41.7511 33.5703H41.6167C41.0698 33.5945 40.5393 33.7643 40.0797 34.0624C39.62 34.3606 39.2479 34.776 39.0014 35.2661L39.0014 35.2684ZM44.7872 48.7912V48.7909C45.0571 49.0065 45.3919 49.124 45.7368 49.124C46.0819 49.124 46.4167 49.0065 46.6865 48.7909C48.9772 47.0395 51.0834 45.0579 52.9721 42.8774C55.7356 39.4865 56.4826 36.4631 55.1939 33.894C54.344 32.2114 52.7742 31.0107 50.9315 30.634C49.0887 30.2572 47.1753 30.7459 45.7368 31.9608C44.5503 30.9635 43.0343 30.448 41.4877 30.5158C40.3987 30.5638 39.3421 30.902 38.427 31.4958C37.5115 32.0895 36.7705 32.9172 36.2805 33.8939C34.9909 36.4632 35.7388 39.4865 38.5008 42.8773C40.3902 45.0583 42.4969 47.0399 44.7881 48.7909L44.7872 48.7912ZM18.6124 19.0064L19.7421 14.7783L24.1067 14.7781L22.9764 19.0062L18.6124 19.0064ZM29.7545 19.0064C30.2996 19.0064 30.803 19.2978 31.0754 19.7713C31.3481 20.2446 31.3481 20.8276 31.0754 21.3009C30.803 21.7742 30.2995 22.0658 29.7545 22.0658H25.3183L24.4221 25.4222C24.2812 25.95 23.8701 26.3625 23.3436 26.5041C22.8174 26.6458 22.2555 26.4949 21.8702 26.1084C21.4846 25.7221 21.3341 25.1586 21.475 24.6308L22.1591 22.0674H17.7945L16.8983 25.4222C16.7574 25.95 16.3463 26.3625 15.8198 26.5041C15.2936 26.6459 14.7317 26.4949 14.3464 26.1084C13.9608 25.7221 13.8103 25.1587 13.9512 24.6309L14.637 22.0674H12.9647C12.4198 22.0674 11.9162 21.7758 11.6438 21.3025C11.3713 20.8292 11.3713 20.246 11.6438 19.7727C11.9162 19.2994 12.4199 19.0078 12.9647 19.0078H15.454L16.583 14.7797H12.967C12.4219 14.7797 11.9185 14.4881 11.646 14.0148C11.3736 13.5415 11.3736 12.9583 11.646 12.485C11.9185 12.0117 12.4219 11.7201 12.967 11.7201H17.4025L18.2987 8.36526C18.4396 7.83701 18.8509 7.42425 19.3774 7.2827C19.9042 7.14093 20.4662 7.29168 20.8518 7.67839C21.2376 8.06488 21.3883 8.62836 21.2472 9.1566L20.5615 11.7201H24.9241L25.8203 8.36524C25.9612 7.83743 26.3723 7.42492 26.8988 7.28337C27.4253 7.1416 27.9869 7.29257 28.3724 7.67883C28.7578 8.06532 28.9083 8.6288 28.7674 9.15658L28.0833 11.7201H29.7546C30.2997 11.7201 30.8031 12.0117 31.0755 12.4849C31.3482 12.9582 31.3482 13.5414 31.0755 14.0148C30.8031 14.4881 30.2996 14.7797 29.7546 14.7797H27.266L26.1356 19.0077L29.7545 19.0064Z"/>
</mask>
<path fill-rule="evenodd" clip-rule="evenodd" d="M63.0428 52.6483H57.0057C56.6038 52.6486 56.218 52.808 55.9324 53.0918C55.6468 53.3758 55.4844 53.7611 55.4804 54.1643L55.4347 59.3636L48.0904 53.0188C47.8131 52.7795 47.4595 52.648 47.0938 52.6483H28.4254V26.9848H63.0426L63.0428 52.6483ZM25.3727 26.9264C25.3738 26.1307 25.6891 25.368 26.2501 24.8052C26.811 24.2426 27.5714 23.9259 28.3648 23.9248H38.6675V4.06007H4.05257V29.7223H10.0868H10.0866C10.4892 29.7223 10.8752 29.8818 11.1611 30.166C11.4469 30.4502 11.6093 30.8361 11.6126 31.2398L11.6583 36.4385L19.0037 30.0937C19.2803 29.8537 19.634 29.7218 19.9997 29.7222H25.3733L25.3727 26.9264ZM63.1012 23.9248H41.7182V4.0015C41.7178 3.20589 41.4027 2.44295 40.8419 1.8802C40.2812 1.31739 39.5208 1.00092 38.7274 1H3.99342C3.19991 1.00045 2.43903 1.31695 1.87763 1.87951C1.31647 2.44231 1.00092 3.20543 1 4.0015V29.7821C1.00089 30.5777 1.31647 31.3404 1.8774 31.903C2.43832 32.4655 3.19876 32.7821 3.99211 32.7829H8.57307L8.63525 39.7651C8.63905 40.1561 8.79181 40.5307 9.06221 40.8122C9.33262 41.0935 9.70033 41.2606 10.0897 41.2788C10.4788 41.2969 10.8604 41.1648 11.1558 40.9098L20.5642 32.786H25.3728V52.7064C25.3737 53.502 25.6891 54.265 26.25 54.8275C26.8109 55.3903 27.5716 55.7068 28.3649 55.708H46.5284L55.9356 63.8318H55.9354C56.2127 64.0715 56.5668 64.2034 56.9329 64.203C57.1499 64.2025 57.3641 64.1559 57.562 64.0668C57.826 63.9457 58.0498 63.7517 58.208 63.5076C58.3659 63.2636 58.4515 62.9796 58.4544 62.6886L58.5209 55.7076H63.1027C63.8956 55.7062 64.6555 55.3895 65.2156 54.8267C65.7756 54.2639 66.09 53.501 66.0896 52.706V26.926C66.0899 26.1311 65.7754 25.3682 65.2153 24.8056C64.6553 24.2428 63.8955 23.9259 63.1027 23.9245L63.1012 23.9248ZM39.0014 35.2684C38.3034 36.6618 38.9292 38.5693 40.8602 40.9405H40.86C42.3317 42.6568 43.9635 44.2276 45.7333 45.632C47.5033 44.2281 49.1349 42.6569 50.6057 40.9405C52.5368 38.5693 53.1623 36.6609 52.4645 35.2684C52.2183 34.778 51.8463 34.3626 51.3867 34.0645C50.9271 33.7663 50.3968 33.5965 49.85 33.5723C48.7031 33.5367 47.6219 34.1093 47.0048 35.0797C46.7219 35.5066 46.2446 35.7632 45.7333 35.7632C45.2221 35.7632 44.745 35.5065 44.4618 35.0797C43.8707 34.1495 42.8511 33.5817 41.7511 33.5703H41.6167C41.0698 33.5945 40.5393 33.7643 40.0797 34.0624C39.62 34.3606 39.2479 34.776 39.0014 35.2661L39.0014 35.2684ZM44.7872 48.7912V48.7909C45.0571 49.0065 45.3919 49.124 45.7368 49.124C46.0819 49.124 46.4167 49.0065 46.6865 48.7909C48.9772 47.0395 51.0834 45.0579 52.9721 42.8774C55.7356 39.4865 56.4826 36.4631 55.1939 33.894C54.344 32.2114 52.7742 31.0107 50.9315 30.634C49.0887 30.2572 47.1753 30.7459 45.7368 31.9608C44.5503 30.9635 43.0343 30.448 41.4877 30.5158C40.3987 30.5638 39.3421 30.902 38.427 31.4958C37.5115 32.0895 36.7705 32.9172 36.2805 33.8939C34.9909 36.4632 35.7388 39.4865 38.5008 42.8773C40.3902 45.0583 42.4969 47.0399 44.7881 48.7909L44.7872 48.7912ZM18.6124 19.0064L19.7421 14.7783L24.1067 14.7781L22.9764 19.0062L18.6124 19.0064ZM29.7545 19.0064C30.2996 19.0064 30.803 19.2978 31.0754 19.7713C31.3481 20.2446 31.3481 20.8276 31.0754 21.3009C30.803 21.7742 30.2995 22.0658 29.7545 22.0658H25.3183L24.4221 25.4222C24.2812 25.95 23.8701 26.3625 23.3436 26.5041C22.8174 26.6458 22.2555 26.4949 21.8702 26.1084C21.4846 25.7221 21.3341 25.1586 21.475 24.6308L22.1591 22.0674H17.7945L16.8983 25.4222C16.7574 25.95 16.3463 26.3625 15.8198 26.5041C15.2936 26.6459 14.7317 26.4949 14.3464 26.1084C13.9608 25.7221 13.8103 25.1587 13.9512 24.6309L14.637 22.0674H12.9647C12.4198 22.0674 11.9162 21.7758 11.6438 21.3025C11.3713 20.8292 11.3713 20.246 11.6438 19.7727C11.9162 19.2994 12.4199 19.0078 12.9647 19.0078H15.454L16.583 14.7797H12.967C12.4219 14.7797 11.9185 14.4881 11.646 14.0148C11.3736 13.5415 11.3736 12.9583 11.646 12.485C11.9185 12.0117 12.4219 11.7201 12.967 11.7201H17.4025L18.2987 8.36526C18.4396 7.83701 18.8509 7.42425 19.3774 7.2827C19.9042 7.14093 20.4662 7.29168 20.8518 7.67839C21.2376 8.06488 21.3883 8.62836 21.2472 9.1566L20.5615 11.7201H24.9241L25.8203 8.36524C25.9612 7.83743 26.3723 7.42492 26.8988 7.28337C27.4253 7.1416 27.9869 7.29257 28.3724 7.67883C28.7578 8.06532 28.9083 8.6288 28.7674 9.15658L28.0833 11.7201H29.7546C30.2997 11.7201 30.8031 12.0117 31.0755 12.4849C31.3482 12.9582 31.3482 13.5414 31.0755 14.0148C30.8031 14.4881 30.2996 14.7797 29.7546 14.7797H27.266L26.1356 19.0077L29.7545 19.0064Z" fill="#FFCF23"/>
<path fill-rule="evenodd" clip-rule="evenodd" d="M63.0428 52.6483H57.0057C56.6038 52.6486 56.218 52.808 55.9324 53.0918C55.6468 53.3758 55.4844 53.7611 55.4804 54.1643L55.4347 59.3636L48.0904 53.0188C47.8131 52.7795 47.4595 52.648 47.0938 52.6483H28.4254V26.9848H63.0426L63.0428 52.6483ZM25.3727 26.9264C25.3738 26.1307 25.6891 25.368 26.2501 24.8052C26.811 24.2426 27.5714 23.9259 28.3648 23.9248H38.6675V4.06007H4.05257V29.7223H10.0868H10.0866C10.4892 29.7223 10.8752 29.8818 11.1611 30.166C11.4469 30.4502 11.6093 30.8361 11.6126 31.2398L11.6583 36.4385L19.0037 30.0937C19.2803 29.8537 19.634 29.7218 19.9997 29.7222H25.3733L25.3727 26.9264ZM63.1012 23.9248H41.7182V4.0015C41.7178 3.20589 41.4027 2.44295 40.8419 1.8802C40.2812 1.31739 39.5208 1.00092 38.7274 1H3.99342C3.19991 1.00045 2.43903 1.31695 1.87763 1.87951C1.31647 2.44231 1.00092 3.20543 1 4.0015V29.7821C1.00089 30.5777 1.31647 31.3404 1.8774 31.903C2.43832 32.4655 3.19876 32.7821 3.99211 32.7829H8.57307L8.63525 39.7651C8.63905 40.1561 8.79181 40.5307 9.06221 40.8122C9.33262 41.0935 9.70033 41.2606 10.0897 41.2788C10.4788 41.2969 10.8604 41.1648 11.1558 40.9098L20.5642 32.786H25.3728V52.7064C25.3737 53.502 25.6891 54.265 26.25 54.8275C26.8109 55.3903 27.5716 55.7068 28.3649 55.708H46.5284L55.9356 63.8318H55.9354C56.2127 64.0715 56.5668 64.2034 56.9329 64.203C57.1499 64.2025 57.3641 64.1559 57.562 64.0668C57.826 63.9457 58.0498 63.7517 58.208 63.5076C58.3659 63.2636 58.4515 62.9796 58.4544 62.6886L58.5209 55.7076H63.1027C63.8956 55.7062 64.6555 55.3895 65.2156 54.8267C65.7756 54.2639 66.09 53.501 66.0896 52.706V26.926C66.0899 26.1311 65.7754 25.3682 65.2153 24.8056C64.6553 24.2428 63.8955 23.9259 63.1027 23.9245L63.1012 23.9248ZM39.0014 35.2684C38.3034 36.6618 38.9292 38.5693 40.8602 40.9405H40.86C42.3317 42.6568 43.9635 44.2276 45.7333 45.632C47.5033 44.2281 49.1349 42.6569 50.6057 40.9405C52.5368 38.5693 53.1623 36.6609 52.4645 35.2684C52.2183 34.778 51.8463 34.3626 51.3867 34.0645C50.9271 33.7663 50.3968 33.5965 49.85 33.5723C48.7031 33.5367 47.6219 34.1093 47.0048 35.0797C46.7219 35.5066 46.2446 35.7632 45.7333 35.7632C45.2221 35.7632 44.745 35.5065 44.4618 35.0797C43.8707 34.1495 42.8511 33.5817 41.7511 33.5703H41.6167C41.0698 33.5945 40.5393 33.7643 40.0797 34.0624C39.62 34.3606 39.2479 34.776 39.0014 35.2661L39.0014 35.2684ZM44.7872 48.7912V48.7909C45.0571 49.0065 45.3919 49.124 45.7368 49.124C46.0819 49.124 46.4167 49.0065 46.6865 48.7909C48.9772 47.0395 51.0834 45.0579 52.9721 42.8774C55.7356 39.4865 56.4826 36.4631 55.1939 33.894C54.344 32.2114 52.7742 31.0107 50.9315 30.634C49.0887 30.2572 47.1753 30.7459 45.7368 31.9608C44.5503 30.9635 43.0343 30.448 41.4877 30.5158C40.3987 30.5638 39.3421 30.902 38.427 31.4958C37.5115 32.0895 36.7705 32.9172 36.2805 33.8939C34.9909 36.4632 35.7388 39.4865 38.5008 42.8773C40.3902 45.0583 42.4969 47.0399 44.7881 48.7909L44.7872 48.7912ZM18.6124 19.0064L19.7421 14.7783L24.1067 14.7781L22.9764 19.0062L18.6124 19.0064ZM29.7545 19.0064C30.2996 19.0064 30.803 19.2978 31.0754 19.7713C31.3481 20.2446 31.3481 20.8276 31.0754 21.3009C30.803 21.7742 30.2995 22.0658 29.7545 22.0658H25.3183L24.4221 25.4222C24.2812 25.95 23.8701 26.3625 23.3436 26.5041C22.8174 26.6458 22.2555 26.4949 21.8702 26.1084C21.4846 25.7221 21.3341 25.1586 21.475 24.6308L22.1591 22.0674H17.7945L16.8983 25.4222C16.7574 25.95 16.3463 26.3625 15.8198 26.5041C15.2936 26.6459 14.7317 26.4949 14.3464 26.1084C13.9608 25.7221 13.8103 25.1587 13.9512 24.6309L14.637 22.0674H12.9647C12.4198 22.0674 11.9162 21.7758 11.6438 21.3025C11.3713 20.8292 11.3713 20.246 11.6438 19.7727C11.9162 19.2994 12.4199 19.0078 12.9647 19.0078H15.454L16.583 14.7797H12.967C12.4219 14.7797 11.9185 14.4881 11.646 14.0148C11.3736 13.5415 11.3736 12.9583 11.646 12.485C11.9185 12.0117 12.4219 11.7201 12.967 11.7201H17.4025L18.2987 8.36526C18.4396 7.83701 18.8509 7.42425 19.3774 7.2827C19.9042 7.14093 20.4662 7.29168 20.8518 7.67839C21.2376 8.06488 21.3883 8.62836 21.2472 9.1566L20.5615 11.7201H24.9241L25.8203 8.36524C25.9612 7.83743 26.3723 7.42492 26.8988 7.28337C27.4253 7.1416 27.9869 7.29257 28.3724 7.67883C28.7578 8.06532 28.9083 8.6288 28.7674 9.15658L28.0833 11.7201H29.7546C30.2997 11.7201 30.8031 12.0117 31.0755 12.4849C31.3482 12.9582 31.3482 13.5414 31.0755 14.0148C30.8031 14.4881 30.2996 14.7797 29.7546 14.7797H27.266L26.1356 19.0077L29.7545 19.0064Z" stroke="#FFCF23" stroke-width="0.4" mask="url(#path-1-outside-1_40_3555)"/>
</svg>
