<svg width="64" height="60" viewBox="0 0 64 60" fill="none" xmlns="http://www.w3.org/2000/svg">
<path d="M59.7169 29.843V29.8377C59.7169 21.9448 56.5875 14.3736 51.0136 8.78176C45.4397 3.18995 37.8763 0.0324389 29.978 0.00145249C29.9378 0.000484163 29.8981 0 29.8583 0C29.8188 0 29.7789 0.000484163 29.7387 0.00145249H29.7389C21.8338 0.0326812 14.2642 3.19547 8.68901 8.79602C3.11395 14.3968 -0.011133 21.9783 2.98025e-05 29.8779C0.0111926 37.7776 3.15581 45.3507 8.74544 50.9363C11.4976 53.7013 14.7684 55.8963 18.3709 57.3957C21.9733 58.8952 25.8363 59.6696 29.7389 59.6742C29.7791 59.6752 29.8188 59.6757 29.8586 59.6757H62.0644C62.6293 59.6757 63.1659 59.4292 63.5336 59.0007C63.9014 58.5722 64.0634 58.0046 63.9774 57.4468L59.7169 29.843ZM28.3513 55.0077C27.361 54.049 26.2062 52.1577 25.1442 48.959C24.3138 46.3724 23.704 43.7199 23.322 41.0302H30.5084L28.3513 55.0077ZM32.2581 29.6961L31.1057 37.162H22.857C22.6409 34.8107 22.529 32.3518 22.529 29.8374C22.529 27.3243 22.6407 24.867 22.8568 22.5166H36.8568C37.0212 24.3084 37.1247 26.1628 37.1646 28.0566H34.1707C33.7085 28.0566 33.2616 28.222 32.9108 28.5226C32.5601 28.8233 32.3285 29.2396 32.258 29.696L32.2581 29.6961ZM3.87112 29.8375C3.86967 27.3596 4.22432 24.8941 4.92415 22.5166H18.9725C18.7656 24.8801 18.6581 27.3353 18.6581 29.8375C18.6581 32.3409 18.7656 34.7972 18.9727 37.162H4.92501C4.22442 34.7836 3.86951 32.317 3.87099 29.8375H3.87112ZM29.8587 3.86776C30.9844 3.86776 32.8938 5.66113 34.5711 10.7151H34.5709C35.4013 13.3032 36.0108 15.9572 36.3926 18.6477H23.3216C23.7036 15.9569 24.3133 13.3032 25.1443 10.7151C26.8224 5.6607 28.7327 3.86714 29.8587 3.86714L29.8587 3.86776ZM41.037 28.0564C40.9984 26.1696 40.8991 24.3162 40.7417 22.5163H54.7931C55.3246 24.3215 55.6567 26.1792 55.7839 28.0564H41.037ZM53.3073 18.6477H40.3021C39.8893 15.5427 39.2011 12.4806 38.2456 9.49737C37.7081 7.80886 37.0003 6.17966 36.1328 4.63418C39.8496 5.56668 43.3154 7.30552 46.2835 9.7276C49.2517 12.1496 51.6497 15.195 53.3073 18.6474V18.6477ZM23.5833 4.63436V4.63461C22.7159 6.17959 22.0078 7.80879 21.47 9.49706C20.5141 12.4802 19.8253 15.5426 19.4121 18.6473H6.40991C8.0674 15.195 10.4654 12.1495 13.4338 9.7276C16.4018 7.30582 19.8673 5.56693 23.5838 4.63442L23.5833 4.63436ZM6.41127 41.0298H19.4122C19.8255 44.1335 20.514 47.1946 21.4696 50.1763C22.0074 51.8646 22.7155 53.4938 23.583 55.0388C19.8671 54.1065 16.4022 52.3681 13.4348 49.9469C10.4673 47.5256 8.06901 44.4812 6.41152 41.0296L6.41127 41.0298ZM32.1446 55.8066L35.8306 31.9247H56.1215L59.8075 55.8066H32.1446ZM53.4586 37.0598V42.9811C53.4574 44.4072 52.8903 45.7747 51.8813 46.7834C50.8726 47.7922 49.5047 48.3599 48.0773 48.3621H43.8748C42.4472 48.3604 41.0785 47.7929 40.0691 46.7842C39.0594 45.7755 38.4915 44.4077 38.4901 42.9811V37.0598C38.4901 36.3687 38.8588 35.73 39.4577 35.3846C40.0568 35.0392 40.7944 35.0392 41.3932 35.3846C41.9921 35.73 42.361 36.3687 42.361 37.0598V42.9811C42.3615 43.382 42.5211 43.7667 42.805 44.0501C43.0887 44.3336 43.4734 44.4931 43.8748 44.4936H48.0773C48.4782 44.4927 48.8624 44.3329 49.1454 44.0494C49.4286 43.7659 49.5875 43.3815 49.5875 42.9811V37.0598C49.5875 36.3687 49.9565 35.73 50.5553 35.3846C51.1541 35.0392 51.892 35.0392 52.4908 35.3846C53.0897 35.7301 53.4586 36.3687 53.4586 37.0598Z" fill="#FFCF23"/>
</svg>
