<svg width="59" height="56" viewBox="0 0 59 56" fill="none" xmlns="http://www.w3.org/2000/svg">
<path d="M30.334 29.5124L43.1127 16.7337H35.8549L33.8077 20.1455C33.4356 20.7659 32.7533 21.138 32.0707 21.138C31.3264 21.138 30.7061 20.7658 30.3337 20.1455L26.8599 14.2524L25.9914 15.7413C25.6193 16.3616 24.937 16.7337 24.2544 16.7337H15.818L28.5967 29.5124C29.031 29.9466 29.8373 29.9466 30.3337 29.5124H30.334Z" fill="#FFCF23"/>
<path d="M52.9138 10.6545C52.9138 9.53779 51.9834 8.60731 50.8667 8.60731H46.8965C46.8345 5.87803 45.4699 3.21048 42.8644 1.47357C39.2666 -0.883563 34.428 -0.201205 31.3884 2.83839L29.4655 4.76134L27.3563 2.65219C23.3862 -1.31795 16.6247 -0.821582 13.337 4.07904C12.4065 5.44365 11.9723 6.99446 11.9101 8.54527H8.00195C6.88526 8.54527 5.95477 9.47576 5.95477 10.5924C5.95477 11.7091 6.88526 12.6396 8.00195 12.6396H23.0758L25.123 9.22784C25.8673 7.98719 27.9145 7.98719 28.5968 9.22784L32.0706 15.1209L32.9391 13.6321C33.3112 13.0118 33.9935 12.6396 34.6761 12.6396H50.8666C52.0452 12.6394 52.9137 11.7711 52.9137 10.6545H52.9138Z" fill="#FFCF23"/>
<path d="M46.4625 26.2246H43.8572C42.6166 26.2246 41.6241 27.2171 41.6241 28.4577V37.3904H17.3073V28.4577C17.3073 27.2171 16.3149 26.2246 15.0742 26.2246H12.469C11.2283 26.2246 10.2358 27.2171 10.2358 28.4577V53.767C10.2358 55.0076 11.2283 56.0001 12.469 56.0001H15.0742C16.3149 56.0001 17.3073 55.0076 17.3073 53.767V44.8343H41.6241V53.767C41.6241 55.0076 42.6166 56.0001 43.8572 56.0001H46.4625C47.7031 56.0001 48.6956 55.0076 48.6956 53.767L48.6958 28.4577C48.6958 27.2171 47.7033 26.2246 46.4627 26.2246H46.4625Z" fill="#FFCF23"/>
<path d="M4.83859 31.2492H2.23312C0.992468 31.2492 0 32.2416 0 33.4823V48.6803C0 49.9209 0.992468 50.9134 2.23312 50.9134H4.83838C6.07903 50.9134 7.0715 49.9209 7.0715 48.6803L7.0717 33.5443C7.0717 32.3037 6.07923 31.249 4.83858 31.249L4.83859 31.2492Z" fill="#FFCF23"/>
<path d="M56.6979 31.2492H54.0926C52.852 31.2492 51.8595 32.2416 51.8595 33.4823V48.6803C51.8595 49.9209 52.852 50.9134 54.0926 50.9134H56.6979C57.9385 50.9134 58.931 49.9209 58.931 48.6803V33.5443C58.931 32.3037 57.9385 31.249 56.6979 31.249V31.2492Z" fill="#FFCF23"/>
</svg>
