<svg width="63" height="63" viewBox="0 0 63 63" fill="none" xmlns="http://www.w3.org/2000/svg">
<path d="M30.0748 30.076C27.1365 30.1294 24.7704 32.5284 24.7704 35.4795C24.7704 38.4641 27.1903 40.884 30.1748 40.884H32.827C34.2371 40.884 35.3791 42.026 35.3791 43.4361C35.3791 44.8461 34.2371 45.9883 32.827 45.9883H30.1748C28.7646 45.9883 27.6226 44.846 27.6226 43.4361C27.6226 42.6489 26.9837 42.0099 26.1967 42.0099C25.4094 42.0099 24.7704 42.6489 24.7704 43.4361C24.7704 46.3872 27.1365 48.7863 30.0749 48.8397V50.0665C30.0749 50.8538 30.7138 51.4927 31.5008 51.4927C32.2881 51.4927 32.927 50.8538 32.927 50.0665V48.8397C35.8653 48.7863 38.2315 46.3872 38.2315 43.4361C38.2315 40.4514 35.8115 38.0317 32.827 38.0317H30.1749C28.7647 38.0317 27.6227 36.8897 27.6227 35.4795C27.6227 34.0694 28.7647 32.9274 30.1749 32.9274H32.827C34.2372 32.9274 35.3792 34.0694 35.3792 35.4795C35.3792 36.2668 36.0182 36.9055 36.8051 36.9055C37.5924 36.9055 38.2314 36.2668 38.2314 35.4795C38.2314 32.5285 35.8653 30.1294 32.927 30.076V28.8489C32.927 28.0619 32.288 27.4229 31.5007 27.4229C30.7137 27.4229 30.0748 28.0619 30.0748 28.8489V30.076Z" fill="#FFCF23" stroke="#FFCF23" stroke-width="0.2"/>
<path d="M0.900564 20.8917C0.900564 22.8215 2.24218 24.4387 4.04284 24.8625L6.20445 29.1847V49.7287L4.0971 53.9437H3.91774C3.11802 53.9437 2.35007 54.2618 1.78355 54.8267L1.78334 54.8269C1.21855 55.3934 0.9 56.1613 0.9 56.9611V59.0826C0.9 59.8823 1.21852 60.6503 1.78334 61.2168L1.78355 61.217C2.35006 61.7818 3.11799 62.1 3.91774 62.1H59.0828C59.8826 62.1 60.6505 61.7818 61.217 61.217L61.2172 61.2168C61.782 60.6503 62.1002 59.8823 62.1002 59.0826V56.9611C62.1002 56.1613 61.7821 55.3934 61.2172 54.8269L61.217 54.8267C60.6505 54.2619 59.8826 53.9437 59.0828 53.9437H58.9035L56.7958 49.7287V29.1847L58.9577 24.8626C60.7586 24.4391 62.1002 22.8217 62.1002 20.8917V18.2395C62.1002 16.6951 61.2277 15.2826 59.8464 14.5921L33.3248 1.33131C32.1763 0.756237 30.8248 0.756228 29.6763 1.33129C29.6763 1.3313 29.6763 1.33131 29.6763 1.33131L3.15462 14.5921C1.77342 15.2826 0.900564 16.6951 0.900564 18.2395V20.8917ZM59.2002 59.198L59.1983 59.1999C59.1688 59.2302 59.1271 59.2476 59.0827 59.2476H3.91764C3.87325 59.2476 3.83161 59.2302 3.80207 59.1999L3.8002 59.198C3.76964 59.1682 3.75212 59.1265 3.75212 59.0824V56.9609C3.75212 56.9168 3.76964 56.8751 3.8002 56.8453L3.80023 56.8453L3.80207 56.8434C3.83182 56.8129 3.87356 56.7954 3.91764 56.7954H59.0827C59.1268 56.7954 59.1686 56.8129 59.1983 56.8435L59.2002 56.8453C59.2305 56.8749 59.2479 56.9165 59.2479 56.9609V59.0824C59.2479 59.1268 59.2305 59.1685 59.2002 59.198ZM4.9777 22.1164C4.31039 22.1164 3.76696 21.5824 3.75177 20.9191V20.8905V18.2384C3.75177 17.7735 4.01427 17.3495 4.42981 17.1421L4.42987 17.142L30.9516 3.88119L30.9518 3.8811C31.2959 3.70809 31.7029 3.70808 32.0474 3.88111L32.0475 3.88119L58.5692 17.142L58.5693 17.1421C58.9848 17.3495 59.247 17.7735 59.247 18.2384V20.8905C59.247 21.567 58.6979 22.1164 58.0211 22.1164H4.9777ZM19.6651 49.7281V29.1841L21.7725 24.9692H41.2277L43.3353 29.1841V49.7281L41.2277 53.9431H21.7725L19.6651 49.7281ZM8.51187 51.4909H17.3579L18.5838 53.9431H7.28563L8.51187 51.4909ZM45.6421 51.4909H54.4881L55.7143 53.9431H44.4162L45.6421 51.4909ZM16.8126 30.273V48.6386H9.05603V30.273H16.8126ZM53.9437 30.273V48.6386H46.1871V30.273H53.9437ZM8.51187 27.4208L7.28563 24.9686H18.5836L17.3577 27.4208H8.51187ZM45.6426 27.4208L44.4167 24.9686H55.7147L54.4884 27.4208H45.6426Z" fill="#FFCF23" stroke="#FFCF23" stroke-width="0.2"/>
</svg>
