<svg width="59" height="59" viewBox="0 0 59 59" fill="none" xmlns="http://www.w3.org/2000/svg">
<path d="M50.4949 0H8.50461C3.81517 0 0 3.81521 0 8.50469V50.4953C0 55.1848 3.81517 59 8.50461 59H50.4954C55.1848 59 59 55.1848 59 50.4953L58.9998 8.5052C58.9998 3.81572 55.184 0 50.4947 0H50.4949ZM8.50461 3.91748H50.4954C53.0253 3.91748 55.083 5.97594 55.083 8.5051V15.2018H3.91642V8.5051C3.91642 5.97512 5.97424 3.91728 8.5042 3.91728L8.50461 3.91748ZM50.4949 55.0834H8.50461C5.97465 55.0834 3.91704 53.025 3.91704 50.4958L3.91683 19.1189H55.0834V50.4958C55.0828 53.0258 53.0249 55.0836 50.495 55.0836L50.4949 55.0834ZM19.3154 9.55939C19.3154 8.47784 20.1923 7.60094 21.2739 7.60094H37.7255C38.8071 7.60094 39.684 8.47779 39.684 9.55939C39.684 10.641 38.8071 11.5179 37.7255 11.5179L21.2739 11.5181C20.1923 11.5181 19.3154 10.6412 19.3154 9.55939ZM41.5339 30.9974L35.9756 29.2798L32.6251 24.5246C31.8993 23.494 30.7603 22.9037 29.5003 22.9037C28.2404 22.9037 27.1012 23.4942 26.3748 24.5246L23.0236 29.2804L17.4664 30.9974C16.2621 31.3691 15.3487 32.2699 14.9593 33.4687C14.5699 34.6672 14.7798 35.9335 15.5353 36.9419L19.0223 41.5985L18.9376 47.4149C18.9193 48.6747 19.4933 49.8229 20.5137 50.5638C21.1818 51.0492 21.9562 51.2984 22.7472 51.2984C23.1632 51.2984 23.5835 51.2295 23.9951 51.0891L29.5012 49.2115L35.0063 51.0891C36.1991 51.4963 37.4679 51.3047 38.4877 50.5637C39.5067 49.8228 40.0815 48.6755 40.0632 47.4155L39.9791 41.598L43.4662 36.942C44.2216 35.933 44.4315 34.6673 44.0421 33.4688C43.6517 32.2695 42.7375 31.3686 41.534 30.9969L41.5339 30.9974ZM36.1806 47.4007C36.1818 47.3989 36.1838 47.3968 36.185 47.395C36.1869 47.3938 36.1895 47.3932 36.1919 47.3924L37.5044 48.842L36.1806 47.4007ZM36.8235 39.276C36.3052 39.9681 36.0485 40.7585 36.0612 41.6232L36.1441 47.3385L30.7345 45.4938C30.325 45.354 29.9127 45.2845 29.4999 45.2845C29.0877 45.2845 28.6749 45.354 28.2659 45.4938L22.8559 47.3385L22.9388 41.6232C22.9515 40.7585 22.6947 39.9681 22.1764 39.2754L18.7501 34.7002L24.2107 33.013C25.0376 32.7577 25.7089 32.2697 26.2077 31.5622L29.5001 26.8903L32.7918 31.5628C33.2899 32.2703 33.9619 32.7583 34.7887 33.0136L40.2504 34.7009L36.8235 39.276Z" fill="#FFCF23"/>
</svg>
