<svg width="88" height="59" viewBox="0 0 88 59" fill="none" xmlns="http://www.w3.org/2000/svg">
<mask id="path-1-outside-1_40_3539" maskUnits="userSpaceOnUse" x="0" y="0" width="88" height="59" fill="black">
<rect fill="white" width="88" height="59"/>
<path d="M86.5604 24.9385L75.1606 3.09513C74.6809 2.18075 73.8566 1.49245 72.8687 1.18144C71.8808 0.870436 70.8093 0.961827 69.8888 1.43575L65.7035 3.60153H65.7032C64.9894 3.97231 64.4074 4.55342 64.0369 5.26551C63.6664 5.97761 63.5252 6.78613 63.6325 7.58093C59.9469 9.16252 55.4338 9.53364 51.0605 9.89143C46.6868 10.2492 42.1683 10.6203 38.2728 12.1753L38.2731 12.175C37.5265 12.4748 36.8012 12.8245 36.1019 13.2219C34.2262 12.2258 32.6034 11.5263 31.0372 10.8517V10.8513C29.2997 10.1497 27.6122 9.33009 25.9873 8.39835C26.1727 7.61218 26.1086 6.78789 25.8037 6.03956C25.4989 5.29122 24.9686 4.65525 24.2855 4.22007L20.3065 1.69063C19.4315 1.1374 18.3724 0.951858 17.3605 1.17457C16.3486 1.39729 15.4665 2.01029 14.9075 2.87916L1.61087 23.6322C1.05501 24.5035 0.868694 25.5585 1.09234 26.5665C1.31599 27.5745 1.93156 28.4529 2.80439 29.0096L6.78063 31.5359C7.4043 31.9343 8.12941 32.1458 8.87028 32.1462C9.15956 32.1458 9.44791 32.1139 9.73037 32.0508C10.3036 31.925 10.8411 31.6713 11.3021 31.3095C13.2456 32.5826 14.8375 33.6618 16.2709 34.6905L15.3327 36.1569C14.7041 37.1379 14.4506 38.3116 14.6182 39.4632C14.7859 40.6149 15.3635 41.6684 16.246 42.4313C17.1284 43.1946 18.2566 43.6164 19.4253 43.6202C19.5456 43.6202 19.667 43.6133 19.7873 43.605H19.7877C19.6495 44.5284 19.7842 45.4719 20.1755 46.3203C20.5668 47.1687 21.1977 47.8852 21.9912 48.3827C22.7716 48.8724 23.6755 49.1314 24.5978 49.1298C24.7163 49.1298 24.8348 49.1252 24.9533 49.1165C24.8522 49.7298 24.8696 50.3568 25.005 50.9632C25.2771 52.1855 26.0131 53.2557 27.0592 53.9502C28.1053 54.6447 29.38 54.9099 30.6177 54.6899C31.8554 54.4703 32.9599 53.7829 33.7006 52.7713C34.1049 53.5748 34.7258 54.2507 35.4935 54.7231C36.2612 55.1958 37.1458 55.4464 38.0485 55.4473C39.4722 55.4482 40.8256 54.8303 41.7541 53.7554L47.4271 57.3579C48.4044 57.987 49.542 58.3256 50.7056 58.3333C50.9613 58.3333 51.2167 58.3163 51.4702 58.2819C52.8491 58.1252 54.0862 57.3644 54.8442 56.2065C55.4274 55.2887 55.6598 54.1928 55.4987 53.1186C56.4897 53.3707 57.5345 53.3144 58.4923 52.9569C59.45 52.5998 60.275 51.9589 60.8557 51.1204C61.4539 50.179 61.6828 49.0515 61.499 47.9528C62.4688 48.1693 63.4816 48.0916 64.407 47.7298C65.3321 47.3683 66.1275 46.7389 66.6905 45.923C67.2227 45.1046 67.4937 44.1447 67.4672 43.1702C68.4153 43.4709 69.4256 43.5214 70.3989 43.3167C71.6269 43.0791 72.7023 42.3478 73.3713 41.2952C74.0404 40.2424 74.2441 38.9618 73.9346 37.7547C73.6746 36.6669 73.101 35.6781 72.2841 34.9106C72.9778 34.4054 73.5778 33.8906 74.1648 33.3881C74.8208 32.7977 75.5175 32.2541 76.2498 31.7607C76.9752 32.4273 77.9261 32.7975 78.913 32.7981C79.5385 32.7981 80.1548 32.6479 80.7094 32.3595L84.8947 30.1937C85.8145 29.7157 86.5062 28.8942 86.8182 27.9092C87.1305 26.9242 87.0378 25.8561 86.5603 24.9389L86.5604 24.9385ZM9.21098 29.7289C8.81719 29.8178 8.40441 29.7459 8.06415 29.53L4.08918 27.0024C3.75044 26.7849 3.51155 26.443 3.42476 26.0508C3.33798 25.6587 3.41014 25.2482 3.6257 24.9091L16.9215 4.15925C17.1377 3.81882 17.4817 3.57876 17.8771 3.49327C17.9872 3.46849 18.0995 3.4561 18.2124 3.4561C18.4995 3.45579 18.781 3.53757 19.0227 3.69214L22.999 6.21849C23.3389 6.4347 23.5791 6.77698 23.6662 7.16942C23.7533 7.56188 23.6802 7.97295 23.4634 8.31179L10.1667 29.068C9.94993 29.4068 9.6056 29.645 9.21118 29.7293L9.21098 29.7289ZM18.1041 40.8543C17.5507 40.4987 17.1606 39.9403 17.0185 39.2999C16.8766 38.6597 16.9939 37.9897 17.3454 37.4352L21.0482 31.6573C21.4019 31.1038 21.9636 30.7144 22.6075 30.5762C22.7873 30.5366 22.9708 30.5165 23.155 30.5162C23.6246 30.5162 24.0847 30.6497 24.4804 30.9015C25.0366 31.2546 25.4288 31.8131 25.5713 32.454C25.7134 33.0952 25.594 33.7664 25.239 34.3196L21.5344 40.0984C21.1779 40.6495 20.6171 41.0383 19.9745 41.1798C19.3315 41.3214 18.6587 41.2043 18.1022 40.8543L18.1041 40.8543ZM23.2642 46.3736V46.3733C22.7127 46.0276 22.3236 45.4765 22.1833 44.8431C22.043 44.2093 22.1637 43.5464 22.5177 43.0019L28.6333 33.6035C28.9979 33.0491 29.5662 32.6588 30.216 32.5163C30.8661 32.3741 31.5463 32.4912 32.1106 32.8421C32.5679 33.129 32.9165 33.5589 33.1013 34.0648C33.286 34.5703 33.2966 35.1229 33.1311 35.6352L26.7384 45.6133C26.3729 46.1659 25.8049 46.554 25.1557 46.6953C24.5065 46.8365 23.8275 46.7191 23.2642 46.3688L23.2642 46.3736ZM28.4243 52.0078L28.424 52.0075C27.8703 51.6528 27.4796 51.0946 27.3377 50.4544C27.1956 49.8141 27.3132 49.1438 27.6653 48.5896L28.745 46.9033L34.8606 37.5065C35.0292 37.2475 35.1726 36.9734 35.289 36.6872L35.3521 36.5921H35.3518C35.7058 36.0382 36.2672 35.6488 36.9114 35.5101C37.0912 35.4704 37.2747 35.4503 37.4589 35.4503C37.9289 35.45 38.389 35.5838 38.7843 35.8365C39.3405 36.1894 39.7327 36.7478 39.8749 37.389C40.0173 38.0299 39.8979 38.7012 39.543 39.2544L31.8537 51.2481C31.4991 51.8008 30.9389 52.1908 30.2957 52.3323C29.6527 52.4739 28.9796 52.3552 28.4241 52.0027L28.4243 52.0078ZM36.7201 52.6862C36.1668 52.3309 35.7767 51.7724 35.6345 51.1324C35.4927 50.4925 35.61 49.8224 35.9611 49.268L39.663 43.4891C40.0179 42.9359 40.5794 42.5468 41.2236 42.4081C41.4034 42.3684 41.5869 42.3483 41.771 42.3483C42.3667 42.3508 42.9418 42.5661 43.3913 42.9554C43.8408 43.3448 44.1348 43.8822 44.2197 44.4692C44.3046 45.0565 44.1749 45.6546 43.8542 46.1546L40.4267 51.5054L40.1542 51.9307C39.7993 52.4848 39.2371 52.8754 38.5921 53.0163C37.9472 53.1573 37.2726 53.0368 36.717 52.6812L36.7201 52.6862ZM71.348 40.039C71.0099 40.5411 70.4833 40.8871 69.887 40.9989C68.9672 41.1764 68.0141 40.9852 67.2352 40.467L57.1397 33.9962V33.9965C56.782 33.7886 56.3416 33.7803 55.9761 33.9742C55.6106 34.1684 55.372 34.537 55.3459 34.949C55.3198 35.3607 55.5098 35.7562 55.8479 35.9948L63.6234 40.9754L63.6368 40.985V40.9847C64.3081 41.374 64.8007 42.0087 65.0098 42.7537C65.1647 43.4027 65.0437 44.0866 64.6754 44.6435C63.9242 45.816 62.0389 46.0098 60.5589 45.0698L53.7353 40.7344C53.4681 40.5588 53.1415 40.4974 52.8286 40.5634C52.5154 40.6297 52.2423 40.8184 52.0699 41.0869C51.8979 41.3558 51.841 41.682 51.9125 41.9923C51.9841 42.303 52.1776 42.5722 52.45 42.7395L57.4829 45.9387L57.4935 45.9464C58.2245 46.3949 58.7723 47.0873 59.0394 47.9001C59.2665 48.545 59.1937 49.2568 58.8406 49.8432C58.0895 51.0146 56.2051 51.2095 54.7242 50.2694L52.7711 49.0322L50.1548 47.366C49.8873 47.1873 49.5592 47.1238 49.244 47.1894C48.9289 47.2554 48.654 47.445 48.481 47.7154C48.3084 47.9858 48.2527 48.3145 48.3264 48.6264C48.4001 48.9386 48.5974 49.2078 48.8733 49.3729L51.4821 51.0304C52.2131 51.4795 52.7606 52.1721 53.0271 52.9849C53.2734 53.6273 53.1994 54.3479 52.828 54.9274C52.4566 55.5069 51.8314 55.8771 51.1427 55.9254C50.2904 56.0276 49.4294 55.8254 48.7127 55.3545L43.0748 51.7756L45.8613 47.4259C46.5558 46.3412 46.7901 45.0269 46.5129 43.7705C46.2355 42.5141 45.4694 41.4185 44.3822 40.724C43.6313 40.2436 42.7613 39.98 41.8689 39.9626C42.3831 38.863 42.4649 37.6116 42.0981 36.4547C41.7317 35.298 40.9435 34.3198 39.889 33.713C38.8343 33.1062 37.5897 32.9148 36.4003 33.1762C36.0678 33.2493 35.7437 33.3568 35.4335 33.4968C35.1004 32.386 34.3725 31.4338 33.3855 30.8189C32.5133 30.2775 31.4937 30.0201 30.4678 30.082C29.4419 30.1443 28.4609 30.5228 27.6608 31.1652C27.211 30.0591 26.3678 29.1565 25.2921 28.6302C24.2165 28.1042 22.9838 27.9911 21.8295 28.313C20.6755 28.6345 19.6808 29.3686 19.0359 30.3747L17.5597 32.6793C16.1627 31.6831 14.6271 30.6392 12.7732 29.424L24.8889 10.5147C26.5649 11.4678 28.3024 12.3091 30.09 13.0333C31.29 13.5491 32.5209 14.08 33.8643 14.7463C31.6079 16.6386 29.899 19.0965 28.9145 21.8661C28.6759 22.4797 28.6367 23.1528 28.8028 23.7897C28.969 24.4268 29.332 24.9959 29.8405 25.4162C31.5607 26.8597 33.8711 27.2348 36.5294 26.4982C38.5672 25.8738 40.4764 24.8915 42.1673 23.598C43.3661 22.8939 44.7631 22.5987 46.1454 22.7576C47.528 22.9165 48.8208 23.5205 49.827 24.478C51.4516 25.8933 53.4346 26.838 55.5604 27.21L70.0132 36.1469C70.808 36.6217 71.3806 37.3911 71.6061 38.2861C71.7598 38.8811 71.6668 39.5127 71.3483 40.039L71.348 40.039ZM72.6047 31.5866H72.6044C71.8466 32.2681 71.0404 32.8935 70.1918 33.4585L60.7071 27.592C62.3131 27.5455 63.9029 27.2596 65.4236 26.7442C65.8223 26.5928 66.1098 26.2409 66.1773 25.8214C66.2451 25.4017 66.0827 24.978 65.7517 24.71C65.4205 24.4418 64.971 24.3699 64.5723 24.5214C61.7581 25.5909 54.6456 25.7288 51.4675 22.7468C48.1374 19.6207 43.3015 19.7684 40.7318 21.7001C39.7075 22.4689 34.4432 26.1723 31.3785 23.6033V23.6029C31.1116 23.3895 31.0173 23.0271 31.1464 22.7115C34.5942 13.6343 42.688 12.9713 51.2562 12.2688C55.8047 11.8958 60.4981 11.5074 64.5249 9.79475L74.9477 29.7611C74.124 30.3131 73.3408 30.9224 72.6036 31.5843L72.6047 31.5866ZM83.7935 28.0802L79.6082 30.2459H79.6079C79.2496 30.4293 78.8331 30.4643 78.4489 30.3435C78.0648 30.2227 77.744 29.9557 77.5562 29.6007L66.1563 7.75419C65.9713 7.39766 65.9355 6.98228 66.0571 6.5997C66.1787 6.21684 66.4478 5.89779 66.8052 5.71228L70.9895 3.5465H70.9898C71.3475 3.36064 71.765 3.3244 72.1497 3.44552C72.5345 3.56632 72.8552 3.83489 73.0412 4.19141L84.441 26.0348C84.6267 26.3913 84.6628 26.8067 84.5412 27.1898C84.4199 27.5727 84.1508 27.892 83.7931 28.0779L83.7935 28.0802Z"/>
</mask>
<path d="M86.5604 24.9385L75.1606 3.09513C74.6809 2.18075 73.8566 1.49245 72.8687 1.18144C71.8808 0.870436 70.8093 0.961827 69.8888 1.43575L65.7035 3.60153H65.7032C64.9894 3.97231 64.4074 4.55342 64.0369 5.26551C63.6664 5.97761 63.5252 6.78613 63.6325 7.58093C59.9469 9.16252 55.4338 9.53364 51.0605 9.89143C46.6868 10.2492 42.1683 10.6203 38.2728 12.1753L38.2731 12.175C37.5265 12.4748 36.8012 12.8245 36.1019 13.2219C34.2262 12.2258 32.6034 11.5263 31.0372 10.8517V10.8513C29.2997 10.1497 27.6122 9.33009 25.9873 8.39835C26.1727 7.61218 26.1086 6.78789 25.8037 6.03956C25.4989 5.29122 24.9686 4.65525 24.2855 4.22007L20.3065 1.69063C19.4315 1.1374 18.3724 0.951858 17.3605 1.17457C16.3486 1.39729 15.4665 2.01029 14.9075 2.87916L1.61087 23.6322C1.05501 24.5035 0.868694 25.5585 1.09234 26.5665C1.31599 27.5745 1.93156 28.4529 2.80439 29.0096L6.78063 31.5359C7.4043 31.9343 8.12941 32.1458 8.87028 32.1462C9.15956 32.1458 9.44791 32.1139 9.73037 32.0508C10.3036 31.925 10.8411 31.6713 11.3021 31.3095C13.2456 32.5826 14.8375 33.6618 16.2709 34.6905L15.3327 36.1569C14.7041 37.1379 14.4506 38.3116 14.6182 39.4632C14.7859 40.6149 15.3635 41.6684 16.246 42.4313C17.1284 43.1946 18.2566 43.6164 19.4253 43.6202C19.5456 43.6202 19.667 43.6133 19.7873 43.605H19.7877C19.6495 44.5284 19.7842 45.4719 20.1755 46.3203C20.5668 47.1687 21.1977 47.8852 21.9912 48.3827C22.7716 48.8724 23.6755 49.1314 24.5978 49.1298C24.7163 49.1298 24.8348 49.1252 24.9533 49.1165C24.8522 49.7298 24.8696 50.3568 25.005 50.9632C25.2771 52.1855 26.0131 53.2557 27.0592 53.9502C28.1053 54.6447 29.38 54.9099 30.6177 54.6899C31.8554 54.4703 32.9599 53.7829 33.7006 52.7713C34.1049 53.5748 34.7258 54.2507 35.4935 54.7231C36.2612 55.1958 37.1458 55.4464 38.0485 55.4473C39.4722 55.4482 40.8256 54.8303 41.7541 53.7554L47.4271 57.3579C48.4044 57.987 49.542 58.3256 50.7056 58.3333C50.9613 58.3333 51.2167 58.3163 51.4702 58.2819C52.8491 58.1252 54.0862 57.3644 54.8442 56.2065C55.4274 55.2887 55.6598 54.1928 55.4987 53.1186C56.4897 53.3707 57.5345 53.3144 58.4923 52.9569C59.45 52.5998 60.275 51.9589 60.8557 51.1204C61.4539 50.179 61.6828 49.0515 61.499 47.9528C62.4688 48.1693 63.4816 48.0916 64.407 47.7298C65.3321 47.3683 66.1275 46.7389 66.6905 45.923C67.2227 45.1046 67.4937 44.1447 67.4672 43.1702C68.4153 43.4709 69.4256 43.5214 70.3989 43.3167C71.6269 43.0791 72.7023 42.3478 73.3713 41.2952C74.0404 40.2424 74.2441 38.9618 73.9346 37.7547C73.6746 36.6669 73.101 35.6781 72.2841 34.9106C72.9778 34.4054 73.5778 33.8906 74.1648 33.3881C74.8208 32.7977 75.5175 32.2541 76.2498 31.7607C76.9752 32.4273 77.9261 32.7975 78.913 32.7981C79.5385 32.7981 80.1548 32.6479 80.7094 32.3595L84.8947 30.1937C85.8145 29.7157 86.5062 28.8942 86.8182 27.9092C87.1305 26.9242 87.0378 25.8561 86.5603 24.9389L86.5604 24.9385ZM9.21098 29.7289C8.81719 29.8178 8.40441 29.7459 8.06415 29.53L4.08918 27.0024C3.75044 26.7849 3.51155 26.443 3.42476 26.0508C3.33798 25.6587 3.41014 25.2482 3.6257 24.9091L16.9215 4.15925C17.1377 3.81882 17.4817 3.57876 17.8771 3.49327C17.9872 3.46849 18.0995 3.4561 18.2124 3.4561C18.4995 3.45579 18.781 3.53757 19.0227 3.69214L22.999 6.21849C23.3389 6.4347 23.5791 6.77698 23.6662 7.16942C23.7533 7.56188 23.6802 7.97295 23.4634 8.31179L10.1667 29.068C9.94993 29.4068 9.6056 29.645 9.21118 29.7293L9.21098 29.7289ZM18.1041 40.8543C17.5507 40.4987 17.1606 39.9403 17.0185 39.2999C16.8766 38.6597 16.9939 37.9897 17.3454 37.4352L21.0482 31.6573C21.4019 31.1038 21.9636 30.7144 22.6075 30.5762C22.7873 30.5366 22.9708 30.5165 23.155 30.5162C23.6246 30.5162 24.0847 30.6497 24.4804 30.9015C25.0366 31.2546 25.4288 31.8131 25.5713 32.454C25.7134 33.0952 25.594 33.7664 25.239 34.3196L21.5344 40.0984C21.1779 40.6495 20.6171 41.0383 19.9745 41.1798C19.3315 41.3214 18.6587 41.2043 18.1022 40.8543L18.1041 40.8543ZM23.2642 46.3736V46.3733C22.7127 46.0276 22.3236 45.4765 22.1833 44.8431C22.043 44.2093 22.1637 43.5464 22.5177 43.0019L28.6333 33.6035C28.9979 33.0491 29.5662 32.6588 30.216 32.5163C30.8661 32.3741 31.5463 32.4912 32.1106 32.8421C32.5679 33.129 32.9165 33.5589 33.1013 34.0648C33.286 34.5703 33.2966 35.1229 33.1311 35.6352L26.7384 45.6133C26.3729 46.1659 25.8049 46.554 25.1557 46.6953C24.5065 46.8365 23.8275 46.7191 23.2642 46.3688L23.2642 46.3736ZM28.4243 52.0078L28.424 52.0075C27.8703 51.6528 27.4796 51.0946 27.3377 50.4544C27.1956 49.8141 27.3132 49.1438 27.6653 48.5896L28.745 46.9033L34.8606 37.5065C35.0292 37.2475 35.1726 36.9734 35.289 36.6872L35.3521 36.5921H35.3518C35.7058 36.0382 36.2672 35.6488 36.9114 35.5101C37.0912 35.4704 37.2747 35.4503 37.4589 35.4503C37.9289 35.45 38.389 35.5838 38.7843 35.8365C39.3405 36.1894 39.7327 36.7478 39.8749 37.389C40.0173 38.0299 39.8979 38.7012 39.543 39.2544L31.8537 51.2481C31.4991 51.8008 30.9389 52.1908 30.2957 52.3323C29.6527 52.4739 28.9796 52.3552 28.4241 52.0027L28.4243 52.0078ZM36.7201 52.6862C36.1668 52.3309 35.7767 51.7724 35.6345 51.1324C35.4927 50.4925 35.61 49.8224 35.9611 49.268L39.663 43.4891C40.0179 42.9359 40.5794 42.5468 41.2236 42.4081C41.4034 42.3684 41.5869 42.3483 41.771 42.3483C42.3667 42.3508 42.9418 42.5661 43.3913 42.9554C43.8408 43.3448 44.1348 43.8822 44.2197 44.4692C44.3046 45.0565 44.1749 45.6546 43.8542 46.1546L40.4267 51.5054L40.1542 51.9307C39.7993 52.4848 39.2371 52.8754 38.5921 53.0163C37.9472 53.1573 37.2726 53.0368 36.717 52.6812L36.7201 52.6862ZM71.348 40.039C71.0099 40.5411 70.4833 40.8871 69.887 40.9989C68.9672 41.1764 68.0141 40.9852 67.2352 40.467L57.1397 33.9962V33.9965C56.782 33.7886 56.3416 33.7803 55.9761 33.9742C55.6106 34.1684 55.372 34.537 55.3459 34.949C55.3198 35.3607 55.5098 35.7562 55.8479 35.9948L63.6234 40.9754L63.6368 40.985V40.9847C64.3081 41.374 64.8007 42.0087 65.0098 42.7537C65.1647 43.4027 65.0437 44.0866 64.6754 44.6435C63.9242 45.816 62.0389 46.0098 60.5589 45.0698L53.7353 40.7344C53.4681 40.5588 53.1415 40.4974 52.8286 40.5634C52.5154 40.6297 52.2423 40.8184 52.0699 41.0869C51.8979 41.3558 51.841 41.682 51.9125 41.9923C51.9841 42.303 52.1776 42.5722 52.45 42.7395L57.4829 45.9387L57.4935 45.9464C58.2245 46.3949 58.7723 47.0873 59.0394 47.9001C59.2665 48.545 59.1937 49.2568 58.8406 49.8432C58.0895 51.0146 56.2051 51.2095 54.7242 50.2694L52.7711 49.0322L50.1548 47.366C49.8873 47.1873 49.5592 47.1238 49.244 47.1894C48.9289 47.2554 48.654 47.445 48.481 47.7154C48.3084 47.9858 48.2527 48.3145 48.3264 48.6264C48.4001 48.9386 48.5974 49.2078 48.8733 49.3729L51.4821 51.0304C52.2131 51.4795 52.7606 52.1721 53.0271 52.9849C53.2734 53.6273 53.1994 54.3479 52.828 54.9274C52.4566 55.5069 51.8314 55.8771 51.1427 55.9254C50.2904 56.0276 49.4294 55.8254 48.7127 55.3545L43.0748 51.7756L45.8613 47.4259C46.5558 46.3412 46.7901 45.0269 46.5129 43.7705C46.2355 42.5141 45.4694 41.4185 44.3822 40.724C43.6313 40.2436 42.7613 39.98 41.8689 39.9626C42.3831 38.863 42.4649 37.6116 42.0981 36.4547C41.7317 35.298 40.9435 34.3198 39.889 33.713C38.8343 33.1062 37.5897 32.9148 36.4003 33.1762C36.0678 33.2493 35.7437 33.3568 35.4335 33.4968C35.1004 32.386 34.3725 31.4338 33.3855 30.8189C32.5133 30.2775 31.4937 30.0201 30.4678 30.082C29.4419 30.1443 28.4609 30.5228 27.6608 31.1652C27.211 30.0591 26.3678 29.1565 25.2921 28.6302C24.2165 28.1042 22.9838 27.9911 21.8295 28.313C20.6755 28.6345 19.6808 29.3686 19.0359 30.3747L17.5597 32.6793C16.1627 31.6831 14.6271 30.6392 12.7732 29.424L24.8889 10.5147C26.5649 11.4678 28.3024 12.3091 30.09 13.0333C31.29 13.5491 32.5209 14.08 33.8643 14.7463C31.6079 16.6386 29.899 19.0965 28.9145 21.8661C28.6759 22.4797 28.6367 23.1528 28.8028 23.7897C28.969 24.4268 29.332 24.9959 29.8405 25.4162C31.5607 26.8597 33.8711 27.2348 36.5294 26.4982C38.5672 25.8738 40.4764 24.8915 42.1673 23.598C43.3661 22.8939 44.7631 22.5987 46.1454 22.7576C47.528 22.9165 48.8208 23.5205 49.827 24.478C51.4516 25.8933 53.4346 26.838 55.5604 27.21L70.0132 36.1469C70.808 36.6217 71.3806 37.3911 71.6061 38.2861C71.7598 38.8811 71.6668 39.5127 71.3483 40.039L71.348 40.039ZM72.6047 31.5866H72.6044C71.8466 32.2681 71.0404 32.8935 70.1918 33.4585L60.7071 27.592C62.3131 27.5455 63.9029 27.2596 65.4236 26.7442C65.8223 26.5928 66.1098 26.2409 66.1773 25.8214C66.2451 25.4017 66.0827 24.978 65.7517 24.71C65.4205 24.4418 64.971 24.3699 64.5723 24.5214C61.7581 25.5909 54.6456 25.7288 51.4675 22.7468C48.1374 19.6207 43.3015 19.7684 40.7318 21.7001C39.7075 22.4689 34.4432 26.1723 31.3785 23.6033V23.6029C31.1116 23.3895 31.0173 23.0271 31.1464 22.7115C34.5942 13.6343 42.688 12.9713 51.2562 12.2688C55.8047 11.8958 60.4981 11.5074 64.5249 9.79475L74.9477 29.7611C74.124 30.3131 73.3408 30.9224 72.6036 31.5843L72.6047 31.5866ZM83.7935 28.0802L79.6082 30.2459H79.6079C79.2496 30.4293 78.8331 30.4643 78.4489 30.3435C78.0648 30.2227 77.744 29.9557 77.5562 29.6007L66.1563 7.75419C65.9713 7.39766 65.9355 6.98228 66.0571 6.5997C66.1787 6.21684 66.4478 5.89779 66.8052 5.71228L70.9895 3.5465H70.9898C71.3475 3.36064 71.765 3.3244 72.1497 3.44552C72.5345 3.56632 72.8552 3.83489 73.0412 4.19141L84.441 26.0348C84.6267 26.3913 84.6628 26.8067 84.5412 27.1898C84.4199 27.5727 84.1508 27.892 83.7931 28.0779L83.7935 28.0802Z" fill="#FFCF23"/>
<path d="M86.5604 24.9385L75.1606 3.09513C74.6809 2.18075 73.8566 1.49245 72.8687 1.18144C71.8808 0.870436 70.8093 0.961827 69.8888 1.43575L65.7035 3.60153H65.7032C64.9894 3.97231 64.4074 4.55342 64.0369 5.26551C63.6664 5.97761 63.5252 6.78613 63.6325 7.58093C59.9469 9.16252 55.4338 9.53364 51.0605 9.89143C46.6868 10.2492 42.1683 10.6203 38.2728 12.1753L38.2731 12.175C37.5265 12.4748 36.8012 12.8245 36.1019 13.2219C34.2262 12.2258 32.6034 11.5263 31.0372 10.8517V10.8513C29.2997 10.1497 27.6122 9.33009 25.9873 8.39835C26.1727 7.61218 26.1086 6.78789 25.8037 6.03956C25.4989 5.29122 24.9686 4.65525 24.2855 4.22007L20.3065 1.69063C19.4315 1.1374 18.3724 0.951858 17.3605 1.17457C16.3486 1.39729 15.4665 2.01029 14.9075 2.87916L1.61087 23.6322C1.05501 24.5035 0.868694 25.5585 1.09234 26.5665C1.31599 27.5745 1.93156 28.4529 2.80439 29.0096L6.78063 31.5359C7.4043 31.9343 8.12941 32.1458 8.87028 32.1462C9.15956 32.1458 9.44791 32.1139 9.73037 32.0508C10.3036 31.925 10.8411 31.6713 11.3021 31.3095C13.2456 32.5826 14.8375 33.6618 16.2709 34.6905L15.3327 36.1569C14.7041 37.1379 14.4506 38.3116 14.6182 39.4632C14.7859 40.6149 15.3635 41.6684 16.246 42.4313C17.1284 43.1946 18.2566 43.6164 19.4253 43.6202C19.5456 43.6202 19.667 43.6133 19.7873 43.605H19.7877C19.6495 44.5284 19.7842 45.4719 20.1755 46.3203C20.5668 47.1687 21.1977 47.8852 21.9912 48.3827C22.7716 48.8724 23.6755 49.1314 24.5978 49.1298C24.7163 49.1298 24.8348 49.1252 24.9533 49.1165C24.8522 49.7298 24.8696 50.3568 25.005 50.9632C25.2771 52.1855 26.0131 53.2557 27.0592 53.9502C28.1053 54.6447 29.38 54.9099 30.6177 54.6899C31.8554 54.4703 32.9599 53.7829 33.7006 52.7713C34.1049 53.5748 34.7258 54.2507 35.4935 54.7231C36.2612 55.1958 37.1458 55.4464 38.0485 55.4473C39.4722 55.4482 40.8256 54.8303 41.7541 53.7554L47.4271 57.3579C48.4044 57.987 49.542 58.3256 50.7056 58.3333C50.9613 58.3333 51.2167 58.3163 51.4702 58.2819C52.8491 58.1252 54.0862 57.3644 54.8442 56.2065C55.4274 55.2887 55.6598 54.1928 55.4987 53.1186C56.4897 53.3707 57.5345 53.3144 58.4923 52.9569C59.45 52.5998 60.275 51.9589 60.8557 51.1204C61.4539 50.179 61.6828 49.0515 61.499 47.9528C62.4688 48.1693 63.4816 48.0916 64.407 47.7298C65.3321 47.3683 66.1275 46.7389 66.6905 45.923C67.2227 45.1046 67.4937 44.1447 67.4672 43.1702C68.4153 43.4709 69.4256 43.5214 70.3989 43.3167C71.6269 43.0791 72.7023 42.3478 73.3713 41.2952C74.0404 40.2424 74.2441 38.9618 73.9346 37.7547C73.6746 36.6669 73.101 35.6781 72.2841 34.9106C72.9778 34.4054 73.5778 33.8906 74.1648 33.3881C74.8208 32.7977 75.5175 32.2541 76.2498 31.7607C76.9752 32.4273 77.9261 32.7975 78.913 32.7981C79.5385 32.7981 80.1548 32.6479 80.7094 32.3595L84.8947 30.1937C85.8145 29.7157 86.5062 28.8942 86.8182 27.9092C87.1305 26.9242 87.0378 25.8561 86.5603 24.9389L86.5604 24.9385ZM9.21098 29.7289C8.81719 29.8178 8.40441 29.7459 8.06415 29.53L4.08918 27.0024C3.75044 26.7849 3.51155 26.443 3.42476 26.0508C3.33798 25.6587 3.41014 25.2482 3.6257 24.9091L16.9215 4.15925C17.1377 3.81882 17.4817 3.57876 17.8771 3.49327C17.9872 3.46849 18.0995 3.4561 18.2124 3.4561C18.4995 3.45579 18.781 3.53757 19.0227 3.69214L22.999 6.21849C23.3389 6.4347 23.5791 6.77698 23.6662 7.16942C23.7533 7.56188 23.6802 7.97295 23.4634 8.31179L10.1667 29.068C9.94993 29.4068 9.6056 29.645 9.21118 29.7293L9.21098 29.7289ZM18.1041 40.8543C17.5507 40.4987 17.1606 39.9403 17.0185 39.2999C16.8766 38.6597 16.9939 37.9897 17.3454 37.4352L21.0482 31.6573C21.4019 31.1038 21.9636 30.7144 22.6075 30.5762C22.7873 30.5366 22.9708 30.5165 23.155 30.5162C23.6246 30.5162 24.0847 30.6497 24.4804 30.9015C25.0366 31.2546 25.4288 31.8131 25.5713 32.454C25.7134 33.0952 25.594 33.7664 25.239 34.3196L21.5344 40.0984C21.1779 40.6495 20.6171 41.0383 19.9745 41.1798C19.3315 41.3214 18.6587 41.2043 18.1022 40.8543L18.1041 40.8543ZM23.2642 46.3736V46.3733C22.7127 46.0276 22.3236 45.4765 22.1833 44.8431C22.043 44.2093 22.1637 43.5464 22.5177 43.0019L28.6333 33.6035C28.9979 33.0491 29.5662 32.6588 30.216 32.5163C30.8661 32.3741 31.5463 32.4912 32.1106 32.8421C32.5679 33.129 32.9165 33.5589 33.1013 34.0648C33.286 34.5703 33.2966 35.1229 33.1311 35.6352L26.7384 45.6133C26.3729 46.1659 25.8049 46.554 25.1557 46.6953C24.5065 46.8365 23.8275 46.7191 23.2642 46.3688L23.2642 46.3736ZM28.4243 52.0078L28.424 52.0075C27.8703 51.6528 27.4796 51.0946 27.3377 50.4544C27.1956 49.8141 27.3132 49.1438 27.6653 48.5896L28.745 46.9033L34.8606 37.5065C35.0292 37.2475 35.1726 36.9734 35.289 36.6872L35.3521 36.5921H35.3518C35.7058 36.0382 36.2672 35.6488 36.9114 35.5101C37.0912 35.4704 37.2747 35.4503 37.4589 35.4503C37.9289 35.45 38.389 35.5838 38.7843 35.8365C39.3405 36.1894 39.7327 36.7478 39.8749 37.389C40.0173 38.0299 39.8979 38.7012 39.543 39.2544L31.8537 51.2481C31.4991 51.8008 30.9389 52.1908 30.2957 52.3323C29.6527 52.4739 28.9796 52.3552 28.4241 52.0027L28.4243 52.0078ZM36.7201 52.6862C36.1668 52.3309 35.7767 51.7724 35.6345 51.1324C35.4927 50.4925 35.61 49.8224 35.9611 49.268L39.663 43.4891C40.0179 42.9359 40.5794 42.5468 41.2236 42.4081C41.4034 42.3684 41.5869 42.3483 41.771 42.3483C42.3667 42.3508 42.9418 42.5661 43.3913 42.9554C43.8408 43.3448 44.1348 43.8822 44.2197 44.4692C44.3046 45.0565 44.1749 45.6546 43.8542 46.1546L40.4267 51.5054L40.1542 51.9307C39.7993 52.4848 39.2371 52.8754 38.5921 53.0163C37.9472 53.1573 37.2726 53.0368 36.717 52.6812L36.7201 52.6862ZM71.348 40.039C71.0099 40.5411 70.4833 40.8871 69.887 40.9989C68.9672 41.1764 68.0141 40.9852 67.2352 40.467L57.1397 33.9962V33.9965C56.782 33.7886 56.3416 33.7803 55.9761 33.9742C55.6106 34.1684 55.372 34.537 55.3459 34.949C55.3198 35.3607 55.5098 35.7562 55.8479 35.9948L63.6234 40.9754L63.6368 40.985V40.9847C64.3081 41.374 64.8007 42.0087 65.0098 42.7537C65.1647 43.4027 65.0437 44.0866 64.6754 44.6435C63.9242 45.816 62.0389 46.0098 60.5589 45.0698L53.7353 40.7344C53.4681 40.5588 53.1415 40.4974 52.8286 40.5634C52.5154 40.6297 52.2423 40.8184 52.0699 41.0869C51.8979 41.3558 51.841 41.682 51.9125 41.9923C51.9841 42.303 52.1776 42.5722 52.45 42.7395L57.4829 45.9387L57.4935 45.9464C58.2245 46.3949 58.7723 47.0873 59.0394 47.9001C59.2665 48.545 59.1937 49.2568 58.8406 49.8432C58.0895 51.0146 56.2051 51.2095 54.7242 50.2694L52.7711 49.0322L50.1548 47.366C49.8873 47.1873 49.5592 47.1238 49.244 47.1894C48.9289 47.2554 48.654 47.445 48.481 47.7154C48.3084 47.9858 48.2527 48.3145 48.3264 48.6264C48.4001 48.9386 48.5974 49.2078 48.8733 49.3729L51.4821 51.0304C52.2131 51.4795 52.7606 52.1721 53.0271 52.9849C53.2734 53.6273 53.1994 54.3479 52.828 54.9274C52.4566 55.5069 51.8314 55.8771 51.1427 55.9254C50.2904 56.0276 49.4294 55.8254 48.7127 55.3545L43.0748 51.7756L45.8613 47.4259C46.5558 46.3412 46.7901 45.0269 46.5129 43.7705C46.2355 42.5141 45.4694 41.4185 44.3822 40.724C43.6313 40.2436 42.7613 39.98 41.8689 39.9626C42.3831 38.863 42.4649 37.6116 42.0981 36.4547C41.7317 35.298 40.9435 34.3198 39.889 33.713C38.8343 33.1062 37.5897 32.9148 36.4003 33.1762C36.0678 33.2493 35.7437 33.3568 35.4335 33.4968C35.1004 32.386 34.3725 31.4338 33.3855 30.8189C32.5133 30.2775 31.4937 30.0201 30.4678 30.082C29.4419 30.1443 28.4609 30.5228 27.6608 31.1652C27.211 30.0591 26.3678 29.1565 25.2921 28.6302C24.2165 28.1042 22.9838 27.9911 21.8295 28.313C20.6755 28.6345 19.6808 29.3686 19.0359 30.3747L17.5597 32.6793C16.1627 31.6831 14.6271 30.6392 12.7732 29.424L24.8889 10.5147C26.5649 11.4678 28.3024 12.3091 30.09 13.0333C31.29 13.5491 32.5209 14.08 33.8643 14.7463C31.6079 16.6386 29.899 19.0965 28.9145 21.8661C28.6759 22.4797 28.6367 23.1528 28.8028 23.7897C28.969 24.4268 29.332 24.9959 29.8405 25.4162C31.5607 26.8597 33.8711 27.2348 36.5294 26.4982C38.5672 25.8738 40.4764 24.8915 42.1673 23.598C43.3661 22.8939 44.7631 22.5987 46.1454 22.7576C47.528 22.9165 48.8208 23.5205 49.827 24.478C51.4516 25.8933 53.4346 26.838 55.5604 27.21L70.0132 36.1469C70.808 36.6217 71.3806 37.3911 71.6061 38.2861C71.7598 38.8811 71.6668 39.5127 71.3483 40.039L71.348 40.039ZM72.6047 31.5866H72.6044C71.8466 32.2681 71.0404 32.8935 70.1918 33.4585L60.7071 27.592C62.3131 27.5455 63.9029 27.2596 65.4236 26.7442C65.8223 26.5928 66.1098 26.2409 66.1773 25.8214C66.2451 25.4017 66.0827 24.978 65.7517 24.71C65.4205 24.4418 64.971 24.3699 64.5723 24.5214C61.7581 25.5909 54.6456 25.7288 51.4675 22.7468C48.1374 19.6207 43.3015 19.7684 40.7318 21.7001C39.7075 22.4689 34.4432 26.1723 31.3785 23.6033V23.6029C31.1116 23.3895 31.0173 23.0271 31.1464 22.7115C34.5942 13.6343 42.688 12.9713 51.2562 12.2688C55.8047 11.8958 60.4981 11.5074 64.5249 9.79475L74.9477 29.7611C74.124 30.3131 73.3408 30.9224 72.6036 31.5843L72.6047 31.5866ZM83.7935 28.0802L79.6082 30.2459H79.6079C79.2496 30.4293 78.8331 30.4643 78.4489 30.3435C78.0648 30.2227 77.744 29.9557 77.5562 29.6007L66.1563 7.75419C65.9713 7.39766 65.9355 6.98228 66.0571 6.5997C66.1787 6.21684 66.4478 5.89779 66.8052 5.71228L70.9895 3.5465H70.9898C71.3475 3.36064 71.765 3.3244 72.1497 3.44552C72.5345 3.56632 72.8552 3.83489 73.0412 4.19141L84.441 26.0348C84.6267 26.3913 84.6628 26.8067 84.5412 27.1898C84.4199 27.5727 84.1508 27.892 83.7931 28.0779L83.7935 28.0802Z" stroke="#FFCF23" stroke-width="0.6" mask="url(#path-1-outside-1_40_3539)"/>
</svg>
