<svg width="26" height="26" viewBox="0 0 26 26" fill="none" xmlns="http://www.w3.org/2000/svg">
<path d="M13 0C9.55218 0 6.24563 1.36966 3.80748 3.80748C1.36955 6.24542 0 9.55218 0 13C0 16.4478 1.36966 19.7544 3.80748 22.1925C6.24542 24.6304 9.55218 26 13 26C16.4478 26 19.7544 24.6303 22.1925 22.1925C24.6304 19.7546 26 16.4478 26 13C26 9.55218 24.6303 6.24563 22.1925 3.80748C19.7546 1.36955 16.4478 0 13 0ZM13 5.95833C14.0056 5.95833 14.9701 6.35782 15.681 7.06892C16.3921 7.77994 16.7916 8.74436 16.7916 9.74996C16.7916 10.7555 16.3921 11.72 15.681 12.431C14.97 13.1421 14.0056 13.5416 13 13.5416C11.9944 13.5416 11.0299 13.1421 10.319 12.431C9.60787 11.72 9.20838 10.7555 9.20838 9.74996C9.20838 8.74436 9.60787 7.77989 10.319 7.06892C11.03 6.35782 11.9944 5.95833 13 5.95833ZM19.0125 19.2183C17.397 20.7772 15.2395 21.6485 12.9946 21.6485C10.7497 21.6485 8.59213 20.7773 6.97667 19.2183C6.89474 19.1334 6.8421 19.0245 6.82644 18.9075C6.81087 18.7906 6.83312 18.6717 6.89 18.5683C7.8 16.9 10.1833 15.7083 13 15.7083C15.8167 15.7083 18.2 16.9 19.11 18.5683C19.1655 18.6729 19.186 18.7924 19.1684 18.9094C19.1509 19.0264 19.0962 19.1347 19.0125 19.2183Z" fill="#717376"/>
</svg>
