<svg width="262" height="17" viewBox="0 0 262 17" fill="none" xmlns="http://www.w3.org/2000/svg">
<path d="M247.291 6.42962C239.669 6.06857 232.793 6.12662 225.576 6.1186C211.493 6.10066 197.415 4.70085 183.33 4.74942C151.792 4.87686 119.766 4.07121 88.1162 5.39697C78.7679 5.78209 69.4308 6.10916 60.1761 6.6632C59.2886 6.71322 58.4082 6.76467 57.5176 6.82272C48.8356 7.35132 37.501 7.04171 28.8704 7.59579C21.2727 8.33207 15.3842 9.25519 8.1085 9.00363C6.17812 8.82948 4.12285 8.51562 2.96527 7.87894C0.438808 6.51254 -0.735984 5.26287 0.486538 4.22028C0.885622 3.87717 1.57105 3.52413 2.31333 3.20697C3.75933 2.61796 5.49259 2.15543 6.43493 2.1153C22.6975 1.30965 41.1495 1.15816 55.8448 1.01515C63.0991 0.947661 70.5892 0.855624 79.7464 0.680055C100.903 0.428972 134.264 0.267557 155.443 0.0259098C173.949 -0.191669 192.502 1.00713 210.827 1.89771C217.794 2.23422 222.182 2.23422 228.428 2.32625C229.47 2.33286 230.649 2.35032 231.859 2.36637C238.032 2.4584 249.151 2.00532 252.741 2.87704C256.336 3.75821 258.845 3.85024 261.985 5.46907C262.152 7.06575 260.887 7.80337 259.282 8.071C255.542 8.70909 252.114 9.42277 249.206 9.6417C245.799 9.89278 243.05 9.90271 242.492 9.29859C241.951 8.69306 242.256 8.31737 242.796 8.04033C243.736 7.58772 245.43 7.09168 246.949 6.75659L247.291 6.42962Z" fill="white" fill-opacity="0.12"/>
<path d="M98.9836 14.0648C104.796 13.9232 110.643 13.7377 116.439 13.8359C123.77 13.9553 129.981 14.3418 137.256 14.2885C139.71 14.2739 154.642 14.2965 156.68 14.2819C163.033 14.2305 169.282 14.2399 175.618 14.322C179.822 14.3801 184.047 14.4976 188.221 14.7265C198.04 15.2631 208.185 15.6237 217.845 16.647C220.299 16.908 222.809 17.1256 225.28 16.916C227.735 16.7145 231.492 16.1104 231.239 14.8606C230.952 13.3993 228.352 11.5805 225.226 11.1198C224.269 10.9843 222.068 10.3547 221.094 10.2612C220.175 10.1777 219.36 9.878 218.511 9.82609C216.508 9.70054 215.007 10.1291 213.15 10.3382C210.984 10.5812 206.29 9.90019 204.051 9.87565C196.145 9.78362 191.542 10.7214 183.632 10.6893C178.96 10.6733 174.264 10.6058 169.588 10.5699C165.099 10.5359 160.6 10.5973 156.122 10.4864C152.995 10.4123 149.91 10.0158 146.808 9.98373C144.15 9.95777 141.46 10.1853 138.847 10.4283C136.611 10.6459 134.151 10.5539 131.88 10.5619C129.803 10.5798 127.26 10.3363 125.325 10.5619C122.833 10.8569 120.067 10.8649 117.526 10.9805C112.744 11.1995 110.338 10.8049 105.575 11.082C102.612 11.2495 100.425 11.7781 97.4679 11.5861C95.9529 11.4846 92.0707 11.9391 90.5567 11.8631C89 11.7956 88.8934 12.3143 87.489 12.3997C85.7871 12.4979 84.0711 12.4752 82.3762 12.5078C81.6552 12.5257 79.7207 12.4899 79.2182 12.7528C78.5115 13.1138 79.9219 13.8595 80.9821 14.0705C84.8671 14.8582 90.4796 14.2286 94.576 14.1625C96.0402 14.1403 97.5064 14.1068 98.983 14.0648H98.9836Z" fill="white" fill-opacity="0.12"/>
</svg>
