<svg width="13" height="13" viewBox="0 0 13 13" fill="none" xmlns="http://www.w3.org/2000/svg">
<path d="M6.5 0C4.77615 0 3.12271 0.684819 1.90379 1.90379C0.684768 3.12274 0 4.77598 0 6.5C0 8.22402 0.684819 9.87729 1.90379 11.0962C3.12274 12.3152 4.77598 13 6.5 13C8.22402 13 9.87729 12.3152 11.0962 11.0962C12.3152 9.87726 13 8.22402 13 6.5C13 5.35901 12.6997 4.2382 12.1292 3.25C11.5587 2.26188 10.7381 1.44134 9.75008 0.870899C8.76197 0.300405 7.64114 8.47181e-05 6.50008 8.47181e-05L6.5 0ZM6.5 11.375C5.20706 11.375 3.96703 10.8614 3.0528 9.94717C2.1386 9.0329 1.62497 7.79286 1.62497 6.49997C1.62497 5.20708 2.1386 3.967 3.0528 3.05277C3.96707 2.13857 5.20711 1.62493 6.5 1.62493C7.79289 1.62493 9.03297 2.13857 9.9472 3.05277C10.8614 3.96703 11.375 5.20708 11.375 6.49997C11.375 7.79286 10.8614 9.03294 9.9472 9.94717C9.03294 10.8614 7.79289 11.375 6.5 11.375Z" fill="white" fill-opacity="0.5"/>
<path d="M8.32813 6.50001H6.90625C6.79854 6.50001 6.69519 6.45723 6.61902 6.381C6.54278 6.30482 6.5 6.20149 6.5 6.09376V4.06251C6.5 3.77224 6.34514 3.50398 6.09375 3.35885C5.84235 3.21372 5.53265 3.21372 5.28125 3.35885C5.02985 3.50399 4.875 3.77224 4.875 4.06251V6.09376C4.875 6.63245 5.08904 7.14913 5.46995 7.53006C5.85088 7.91098 6.36755 8.12501 6.90625 8.12501H8.32813C8.61839 8.12501 8.88665 7.97016 9.03178 7.71876C9.17692 7.46736 9.17692 7.15766 9.03178 6.90626C8.88665 6.65486 8.61839 6.50001 8.32813 6.50001Z" fill="white" fill-opacity="0.5"/>
</svg>
