<svg width="247" height="8" viewBox="0 0 247 8" fill="none" xmlns="http://www.w3.org/2000/svg">
<path d="M143.525 8.07705e-05C141.491 8.07705e-05 139.46 0.00557284 137.423 0.0288351C119.469 0.228503 88.8169 0.281484 70.859 0.291178C45.2815 0.441088 32.3304 0.568064 6.7849 0.764175C5.55474 0.769667 2.46113 1.34314 1.14535 1.91888C-0.563411 2.66002 0.0526299 2.49687 0.393802 3.29614C0.941617 4.54902 3.7268 4.54224 7.96494 4.92833C13.7381 5.45656 21.169 4.58877 26.9623 4.43433C35.5926 4.20817 44.1845 5.13445 52.7833 4.87113C61.1022 4.61848 69.4375 5.22749 77.7802 5.03202C105.936 4.39361 134.481 4.14191 162.403 3.89511C174.878 3.77945 177.27 3.54456 189.759 3.42987C191.435 3.41113 199.329 3.41113 201.018 3.39562C192.098 4.26341 179.39 4.75098 170.795 6.3576C170.608 6.38732 169.277 6.95627 170.166 7.16272C177.373 8.82236 189.967 7.62247 197.092 6.9091C213.002 5.35409 224.566 5.04981 242.541 4.31957C244.916 4.22684 247.508 3.44078 246.914 2.83081C246.107 1.99726 244.539 1.39374 241.77 1.1954C238.66 0.963747 233.911 1.34434 231.759 1.10267C226.648 0.532437 210.312 1.05098 205.018 1.03321C197.795 1.00995 193.592 1.09621 186.362 0.913025C172.143 0.546004 157.775 0.0054588 143.525 0L143.525 8.07705e-05Z" fill="url(#paint0_linear_1736_112)"/>
<defs>
<linearGradient id="paint0_linear_1736_112" x1="34.6851" y1="5.06669" x2="253.012" y2="-4.24199" gradientUnits="userSpaceOnUse">
<stop stop-color="#E6C87D"/>
<stop offset="1" stop-color="#FF8D3A"/>
</linearGradient>
</defs>
</svg>
