<svg width="42" height="36" viewBox="0 0 42 36" fill="none" xmlns="http://www.w3.org/2000/svg">
<path fill-rule="evenodd" clip-rule="evenodd" d="M42 17.9997C42 18.58 41.7927 19.0848 41.3778 19.5137L26.7439 34.656C26.3536 35.0598 25.8778 35.2614 25.3169 35.2614C24.756 35.2614 24.2681 35.0598 23.8536 34.656C23.4633 34.2267 23.2681 33.7223 23.2681 33.1416C23.2681 32.5612 23.4633 32.0693 23.8536 31.6655L35.0125 20.1198H0.5V15.8802H35.0125L23.8536 4.37249C23.4633 3.94322 23.2681 3.4388 23.2681 2.85807C23.2681 2.27777 23.4633 1.78586 23.8536 1.38202C24.2681 0.953118 24.756 0.738281 25.3169 0.738281C25.8778 0.738281 26.3536 0.953128 26.7439 1.38202L41.3778 16.5232C41.7927 16.927 42 17.4193 42 17.9997Z" fill="url(#paint0_linear_34_4364)"/>
<defs>
<linearGradient id="paint0_linear_34_4364" x1="39" y1="16.9537" x2="-6.00048" y2="17.4316" gradientUnits="userSpaceOnUse">
<stop stop-color="white" stop-opacity="0.35"/>
<stop offset="1" stop-color="white" stop-opacity="0"/>
</linearGradient>
</defs>
</svg>
