<svg width="40" height="36" viewBox="0 0 40 36" fill="none" xmlns="http://www.w3.org/2000/svg">
<path d="M0.622166 16.4863C0.207256 16.9152 0 17.42 0 18.0003C0 18.5807 0.207256 19.073 0.622166 19.4768L15.2561 34.618C15.6464 35.0469 16.1222 35.2617 16.6831 35.2617C17.244 35.2617 17.7319 35.0469 18.1464 34.618C18.5367 34.2141 18.7319 33.7222 18.7319 33.1419C18.7319 32.5612 18.5367 32.0568 18.1464 31.6275L6.98745 20.1198L40 20.1198V15.8802L6.98745 15.8802L18.1464 4.3345C18.5367 3.93066 18.7319 3.43875 18.7319 2.85845C18.7319 2.27772 18.5367 1.7733 18.1464 1.34403C17.7319 0.940186 17.244 0.738644 16.6831 0.738644C16.1222 0.738644 15.6464 0.940174 15.2561 1.34403L0.622166 16.4863Z" fill="url(#paint0_linear_34_4366)"/>
<defs>
<linearGradient id="paint0_linear_34_4366" x1="-4.17801e-06" y1="17.4771" x2="37.5" y2="17.4771" gradientUnits="userSpaceOnUse">
<stop stop-color="white" stop-opacity="0.35"/>
<stop offset="1" stop-color="white" stop-opacity="0"/>
</linearGradient>
</defs>
</svg>
