<svg width="31" height="31" viewBox="0 0 31 31" fill="none" xmlns="http://www.w3.org/2000/svg">
<path d="M29.6962 4.86723H24.937V2.54799H25.1651C25.8496 2.54799 26.4364 1.99272 26.4364 1.27399C26.4364 0.555401 25.8823 0 25.1651 0H5.80237C5.11786 0 4.53106 0.555265 4.53106 1.27399C4.53106 1.99259 5.08515 2.54799 5.80237 2.54799H6.03051V4.86723H1.27132C0.586804 4.86723 0 5.4225 0 6.14123V7.44786C0 11.6944 2.86856 15.451 6.9758 16.5616L9.29018 17.1823C9.38801 17.313 9.48574 17.4109 9.58358 17.5416C10.6593 18.6523 11.9632 19.3709 13.4626 19.6975V22.2455C13.4626 23.1928 12.7129 23.9441 11.7676 23.9441C11.4091 23.9441 11.1483 24.2381 11.1483 24.5648V25.5447C11.1483 25.904 10.8549 26.1654 10.5289 26.1654H9.6814C9.32286 26.1654 9.06203 26.4594 9.06203 26.7861V30.3793C9.06203 30.7386 9.35543 31 9.6814 31H21.3186C21.6771 31 21.938 30.706 21.938 30.3793V26.7861C21.938 26.4268 21.6446 26.1654 21.3186 26.1654H20.4711C20.1126 26.1654 19.8517 25.8714 19.8517 25.5447V24.5648C19.8517 24.2055 19.5583 23.9441 19.2324 23.9441C18.287 23.9441 17.5374 23.1927 17.5374 22.2455V19.6975C19.0042 19.3709 20.3081 18.6523 21.4164 17.5416C21.5143 17.4436 21.612 17.313 21.7098 17.1823L24.0242 16.5616C28.1314 15.451 31 11.6944 31 7.44786V6.14123C30.9673 5.45517 30.4134 4.86723 29.6962 4.86723ZM2.5427 7.4805V7.44786H6.0632C6.12835 8.91782 6.38917 11.5638 7.39965 14.079C4.5311 13.1643 2.5427 10.4858 2.5427 7.4805ZM16.6247 14.961V15.9409C16.6247 16.235 16.3966 16.4636 16.1032 16.4636H14.8971C14.6037 16.4636 14.3756 16.235 14.3756 15.9409V14.9936C13.1368 14.7976 12.1916 13.785 12.0612 12.5437C12.0612 12.413 12.0938 12.2497 12.1916 12.1517C12.2895 12.0537 12.4525 11.9884 12.5827 11.9884H13.7888C14.0496 11.9884 14.2452 12.1517 14.3103 12.3803C14.3755 12.6417 14.5711 12.8051 14.8318 12.8051H15.8749C16.3639 12.8051 16.7877 12.4458 16.8202 11.9884C16.8528 11.727 16.7551 11.4984 16.5921 11.3025C16.4291 11.1065 16.1683 11.0084 15.9402 11.0084L15.1578 11.0083C13.4954 11.0083 12.0611 9.76698 11.8981 8.1664C11.7351 6.56575 12.7782 5.09582 14.3429 4.76916V3.82182C14.3429 3.5278 14.571 3.2992 14.8644 3.2992H16.0704C16.3638 3.2992 16.592 3.52781 16.592 3.82182L16.5921 4.73652C17.8308 4.93249 18.776 5.9451 18.9065 7.18646C18.9065 7.31714 18.8739 7.48048 18.776 7.57839C18.6782 7.67643 18.5152 7.74172 18.3849 7.74172H17.1789C16.9181 7.74172 16.7225 7.57839 16.6574 7.34979C16.5922 7.12118 16.3965 6.92508 16.1358 6.92508H15.0928C14.6038 6.92508 14.18 7.28437 14.1149 7.74172C14.0823 8.00309 14.18 8.23171 14.343 8.42768C14.506 8.62365 14.7668 8.7217 14.9949 8.7217H15.9077C16.7878 8.7217 17.6354 9.11363 18.2547 9.76695C18.874 10.4203 19.1347 11.3022 19.0696 12.1842C18.9391 13.5236 17.9612 14.6344 16.6247 14.961ZM28.4249 7.4805C28.4249 10.5184 26.4365 13.1644 23.5679 14.0463C24.5784 11.5311 24.8392 8.88513 24.9044 7.41517H28.4249L28.4249 7.4805Z" fill="#FAF3E1"/>
</svg>
