<svg width="501" height="501" viewBox="0 0 501 501" fill="none" xmlns="http://www.w3.org/2000/svg">
<path d="M0.5 0.5H500.5V500.5H0.5V0.5Z" fill="url(#paint0_linear_585_895)"/>
<path d="M297.845 232.365H307.691V269.605H297.845V232.365Z" fill="#FFC468"/>
<path d="M307.69 277.47V307.855H277.112V298.092H297.844V277.47H307.69Z" fill="#FFC468"/>
<path d="M231.761 298.092H269.203V307.855H231.761V298.092Z" fill="#FFC468"/>
<path d="M223.888 298.092V307.855H193.34V277.47H203.152V298.092H223.888Z" fill="#FFC468"/>
<path d="M193.34 232.365H203.152V269.605H193.34V232.365Z" fill="#FFC468"/>
<path d="M307.69 194.145V224.53H297.844V203.908H277.112V194.145H307.69Z" fill="#FFC468"/>
<path d="M231.761 194.145H269.203V203.908H231.761V194.145Z" fill="#FFC468"/>
<path d="M223.888 194.145V203.908H203.152V224.53H193.34V194.145H223.888Z" fill="#FFC468"/>
<path d="M323.318 375.268V389.065C322.087 388.608 320.764 388.363 319.381 388.363C317.994 388.363 316.67 388.608 315.44 389.065V378.511L290.737 353.94V314.007H298.615V350.696L323.318 375.268Z" fill="#FFC468"/>
<path d="M245.023 314.007V350.633L222.442 373.065V381.264C221.212 380.807 219.888 380.562 218.505 380.562C217.122 380.562 215.798 380.807 214.568 381.264V369.821L237.149 347.39V314.036H245.023V314.007Z" fill="#FFC468"/>
<path d="M203.092 314.007V335.58L192.448 346.164C191.43 343.656 189.491 341.606 187.124 340.35L195.214 332.303V314.007H203.092Z" fill="#FFC468"/>
<path d="M265.081 373.031C265.081 375.175 263.299 376.917 261.174 376.917C259.023 376.917 257.237 375.205 257.237 373.031C257.237 370.892 259.023 369.116 261.174 369.116C263.299 369.116 265.081 370.862 265.081 373.031Z" fill="#FFC468"/>
<path d="M222.443 392.279C222.443 394.393 220.661 396.165 218.506 396.165C216.351 396.165 214.599 394.393 214.599 392.279C214.599 390.139 216.321 388.363 218.506 388.363C220.691 388.363 222.443 390.139 222.443 392.279Z" fill="#FFC468"/>
<path d="M185.555 350.726C185.555 352.866 183.773 354.612 181.618 354.612C179.464 354.612 177.681 352.899 177.681 350.726C177.681 348.583 179.464 346.807 181.618 346.807C183.773 346.807 185.555 348.583 185.555 350.726Z" fill="#FFC468"/>
<path d="M323.319 400.084C323.319 402.224 321.533 404 319.382 404C317.227 404 315.474 402.224 315.474 400.084C315.474 397.941 317.197 396.198 319.382 396.198C321.566 396.198 323.319 397.911 323.319 400.084Z" fill="#FFC468"/>
<path d="M265.111 314.007V361.986C263.88 361.526 262.561 361.281 261.174 361.281C259.791 361.281 258.467 361.526 257.237 361.986V314.007H265.111Z" fill="#FFC468"/>
<path d="M216.044 314.007H223.918V342.891H216.044V314.007Z" fill="#FFC468"/>
<path d="M272.803 314.007H280.68V342.891H272.803V314.007Z" fill="#FFC468"/>
<path d="M323.318 112.934V126.732L298.615 151.307V187.993H290.737V148.06L315.44 123.489V112.934C316.67 113.391 317.994 113.637 319.381 113.637C320.764 113.637 322.117 113.391 323.318 112.934Z" fill="#FFC468"/>
<path d="M245.023 151.396V188.026H237.149V154.672L214.568 132.241V120.765C215.798 121.226 217.122 121.471 218.505 121.471C219.888 121.471 221.212 121.226 222.442 120.765V128.968L245.023 151.396Z" fill="#FFC468"/>
<path d="M203.092 166.453V188.026H195.214V169.726L187.124 161.649C189.491 160.394 191.43 158.343 192.448 155.835L203.092 166.453Z" fill="#FFC468"/>
<path d="M265.081 128.969C265.081 131.108 263.299 132.884 261.174 132.884C259.023 132.884 257.237 131.108 257.237 128.969C257.237 126.825 259.023 125.083 261.174 125.083C263.299 125.083 265.081 126.825 265.081 128.969Z" fill="#FFC468"/>
<path d="M222.443 109.721C222.443 111.861 220.661 113.637 218.506 113.637C216.351 113.637 214.599 111.861 214.599 109.721C214.599 107.607 216.321 105.835 218.506 105.835C220.691 105.835 222.443 107.607 222.443 109.721Z" fill="#FFC468"/>
<path d="M185.555 151.273C185.555 153.417 183.773 155.193 181.618 155.193C179.464 155.193 177.681 153.417 177.681 151.273C177.681 149.134 179.464 147.387 181.618 147.387C183.773 147.387 185.555 149.134 185.555 151.273Z" fill="#FFC468"/>
<path d="M323.319 101.916C323.319 104.059 321.533 105.802 319.382 105.802C317.227 105.802 315.474 104.089 315.474 101.916C315.474 99.7461 317.227 98 319.382 98C321.566 98 323.319 99.7758 323.319 101.916Z" fill="#FFC468"/>
<path d="M265.111 140.013V187.993H257.237V140.013C258.467 140.474 259.791 140.719 261.174 140.719C262.561 140.719 263.914 140.503 265.111 140.013Z" fill="#FFC468"/>
<path d="M216.044 159.109H223.918V187.993H216.044V159.109Z" fill="#FFC468"/>
<path d="M272.803 159.109H280.68V187.993H272.803V159.109Z" fill="#FFC468"/>
<path d="M125.29 326.827H106V318.963H122.027L146.73 294.391H186.879V302.223H149.992L125.29 326.827Z" fill="#FFC468"/>
<path d="M186.88 248.89H150.087L127.535 226.458H113.077V218.623H130.797L153.349 241.055H186.88V248.89Z" fill="#FFC468"/>
<path d="M186.878 207.211H165.221L151.222 193.287L156.792 187.752L168.479 199.38H186.878V207.211Z" fill="#FFC468"/>
<path d="M135.412 261.038H186.88V268.869H135.412V261.038Z" fill="#FFC468"/>
<path d="M157.837 220.095H186.88V227.926H157.837V220.095Z" fill="#FFC468"/>
<path d="M157.837 276.552H186.88V284.383H157.837V276.552Z" fill="#FFC468"/>
<path d="M395 326.827H375.71L351.004 302.223H314.121V294.391H354.266L378.969 318.963H395V326.827Z" fill="#FFC468"/>
<path d="M350.914 248.89H314.121V241.055H347.652L370.204 218.623H387.924V226.458H373.462L350.914 248.89Z" fill="#FFC468"/>
<path d="M335.778 207.211H314.121V199.38H332.516L344.207 187.752L349.774 193.287L335.778 207.211Z" fill="#FFC468"/>
<path d="M314.121 261.038H365.588V268.869H314.121V261.038Z" fill="#FFC468"/>
<path d="M314.121 220.095H343.16V227.926H314.121V220.095Z" fill="#FFC468"/>
<path d="M314.121 276.552H343.16V284.383H314.121V276.552Z" fill="#FFC468"/>
<path d="M245.394 256.294C242.192 246.04 240.387 240.245 239.981 238.908C239.582 237.563 239.299 236.497 239.131 235.713C238.404 238.488 236.346 245.349 232.957 256.294H245.394Z" fill="#FFC468"/>
<path fill-rule="evenodd" clip-rule="evenodd" d="M211.059 211.769H289.969V290.26H211.059V211.769ZM251.255 276.058L247.795 264.749H230.422L226.962 276.058H216.061L232.897 228.342H245.26L262.156 276.058H251.255ZM268.161 228.535V276.058H278.272V228.535H268.161Z" fill="#FFC468"/>
<defs>
<linearGradient id="paint0_linear_585_895" x1="448.847" y1="459.401" x2="16.2494" y2="-6.2244" gradientUnits="userSpaceOnUse">
<stop/>
<stop offset="1" stop-color="#707070"/>
</linearGradient>
</defs>
</svg>
