<svg width="377" height="383" viewBox="0 0 377 383" fill="none" xmlns="http://www.w3.org/2000/svg">
<path d="M73.5709 0H303.429C344.063 0 377 32.9433 377 73.5766V309.412C377 350.057 344.063 383 303.429 383H73.5709C32.9373 383 0 350.057 0 309.412V73.5766C0 32.9433 32.9373 0 73.5709 0Z" fill="url(#paint0_linear_544_519)"/>
<path d="M103.171 136.592H267.968C285.267 136.592 299.296 150.629 299.296 167.944V235.439C299.296 252.754 285.267 266.791 267.968 266.791H103.171C85.8722 266.791 71.8516 252.754 71.8516 235.439V167.944C71.8516 150.629 85.8722 136.592 103.171 136.592Z" fill="#FCA51E"/>
<path d="M277.93 239.514C277.421 239.544 276.94 239.677 276.502 239.885L267.041 244.452C265.456 245.17 264.904 246.843 265.788 248.146C266.673 249.464 268.67 249.9 270.212 249.116L279.699 244.548C282.712 243.171 281.355 239.3 277.93 239.514Z" fill="white"/>
<path d="M231.144 264.515C230.676 264.555 230.224 264.694 229.822 264.93L220.936 269.945C219.458 270.735 218.924 272.574 219.77 274.024C220.599 275.456 222.472 275.937 223.917 275.082L232.795 270.067C235.628 268.536 234.363 264.287 231.144 264.515Z" fill="white"/>
<path d="M234.482 226.507C232.026 226.59 230.559 229.128 231.84 231.1L237.354 239.997C238.255 241.445 240.226 241.936 241.763 241.095C243.309 240.255 243.822 238.399 242.929 236.951L237.416 228.063C236.824 227.073 235.693 226.482 234.482 226.507Z" fill="white"/>
<path d="M258.634 223.775C257.334 223.84 256.222 224.739 255.903 225.998L253.254 235.784C252.764 237.378 253.712 239.07 255.339 239.496C256.958 239.937 258.609 238.948 259.01 237.321L261.65 227.56C262.215 225.606 260.678 223.685 258.634 223.775Z" fill="white"/>
<path d="M219.26 247.506C215.794 247.592 215.271 251.589 218.63 252.268L228.472 254.393C230.099 254.806 231.824 254.047 232.265 252.708C232.707 251.376 231.669 250.01 230.009 249.717L220.143 247.599C219.856 247.532 219.562 247.506 219.26 247.506Z" fill="white"/>
<path d="M248.896 254.26C251.021 253.099 253.351 253.516 254.299 255.233L273.814 290.477C275.449 293.812 280.411 291.082 278.457 287.943L274.893 281.509C272.457 277.102 280.125 273.374 282.357 277.405L285.161 282.465C286.796 285.792 291.759 283.07 289.805 279.923L288.309 277.217C287.769 276.244 287.802 274.944 288.644 273.693C289.502 272.434 291.055 271.584 292.576 271.527C294.088 271.486 295.217 272.156 295.748 273.096L297.686 276.62C299.402 279.702 304.054 277.143 302.345 274.053L301.602 272.737C301.176 271.952 300.931 271.183 301.283 270.325C301.781 269.172 303.228 268.371 304.487 268.314C305.746 268.273 306.409 268.51 307.079 269.679C310.243 275.132 316.235 286.218 316.235 286.218C321.23 295.308 322.939 303.386 321.492 310.114C320.053 316.842 315.516 322.573 307.856 326.759C300.204 330.936 294.841 332.056 289.919 331.5C285.006 330.936 280.387 328.647 275.588 324.944L247.816 303.467C246.378 302.347 245.871 301.137 248.045 299.78C250.318 298.341 253.31 299.78 255.477 300.827C255.542 300.868 267.879 307.326 267.879 307.326C270.2 308.479 272.645 305.969 271.402 303.704L246.844 259.337C245.56 257.04 246.999 255.307 248.896 254.26ZM246.32 249.625C244.922 250.393 243.712 251.481 242.789 252.846C240.949 255.56 240.63 259.043 242.192 261.88L262.581 298.677L259.401 297.066C257.471 295.962 252.991 294.074 250.277 294.041C247.465 294.049 244.98 295.071 243.255 296.625C240.508 299.102 240.123 301.661 241.767 304.62C242.993 306.827 245.094 308.152 246.721 309.403L272.359 329.138C277.615 333.185 283.142 336.054 289.314 336.757C295.47 337.46 302.1 335.931 309.327 331.827C318.974 326.71 324.868 319.605 326.667 311.226C328.482 302.83 326.258 293.469 320.879 283.659L311.723 267.128C310.284 264.52 307.349 262.983 304.365 263.22C299.983 263.572 297.833 265.346 296.541 268.453C294.391 266.335 291.726 266.204 288.922 267.136C286.297 268.028 284.998 269.654 283.714 271.633C282.316 270.864 280.681 270.48 279.013 270.529C275.866 270.627 272.964 272.164 271.108 274.666L258.935 252.683C257.373 249.846 254.234 248.26 250.948 248.358C249.304 248.399 247.726 248.857 246.32 249.625Z" fill="white"/>
<path d="M95.131 144.105L101.213 140.598L117.85 157.398L111.768 160.913L95.131 144.105ZM168.431 93.0665C168.308 93.1401 168.177 93.2137 168.071 93.3036C166.166 94.677 165.741 97.3422 167.123 99.247C167.703 100.04 168.553 100.62 169.526 100.866L180.8 103.882C183.023 104.667 185.443 103.506 186.228 101.291C187.005 99.0753 185.844 96.6554 183.637 95.8624C183.432 95.797 183.211 95.7316 183.007 95.6989L171.717 92.6823C170.63 92.3552 169.436 92.5024 168.431 93.0665ZM165.34 72.1296C165.332 72.1296 165.332 72.1378 165.332 72.1378C163.378 73.454 162.888 76.111 164.204 78.0567C165.487 79.937 168.022 80.4766 169.959 79.283L180.08 73.4458C182.132 72.3176 182.884 69.7261 181.764 67.6741C180.636 65.6139 178.053 64.8618 175.993 65.99C175.935 66.0227 175.886 66.0472 175.821 66.0881L165.708 71.917C165.586 71.9824 165.463 72.056 165.34 72.1296ZM60.0672 124.607L64.1058 122.285L75.5185 142.028L71.4799 144.35L60.0672 124.607ZM69.8939 115.311L91.9672 102.574L106.511 127.73L99.8482 131.58L84.4296 140.467L69.8939 115.311ZM151.679 47.6365C150.747 48.2169 150.069 49.1407 149.783 50.2117L146.766 61.469C146.055 63.7091 147.306 66.0962 149.546 66.8157C151.786 67.5106 154.173 66.2761 154.884 64.0361C154.925 63.9298 154.95 63.8072 154.974 63.6845L157.999 52.4272C158.645 50.1626 157.337 47.8163 155.08 47.1623C153.928 46.8353 152.693 47.007 151.679 47.6365ZM122.02 59.9239L158.506 123.078L114.719 124.958L98.5074 96.8925L122.02 59.9239ZM119.959 48.1433C119.412 48.4867 118.937 48.9445 118.602 49.4759L90.5283 93.5897L61.9476 110.087C60.2961 111.044 59.4868 112.998 59.9855 114.845L52.1454 119.366C52.0228 119.424 51.892 119.497 51.7693 119.579C49.9953 120.854 49.4803 123.266 50.5676 125.163L66.2314 152.272C67.4005 154.299 70.0002 155.019 72.0359 153.842C72.0522 153.842 72.0604 153.833 72.0604 153.833L79.9005 149.312C81.2576 150.637 83.3341 150.898 84.9937 149.958L87.4953 148.511L108.023 169.244C109.381 170.609 111.49 170.887 113.158 169.922L126.859 162.017C128.895 160.84 129.59 158.248 128.413 156.212C128.233 155.902 128.012 155.607 127.759 155.354L108.825 136.216L113.525 133.493L165.855 131.278C168.202 131.188 170.041 129.234 169.959 126.879C169.935 126.176 169.739 125.49 169.387 124.885L125.895 49.6067C124.717 47.5874 122.101 46.9007 120.082 48.0698C120.041 48.0943 120.008 48.1188 119.959 48.1433Z" fill="white"/>
<path d="M140.258 216.194H147.076L149.79 208.632H163.304L165.985 216.194H172.738L158.873 181.408H154.197L140.258 216.194ZM151.908 203.293L156.559 190.589L161.187 203.293H151.908Z" fill="white"/>
<path d="M175.195 216.194H185.243C196.933 216.194 203.384 209.891 203.384 199.059C203.384 187.76 197.138 181.408 185.292 181.408H175.195V216.194ZM181.449 210.455V187.139H185.194C193.761 187.139 197.138 190.54 197.138 198.789C197.138 207.479 192.306 210.455 184.63 210.455H181.449Z" fill="white"/>
<path d="M217.482 216.584C224.128 216.584 229.573 212.619 229.573 206.046C229.573 194.503 212.732 196.718 212.732 190.17C212.732 187.954 214.645 186.45 217.114 186.45C219.452 186.45 221.52 187.807 222.722 190.17L227.921 186.99C225.534 182.755 221.618 180.883 217.334 180.883C211.473 180.883 206.478 184.333 206.478 190.489C206.478 201.812 223.319 199.4 223.319 206.61C223.319 209.079 221.299 211.05 217.58 211.05C213.884 211.05 210.811 209.128 210.361 204.796L204.164 206.365C205.268 213.216 211.326 216.584 217.482 216.584Z" fill="white"/>
<defs>
<linearGradient id="paint0_linear_544_519" x1="337.439" y1="354.082" x2="0.299394" y2="-0.284839" gradientUnits="userSpaceOnUse">
<stop/>
<stop offset="1" stop-color="#707070"/>
</linearGradient>
</defs>
</svg>
