<svg width="136" height="137" viewBox="0 0 136 137" fill="none" xmlns="http://www.w3.org/2000/svg">
<path d="M26.4799 0H109.211C123.836 0 135.691 11.7378 135.691 26.2155V110.248C135.691 124.726 123.836 136.464 109.211 136.464H26.4799C11.8549 136.464 0 124.726 0 110.248V26.2155C0 11.7378 11.8549 0 26.4799 0Z" fill="url(#paint0_linear_581_770)"/>
<path d="M78.4762 38.1763H80.7588V46.8168H78.4762V38.1763Z" fill="#FFC468"/>
<path d="M80.7586 48.6416V55.6918H73.6695V53.4265H78.4759V48.6416H80.7586Z" fill="#FFC468"/>
<path d="M63.1557 53.4265H71.8361V55.6918H63.1557V53.4265Z" fill="#FFC468"/>
<path d="M61.3305 53.4265V55.6918H54.2483V48.6416H56.5232V53.4265H61.3305Z" fill="#FFC468"/>
<path d="M54.2483 38.1763H56.5232V46.8168H54.2483V38.1763Z" fill="#FFC468"/>
<path d="M80.7586 29.3081V36.3582H78.4759V31.5734H73.6695V29.3081H80.7586Z" fill="#FFC468"/>
<path d="M63.1557 29.3081H71.8361V31.5734H63.1557V29.3081Z" fill="#FFC468"/>
<path d="M61.3305 29.3081V31.5734H56.5232V36.3582H54.2483V29.3081H61.3305Z" fill="#FFC468"/>
<path d="M84.3816 71.3334V74.5348C84.0964 74.4287 83.7895 74.3718 83.4689 74.3718C83.1473 74.3718 82.8405 74.4287 82.5553 74.5348V72.0859L76.8283 66.3847V57.1192H78.6546V65.6322L84.3816 71.3334Z" fill="#FFC468"/>
<path d="M66.2303 57.1192V65.6175L60.9952 70.8222V72.7246C60.7099 72.6186 60.4031 72.5617 60.0824 72.5617C59.7618 72.5617 59.455 72.6186 59.1697 72.7246V70.0697L64.4049 64.865V57.1261H66.2303V57.1192Z" fill="#FFC468"/>
<path d="M56.5092 57.1192V62.1248L54.0415 64.5806C53.8056 63.9987 53.3561 63.5229 52.8073 63.2316L54.6828 61.3645V57.1192H56.5092Z" fill="#FFC468"/>
<path d="M70.8803 70.8145C70.8803 71.3119 70.4672 71.7161 69.9745 71.7161C69.4758 71.7161 69.0618 71.3188 69.0618 70.8145C69.0618 70.318 69.4758 69.906 69.9745 69.906C70.4672 69.906 70.8803 70.3111 70.8803 70.8145Z" fill="#FFC468"/>
<path d="M60.9954 75.2804C60.9954 75.7709 60.5822 76.1821 60.0827 76.1821C59.5831 76.1821 59.1769 75.7709 59.1769 75.2804C59.1769 74.7839 59.5762 74.3719 60.0827 74.3719C60.5891 74.3719 60.9954 74.7839 60.9954 75.2804Z" fill="#FFC468"/>
<path d="M52.4436 65.6391C52.4436 66.1356 52.0305 66.5407 51.5309 66.5407C51.0313 66.5407 50.6182 66.1433 50.6182 65.6391C50.6182 65.1417 51.0313 64.7297 51.5309 64.7297C52.0305 64.7297 52.4436 65.1417 52.4436 65.6391Z" fill="#FFC468"/>
<path d="M84.3818 77.0915C84.3818 77.588 83.9678 78 83.4691 78C82.9695 78 82.5633 77.588 82.5633 77.0915C82.5633 76.5941 82.9626 76.1898 83.4691 76.1898C83.9756 76.1898 84.3818 76.5872 84.3818 77.0915Z" fill="#FFC468"/>
<path d="M70.8873 57.1192V68.2518C70.602 68.1449 70.2961 68.088 69.9745 68.088C69.6539 68.088 69.347 68.1449 69.0618 68.2518V57.1192H70.8873Z" fill="#FFC468"/>
<path d="M59.512 57.1192H61.3374V63.8211H59.512V57.1192Z" fill="#FFC468"/>
<path d="M72.6705 57.1192H74.4968V63.8211H72.6705V57.1192Z" fill="#FFC468"/>
<path d="M84.3816 10.4652V13.6666L78.6546 19.3686V27.8807H76.8283V18.6153L82.5553 12.9141V10.4652C82.8405 10.5712 83.1473 10.6281 83.4689 10.6281C83.7895 10.6281 84.1033 10.5712 84.3816 10.4652Z" fill="#FFC468"/>
<path d="M66.2303 19.3892V27.8884H64.4049V20.1495L59.1697 14.9448V12.2821C59.455 12.389 59.7618 12.4459 60.0824 12.4459C60.4031 12.4459 60.7099 12.389 60.9952 12.2821V14.1854L66.2303 19.3892Z" fill="#FFC468"/>
<path d="M56.5092 22.8829V27.8884H54.6828V23.6423L52.8073 21.7683C53.3561 21.477 53.8056 21.0012 54.0415 20.4193L56.5092 22.8829Z" fill="#FFC468"/>
<path d="M70.8803 14.1855C70.8803 14.682 70.4672 15.094 69.9745 15.094C69.4758 15.094 69.0618 14.682 69.0618 14.1855C69.0618 13.6881 69.4758 13.2839 69.9745 13.2839C70.4672 13.2839 70.8803 13.6881 70.8803 14.1855Z" fill="#FFC468"/>
<path d="M60.9954 9.71956C60.9954 10.2161 60.5822 10.6281 60.0827 10.6281C59.5831 10.6281 59.1769 10.2161 59.1769 9.71956C59.1769 9.22909 59.5762 8.81793 60.0827 8.81793C60.5891 8.81793 60.9954 9.22909 60.9954 9.71956Z" fill="#FFC468"/>
<path d="M52.4436 19.3608C52.4436 19.8582 52.0305 20.2702 51.5309 20.2702C51.0313 20.2702 50.6182 19.8582 50.6182 19.3608C50.6182 18.8643 51.0313 18.4592 51.5309 18.4592C52.0305 18.4592 52.4436 18.8643 52.4436 19.3608Z" fill="#FFC468"/>
<path d="M84.3818 7.90853C84.3818 8.4059 83.9678 8.81017 83.4691 8.81017C82.9695 8.81017 82.5633 8.41279 82.5633 7.90853C82.5633 7.40513 82.9695 7 83.4691 7C83.9756 7 84.3818 7.41203 84.3818 7.90853Z" fill="#FFC468"/>
<path d="M70.8873 16.7481V27.8806H69.0618V16.7481C69.347 16.855 69.6539 16.9119 69.9745 16.9119C70.2961 16.9119 70.6098 16.8619 70.8873 16.7481Z" fill="#FFC468"/>
<path d="M59.512 21.1788H61.3374V27.8807H59.512V21.1788Z" fill="#FFC468"/>
<path d="M72.6705 21.1788H74.4968V27.8807H72.6705V21.1788Z" fill="#FFC468"/>
<path d="M38.472 60.0939H34V58.2691H37.7157L43.4426 52.5679H52.7505V54.385H44.1989L38.472 60.0939Z" fill="#FFC468"/>
<path d="M52.7507 42.0104H44.2207L38.9925 36.8057H35.6407V34.9878H39.7488L44.977 40.1925H52.7507V42.0104Z" fill="#FFC468"/>
<path d="M52.7502 32.3398H47.7294L44.4839 29.1091L45.7752 27.8247L48.4848 30.5227H52.7502V32.3398Z" fill="#FFC468"/>
<path d="M40.8188 44.829H52.7507V46.646H40.8188V44.829Z" fill="#FFC468"/>
<path d="M46.0177 35.3291H52.7507V37.1462H46.0177V35.3291Z" fill="#FFC468"/>
<path d="M46.0177 48.4286H52.7507V50.2457H46.0177V48.4286Z" fill="#FFC468"/>
<path d="M101 60.0939H96.528L90.8002 54.385H82.2495V52.5679H91.5565L97.2834 58.2691H101V60.0939Z" fill="#FFC468"/>
<path d="M90.7795 42.0104H82.2495V40.1925H90.0232L95.2514 34.9878H99.3595V36.8057H96.0069L90.7795 42.0104Z" fill="#FFC468"/>
<path d="M87.2704 32.3398H82.2495V30.5227H86.5141L89.2246 27.8247L90.515 29.1091L87.2704 32.3398Z" fill="#FFC468"/>
<path d="M82.2495 44.829H94.1814V46.646H82.2495V44.829Z" fill="#FFC468"/>
<path d="M82.2495 35.3291H88.9817V37.1462H82.2495V35.3291Z" fill="#FFC468"/>
<path d="M82.2495 48.4286H88.9817V50.2457H82.2495V48.4286Z" fill="#FFC468"/>
<path d="M66.3163 43.7283C65.5739 41.3492 65.1555 40.0046 65.0613 39.6942C64.9689 39.3822 64.9032 39.1348 64.8643 38.9529C64.6957 39.5968 64.2186 41.1889 63.433 43.7283H66.3163Z" fill="#FFC468"/>
<path fill-rule="evenodd" clip-rule="evenodd" d="M58.3562 33.3974H76.6503V51.6095H58.3562V33.3974ZM67.675 48.3141L66.8729 45.6902H62.8452L62.0431 48.3141H59.5159L63.4191 37.2428H66.2852L70.2023 48.3141H67.675ZM71.5945 37.2875V48.314H73.9385V37.2875H71.5945Z" fill="#FFC468"/>
<path d="M29.6539 99L35.3599 86.4H37.1419L42.8659 99H40.9759L35.8819 87.408H36.6019L31.5079 99H29.6539ZM32.0839 95.85L32.5699 94.41H39.6619L40.1839 95.85H32.0839Z" fill="#FFC468"/>
<path d="M44.4935 99V89.46H46.1495V92.052L45.9875 91.404C46.2515 90.744 46.6955 90.24 47.3195 89.892C47.9435 89.544 48.7115 89.37 49.6235 89.37V91.044C49.5515 91.032 49.4795 91.026 49.4075 91.026C49.3475 91.026 49.2875 91.026 49.2275 91.026C48.3035 91.026 47.5715 91.302 47.0315 91.854C46.4915 92.406 46.2215 93.204 46.2215 94.248V99H44.4935Z" fill="#FFC468"/>
<path d="M55.416 99.108C54.456 99.108 53.712 98.85 53.184 98.334C52.656 97.818 52.392 97.08 52.392 96.12V87.372H54.12V96.048C54.12 96.564 54.246 96.96 54.498 97.236C54.762 97.512 55.134 97.65 55.614 97.65C56.154 97.65 56.604 97.5 56.964 97.2L57.504 98.442C57.24 98.67 56.922 98.838 56.55 98.946C56.19 99.054 55.812 99.108 55.416 99.108ZM50.772 90.882V89.46H56.856V90.882H50.772Z" fill="#FFC468"/>
<path d="M59.5931 99V89.46H61.3211V99H59.5931ZM60.4571 87.624C60.1211 87.624 59.8391 87.516 59.6111 87.3C59.3951 87.084 59.2871 86.82 59.2871 86.508C59.2871 86.184 59.3951 85.914 59.6111 85.698C59.8391 85.482 60.1211 85.374 60.4571 85.374C60.7931 85.374 61.0691 85.482 61.2851 85.698C61.5131 85.902 61.6271 86.16 61.6271 86.472C61.6271 86.796 61.5191 87.072 61.3031 87.3C61.0871 87.516 60.8051 87.624 60.4571 87.624Z" fill="#FFC468"/>
<path d="M64.8724 99V88.614C64.8724 87.678 65.1424 86.934 65.6824 86.382C66.2344 85.818 67.0144 85.536 68.0224 85.536C68.3944 85.536 68.7484 85.584 69.0844 85.68C69.4324 85.764 69.7264 85.902 69.9664 86.094L69.4444 87.408C69.2644 87.264 69.0604 87.156 68.8324 87.084C68.6044 87 68.3644 86.958 68.1124 86.958C67.6084 86.958 67.2244 87.102 66.9604 87.39C66.6964 87.666 66.5644 88.08 66.5644 88.632V89.91L66.6004 90.702V99H64.8724ZM63.2524 90.882V89.46H69.3364V90.882H63.2524ZM70.9744 99V89.46H72.7024V99H70.9744ZM71.8384 87.624C71.5024 87.624 71.2204 87.516 70.9924 87.3C70.7764 87.084 70.6684 86.82 70.6684 86.508C70.6684 86.184 70.7764 85.914 70.9924 85.698C71.2204 85.482 71.5024 85.374 71.8384 85.374C72.1744 85.374 72.4504 85.482 72.6664 85.698C72.8944 85.902 73.0084 86.16 73.0084 86.472C73.0084 86.796 72.9004 87.072 72.6844 87.3C72.4684 87.516 72.1864 87.624 71.8384 87.624Z" fill="#FFC468"/>
<path d="M80.1515 99.108C79.1795 99.108 78.3095 98.898 77.5415 98.478C76.7855 98.058 76.1915 97.482 75.7595 96.75C75.3275 96.018 75.1115 95.178 75.1115 94.23C75.1115 93.282 75.3275 92.442 75.7595 91.71C76.1915 90.978 76.7855 90.408 77.5415 90C78.3095 89.58 79.1795 89.37 80.1515 89.37C81.0155 89.37 81.7835 89.544 82.4555 89.892C83.1395 90.228 83.6675 90.732 84.0395 91.404L82.7255 92.25C82.4135 91.782 82.0295 91.44 81.5735 91.224C81.1295 90.996 80.6495 90.882 80.1335 90.882C79.5095 90.882 78.9515 91.02 78.4595 91.296C77.9675 91.572 77.5775 91.962 77.2895 92.466C77.0015 92.958 76.8575 93.546 76.8575 94.23C76.8575 94.914 77.0015 95.508 77.2895 96.012C77.5775 96.516 77.9675 96.906 78.4595 97.182C78.9515 97.458 79.5095 97.596 80.1335 97.596C80.6495 97.596 81.1295 97.488 81.5735 97.272C82.0295 97.044 82.4135 96.696 82.7255 96.228L84.0395 97.056C83.6675 97.716 83.1395 98.226 82.4555 98.586C81.7835 98.934 81.0155 99.108 80.1515 99.108Z" fill="#FFC468"/>
<path d="M86.1536 99V89.46H87.8816V99H86.1536ZM87.0176 87.624C86.6816 87.624 86.3996 87.516 86.1716 87.3C85.9556 87.084 85.8476 86.82 85.8476 86.508C85.8476 86.184 85.9556 85.914 86.1716 85.698C86.3996 85.482 86.6816 85.374 87.0176 85.374C87.3536 85.374 87.6296 85.482 87.8456 85.698C88.0736 85.902 88.1876 86.16 88.1876 86.472C88.1876 86.796 88.0796 87.072 87.8636 87.3C87.6476 87.516 87.3656 87.624 87.0176 87.624Z" fill="#FFC468"/>
<path d="M97.103 99V96.984L97.013 96.606V93.168C97.013 92.436 96.797 91.872 96.365 91.476C95.945 91.068 95.309 90.864 94.457 90.864C93.893 90.864 93.341 90.96 92.801 91.152C92.261 91.332 91.805 91.578 91.433 91.89L90.713 90.594C91.205 90.198 91.793 89.898 92.477 89.694C93.173 89.478 93.899 89.37 94.655 89.37C95.963 89.37 96.971 89.688 97.679 90.324C98.387 90.96 98.741 91.932 98.741 93.24V99H97.103ZM93.971 99.108C93.263 99.108 92.639 98.988 92.099 98.748C91.571 98.508 91.163 98.178 90.875 97.758C90.587 97.326 90.443 96.84 90.443 96.3C90.443 95.784 90.563 95.316 90.803 94.896C91.055 94.476 91.457 94.14 92.009 93.888C92.573 93.636 93.329 93.51 94.277 93.51H97.301V94.752H94.349C93.485 94.752 92.903 94.896 92.603 95.184C92.303 95.472 92.153 95.82 92.153 96.228C92.153 96.696 92.339 97.074 92.711 97.362C93.083 97.638 93.599 97.776 94.259 97.776C94.907 97.776 95.471 97.632 95.951 97.344C96.443 97.056 96.797 96.636 97.013 96.084L97.355 97.272C97.127 97.836 96.725 98.286 96.149 98.622C95.573 98.946 94.847 99.108 93.971 99.108Z" fill="#FFC468"/>
<path d="M101.939 99V85.644H103.667V99H101.939Z" fill="#FFC468"/>
<path d="M15.4252 119V106.4H17.2252V119H15.4252Z" fill="#FFC468"/>
<path d="M25.8394 109.37C26.6194 109.37 27.3034 109.52 27.8914 109.82C28.4914 110.12 28.9594 110.576 29.2954 111.188C29.6314 111.8 29.7994 112.574 29.7994 113.51V119H28.0714V113.708C28.0714 112.784 27.8434 112.088 27.3874 111.62C26.9434 111.152 26.3134 110.918 25.4974 110.918C24.8854 110.918 24.3514 111.038 23.8954 111.278C23.4394 111.518 23.0854 111.872 22.8334 112.34C22.5934 112.808 22.4734 113.39 22.4734 114.086V119H20.7454V109.46H22.4014V112.034L22.1314 111.35C22.4434 110.726 22.9234 110.24 23.5714 109.892C24.2194 109.544 24.9754 109.37 25.8394 109.37Z" fill="#FFC468"/>
<path d="M36.2734 119.108C35.3134 119.108 34.5694 118.85 34.0414 118.334C33.5134 117.818 33.2494 117.08 33.2494 116.12V107.372H34.9774V116.048C34.9774 116.564 35.1034 116.96 35.3554 117.236C35.6194 117.512 35.9914 117.65 36.4714 117.65C37.0114 117.65 37.4614 117.5 37.8214 117.2L38.3614 118.442C38.0974 118.67 37.7794 118.838 37.4074 118.946C37.0474 119.054 36.6694 119.108 36.2734 119.108ZM31.6294 110.882V109.46H37.7134V110.882H31.6294Z" fill="#FFC468"/>
<path d="M44.3821 119.108C43.3621 119.108 42.4621 118.898 41.6821 118.478C40.9141 118.058 40.3141 117.482 39.8821 116.75C39.4621 116.018 39.2521 115.178 39.2521 114.23C39.2521 113.282 39.4561 112.442 39.8641 111.71C40.2841 110.978 40.8541 110.408 41.5741 110C42.3061 109.58 43.1281 109.37 44.0401 109.37C44.9641 109.37 45.7801 109.574 46.4881 109.982C47.1961 110.39 47.7481 110.966 48.1441 111.71C48.5521 112.442 48.7561 113.3 48.7561 114.284C48.7561 114.356 48.7501 114.44 48.7381 114.536C48.7381 114.632 48.7321 114.722 48.7201 114.806H40.6021V113.564H47.8201L47.1181 113.996C47.1301 113.384 47.0041 112.838 46.7401 112.358C46.4761 111.878 46.1101 111.506 45.6421 111.242C45.1861 110.966 44.6521 110.828 44.0401 110.828C43.4401 110.828 42.9061 110.966 42.4381 111.242C41.9701 111.506 41.6041 111.884 41.3401 112.376C41.0761 112.856 40.9441 113.408 40.9441 114.032V114.32C40.9441 114.956 41.0881 115.526 41.3761 116.03C41.6761 116.522 42.0901 116.906 42.6181 117.182C43.1461 117.458 43.7521 117.596 44.4361 117.596C45.0001 117.596 45.5101 117.5 45.9661 117.308C46.4341 117.116 46.8421 116.828 47.1901 116.444L48.1441 117.56C47.7121 118.064 47.1721 118.448 46.5241 118.712C45.8881 118.976 45.1741 119.108 44.3821 119.108Z" fill="#FFC468"/>
<path d="M51.1556 119V105.644H52.8836V119H51.1556Z" fill="#FFC468"/>
<path d="M56.1829 119V105.644H57.9109V119H56.1829Z" fill="#FFC468"/>
<path d="M61.2103 119V109.46H62.9383V119H61.2103ZM62.0743 107.624C61.7383 107.624 61.4563 107.516 61.2283 107.3C61.0123 107.084 60.9043 106.82 60.9043 106.508C60.9043 106.184 61.0123 105.914 61.2283 105.698C61.4563 105.482 61.7383 105.374 62.0743 105.374C62.4103 105.374 62.6863 105.482 62.9023 105.698C63.1303 105.902 63.2443 106.16 63.2443 106.472C63.2443 106.796 63.1363 107.072 62.9203 107.3C62.7043 107.516 62.4223 107.624 62.0743 107.624Z" fill="#FFC468"/>
<path d="M70.4136 122.6C69.5376 122.6 68.6856 122.474 67.8576 122.222C67.0416 121.982 66.3756 121.634 65.8596 121.178L66.6876 119.846C67.1316 120.23 67.6776 120.53 68.3256 120.746C68.9736 120.974 69.6516 121.088 70.3596 121.088C71.4876 121.088 72.3156 120.824 72.8436 120.296C73.3716 119.768 73.6356 118.964 73.6356 117.884V115.868L73.8156 113.978L73.7256 112.07V109.46H75.3636V117.704C75.3636 119.384 74.9436 120.62 74.1036 121.412C73.2636 122.204 72.0336 122.6 70.4136 122.6ZM70.1976 118.604C69.2736 118.604 68.4456 118.412 67.7136 118.028C66.9936 117.632 66.4176 117.086 65.9856 116.39C65.5656 115.694 65.3556 114.89 65.3556 113.978C65.3556 113.054 65.5656 112.25 65.9856 111.566C66.4176 110.87 66.9936 110.33 67.7136 109.946C68.4456 109.562 69.2736 109.37 70.1976 109.37C71.0136 109.37 71.7576 109.538 72.4296 109.874C73.1016 110.198 73.6356 110.702 74.0316 111.386C74.4396 112.07 74.6436 112.934 74.6436 113.978C74.6436 115.01 74.4396 115.868 74.0316 116.552C73.6356 117.236 73.1016 117.752 72.4296 118.1C71.7576 118.436 71.0136 118.604 70.1976 118.604ZM70.3956 117.092C71.0316 117.092 71.5956 116.96 72.0876 116.696C72.5796 116.432 72.9636 116.066 73.2396 115.598C73.5276 115.13 73.6716 114.59 73.6716 113.978C73.6716 113.366 73.5276 112.826 73.2396 112.358C72.9636 111.89 72.5796 111.53 72.0876 111.278C71.5956 111.014 71.0316 110.882 70.3956 110.882C69.7596 110.882 69.1896 111.014 68.6856 111.278C68.1936 111.53 67.8036 111.89 67.5156 112.358C67.2396 112.826 67.1016 113.366 67.1016 113.978C67.1016 114.59 67.2396 115.13 67.5156 115.598C67.8036 116.066 68.1936 116.432 68.6856 116.696C69.1896 116.96 69.7596 117.092 70.3956 117.092Z" fill="#FFC468"/>
<path d="M82.9133 119.108C81.8933 119.108 80.9933 118.898 80.2133 118.478C79.4453 118.058 78.8453 117.482 78.4133 116.75C77.9933 116.018 77.7833 115.178 77.7833 114.23C77.7833 113.282 77.9873 112.442 78.3953 111.71C78.8153 110.978 79.3853 110.408 80.1053 110C80.8373 109.58 81.6593 109.37 82.5713 109.37C83.4953 109.37 84.3113 109.574 85.0193 109.982C85.7273 110.39 86.2793 110.966 86.6753 111.71C87.0833 112.442 87.2873 113.3 87.2873 114.284C87.2873 114.356 87.2813 114.44 87.2693 114.536C87.2693 114.632 87.2633 114.722 87.2513 114.806H79.1333V113.564H86.3513L85.6493 113.996C85.6613 113.384 85.5353 112.838 85.2713 112.358C85.0073 111.878 84.6413 111.506 84.1733 111.242C83.7173 110.966 83.1833 110.828 82.5713 110.828C81.9713 110.828 81.4373 110.966 80.9693 111.242C80.5013 111.506 80.1353 111.884 79.8713 112.376C79.6073 112.856 79.4753 113.408 79.4753 114.032V114.32C79.4753 114.956 79.6193 115.526 79.9073 116.03C80.2073 116.522 80.6213 116.906 81.1493 117.182C81.6773 117.458 82.2833 117.596 82.9673 117.596C83.5313 117.596 84.0413 117.5 84.4973 117.308C84.9653 117.116 85.3733 116.828 85.7213 116.444L86.6753 117.56C86.2433 118.064 85.7033 118.448 85.0553 118.712C84.4193 118.976 83.7053 119.108 82.9133 119.108Z" fill="#FFC468"/>
<path d="M94.7808 109.37C95.5608 109.37 96.2448 109.52 96.8328 109.82C97.4328 110.12 97.9008 110.576 98.2368 111.188C98.5728 111.8 98.7408 112.574 98.7408 113.51V119H97.0128V113.708C97.0128 112.784 96.7848 112.088 96.3288 111.62C95.8848 111.152 95.2548 110.918 94.4388 110.918C93.8268 110.918 93.2928 111.038 92.8368 111.278C92.3808 111.518 92.0268 111.872 91.7748 112.34C91.5348 112.808 91.4148 113.39 91.4148 114.086V119H89.6868V109.46H91.3428V112.034L91.0728 111.35C91.3848 110.726 91.8648 110.24 92.5128 109.892C93.1608 109.544 93.9168 109.37 94.7808 109.37Z" fill="#FFC468"/>
<path d="M106.097 119.108C105.125 119.108 104.255 118.898 103.487 118.478C102.731 118.058 102.137 117.482 101.705 116.75C101.273 116.018 101.057 115.178 101.057 114.23C101.057 113.282 101.273 112.442 101.705 111.71C102.137 110.978 102.731 110.408 103.487 110C104.255 109.58 105.125 109.37 106.097 109.37C106.961 109.37 107.729 109.544 108.401 109.892C109.085 110.228 109.613 110.732 109.985 111.404L108.671 112.25C108.359 111.782 107.975 111.44 107.519 111.224C107.075 110.996 106.595 110.882 106.079 110.882C105.455 110.882 104.897 111.02 104.405 111.296C103.913 111.572 103.523 111.962 103.235 112.466C102.947 112.958 102.803 113.546 102.803 114.23C102.803 114.914 102.947 115.508 103.235 116.012C103.523 116.516 103.913 116.906 104.405 117.182C104.897 117.458 105.455 117.596 106.079 117.596C106.595 117.596 107.075 117.488 107.519 117.272C107.975 117.044 108.359 116.696 108.671 116.228L109.985 117.056C109.613 117.716 109.085 118.226 108.401 118.586C107.729 118.934 106.961 119.108 106.097 119.108Z" fill="#FFC468"/>
<path d="M116.329 119.108C115.309 119.108 114.409 118.898 113.629 118.478C112.861 118.058 112.261 117.482 111.829 116.75C111.409 116.018 111.199 115.178 111.199 114.23C111.199 113.282 111.403 112.442 111.811 111.71C112.231 110.978 112.801 110.408 113.521 110C114.253 109.58 115.075 109.37 115.987 109.37C116.911 109.37 117.727 109.574 118.435 109.982C119.143 110.39 119.695 110.966 120.091 111.71C120.499 112.442 120.703 113.3 120.703 114.284C120.703 114.356 120.697 114.44 120.685 114.536C120.685 114.632 120.679 114.722 120.667 114.806H112.549V113.564H119.767L119.065 113.996C119.077 113.384 118.951 112.838 118.687 112.358C118.423 111.878 118.057 111.506 117.589 111.242C117.133 110.966 116.599 110.828 115.987 110.828C115.387 110.828 114.853 110.966 114.385 111.242C113.917 111.506 113.551 111.884 113.287 112.376C113.023 112.856 112.891 113.408 112.891 114.032V114.32C112.891 114.956 113.035 115.526 113.323 116.03C113.623 116.522 114.037 116.906 114.565 117.182C115.093 117.458 115.699 117.596 116.383 117.596C116.947 117.596 117.457 117.5 117.913 117.308C118.381 117.116 118.789 116.828 119.137 116.444L120.091 117.56C119.659 118.064 119.119 118.448 118.471 118.712C117.835 118.976 117.121 119.108 116.329 119.108Z" fill="#FFC468"/>
<defs>
<linearGradient id="paint0_linear_581_770" x1="121.452" y1="126.16" x2="1.39522" y2="-1.31404" gradientUnits="userSpaceOnUse">
<stop/>
<stop offset="1" stop-color="#707070"/>
</linearGradient>
</defs>
</svg>
