<svg width="134" height="136" viewBox="0 0 134 136" fill="none" xmlns="http://www.w3.org/2000/svg">
<path d="M26.0511 0H107.459C121.845 0 133.51 11.6764 133.51 26.0784V109.671C133.51 124.073 121.845 135.75 107.459 135.75H26.0511C11.6647 135.75 0 124.073 0 109.671V26.0784C0 11.6764 11.6647 0 26.0511 0Z" fill="url(#paint0_linear_451_243)"/>
<path d="M26.0924 109.626C25.8436 109.906 25.4936 110.178 25.0504 110.435C24.6149 110.695 24.1094 110.909 23.5418 111.072C22.9818 111.228 22.3753 111.306 21.7221 111.306C20.6217 111.306 19.6263 111.049 18.7359 110.528C17.8533 110.011 17.1495 109.276 16.6207 108.319C16.0997 107.367 15.8431 106.251 15.8431 104.975C15.8431 104.073 15.9986 103.241 16.3096 102.471C16.6285 101.705 17.0717 101.041 17.6316 100.481C18.1993 99.9208 18.8487 99.4853 19.5758 99.1742C20.3106 98.8632 21.0844 98.7076 21.8931 98.7076C22.5541 98.7076 23.1763 98.8126 23.7595 99.0187C24.3388 99.217 24.8482 99.4814 25.2837 99.8119C25.7269 100.135 26.0769 100.477 26.3257 100.838L25.0504 102.16C24.6149 101.717 24.1328 101.348 23.604 101.056C23.0829 100.757 22.5153 100.605 21.8931 100.605C21.1855 100.605 20.5167 100.784 19.8868 101.134C19.2647 101.488 18.7553 101.989 18.3626 102.643C17.9777 103.296 17.7872 104.073 17.7872 104.975C17.7872 105.963 17.9816 106.787 18.3782 107.448C18.7709 108.102 19.288 108.592 19.9335 108.91C20.5867 109.233 21.2905 109.392 22.0487 109.392C22.7408 109.392 23.3473 109.26 23.8684 108.988C24.3972 108.708 24.821 108.405 25.1437 108.07L26.0924 109.626Z" fill="#FFC468"/>
<path d="M37.0842 106.502C37.0842 107.447 36.8743 108.283 36.4621 109.006C36.0461 109.722 35.4823 110.289 34.7668 110.701C34.0592 111.106 33.266 111.308 32.3872 111.308C31.5046 111.308 30.7075 111.106 29.9921 110.701C29.2767 110.289 28.7051 109.722 28.2813 109.006C27.8652 108.283 27.6592 107.447 27.6592 106.502C27.6592 105.569 27.8652 104.741 28.2813 104.014C28.7051 103.29 29.2767 102.723 29.9921 102.318C30.7075 101.906 31.5046 101.696 32.3872 101.696C33.266 101.696 34.0592 101.906 34.7668 102.318C35.4823 102.723 36.0461 103.29 36.4621 104.014C36.8743 104.741 37.0842 105.569 37.0842 106.502ZM35.2334 106.502C35.2412 105.88 35.1168 105.336 34.8602 104.869C34.6113 104.395 34.2691 104.025 33.8337 103.765C33.406 103.497 32.9238 103.36 32.3872 103.36C31.8468 103.36 31.353 103.497 30.9097 103.765C30.4742 104.025 30.1243 104.395 29.8677 104.869C29.6188 105.336 29.4983 105.88 29.51 106.502C29.4983 107.116 29.6188 107.661 29.8677 108.135C30.1243 108.613 30.4742 108.987 30.9097 109.255C31.353 109.527 31.8468 109.659 32.3872 109.659C32.9238 109.659 33.406 109.527 33.8337 109.255C34.2691 108.987 34.6113 108.613 34.8602 108.135C35.1168 107.661 35.2412 107.116 35.2334 106.502Z" fill="#FFC468"/>
<path d="M43.8824 101.742C44.6989 101.742 45.4377 101.945 46.0909 102.349C46.7441 102.753 47.2574 103.313 47.6307 104.029C48.0039 104.744 48.1906 105.568 48.1906 106.502C48.1906 107.435 48.0039 108.267 47.6307 108.99C47.2574 109.705 46.7441 110.273 46.0909 110.685C45.4455 111.09 44.7262 111.292 43.9291 111.292C43.2758 111.292 42.6771 111.152 42.1405 110.872C41.6117 110.592 41.1918 110.273 40.8807 109.908V115.009H39.061V101.882H40.8807V103.235C41.149 102.843 41.5534 102.497 42.0938 102.193C42.6304 101.894 43.2292 101.742 43.8824 101.742ZM43.6336 103.406C43.0814 103.406 42.5915 103.543 42.156 103.811C41.7283 104.083 41.3978 104.449 41.1606 104.915C40.9196 105.382 40.8029 105.91 40.8029 106.502C40.8029 107.093 40.9196 107.621 41.1606 108.088C41.3978 108.554 41.7283 108.928 42.156 109.208C42.5915 109.488 43.0814 109.628 43.6336 109.628C44.1818 109.628 44.6678 109.488 45.0955 109.208C45.5194 108.928 45.8499 108.554 46.0909 108.088C46.3281 107.621 46.4486 107.093 46.4486 106.502C46.4486 105.91 46.3281 105.382 46.0909 104.915C45.8499 104.449 45.5194 104.083 45.0955 103.811C44.6678 103.543 44.1818 103.406 43.6336 103.406Z" fill="#FFC468"/>
<path d="M51.712 115.18L53.2206 111.711L53.2828 111.587L48.9902 101.898H51.1054L53.9827 108.694C54.0216 108.756 54.0605 108.846 54.0916 108.959C54.1227 109.064 54.1616 109.176 54.216 109.301C54.2549 109.176 54.2976 109.052 54.3404 108.928C54.3793 108.803 54.426 108.686 54.4804 108.57L56.8911 101.898H59.0374L55.2425 111.136L53.6716 115.18H51.712Z" fill="#FFC468"/>
<path d="M72.831 101.899L69.7049 111.137H68.4606L66.0966 105.772L63.9036 111.137H62.6749L59.5177 101.899L61.3529 101.883L63.4215 108.244L65.6456 103.361H66.7343L68.9428 108.182L70.9958 101.899H72.831Z" fill="#FFC468"/>
<path d="M79.6556 103.843C79.539 103.792 79.3951 103.745 79.2201 103.703C79.0529 103.664 78.878 103.64 78.6913 103.64C78.3181 103.64 77.9487 103.742 77.5871 103.936C77.2216 104.123 76.9183 104.399 76.6694 104.76C76.4284 105.114 76.3117 105.538 76.3117 106.036V111.137H74.492V101.898H76.3117V103.64C76.5684 103.073 76.9572 102.606 77.4782 102.241C78.007 101.879 78.5552 101.696 79.1268 101.696C79.5623 101.696 79.8967 101.759 80.1377 101.883L79.6556 103.843Z" fill="#FFC468"/>
<path d="M83.1774 100.125C82.7613 100.125 82.4542 100.024 82.2598 99.8143C82.0615 99.6083 81.9642 99.3322 81.9642 98.99C81.9642 98.7023 82.0615 98.4379 82.2598 98.1968C82.4542 97.9596 82.7613 97.8391 83.1774 97.8391C83.5895 97.8391 83.8967 97.948 84.095 98.1657C84.2894 98.3757 84.3905 98.6479 84.3905 98.99C84.3905 99.2816 84.2894 99.546 84.095 99.7832C83.8967 100.013 83.5895 100.125 83.1774 100.125ZM83.3951 111.137H81.591V101.898H83.3951V111.137Z" fill="#FFC468"/>
<path d="M89.4368 111.136H87.6171V103.655H85.7041V101.897H87.6171V99.5332H89.4368V101.897H91.5831V103.655H89.4368V111.136Z" fill="#FFC468"/>
<path d="M94.8323 100.125C94.4163 100.125 94.1091 100.024 93.9147 99.8143C93.7164 99.6083 93.6192 99.3322 93.6192 98.99C93.6192 98.7023 93.7164 98.4379 93.9147 98.1968C94.1091 97.9596 94.4163 97.8391 94.8323 97.8391C95.2445 97.8391 95.5517 97.948 95.75 98.1657C95.9444 98.3757 96.0455 98.6479 96.0455 98.99C96.0455 99.2816 95.9444 99.546 95.75 99.7832C95.5517 100.013 95.2445 100.125 94.8323 100.125ZM95.0501 111.137H93.2459V101.898H95.0501V111.137Z" fill="#FFC468"/>
<path d="M102.979 101.696C103.807 101.696 104.448 101.867 104.907 102.21C105.362 102.552 105.685 103.014 105.871 103.594C106.058 104.165 106.151 104.803 106.151 105.507V111.137H104.332V105.631C104.332 105.188 104.269 104.787 104.145 104.434C104.028 104.084 103.834 103.808 103.554 103.609C103.274 103.403 102.877 103.322 102.372 103.36C101.905 103.36 101.489 103.462 101.128 103.656C100.762 103.854 100.475 104.119 100.257 104.449C100.047 104.784 99.9457 105.145 99.9457 105.538V111.137H98.1416V101.898H99.9457V103.36C100.226 102.925 100.634 102.544 101.174 102.21C101.711 101.867 102.314 101.696 102.979 101.696Z" fill="#FFC468"/>
<path d="M109.877 112.661C110.227 112.941 110.67 113.159 111.199 113.314C111.728 113.478 112.245 113.563 112.754 113.563C113.695 113.563 114.423 113.33 114.932 112.863C115.437 112.404 115.694 111.712 115.694 110.779V109.659C115.527 109.939 115.29 110.212 114.979 110.468C114.675 110.717 114.318 110.919 113.905 111.075C113.501 111.23 113.073 111.308 112.63 111.308C111.767 111.308 110.989 111.106 110.297 110.701C109.601 110.289 109.053 109.718 108.649 108.991C108.244 108.267 108.042 107.435 108.042 106.502C108.042 105.569 108.236 104.741 108.633 104.014C109.037 103.29 109.582 102.723 110.266 102.318C110.958 101.906 111.728 101.696 112.568 101.696C113.272 101.696 113.894 101.852 114.434 102.163C114.982 102.474 115.402 102.812 115.694 103.174V101.898H117.498V110.577C117.498 111.673 117.273 112.56 116.829 113.237C116.394 113.909 115.811 114.403 115.087 114.714C114.372 115.025 113.594 115.181 112.754 115.181C112.09 115.181 111.432 115.076 110.779 114.87C110.126 114.671 109.601 114.407 109.208 114.076L109.877 112.661ZM112.817 103.36C112.257 103.36 111.751 103.5 111.308 103.78C110.873 104.053 110.523 104.426 110.266 104.9C110.017 105.378 109.893 105.911 109.893 106.502C109.893 107.105 110.017 107.645 110.266 108.12C110.523 108.586 110.873 108.96 111.308 109.239C111.751 109.512 112.257 109.644 112.817 109.644C113.408 109.644 113.921 109.512 114.356 109.239C114.8 108.971 115.142 108.598 115.383 108.12C115.632 107.645 115.756 107.105 115.756 106.502C115.756 105.892 115.632 105.351 115.383 104.885C115.142 104.418 114.8 104.053 114.356 103.78C113.921 103.5 113.408 103.36 112.817 103.36Z" fill="#FFC468"/>
<path d="M106.504 79.367C106.504 80.1446 105.87 80.7784 105.092 80.7784H100.862C100.088 80.7784 99.4544 80.1446 99.4544 79.367V53.9146C99.4544 53.137 100.088 52.4993 100.862 52.4993H105.092C105.87 52.4993 106.504 53.137 106.504 53.9146V79.367ZM92.4284 78.5116C91.0403 79.1881 87.0199 80.7784 79.7061 80.7784C73.2556 80.7784 70.1372 78.9315 68.8308 77.8156C68.4847 77.5278 68.1037 77.3023 67.7032 77.1118C67.6215 77.0612 67.536 77.0224 67.4427 76.9913C66.7583 76.7035 66.0235 76.5363 65.2691 76.5363H48.6781C46.4268 76.5363 44.4477 74.5572 44.4477 72.2982C44.4477 69.9536 46.3412 68.0561 48.6781 68.0561H67.015C71.5253 68.0561 74.5659 66.5591 74.6981 66.493C75.3941 66.1431 75.674 65.2994 75.328 64.5956C74.9819 63.8996 74.1382 63.6119 73.4383 63.9618C73.415 63.9735 70.8254 65.2255 67.015 65.2255H56.6412L75.7401 46.0759C82.4357 50.3258 91.3669 54.5173 96.6316 55.2133V77.9517H94.8702C94.0381 77.9517 93.2255 78.1344 92.4284 78.5116ZM62.0769 83.609C60.1328 83.609 58.5503 82.0226 58.5503 80.0746V79.367H65.2691C65.378 79.367 65.4947 79.3825 65.6035 79.3942V80.0746C65.6035 82.0226 64.021 83.609 62.0769 83.609ZM52.2047 83.609C50.2606 83.609 48.6781 82.0226 48.6781 80.0746V79.367H55.7313V80.0746C55.7313 82.0226 54.1488 83.609 52.2047 83.609ZM42.3325 83.609C41.2593 83.609 40.2639 83.1113 39.6107 82.2987L44.2144 77.6834C44.716 78.1033 45.2564 78.4727 45.8591 78.741V80.0746C45.8591 82.0226 44.2766 83.609 42.3325 83.609ZM27.6272 83.504L29.4002 76.4508L34.661 81.731L27.6272 83.504ZM33.8484 61.5472L52.333 40.3564C54.9692 37.3508 59.1257 36.2776 62.7768 37.448L32.3047 67.9939C31.7409 65.7659 32.2736 63.3475 33.8484 61.5472ZM74.1304 30.072C74.2976 29.9048 74.4842 29.8776 74.5853 29.8776C74.6825 29.8776 74.877 29.9048 75.0558 30.0875L80.9231 35.9704C81.0865 36.1221 81.1176 36.3009 81.1176 36.4176C81.1176 36.5926 81.0476 36.7597 80.9076 36.8958L77.2099 40.6013L70.4172 33.793L74.1304 30.072ZM52.6518 65.2255H48.6781C44.7898 65.2255 41.6248 68.3983 41.6248 72.2982C41.6248 73.4335 41.9359 74.4989 42.4375 75.4671L37.4216 80.4946L30.625 73.6785L68.4303 35.7877L75.2152 42.596L52.6518 65.2255ZM105.092 49.6726H100.862C99.0617 49.6726 97.5298 50.8118 96.9232 52.406C92.6695 51.8383 84.7219 48.3622 77.7853 44.0268L82.8906 38.9061C83.571 38.2334 83.9443 37.3508 83.9365 36.4059C83.9326 35.4727 83.5594 34.594 82.9023 33.9602L77.0699 28.1045C75.7518 26.7437 73.4033 26.7631 72.1202 28.089L64.9697 35.255C59.9773 32.9882 53.9233 34.2635 50.21 38.4939L31.7215 59.6847C29.163 62.6204 28.5798 66.7186 30.0962 70.2102L28.2649 72.0415C27.6933 72.5937 27.2734 73.3285 27.0595 74.1684L24.7732 83.2941C24.5633 84.165 24.816 85.0593 25.4459 85.6892C25.9319 86.1714 26.5657 86.4358 27.2345 86.4358C27.4406 86.4358 27.6505 86.4085 27.8605 86.358L36.9123 84.0795C37.0523 84.0445 37.1845 83.994 37.3244 83.9512C38.5065 85.4909 40.3378 86.4358 42.3325 86.4358C44.3388 86.4358 46.1041 85.4793 47.2666 84.0212C48.4292 85.4793 50.1984 86.4358 52.2047 86.4358C54.211 86.4358 55.9802 85.4793 57.1427 84.0212C58.3053 85.4793 60.0706 86.4358 62.0769 86.4358C65.2847 86.4358 67.9131 84.0328 68.337 80.9339C70.3588 82.2015 73.9166 83.609 79.7061 83.609C87.6148 83.609 92.1018 81.8127 93.6454 81.0622C94.0498 80.8756 94.4503 80.7784 94.8702 80.7784H96.8921C97.4753 82.4192 99.0267 83.609 100.862 83.609H105.092C107.429 83.609 109.327 81.7077 109.327 79.367V53.9146C109.327 51.5739 107.429 49.6726 105.092 49.6726Z" fill="#FFC468"/>
<defs>
<linearGradient id="paint0_linear_451_243" x1="119.5" y1="125.5" x2="1.03439e-06" y2="-9.84942e-07" gradientUnits="userSpaceOnUse">
<stop/>
<stop offset="1" stop-color="#707070"/>
</linearGradient>
</defs>
</svg>
