<svg width="136" height="137" viewBox="0 0 136 137" fill="none" xmlns="http://www.w3.org/2000/svg">
<path d="M26.4799 0H109.211C123.836 0 135.691 11.7378 135.691 26.2155V110.248C135.691 124.726 123.836 136.464 109.211 136.464H26.4799C11.8549 136.464 0 124.726 0 110.248V26.2155C0 11.7378 11.8549 0 26.4799 0Z" fill="url(#paint0_linear_462_182)"/>
<path d="M49.7762 110.204C49.5233 110.486 49.1676 110.759 48.7171 111.017C48.2746 111.279 47.7608 111.494 47.1839 111.658C46.6149 111.814 45.9984 111.893 45.3345 111.893C44.2162 111.893 43.2046 111.635 42.2997 111.111C41.4027 110.591 40.6874 109.852 40.15 108.891C39.6205 107.933 39.3597 106.811 39.3597 105.529C39.3597 104.622 39.5177 103.786 39.8339 103.012C40.1579 102.242 40.6084 101.574 41.1774 101.011C41.7544 100.448 42.4143 100.01 43.1532 99.6976C43.9001 99.3849 44.6865 99.2285 45.5084 99.2285C46.1802 99.2285 46.8124 99.334 47.4052 99.5412C47.994 99.7405 48.5116 100.006 48.9542 100.339C49.4047 100.663 49.7604 101.007 50.0133 101.37L48.7171 102.699C48.2746 102.254 47.7845 101.883 47.2471 101.589C46.7176 101.288 46.1407 101.136 45.5084 101.136C44.7892 101.136 44.1095 101.316 43.4694 101.668C42.8371 102.023 42.3194 102.527 41.9203 103.184C41.5291 103.841 41.3355 104.622 41.3355 105.529C41.3355 106.522 41.5331 107.351 41.9361 108.015C42.3352 108.672 42.8608 109.164 43.5168 109.485C44.1807 109.809 44.8959 109.97 45.6665 109.97C46.3699 109.97 46.9863 109.837 47.5158 109.563C48.0533 109.282 48.484 108.977 48.812 108.641L49.7762 110.204Z" fill="#FFC468"/>
<path d="M57.2014 104.388C57.0828 104.337 56.9366 104.29 56.7588 104.247C56.5889 104.208 56.411 104.185 56.2214 104.185C55.842 104.185 55.4666 104.286 55.0991 104.482C54.7276 104.669 54.4194 104.947 54.1665 105.311C53.9215 105.666 53.803 106.092 53.803 106.593V111.721H51.9536V102.434H53.803V104.185C54.0638 103.614 54.4589 103.145 54.9884 102.778C55.5259 102.414 56.0831 102.23 56.6639 102.23C57.1065 102.23 57.4464 102.293 57.6914 102.418L57.2014 104.388Z" fill="#FFC468"/>
<path d="M60.7274 115.785L62.2607 112.298L62.3239 112.173L57.9613 102.433H60.111L63.0352 109.265C63.0747 109.328 63.1142 109.417 63.1458 109.531C63.1774 109.636 63.2169 109.75 63.2723 109.875C63.3118 109.75 63.3553 109.625 63.3987 109.5C63.4382 109.374 63.4857 109.257 63.541 109.14L65.991 102.433H68.1723L64.3155 111.72L62.719 115.785H60.7274Z" fill="#FFC468"/>
<path d="M74.463 102.277C75.2928 102.277 76.0436 102.481 76.7075 102.887C77.3714 103.294 77.893 103.856 78.2724 104.576C78.6517 105.295 78.8414 106.123 78.8414 107.062C78.8414 108 78.6517 108.836 78.2724 109.563C77.893 110.282 77.3714 110.853 76.7075 111.267C76.0515 111.674 75.3205 111.877 74.5104 111.877C73.8465 111.877 73.238 111.736 72.6927 111.455C72.1552 111.173 71.7285 110.853 71.4123 110.486V115.614H69.563V102.418H71.4123V103.778C71.685 103.383 72.096 103.036 72.6452 102.731C73.1906 102.43 73.7991 102.277 74.463 102.277ZM74.2101 103.95C73.649 103.95 73.1511 104.087 72.7085 104.357C72.2738 104.63 71.9379 104.998 71.6969 105.467C71.4519 105.936 71.3333 106.467 71.3333 107.062C71.3333 107.656 71.4519 108.187 71.6969 108.656C71.9379 109.125 72.2738 109.501 72.7085 109.782C73.1511 110.063 73.649 110.204 74.2101 110.204C74.7673 110.204 75.2612 110.063 75.6959 109.782C76.1266 109.501 76.4625 109.125 76.7075 108.656C76.9486 108.187 77.0711 107.656 77.0711 107.062C77.0711 106.467 76.9486 105.936 76.7075 105.467C76.4625 104.998 76.1266 104.63 75.6959 104.357C75.2612 104.087 74.7673 103.95 74.2101 103.95Z" fill="#FFC468"/>
<path d="M83.8643 111.72H82.0149V104.2H80.0707V102.433H82.0149V100.057H83.8643V102.433H86.0456V104.2H83.8643V111.72Z" fill="#FFC468"/>
<path d="M96.7274 107.062C96.7274 108.011 96.514 108.852 96.0951 109.579C95.6723 110.298 95.0993 110.869 94.3722 111.283C93.653 111.689 92.8469 111.893 91.9538 111.893C91.0568 111.893 90.2467 111.689 89.5196 111.283C88.7925 110.869 88.2116 110.298 87.7809 109.579C87.3581 108.852 87.1487 108.011 87.1487 107.062C87.1487 106.124 87.3581 105.291 87.7809 104.56C88.2116 103.833 88.7925 103.262 89.5196 102.856C90.2467 102.442 91.0568 102.23 91.9538 102.23C92.8469 102.23 93.653 102.442 94.3722 102.856C95.0993 103.262 95.6723 103.833 96.0951 104.56C96.514 105.291 96.7274 106.124 96.7274 107.062ZM94.8464 107.062C94.8543 106.436 94.7279 105.889 94.4671 105.42C94.2142 104.943 93.8664 104.572 93.4238 104.31C92.9892 104.04 92.4992 103.903 91.9538 103.903C91.4046 103.903 90.9027 104.04 90.4522 104.31C90.0096 104.572 89.654 104.943 89.3932 105.42C89.1403 105.889 89.0178 106.436 89.0296 107.062C89.0178 107.679 89.1403 108.226 89.3932 108.703C89.654 109.184 90.0096 109.559 90.4522 109.829C90.9027 110.103 91.4046 110.235 91.9538 110.235C92.4992 110.235 92.9892 110.103 93.4238 109.829C93.8664 109.559 94.2142 109.184 94.4671 108.703C94.7279 108.226 94.8543 107.679 94.8464 107.062Z" fill="#FFC468"/>
<path d="M64.1816 47.0092H65.4382V48.4281C65.4382 49.0339 65.9361 49.5264 66.5486 49.5264C67.1611 49.5264 67.659 49.0339 67.659 48.4281V47.0092H68.3071V48.4281C68.3071 49.0339 68.8011 49.5264 69.4136 49.5264C70.0261 49.5264 70.524 49.0339 70.524 48.4281V46.931C71.4566 46.7591 72.2943 46.29 72.9384 45.6255C73.7564 44.7852 74.2662 43.6282 74.2662 42.3579C74.2662 41.0915 73.7564 39.9345 72.9384 39.0941C72.8436 38.9925 72.7408 38.8987 72.6381 38.8088C72.7408 38.7189 72.8436 38.6251 72.9384 38.5274C73.7564 37.6831 74.2662 36.5261 74.2662 35.2597C74.2662 33.9894 73.7564 32.8324 72.9384 31.9921C72.2943 31.3276 71.4566 30.8625 70.524 30.6866V29.1896C70.524 28.5837 70.0261 28.0912 69.4136 28.0912C68.8011 28.0912 68.3071 28.5837 68.3071 29.1896V30.6084H67.659V29.1896C67.659 28.5837 67.1611 28.0912 66.5486 28.0912C65.9361 28.0912 65.4382 28.5837 65.4382 29.1896V30.6084H64.1816C63.5691 30.6084 63.0752 31.1009 63.0752 31.7067V45.9109C63.0752 46.5167 63.5691 47.0092 64.1816 47.0092ZM65.292 37.7105V32.809H66.5447C66.5447 32.809 66.5447 32.809 66.5486 32.809H69.4136C69.4136 32.809 69.4136 32.809 69.4175 32.809H69.7099C70.3462 32.809 70.927 33.0787 71.3499 33.5126C71.7806 33.9581 72.0493 34.5757 72.0493 35.2597C72.0493 35.9438 71.7806 36.5652 71.3499 37.0108C70.927 37.4447 70.3462 37.7144 69.7099 37.7144L65.292 37.7105ZM65.292 39.9072H69.706C70.3422 39.9072 70.9231 40.1769 71.3459 40.6107C71.7806 41.0563 72.0493 41.6778 72.0493 42.3618C72.0493 43.0458 71.7806 43.6634 71.3459 44.109C70.927 44.5428 70.3422 44.8125 69.706 44.8125H69.4136C69.4096 44.8125 69.4136 44.8125 69.4096 44.8125H66.5486C66.5447 44.8125 66.5486 44.8125 66.5447 44.8125H65.292V39.9072ZM102.414 54.5022C102.414 53.1693 101.932 51.8364 100.967 50.8085L100.892 50.7225L100.762 50.6013C99.7898 49.671 98.5529 49.1942 97.3081 49.1668C97.2726 48.8111 97.2014 48.4593 97.0947 48.1193C96.8576 47.3727 96.4467 46.6731 95.8737 46.0594L95.7986 45.9773L95.6682 45.8522C94.6684 44.8985 93.3802 44.4178 92.0999 44.4178C90.8472 44.4178 89.5866 44.8751 88.5948 45.7936L88.5118 45.8679C84.0702 50.4489 79.6167 55.022 75.1711 59.5952L51.2124 59.6186C51.1808 59.6108 51.1531 59.6069 51.1215 59.6069C50.3746 59.5522 49.6199 59.6616 48.9046 59.9352C48.221 60.1971 47.5848 60.6114 47.0394 61.1704L33.7501 74.8429C33.679 74.9172 33.6237 74.9953 33.5802 75.0813C33.5802 75.0813 33.5762 75.0813 33.5762 75.0853C33.5604 75.1126 33.5446 75.1439 33.5328 75.1751C33.5328 75.1751 33.5328 75.1791 33.5288 75.1791C33.517 75.2103 33.5051 75.2416 33.4972 75.2729C33.4972 75.2768 33.4972 75.2768 33.4933 75.2807C33.4854 75.312 33.4774 75.3432 33.4695 75.3745C33.4695 75.3784 33.4695 75.3823 33.4695 75.3862C33.4616 75.4214 33.4577 75.4527 33.4537 75.4878V75.4918C33.4458 75.5387 33.4458 75.5895 33.4458 75.6325V89.6763L33.4379 89.778C33.4379 90.3838 33.9358 90.8763 34.5483 90.8763H46.6482V90.8724C46.9446 90.8724 47.241 90.7551 47.4583 90.5206L50.4695 87.296L78.1822 80.1196C79.0872 79.8343 79.9921 79.2988 80.8693 78.6187V78.6148C81.6992 77.9738 82.5211 77.192 83.2996 76.3712C83.3036 76.3634 83.3075 76.3595 83.3154 76.3517C83.347 76.3243 83.3786 76.2969 83.4063 76.2696L100.904 58.2623C101.912 57.2226 102.422 55.8585 102.422 54.5022H102.414ZM90.1122 47.3884C90.6733 46.8763 91.3886 46.6184 92.0959 46.6184C92.823 46.6184 93.5501 46.888 94.1192 47.4235L94.2654 47.5682C94.6052 47.9317 94.8463 48.3421 94.9806 48.772C95.0676 49.0378 95.115 49.3153 95.1229 49.5968C94.6092 49.8235 94.1231 50.1362 93.6924 50.5388L93.6055 50.613C89.3416 55.0064 85.0739 59.3958 80.8022 63.7892C80.5848 62.7846 80.0909 61.8817 79.4072 61.1782C78.9489 60.7052 78.4075 60.3222 77.8029 60.0486C81.9086 55.8311 86.0223 51.6215 90.1122 47.3884ZM100.201 54.5022C100.201 55.3191 99.9044 56.1321 99.3116 56.7457L81.8138 74.7452C81.8019 74.7647 81.7861 74.7804 81.7703 74.7999C81.7427 74.8234 81.715 74.8507 81.6873 74.8781C80.9918 75.6129 80.2529 76.3126 79.51 76.8832C78.8224 77.4148 78.1467 77.8213 77.5302 78.0246L49.604 85.2556C49.3709 85.3143 49.1733 85.4472 49.0311 85.6152L46.1701 88.6757H35.6508V76.0468L48.632 62.6869C48.9441 62.3664 49.3116 62.128 49.6989 61.9795C50.098 61.827 50.5327 61.7645 50.9634 61.7957C50.9832 61.7957 51.0069 61.7957 51.0266 61.7957C51.0741 61.8036 51.1215 61.8075 51.1689 61.8075L75.6967 61.784V61.7918C76.5186 61.7918 77.2694 62.1358 77.8108 62.6947C78.368 63.2693 78.7157 64.0628 78.7157 64.9305L78.7078 64.9344C78.7078 65.81 78.364 66.6034 77.8108 67.1741C77.2655 67.733 76.5146 68.0809 75.6927 68.0809H58.6217C58.0092 68.0809 57.5113 68.5734 57.5113 69.1792C57.5113 69.7851 58.0092 70.2776 58.6217 70.2776H75.6927C77.139 70.2776 78.4509 69.6717 79.4033 68.6907C79.755 68.3271 80.0593 67.9128 80.3003 67.4594C85.2596 62.3547 90.29 57.2773 95.2019 52.1296C95.767 51.6175 96.4783 51.3596 97.1896 51.3596C97.9167 51.3596 98.6438 51.6293 99.2128 52.1648L99.3551 52.3055C99.9202 52.9152 100.205 53.7087 100.205 54.4982H100.201V54.5022ZM67.9278 54.8891C76.8901 54.8891 84.1571 47.6932 84.1571 38.8088C84.1571 34.3686 82.3394 30.3504 79.4033 27.4385C76.4672 24.5304 72.4089 22.7324 67.9278 22.7324C58.9694 22.7324 51.7024 29.9283 51.7024 38.8127C51.7024 47.6932 58.9694 54.8891 67.9278 54.8891ZM67.9278 24.9291C71.7964 24.9291 75.3015 26.4808 77.8345 28.9941C80.3714 31.5074 81.9363 34.9783 81.9363 38.8127C81.9363 46.4776 75.665 52.6924 67.9278 52.6924C60.1944 52.6924 53.9192 46.4776 53.9192 38.8127C53.9192 31.1439 60.1944 24.9291 67.9278 24.9291Z" fill="#FFC468"/>
<defs>
<linearGradient id="paint0_linear_462_182" x1="121.452" y1="126.16" x2="1.39522" y2="-1.31404" gradientUnits="userSpaceOnUse">
<stop/>
<stop offset="1" stop-color="#707070"/>
</linearGradient>
</defs>
</svg>
