<svg width="218" height="22" viewBox="0 0 218 22" fill="none" xmlns="http://www.w3.org/2000/svg">
<path d="M205.761 8.52816C199.419 8.04926 193.698 8.12626 187.693 8.11562C175.975 8.09183 164.261 6.23514 152.542 6.29956C126.301 6.46859 99.6525 5.39999 73.3181 7.15846C65.5397 7.66928 57.7707 8.1031 50.0702 8.83796C49.3318 8.90432 48.5992 8.97256 47.8581 9.04955C40.6342 9.75068 31.2031 9.34002 24.0219 10.0749C17.7002 11.0515 12.8006 12.2759 6.74677 11.9423C5.14057 11.7113 3.43047 11.295 2.46728 10.4505C0.365115 8.63814 -0.612383 6.98059 0.404829 5.59772C0.736892 5.14262 1.30721 4.67436 1.92483 4.25368C3.12799 3.47242 4.57017 2.85893 5.35425 2.80571C18.8857 1.73711 34.2389 1.53616 46.4663 1.34648C52.5023 1.25696 58.7345 1.13489 66.3539 0.902015C83.9579 0.568982 111.716 0.354883 129.338 0.0343664C144.736 -0.254227 160.174 1.33584 175.421 2.51709C181.218 2.96344 184.869 2.96344 190.066 3.08551C190.933 3.09427 191.914 3.11743 192.921 3.13872C198.057 3.26079 207.309 2.65982 210.296 3.81607C213.287 4.98483 215.375 5.1069 217.988 7.25409C218.126 9.37191 217.073 10.3503 215.739 10.7053C212.627 11.5516 209.774 12.4982 207.354 12.7886C204.52 13.1216 202.232 13.1348 201.768 12.3335C201.318 11.5303 201.572 11.032 202.021 10.6646C202.803 10.0642 204.213 9.40629 205.476 8.96183L205.761 8.52816Z" fill="white" fill-opacity="0.12"/>
<path d="M82.3605 18.1068C87.1967 17.919 92.0619 17.673 96.8845 17.8032C102.984 17.9616 108.152 18.4743 114.205 18.4035C116.248 18.3841 128.671 18.4142 130.367 18.3948C135.654 18.3265 140.853 18.339 146.125 18.448C149.623 18.525 153.139 18.6808 156.611 18.9845C164.781 19.6962 173.223 20.1745 181.261 21.5318C183.303 21.878 185.391 22.1665 187.447 21.8886C189.489 21.6213 192.616 20.82 192.405 19.1623C192.166 17.2241 190.003 14.8116 187.401 14.2005C186.606 14.0209 184.774 13.1858 183.963 13.0618C183.199 12.951 182.521 12.5535 181.815 12.4846C180.148 12.3181 178.899 12.8865 177.354 13.1638C175.551 13.4862 171.646 12.5829 169.783 12.5504C163.205 12.4283 159.375 13.6722 152.793 13.6296C148.906 13.6083 144.998 13.5188 141.107 13.4712C137.373 13.4261 133.629 13.5075 129.903 13.3604C127.301 13.2621 124.734 12.7363 122.153 12.6937C119.941 12.6593 117.703 12.961 115.529 13.2834C113.669 13.572 111.622 13.4499 109.732 13.4606C108.004 13.4844 105.888 13.1613 104.278 13.4606C102.205 13.8518 99.9031 13.8625 97.7892 14.0158C93.8097 14.3063 91.8081 13.783 87.8452 14.1504C85.3799 14.3727 83.5599 15.0738 81.0993 14.819C79.8387 14.6844 76.6085 15.2873 75.3488 15.1865C74.0535 15.097 73.9648 15.785 72.7962 15.8983C71.3801 16.0285 69.9523 15.9984 68.5421 16.0416C67.9422 16.0654 66.3326 16.0178 65.9144 16.3665C65.3264 16.8454 66.5 17.8345 67.3821 18.1143C70.6147 19.1591 75.2846 18.324 78.693 18.2364C79.9114 18.2069 81.1314 18.1625 82.3599 18.1068H82.3605Z" fill="white" fill-opacity="0.12"/>
</svg>
