<svg width="134" height="137" viewBox="0 0 134 137" fill="none" xmlns="http://www.w3.org/2000/svg">
<path d="M26.0511 0.722656H107.459C121.845 0.722656 133.51 12.399 133.51 26.801V110.39C133.51 124.796 121.845 136.472 107.459 136.472H26.0511C11.6647 136.472 0 124.796 0 110.39V26.801C0 12.399 11.6647 0.722656 26.0511 0.722656Z" fill="url(#paint0_linear_451_244)"/>
<path d="M14.8133 99.5402H22.5742V101.36H16.7107V104.626H21.6099V106.446H16.7107V110.023H22.5742V111.858H14.8133V99.5402Z" fill="#FFC468"/>
<path d="M24.8341 107.72V105.932H29.9044V107.72H24.8341Z" fill="#FFC468"/>
<path d="M33.2628 107.222C33.2628 107.837 33.395 108.381 33.6672 108.855C33.9471 109.334 34.3126 109.711 34.7714 109.991C35.2263 110.263 35.7085 110.395 36.2178 110.395C36.8089 110.395 37.3221 110.247 37.7576 109.944C38.1931 109.633 38.543 109.314 38.8152 108.98L39.8106 110.224C39.5928 110.535 39.2857 110.831 38.893 111.111C38.508 111.383 38.0686 111.604 37.571 111.779C37.081 111.943 36.5678 112.028 36.0312 112.028C35.1797 112.028 34.4137 111.822 33.7294 111.406C33.0528 110.982 32.5201 110.407 32.1274 109.68C31.7308 108.945 31.5364 108.124 31.5364 107.222C31.5364 106.313 31.7308 105.496 32.1274 104.781C32.5201 104.057 33.0528 103.482 33.7294 103.054C34.4137 102.63 35.1797 102.417 36.0312 102.417C36.8905 102.417 37.6526 102.595 38.3175 102.945C38.9902 103.287 39.4879 103.735 39.8106 104.283L38.8152 105.512C38.543 105.119 38.162 104.781 37.6643 104.501C37.1666 104.213 36.6767 104.065 36.2023 104.065C35.6502 104.065 35.1525 104.205 34.7092 104.485C34.2621 104.757 33.9082 105.13 33.6516 105.605C33.3911 106.071 33.2628 106.612 33.2628 107.222Z" fill="#FFC468"/>
<path d="M50.3845 107.222C50.3845 108.167 50.1745 109.003 49.7624 109.726C49.3463 110.442 48.7825 111.009 48.0671 111.422C47.3594 111.826 46.5662 112.028 45.6875 112.028C44.8049 112.028 44.0078 111.826 43.2923 111.422C42.5769 111.009 42.0053 110.442 41.5815 109.726C41.1655 109.003 40.9594 108.167 40.9594 107.222C40.9594 106.289 41.1655 105.461 41.5815 104.734C42.0053 104.011 42.5769 103.443 43.2923 103.039C44.0078 102.626 44.8049 102.417 45.6875 102.417C46.5662 102.417 47.3594 102.626 48.0671 103.039C48.7825 103.443 49.3463 104.011 49.7624 104.734C50.1745 105.461 50.3845 106.289 50.3845 107.222ZM48.5337 107.222C48.5415 106.6 48.417 106.056 48.1604 105.589C47.9116 105.115 47.5694 104.746 47.1339 104.485C46.7062 104.217 46.2241 104.081 45.6875 104.081C45.147 104.081 44.6532 104.217 44.21 104.485C43.7745 104.746 43.4245 105.115 43.1679 105.589C42.9191 106.056 42.7985 106.6 42.8102 107.222C42.7985 107.837 42.9191 108.381 43.1679 108.855C43.4245 109.334 43.7745 109.707 44.21 109.975C44.6532 110.247 45.147 110.38 45.6875 110.38C46.2241 110.38 46.7062 110.247 47.1339 109.975C47.5694 109.707 47.9116 109.334 48.1604 108.855C48.417 108.381 48.5415 107.837 48.5337 107.222Z" fill="#FFC468"/>
<path d="M57.0647 102.463C57.8191 102.463 58.4256 102.634 58.8844 102.976C59.351 103.318 59.6815 103.792 59.8798 104.391C60.0431 104.103 60.2842 103.808 60.5953 103.505C60.9141 103.205 61.2835 102.956 61.6995 102.758C62.1233 102.564 62.5783 102.463 63.0682 102.463C63.8653 102.463 64.4874 102.634 64.9345 102.976C65.3778 103.318 65.6888 103.781 65.8677 104.36C66.0543 104.943 66.1476 105.589 66.1476 106.304V111.856H64.3124V106.413C64.3124 105.74 64.1802 105.192 63.9236 104.764C63.6631 104.341 63.177 104.127 62.4616 104.127C61.7851 104.127 61.2251 104.344 60.7819 104.78C60.3464 105.208 60.1287 105.725 60.1287 106.335V111.856H58.2934V106.382C58.2934 105.729 58.1534 105.192 57.8735 104.764C57.5935 104.341 57.127 104.127 56.4737 104.127C56.0266 104.127 55.6261 104.232 55.2762 104.438C54.9223 104.636 54.6463 104.897 54.4519 105.215C54.2536 105.538 54.1563 105.896 54.1563 106.289V111.856H52.3211V102.618H54.1563V104.096C54.4363 103.672 54.829 103.295 55.3384 102.96C55.8555 102.63 56.431 102.463 57.0647 102.463Z" fill="#FFC468"/>
<path d="M73.2817 102.463C74.036 102.463 74.6426 102.634 75.1014 102.976C75.568 103.318 75.8985 103.792 76.0968 104.391C76.2601 104.103 76.5011 103.808 76.8122 103.505C77.131 103.205 77.5004 102.956 77.9165 102.758C78.3403 102.564 78.7952 102.463 79.2851 102.463C80.0822 102.463 80.7043 102.634 81.1515 102.976C81.5947 103.318 81.9058 103.781 82.0846 104.36C82.2713 104.943 82.3646 105.589 82.3646 106.304V111.856H80.5294V106.413C80.5294 105.74 80.3971 105.192 80.1405 104.764C79.88 104.341 79.394 104.127 78.6786 104.127C78.002 104.127 77.4421 104.344 76.9988 104.78C76.5634 105.208 76.3456 105.725 76.3456 106.335V111.856H74.5104V106.382C74.5104 105.729 74.3704 105.192 74.0904 104.764C73.8105 104.341 73.3439 104.127 72.6907 104.127C72.2435 104.127 71.843 104.232 71.4931 104.438C71.1393 104.636 70.8632 104.897 70.6688 105.215C70.4705 105.538 70.3733 105.896 70.3733 106.289V111.856H68.538V102.618H70.3733V104.096C70.6532 103.672 71.046 103.295 71.5553 102.96C72.0724 102.63 72.6479 102.463 73.2817 102.463Z" fill="#FFC468"/>
<path d="M92.7331 110.645H92.7175C92.3443 111.011 91.8233 111.329 91.1623 111.609C90.509 111.889 89.8247 112.029 89.1093 112.029C88.145 112.029 87.2935 111.827 86.5586 111.423C85.8315 111.018 85.2599 110.466 84.8478 109.759C84.4317 109.043 84.2257 108.234 84.2257 107.332C84.2257 106.298 84.4434 105.415 84.8789 104.688C85.3144 103.954 85.8898 103.39 86.6052 102.993C87.3207 102.6 88.1022 102.402 88.9537 102.402C89.7197 102.402 90.4196 102.597 91.0534 102.978C91.6949 103.362 92.2043 103.891 92.5776 104.564C92.9508 105.229 93.1375 106.006 93.1375 106.897L93.1219 107.675H86.0453C86.1464 108.507 86.4886 109.164 87.0718 109.65C87.6512 110.14 88.3861 110.381 89.2803 110.381C89.9219 110.381 90.439 110.264 90.8356 110.023C91.24 109.774 91.5705 109.541 91.831 109.323L92.7331 110.645ZM88.9537 104.082C88.2577 104.082 87.6512 104.245 87.134 104.564C86.613 104.887 86.2709 105.443 86.1076 106.228H91.2867V106.104C91.2556 105.699 91.1234 105.349 90.8979 105.046C90.6685 104.735 90.3846 104.498 90.0424 104.331C89.7003 104.167 89.3348 104.082 88.9537 104.082Z" fill="#FFC468"/>
<path d="M100.285 104.563C100.168 104.512 100.024 104.466 99.8494 104.423C99.6822 104.384 99.5073 104.361 99.3206 104.361C98.9474 104.361 98.578 104.462 98.2164 104.656C97.8509 104.843 97.5476 105.119 97.2987 105.48C97.0577 105.834 96.941 106.258 96.941 106.756V111.857H95.1213V102.619H96.941V104.361C97.1977 103.793 97.5865 103.326 98.1075 102.961C98.6363 102.599 99.1845 102.417 99.7561 102.417C100.192 102.417 100.526 102.479 100.767 102.603L100.285 104.563Z" fill="#FFC468"/>
<path d="M103.371 107.222C103.371 107.837 103.504 108.381 103.776 108.855C104.056 109.334 104.421 109.711 104.88 109.991C105.335 110.263 105.817 110.395 106.326 110.395C106.917 110.395 107.431 110.247 107.866 109.944C108.302 109.633 108.652 109.314 108.924 108.98L109.919 110.224C109.701 110.535 109.394 110.831 109.002 111.111C108.617 111.383 108.177 111.604 107.68 111.779C107.19 111.943 106.676 112.028 106.14 112.028C105.288 112.028 104.522 111.822 103.838 111.406C103.161 110.982 102.629 110.407 102.236 109.68C101.839 108.945 101.645 108.124 101.645 107.222C101.645 106.313 101.839 105.496 102.236 104.781C102.629 104.057 103.161 103.482 103.838 103.054C104.522 102.63 105.288 102.417 106.14 102.417C106.999 102.417 107.761 102.595 108.426 102.945C109.099 103.287 109.596 103.735 109.919 104.283L108.924 105.512C108.652 105.119 108.271 104.781 107.773 104.501C107.275 104.213 106.785 104.065 106.311 104.065C105.759 104.065 105.261 104.205 104.818 104.485C104.371 104.757 104.017 105.13 103.76 105.605C103.5 106.071 103.371 106.612 103.371 107.222Z" fill="#FFC468"/>
<path d="M119.575 110.645H119.56C119.187 111.011 118.666 111.329 118.005 111.609C117.351 111.889 116.667 112.029 115.952 112.029C114.987 112.029 114.136 111.827 113.401 111.423C112.674 111.018 112.102 110.466 111.69 109.759C111.274 109.043 111.068 108.234 111.068 107.332C111.068 106.298 111.286 105.415 111.721 104.688C112.157 103.954 112.732 103.39 113.448 102.993C114.163 102.6 114.945 102.402 115.796 102.402C116.562 102.402 117.262 102.597 117.896 102.978C118.537 103.362 119.047 103.891 119.42 104.564C119.793 105.229 119.98 106.006 119.98 106.897L119.964 107.675H112.888C112.989 108.507 113.331 109.164 113.914 109.65C114.494 110.14 115.228 110.381 116.123 110.381C116.764 110.381 117.281 110.264 117.678 110.023C118.082 109.774 118.413 109.541 118.673 109.323L119.575 110.645ZM115.796 104.082C115.1 104.082 114.493 104.245 113.976 104.564C113.455 104.887 113.113 105.443 112.95 106.228H118.129V106.104C118.098 105.699 117.966 105.349 117.74 105.046C117.511 104.735 117.227 104.498 116.885 104.331C116.543 104.167 116.177 104.082 115.796 104.082Z" fill="#FFC468"/>
<path d="M68.9587 88.6858H71.7427V85.9135H68.9587V88.6858Z" fill="#FFC468"/>
<path d="M93.9766 88.6858H96.7566V85.9135H93.9766V88.6858Z" fill="#FFC468"/>
<path d="M95.3627 90.0739C93.8308 90.0739 92.5865 88.8297 92.5865 87.3016C92.5865 85.7735 93.8308 84.5293 95.3627 84.5293C96.8947 84.5293 98.1428 85.7735 98.1428 87.3016C98.1428 88.8297 96.8947 90.0739 95.3627 90.0739ZM67.243 74.8165L63.7981 62.2186L102.47 59.6446L98.9632 74.8165H67.243ZM70.3497 90.0739C68.8178 90.0739 67.5697 88.8297 67.5697 87.3016C67.5697 85.7735 68.8178 84.5293 70.3497 84.5293C71.8817 84.5293 73.1298 85.7735 73.1298 87.3016C73.1298 88.8297 71.8817 90.0739 70.3497 90.0739ZM112.378 48.4193L111.701 45.7286L105.317 47.3228L103.124 56.8218L60.2248 59.6757L65.1201 77.5927H98.3217L97.2757 82.1108C96.6769 81.8931 96.0393 81.7531 95.3627 81.7531C93.3175 81.7531 91.5406 82.8768 90.5802 84.5293H75.1361C74.1719 82.8768 72.3988 81.7531 70.3497 81.7531C67.2819 81.7531 64.7896 84.2416 64.7896 87.3016C64.7896 90.3616 67.2819 92.8501 70.3497 92.8501C73.4176 92.8501 75.9099 90.3616 75.9099 87.3016H89.8026C89.8026 90.3616 92.2988 92.8501 95.3627 92.8501C98.4305 92.8501 100.923 90.3616 100.923 87.3016C100.923 86.0107 100.46 84.8365 99.7175 83.8916L107.646 49.6013L112.378 48.4193Z" fill="#FFC468"/>
<path d="M74.5189 62.3319H68.9587V65.1081H74.5189V62.3319Z" fill="#FFC468"/>
<path d="M85.6344 62.3319H80.0781V65.1081H85.6344V62.3319Z" fill="#FFC468"/>
<path d="M91.1945 62.3319V65.1081H96.7547V62.3319H91.1945Z" fill="#FFC468"/>
<path d="M80.08 66.4962H74.5199V69.2685H80.08V66.4962Z" fill="#FFC468"/>
<path d="M91.1965 66.4962H85.6363V69.2685H91.1965V66.4962Z" fill="#FFC468"/>
<path d="M80.0781 73.4284H85.6344V70.6561H80.0781V73.4284Z" fill="#FFC468"/>
<path d="M91.1945 73.4284H96.7547V70.6561H91.1945V73.4284Z" fill="#FFC468"/>
<path d="M68.9587 73.4284H74.5189V70.6561H68.9587V73.4284Z" fill="#FFC468"/>
<path d="M36.5783 74.825C38.7868 73.4797 41.2753 72.3171 43.997 71.38C45.9684 76.9091 48.7368 81.4233 52.0457 84.4523C46.05 82.6598 40.7387 79.2887 36.5783 74.825ZM52.0457 18.018C48.7329 21.0508 45.9606 25.5728 43.9893 31.1096C41.2714 30.1726 38.7985 28.9983 36.5822 27.6452C40.7387 23.1815 46.0539 19.8143 52.0457 18.018ZM87.4441 27.6452C85.2278 28.9983 82.7549 30.1726 80.0331 31.1096C78.0657 25.5728 75.2934 21.0508 71.9806 18.018C77.9724 19.8143 83.2915 23.1815 87.4441 27.6452ZM83.2565 49.8509C83.1398 44.0147 82.3039 38.5595 80.8885 33.742C83.9758 32.6805 86.7831 31.339 89.2755 29.7799C93.6847 35.3478 96.4181 42.2883 96.7175 49.8509H83.2565ZM63.4032 36.7087C68.5979 36.5959 73.6253 35.8649 78.2134 34.5702C79.5549 39.1349 80.3597 44.3296 80.4764 49.8509H63.4032V36.7087ZM60.6231 16.6649V33.9364C55.7162 33.8236 50.9803 33.1432 46.6682 31.9339C49.7438 23.3448 54.8141 17.4814 60.6231 16.6649ZM63.4032 16.6649C69.2122 17.4814 74.2825 23.3448 77.358 31.9339C73.046 33.1432 68.3101 33.8236 63.4032 33.9364V16.6649ZM43.5499 49.8509C43.6665 44.3296 44.4714 39.1349 45.8128 34.5702C50.4009 35.8649 55.4323 36.5959 60.6231 36.7087V49.8509H43.5499ZM27.3088 49.8509C27.6043 42.2883 30.3416 35.3478 34.7508 29.7799C37.2432 31.339 40.0544 32.6805 43.1377 33.742C41.7224 38.5595 40.8864 44.0147 40.7698 49.8509H27.3088ZM43.1455 68.7477C40.0544 69.8092 37.2315 71.139 34.7508 72.6943C30.3416 67.1263 27.6043 60.1819 27.3088 52.6232H40.7698C40.8864 58.4672 41.7263 63.9302 43.1455 68.7477ZM63.4032 88.6865V80.3657H60.6231V85.8093C54.8141 84.9927 49.7438 79.1215 46.6644 70.5324C50.992 69.3193 55.7511 68.6155 60.6542 68.5066L60.592 65.7343C55.4245 65.8471 50.3932 66.5975 45.8089 67.8962C44.4714 63.3314 43.6665 58.1406 43.5499 52.6232H60.6231V56.7836H63.4032V52.6232H96.7564V54.0113H99.5326V49.8509H99.5015C98.7627 29.8382 82.2378 13.7837 62.0151 13.7837C41.3258 13.7837 24.4937 30.5847 24.4937 51.239C24.4937 71.8894 41.3258 88.6865 62.0151 88.6865H63.4032Z" fill="#FFC468"/>
<defs>
<linearGradient id="paint0_linear_451_244" x1="119.5" y1="126.223" x2="1.03439e-06" y2="0.722655" gradientUnits="userSpaceOnUse">
<stop/>
<stop offset="1" stop-color="#707070"/>
</linearGradient>
</defs>
</svg>
