<svg width="134" height="137" viewBox="0 0 134 137" fill="none" xmlns="http://www.w3.org/2000/svg">
<path d="M26.1499 0H107.85C122.293 0 134 11.7189 134 26.1733V110.067C134 124.525 122.293 136.244 107.85 136.244H26.1499C11.7071 136.244 0 124.525 0 110.067V26.1733C0 11.7189 11.7071 0 26.1499 0Z" fill="url(#paint0_linear_462_184)"/>
<path d="M28.0574 87.1982C29.2632 87.1982 30.1725 87.4636 30.7891 87.9943C31.4017 88.5173 31.71 89.286 31.71 90.3045C31.71 90.8587 31.5734 91.3504 31.3042 91.7874C31.0427 92.2245 30.6525 92.5679 30.1335 92.8177C30.5159 92.9425 30.8749 93.1416 31.2105 93.4108C31.5539 93.6723 31.8271 94.0118 32.0378 94.4255C32.2564 94.8313 32.3656 95.3308 32.3656 95.924C32.3656 96.642 32.2407 97.2352 31.991 97.7035C31.7412 98.1717 31.4134 98.5425 31.0076 98.8117C30.6096 99.0849 30.1686 99.2761 29.6808 99.3893C29.2008 99.5064 28.7208 99.561 28.2447 99.561H22.9062V87.1982H28.0574ZM27.7452 89.0246H24.8106V92.3182H27.9637C28.4398 92.3104 28.8613 92.1621 29.2281 91.8811C29.6027 91.5923 29.7901 91.1904 29.7901 90.6792C29.7901 90.086 29.591 89.6645 29.1969 89.4148C28.8106 89.1572 28.3267 89.0246 27.7452 89.0246ZM28.0418 94.1601H24.8106V97.7191H28.1354C28.8106 97.7191 29.3569 97.5747 29.7744 97.282C30.1998 96.9815 30.4144 96.5171 30.4144 95.8927C30.4144 95.4479 30.2896 95.0967 30.0398 94.8469C29.7901 94.5972 29.4818 94.4215 29.1188 94.3162C28.7637 94.2147 28.4047 94.1601 28.0418 94.1601Z" fill="#FFC468"/>
<path d="M40.8062 95.8626V90.29H42.6169V99.562H40.8062V98.0791C40.5331 98.5162 40.135 98.9025 39.6043 99.2342C39.0814 99.5659 38.457 99.7337 37.7312 99.7337C36.7634 99.7337 35.9751 99.4059 35.3741 98.7503C34.781 98.0947 34.4844 97.1816 34.4844 96.0031V90.29H36.2951V95.5192C36.2951 95.9875 36.3653 96.4245 36.5136 96.8304C36.658 97.2284 36.8921 97.5445 37.216 97.7826C37.5477 98.0245 37.9653 98.1416 38.4648 98.1416C39.097 98.1416 39.6433 97.9465 40.1038 97.5484C40.5721 97.1426 40.8062 96.5806 40.8062 95.8626Z" fill="#FFC468"/>
<path d="M50.539 92.7259C50.2034 92.3942 49.8249 92.1249 49.3995 91.9142C48.982 91.6957 48.5957 91.5864 48.2444 91.5864C48.0025 91.5864 47.7605 91.6176 47.5108 91.6801C47.2688 91.7425 47.0659 91.8518 46.902 92.0079C46.7459 92.164 46.6679 92.3981 46.6679 92.7103C46.6757 93.1396 46.863 93.44 47.2298 93.6156C47.6045 93.7834 48.0649 93.9395 48.6191 94.0839C49.1069 94.2205 49.5791 94.3883 50.0395 94.5834C50.4961 94.7707 50.8746 95.0517 51.179 95.4263C51.4795 95.7932 51.6317 96.3122 51.6317 96.9873C51.6317 97.561 51.4639 98.0566 51.1322 98.4702C50.8083 98.8761 50.3908 99.1882 49.8834 99.4068C49.3722 99.6253 48.8376 99.7346 48.2757 99.7346C47.5966 99.7346 46.9332 99.6136 46.2776 99.3756C45.622 99.1375 45.064 98.72 44.6074 98.1268L45.8562 97.0654C46.1684 97.4322 46.5274 97.717 46.9332 97.9239C47.3391 98.1346 47.8386 98.2361 48.4318 98.2361C48.6503 98.2361 48.8688 98.2009 49.0874 98.1268C49.3137 98.0449 49.5088 97.92 49.6649 97.7522C49.8288 97.5883 49.9147 97.3541 49.9147 97.0497C49.9147 96.7688 49.8249 96.5502 49.6493 96.3941C49.4815 96.238 49.2591 96.1093 48.9781 96.0039C48.6971 95.9024 48.3849 95.8088 48.0415 95.7229C47.5303 95.5903 47.0308 95.4185 46.543 95.2078C46.0513 95.001 45.6455 94.7083 45.3255 94.3337C45.0016 93.9512 44.8416 93.4244 44.8416 92.7571C44.8416 92.2069 44.9977 91.7347 45.3098 91.3367C45.622 90.9425 46.0279 90.6342 46.5274 90.4157C47.0347 90.1972 47.581 90.0879 48.1664 90.0879C48.7166 90.0879 49.3137 90.2089 49.9615 90.4469C50.6171 90.6889 51.1517 91.0635 51.5693 91.5708L50.539 92.7259Z" fill="#FFC468"/>
<path d="M55.2387 88.5104C54.8211 88.5104 54.5128 88.409 54.3177 88.1982C54.1187 87.9914 54.0211 87.7143 54.0211 87.3709C54.0211 87.0821 54.1187 86.8168 54.3177 86.5748C54.5128 86.3368 54.8211 86.2158 55.2387 86.2158C55.6523 86.2158 55.9606 86.3251 56.1596 86.5436C56.3547 86.7543 56.4562 87.0275 56.4562 87.3709C56.4562 87.6636 56.3547 87.929 56.1596 88.167C55.9606 88.3973 55.6523 88.5104 55.2387 88.5104ZM55.4572 99.562H53.6465V90.2899H55.4572V99.562Z" fill="#FFC468"/>
<path d="M63.4132 90.0879C64.2444 90.0879 64.8883 90.2596 65.3487 90.603C65.8053 90.9464 66.1292 91.4108 66.3165 91.9923C66.5038 92.5659 66.5975 93.2059 66.5975 93.9122V99.5629H64.7712V94.0371C64.7712 93.5922 64.7087 93.1903 64.5839 92.8352C64.4668 92.484 64.2717 92.2069 63.9907 92.0079C63.7097 91.801 63.3117 91.7191 62.8044 91.7581C62.3361 91.7581 61.9185 91.8596 61.5556 92.0547C61.1888 92.2537 60.9 92.5191 60.6815 92.8508C60.4708 93.1864 60.3693 93.5493 60.3693 93.9434V99.5629H58.5586V90.2908H60.3693V91.7581C60.6503 91.321 61.06 90.9386 61.6025 90.603C62.141 90.2596 62.7459 90.0879 63.4132 90.0879Z" fill="#FFC468"/>
<path d="M77.0404 98.3433H77.0248C76.6501 98.7101 76.1272 99.0301 75.4638 99.3111C74.8082 99.5921 74.1214 99.7326 73.4033 99.7326C72.4356 99.7326 71.5809 99.5296 70.8434 99.1238C70.1136 98.7179 69.54 98.1638 69.1263 97.4536C68.7088 96.7355 68.502 95.9238 68.502 95.0185C68.502 93.9804 68.7205 93.0946 69.1576 92.3649C69.5946 91.6273 70.1722 91.0615 70.8902 90.6634C71.6083 90.2693 72.3926 90.0703 73.2473 90.0703C74.016 90.0703 74.7184 90.2654 75.3545 90.6478C75.9984 91.0341 76.5096 91.5649 76.8843 92.24C77.2589 92.9073 77.4462 93.6878 77.4462 94.5814L77.4306 95.3619H70.3283C70.4297 96.197 70.7731 96.8565 71.3585 97.3443C71.94 97.836 72.6775 98.0779 73.5751 98.0779C74.2189 98.0779 74.738 97.9609 75.136 97.7189C75.5418 97.4692 75.8735 97.235 76.135 97.0165L77.0404 98.3433ZM73.2473 91.7561C72.5487 91.7561 71.94 91.92 71.4209 92.24C70.898 92.5639 70.5546 93.1219 70.3907 93.9102H75.5887V93.7853C75.5575 93.3795 75.4248 93.0283 75.1984 92.7239C74.9682 92.4117 74.6833 92.1736 74.3399 92.0058C73.9965 91.8419 73.6297 91.7561 73.2473 91.7561Z" fill="#FFC468"/>
<path d="M84.7871 92.7259C84.4515 92.3942 84.073 92.1249 83.6476 91.9142C83.23 91.6957 82.8437 91.5864 82.4925 91.5864C82.2505 91.5864 82.0086 91.6176 81.7588 91.6801C81.5169 91.7425 81.314 91.8518 81.1501 92.0079C80.994 92.164 80.9159 92.3981 80.9159 92.7103C80.9237 93.1396 81.111 93.44 81.4779 93.6156C81.8525 93.7834 82.313 93.9395 82.8671 94.0839C83.3549 94.2205 83.8271 94.3883 84.2876 94.5834C84.7442 94.7707 85.1227 95.0517 85.4271 95.4263C85.7276 95.7932 85.8798 96.3122 85.8798 96.9873C85.8798 97.561 85.712 98.0566 85.3802 98.4702C85.0564 98.8761 84.6388 99.1882 84.1315 99.4068C83.6203 99.6253 83.0856 99.7346 82.5237 99.7346C81.8447 99.7346 81.1813 99.6136 80.5257 99.3756C79.8701 99.1375 79.312 98.72 78.8555 98.1268L80.1042 97.0654C80.4164 97.4322 80.7754 97.717 81.1813 97.9239C81.5871 98.1346 82.0866 98.2361 82.6798 98.2361C82.8983 98.2361 83.1169 98.2009 83.3354 98.1268C83.5617 98.0449 83.7569 97.92 83.913 97.7522C84.0769 97.5883 84.1627 97.3541 84.1627 97.0497C84.1627 96.7688 84.073 96.5502 83.8973 96.3941C83.7295 96.238 83.5071 96.1093 83.2261 96.0039C82.9452 95.9024 82.633 95.8088 82.2896 95.7229C81.7784 95.5903 81.2789 95.4185 80.7911 95.2078C80.2994 95.001 79.8935 94.7083 79.5735 94.3337C79.2496 93.9512 79.0896 93.4244 79.0896 92.7571C79.0896 92.2069 79.2457 91.7347 79.5579 91.3367C79.8701 90.9425 80.2759 90.6342 80.7754 90.4157C81.2828 90.1972 81.8291 90.0879 82.4144 90.0879C82.9647 90.0879 83.5617 90.2089 84.2095 90.4469C84.8651 90.6889 85.3998 91.0635 85.8173 91.5708L84.7871 92.7259Z" fill="#FFC468"/>
<path d="M93.2519 92.7259C92.9163 92.3942 92.5378 92.1249 92.1124 91.9142C91.6949 91.6957 91.3085 91.5864 90.9573 91.5864C90.7154 91.5864 90.4734 91.6176 90.2237 91.6801C89.9817 91.7425 89.7788 91.8518 89.6149 92.0079C89.4588 92.164 89.3808 92.3981 89.3808 92.7103C89.3886 93.1396 89.5759 93.44 89.9427 93.6156C90.3173 93.7834 90.7778 93.9395 91.332 94.0839C91.8198 94.2205 92.2919 94.3883 92.7524 94.5834C93.209 94.7707 93.5875 95.0517 93.8919 95.4263C94.1924 95.7932 94.3446 96.3122 94.3446 96.9873C94.3446 97.561 94.1768 98.0566 93.8451 98.4702C93.5212 98.8761 93.1036 99.1882 92.5963 99.4068C92.0851 99.6253 91.5505 99.7346 90.9885 99.7346C90.3095 99.7346 89.6461 99.6136 88.9905 99.3756C88.3349 99.1375 87.7769 98.72 87.3203 98.1268L88.5691 97.0654C88.8813 97.4322 89.2403 97.717 89.6461 97.9239C90.052 98.1346 90.5515 98.2361 91.1446 98.2361C91.3632 98.2361 91.5817 98.2009 91.8002 98.1268C92.0266 98.0449 92.2217 97.92 92.3778 97.7522C92.5417 97.5883 92.6275 97.3541 92.6275 97.0497C92.6275 96.7688 92.5378 96.5502 92.3622 96.3941C92.1944 96.238 91.972 96.1093 91.691 96.0039C91.41 95.9024 91.0978 95.8088 90.7544 95.7229C90.2432 95.5903 89.7437 95.4185 89.2559 95.2078C88.7642 95.001 88.3583 94.7083 88.0384 94.3337C87.7145 93.9512 87.5545 93.4244 87.5545 92.7571C87.5545 92.2069 87.7106 91.7347 88.0227 91.3367C88.3349 90.9425 88.7408 90.6342 89.2403 90.4157C89.7476 90.1972 90.2939 90.0879 90.8793 90.0879C91.4295 90.0879 92.0266 90.2089 92.6744 90.4469C93.33 90.6889 93.8646 91.0635 94.2822 91.5708L93.2519 92.7259Z" fill="#FFC468"/>
<path d="M105.429 99.7345C104.543 99.7345 103.763 99.5471 103.088 99.1725C102.409 98.7979 101.878 98.314 101.496 97.7208C101.109 97.1277 100.918 96.4955 100.918 95.8165C100.918 94.997 101.129 94.2516 101.558 93.5843C101.983 92.9209 102.658 92.3785 103.587 91.9609C103.388 91.6721 103.236 91.3756 103.135 91.0712C103.041 90.7707 102.994 90.4702 102.994 90.1658C102.994 89.5961 103.138 89.0732 103.431 88.6049C103.732 88.1288 104.153 87.7424 104.695 87.4498C105.246 87.161 105.901 87.0127 106.662 87.0127C107.482 87.0127 108.196 87.239 108.801 87.6839C109.413 88.121 109.835 88.6751 110.065 89.3385L108.692 90.2126C108.461 89.6624 108.18 89.2683 107.849 89.0263C107.525 88.7883 107.131 88.6673 106.662 88.6673C106.046 88.6673 105.609 88.8078 105.351 89.0888C105.101 89.3619 104.976 89.6975 104.976 90.1034C104.976 90.4702 105.09 90.8604 105.32 91.2741C105.558 91.6916 105.839 92.0936 106.163 92.476C106.494 92.8624 106.795 93.2058 107.068 93.5063L109.144 95.8321C109.308 95.5004 109.445 95.1609 109.55 94.8175C109.663 94.4662 109.753 94.1111 109.815 93.756H111.439C111.353 94.3297 111.212 94.9033 111.017 95.4731C110.83 96.0467 110.572 96.5774 110.252 97.0652C110.752 97.596 111.205 98.0916 111.61 98.5481C112.016 98.9969 112.332 99.3364 112.563 99.5628H110.19C110.003 99.3676 109.815 99.1725 109.628 98.9852C109.449 98.7979 109.277 98.6184 109.113 98.4389C108.645 98.8369 108.102 99.153 107.49 99.3911C106.885 99.6174 106.198 99.7345 105.429 99.7345ZM102.838 95.5511C102.838 95.9687 102.935 96.3706 103.135 96.753C103.33 97.1394 103.65 97.4555 104.087 97.7052C104.524 97.9472 105.09 98.0642 105.788 98.0642C106.245 98.0642 106.654 97.994 107.021 97.8457C107.396 97.6896 107.739 97.4945 108.052 97.2525L105.242 94.115C105.125 93.9823 105.008 93.8497 104.883 93.7248C104.766 93.5921 104.656 93.4555 104.555 93.3189C103.907 93.5375 103.462 93.8458 103.213 94.2399C102.963 94.6379 102.838 95.075 102.838 95.5511Z" fill="#FFC468"/>
<path d="M35.0703 124.267V111.904H43.0936V113.731H36.9747V117.165H42.2975V119.007H36.9747V124.267H35.0703Z" fill="#FFC468"/>
<path d="M46.8441 113.216C46.4266 113.216 46.1183 113.115 45.9232 112.904C45.7241 112.697 45.6266 112.42 45.6266 112.077C45.6266 111.788 45.7241 111.523 45.9232 111.281C46.1183 111.043 46.4266 110.922 46.8441 110.922C47.2578 110.922 47.5661 111.031 47.7651 111.25C47.9602 111.46 48.0617 111.734 48.0617 112.077C48.0617 112.37 47.9602 112.635 47.7651 112.873C47.5661 113.103 47.2578 113.216 46.8441 113.216ZM47.0627 124.268H45.252V114.996H47.0627V124.268Z" fill="#FFC468"/>
<path d="M55.0245 114.79C55.8557 114.79 56.4996 114.962 56.9601 115.305C57.4166 115.649 57.7405 116.113 57.9279 116.694C58.1152 117.268 58.2088 117.908 58.2088 118.614V124.265H56.3825V118.739C56.3825 118.294 56.3201 117.892 56.1952 117.537C56.0781 117.186 55.883 116.909 55.602 116.71C55.3211 116.503 54.923 116.421 54.4157 116.46C53.9474 116.46 53.5299 116.562 53.167 116.757C52.8001 116.956 52.5113 117.221 52.2928 117.553C52.0821 117.889 51.9806 118.251 51.9806 118.646V124.265H50.1699V114.993H51.9806V116.46C52.2616 116.023 52.6713 115.641 53.2138 115.305C53.7523 114.962 54.3572 114.79 55.0245 114.79Z" fill="#FFC468"/>
<path d="M69.3209 114.993V124.265H67.479V122.829C67.198 123.227 66.7805 123.594 66.2302 123.937C65.6761 124.269 65.0361 124.437 64.3103 124.437C63.5298 124.437 62.8156 124.234 62.1718 123.828C61.524 123.414 61.0166 122.841 60.642 122.111C60.2674 121.385 60.0801 120.546 60.0801 119.598C60.0801 118.661 60.2713 117.83 60.6576 117.1C61.0518 116.374 61.5864 115.805 62.2654 115.399C62.9522 114.993 63.7327 114.79 64.6068 114.79C65.2507 114.79 65.8166 114.938 66.3083 115.227C66.7961 115.508 67.1863 115.836 67.479 116.211V114.993H69.3209ZM64.7317 122.767C65.2937 122.767 65.7854 122.634 66.2146 122.361C66.64 122.08 66.9678 121.701 67.198 121.221C67.4361 120.745 67.557 120.203 67.557 119.598C67.557 119.016 67.4361 118.489 67.198 118.021C66.9678 117.545 66.64 117.17 66.2146 116.897C65.7854 116.616 65.2937 116.476 64.7317 116.476C64.1893 116.476 63.7054 116.612 63.28 116.882C62.8508 117.155 62.5191 117.522 62.281 117.99C62.0508 118.458 61.9376 118.997 61.9376 119.598C61.9376 120.203 62.0508 120.745 62.281 121.221C62.5191 121.701 62.8508 122.08 63.28 122.361C63.7054 122.634 64.1893 122.767 64.7317 122.767Z" fill="#FFC468"/>
<path d="M76.7276 114.79C77.5588 114.79 78.2027 114.962 78.6632 115.305C79.1198 115.649 79.4437 116.113 79.631 116.694C79.8183 117.268 79.912 117.908 79.912 118.614V124.265H78.0856V118.739C78.0856 118.294 78.0232 117.892 77.8983 117.537C77.7813 117.186 77.5861 116.909 77.3052 116.71C77.0242 116.503 76.6261 116.421 76.1188 116.46C75.6505 116.46 75.233 116.562 74.8701 116.757C74.5033 116.956 74.2145 117.221 73.9959 117.553C73.7852 117.889 73.6838 118.251 73.6838 118.646V124.265H71.873V114.993H73.6838V116.46C73.9647 116.023 74.3745 115.641 74.9169 115.305C75.4554 114.962 76.0603 114.79 76.7276 114.79Z" fill="#FFC468"/>
<path d="M83.5413 119.613C83.5413 120.23 83.6739 120.776 83.9471 121.252C84.2281 121.732 84.5949 122.111 85.0554 122.392C85.512 122.665 85.9959 122.798 86.5071 122.798C87.1002 122.798 87.6153 122.649 88.0524 122.345C88.4895 122.033 88.8407 121.713 89.1139 121.377L90.1129 122.626C89.8943 122.938 89.586 123.235 89.1919 123.516C88.8056 123.789 88.3646 124.011 87.8651 124.187C87.3734 124.351 86.8583 124.437 86.3197 124.437C85.4651 124.437 84.6964 124.23 84.0095 123.812C83.3305 123.387 82.7959 122.809 82.4018 122.08C82.0037 121.342 81.8086 120.519 81.8086 119.613C81.8086 118.7 82.0037 117.881 82.4018 117.163C82.7959 116.437 83.3305 115.859 84.0095 115.43C84.6964 115.005 85.4651 114.79 86.3197 114.79C87.1822 114.79 87.947 114.97 88.6143 115.321C89.2895 115.664 89.789 116.113 90.1129 116.663L89.1139 117.896C88.8407 117.502 88.4583 117.163 87.9587 116.882C87.4592 116.593 86.9675 116.445 86.4915 116.445C85.9373 116.445 85.4378 116.585 84.9929 116.866C84.5442 117.139 84.189 117.514 83.9315 117.99C83.67 118.458 83.5413 119.001 83.5413 119.613Z" fill="#FFC468"/>
<path d="M99.804 123.049H99.7884C99.4138 123.416 98.8909 123.736 98.2275 124.017C97.5719 124.298 96.8851 124.439 96.167 124.439C95.1992 124.439 94.3446 124.236 93.6071 123.83C92.8773 123.424 92.3037 122.87 91.89 122.16C91.4725 121.442 91.2656 120.63 91.2656 119.725C91.2656 118.686 91.4842 117.801 91.9212 117.071C92.3583 116.333 92.9358 115.768 93.6539 115.369C94.3719 114.975 95.1563 114.776 96.0109 114.776C96.7797 114.776 97.4821 114.971 98.1182 115.354C98.7621 115.74 99.2733 116.271 99.6479 116.946C100.023 117.613 100.21 118.394 100.21 119.287L100.194 120.068H93.0919C93.1934 120.903 93.5368 121.563 94.1222 122.05C94.7036 122.542 95.4412 122.784 96.3387 122.784C96.9826 122.784 97.5016 122.667 97.8997 122.425C98.3055 122.175 98.6372 121.941 98.8987 121.723L99.804 123.049ZM96.0109 116.462C95.3124 116.462 94.7036 116.626 94.1846 116.946C93.6617 117.27 93.3183 117.828 93.1544 118.616H98.3523V118.491C98.3211 118.086 98.1885 117.734 97.9621 117.43C97.7319 117.118 97.447 116.88 97.1036 116.712C96.7602 116.548 96.3934 116.462 96.0109 116.462Z" fill="#FFC468"/>
<path d="M103.361 60.6272L91.1656 29.0569C90.9354 28.4716 90.2837 28.1828 89.6983 28.4091L68.9455 36.4519C68.364 36.6744 68.0752 37.33 68.2977 37.9153C68.5279 38.5007 69.1835 38.7895 69.7689 38.5592L89.4642 30.9301L100.844 60.3891L77.3863 69.4778C76.801 69.7041 76.5122 70.3597 76.7385 70.9451C76.9102 71.3939 77.3395 71.6709 77.7922 71.6709C77.9288 71.6709 78.0692 71.6475 78.198 71.5929L102.713 62.0906C102.998 61.9852 103.22 61.7745 103.345 61.4935C103.462 61.2164 103.474 60.9121 103.361 60.6272Z" fill="#FFC468"/>
<path d="M94.1801 54.6654C94.7654 54.4351 95.0542 53.7795 94.8279 53.1942L89.8445 40.3007C89.7392 40.0236 89.5206 39.7934 89.2436 39.6763C88.9743 39.5514 88.6621 39.5475 88.385 39.6529C86.6797 40.3085 84.7636 39.4656 84.108 37.7641C83.8778 37.1788 83.2222 36.8939 82.6407 37.1124L74.7189 40.1836C74.1374 40.41 73.8487 41.0656 74.0711 41.647C74.3013 42.2324 74.9569 42.5211 75.5384 42.2987L82.512 39.5944C83.7061 41.4519 85.9265 42.4353 88.1002 42.0685L92.346 53.0654C91.4445 53.6468 90.7265 54.4858 90.2777 55.4966C89.8328 56.5073 89.7001 57.5999 89.8758 58.6614L77.3803 63.5042C76.795 63.7345 76.5062 64.3901 76.7325 64.9754C76.9042 65.4242 77.3335 65.6935 77.7862 65.6935C77.9228 65.6935 78.0632 65.6701 78.192 65.6193L91.6435 60.4097C91.9206 60.3043 92.1469 60.0858 92.2718 59.8087C92.3928 59.5355 92.4006 59.2233 92.2874 58.9463C91.6318 57.237 92.4825 55.3249 94.1801 54.6654Z" fill="#FFC468"/>
<path d="M65.3284 34.8059C65.5118 34.9112 65.7069 34.9581 65.9059 34.9581C66.2883 34.9581 66.6669 34.7629 66.8815 34.4039C67.1976 33.8654 67.022 33.1669 66.4796 32.8508C63.6659 31.1884 61.9216 28.1328 61.9216 24.8665C61.9216 19.7583 66.0659 15.6062 71.1624 15.6062C76.2628 15.6062 80.4072 19.7583 80.4072 24.8665C80.4072 25.9123 80.2355 26.9309 79.8999 27.9065C79.693 28.4957 80.0052 29.1396 80.5945 29.3464C81.1915 29.5533 81.8354 29.2411 82.0423 28.644C82.4598 27.4343 82.6705 26.166 82.6705 24.8665C82.6705 18.5095 77.5116 13.3389 71.1624 13.3389C64.8171 13.3389 59.6543 18.5095 59.6543 24.8665C59.6543 28.9289 61.8318 32.7376 65.3284 34.8059Z" fill="#FFC468"/>
<path d="M69.946 21.7521H72.0923C72.6347 21.7521 73.0796 22.197 73.0796 22.7433C73.0796 23.3716 73.5869 23.8789 74.2113 23.8789C74.8357 23.8789 75.343 23.3716 75.343 22.7433C75.343 20.9677 73.9147 19.5278 72.1547 19.4965V18.1229C72.1547 17.4946 71.6474 16.9873 71.0192 16.9873C70.3948 16.9873 69.8875 17.4946 69.8875 18.1229V19.4965C68.1236 19.5278 66.6992 20.9677 66.6992 22.7433C66.6992 24.5423 68.1548 25.9979 69.946 25.9979H72.0923C72.6347 25.9979 73.0796 26.4428 73.0796 26.9852C73.0796 27.5354 72.6347 27.9725 72.0923 27.9725H69.946C69.4036 27.9725 68.9626 27.5354 68.9626 26.9852C68.9626 26.3608 68.4553 25.8496 67.8309 25.8496C67.2065 25.8496 66.6992 26.3608 66.6992 26.9852C66.6992 28.7608 68.1236 30.2047 69.8875 30.232V31.6095C69.8875 32.2339 70.3948 32.7412 71.0192 32.7412C71.6474 32.7412 72.1547 32.2339 72.1547 31.6095V30.232C73.9147 30.2047 75.343 28.7608 75.343 26.9852C75.343 25.1901 73.8874 23.7306 72.0923 23.7306H69.946C69.4036 23.7306 68.9626 23.2897 68.9626 22.7433C68.9626 22.197 69.4036 21.7521 69.946 21.7521Z" fill="#FFC468"/>
<path d="M73.3722 51.8242C72.744 51.8242 72.2405 52.3315 72.2405 52.9559V77.2326H37.3767V52.9559C37.3767 52.3315 36.8694 51.8242 36.245 51.8242C35.6206 51.8242 35.1133 52.3315 35.1133 52.9559V78.3682C35.1133 78.9926 35.6206 79.4999 36.245 79.4999H73.3722C73.9927 79.4999 74.5039 78.9926 74.5039 78.3682V52.9559C74.5039 52.3315 73.9927 51.8242 73.3722 51.8242Z" fill="#FFC468"/>
<path d="M34.7879 47.5422L54.8071 37.3257L74.8302 47.5422H34.7879ZM78.5921 48.4436C78.7873 47.6397 78.4087 46.8202 77.6712 46.4495L55.3222 35.0467C54.9983 34.8789 54.6198 34.8789 54.2959 35.0467L31.947 46.4417C31.2094 46.8202 30.8309 47.6397 31.0182 48.4436C31.2133 49.2475 31.9235 49.8095 32.7469 49.8095H76.8673C77.6946 49.8095 78.4009 49.2475 78.5921 48.4436Z" fill="#FFC468"/>
<path d="M56.1416 42.9925C56.1416 43.734 55.5445 44.3271 54.807 44.3271C54.0694 44.3271 53.4763 43.734 53.4763 42.9925C53.4763 42.2628 54.0694 41.6579 54.807 41.6579C55.5445 41.6579 56.1416 42.2628 56.1416 42.9925ZM51.2129 42.9925C51.2129 44.9788 52.8285 46.5983 54.807 46.5983C56.7894 46.5983 58.405 44.9788 58.405 42.9925C58.405 41.0101 56.7894 39.3906 54.807 39.3906C52.8285 39.3906 51.2129 41.0101 51.2129 42.9925Z" fill="#FFC468"/>
<path d="M45.9432 56.0261V71.3625C45.9432 72.4083 45.0925 73.2591 44.0467 73.2591C43.0047 73.2591 42.1618 72.4083 42.1618 71.3625V56.0261C42.1618 54.9803 43.0047 54.1296 44.0467 54.1296C45.0925 54.1296 45.9432 54.9803 45.9432 56.0261ZM39.8984 56.0261V71.3625C39.8984 73.661 41.7599 75.5264 44.0467 75.5264C46.3413 75.5264 48.2066 73.661 48.2066 71.3625V56.0261C48.2066 53.7354 46.3413 51.8623 44.0467 51.8623C41.7599 51.8623 39.8984 53.7354 39.8984 56.0261Z" fill="#FFC468"/>
<path d="M56.7479 56.0261V71.3625C56.7479 72.4083 55.9011 73.2591 54.8631 73.2591C53.8172 73.2591 52.9704 72.4083 52.9704 71.3625V56.0261C52.9704 54.9803 53.8172 54.1296 54.8631 54.1296C55.9011 54.1296 56.7479 54.9803 56.7479 56.0261ZM50.707 56.0261V71.3625C50.707 73.661 52.5685 75.5264 54.8631 75.5264C57.1499 75.5264 59.0152 73.661 59.0152 71.3625V56.0261C59.0152 53.7354 57.1499 51.8623 54.8631 51.8623C52.5685 51.8623 50.707 53.7354 50.707 56.0261Z" fill="#FFC468"/>
<path d="M67.5565 56.0261V71.3625C67.5565 72.4083 66.7136 73.2591 65.6717 73.2591C64.6258 73.2591 63.779 72.4083 63.779 71.3625V56.0261C63.779 54.9803 64.6258 54.1296 65.6717 54.1296C66.7136 54.1296 67.5565 54.9803 67.5565 56.0261ZM61.5117 56.0261V71.3625C61.5117 73.661 63.3771 75.5264 65.6717 75.5264C67.9585 75.5264 69.8238 73.661 69.8238 71.3625V56.0261C69.8238 53.7354 67.9585 51.8623 65.6717 51.8623C63.3771 51.8623 61.5117 53.7354 61.5117 56.0261Z" fill="#FFC468"/>
<defs>
<linearGradient id="paint0_linear_462_184" x1="119.938" y1="125.957" x2="0.00365769" y2="-0.00348272" gradientUnits="userSpaceOnUse">
<stop/>
<stop offset="1" stop-color="#707070"/>
</linearGradient>
</defs>
</svg>
