<svg width="134" height="136" viewBox="0 0 134 136" fill="none" xmlns="http://www.w3.org/2000/svg">
<path d="M26.055 0H107.459C121.849 0 133.514 11.6764 133.514 26.0784V109.671C133.514 124.073 121.849 135.75 107.459 135.75H26.055C11.6647 135.75 0 124.073 0 109.671V26.0784C0 11.6764 11.6647 0 26.055 0Z" fill="url(#paint0_linear_451_242)"/>
<path d="M18.3223 111.135V98.8174H26.3165V100.637H20.2198V104.059H25.5233V105.894H20.2198V111.135H18.3223Z" fill="#FFC468"/>
<path d="M33.639 103.84C33.5223 103.79 33.3785 103.743 33.2035 103.7C33.0363 103.661 32.8614 103.638 32.6747 103.638C32.3014 103.638 31.9321 103.739 31.5705 103.933C31.205 104.12 30.9017 104.396 30.6528 104.758C30.4118 105.112 30.2951 105.535 30.2951 106.033V111.134H28.4754V101.896H30.2951V103.638C30.5517 103.07 30.9406 102.604 31.4616 102.238C31.9904 101.877 32.5386 101.694 33.1102 101.694C33.5457 101.694 33.8801 101.756 34.1211 101.88L33.639 103.84Z" fill="#FFC468"/>
<path d="M43.5007 109.922H43.4851C43.1118 110.288 42.5908 110.607 41.9298 110.887C41.2766 111.167 40.5923 111.307 39.8768 111.307C38.9126 111.307 38.061 111.105 37.3262 110.7C36.5991 110.296 36.0275 109.744 35.6153 109.036C35.1993 108.321 34.9932 107.512 34.9932 106.61C34.9932 105.575 35.211 104.693 35.6464 103.966C36.0819 103.231 36.6574 102.667 37.3728 102.27C38.0883 101.878 38.8698 101.679 39.7213 101.679C40.4873 101.679 41.1872 101.874 41.821 102.255C42.4625 102.64 42.9719 103.169 43.3451 103.841C43.7184 104.506 43.905 105.284 43.905 106.174L43.8895 106.952H36.8129C36.914 107.784 37.2562 108.441 37.8394 108.927C38.4188 109.417 39.1536 109.658 40.0479 109.658C40.6895 109.658 41.2066 109.541 41.6032 109.3C42.0076 109.052 42.3381 108.818 42.5986 108.6L43.5007 109.922ZM39.7213 103.359C39.0253 103.359 38.4187 103.522 37.9016 103.841C37.3806 104.164 37.0384 104.72 36.8751 105.505H42.0542V105.381C42.0231 104.977 41.8909 104.627 41.6654 104.323C41.436 104.012 41.1522 103.775 40.81 103.608C40.4678 103.445 40.1024 103.359 39.7213 103.359Z" fill="#FFC468"/>
<path d="M53.8211 109.922H53.8055C53.4322 110.288 52.9112 110.607 52.2502 110.887C51.597 111.167 50.9127 111.307 50.1972 111.307C49.233 111.307 48.3814 111.105 47.6466 110.7C46.9195 110.296 46.3479 109.744 45.9357 109.036C45.5197 108.321 45.3136 107.512 45.3136 106.61C45.3136 105.575 45.5314 104.693 45.9668 103.966C46.4023 103.231 46.9778 102.667 47.6932 102.27C48.4086 101.878 49.1902 101.679 50.0417 101.679C50.8077 101.679 51.5076 101.874 52.1413 102.255C52.7829 102.64 53.2923 103.169 53.6655 103.841C54.0388 104.506 54.2254 105.284 54.2254 106.174L54.2099 106.952H47.1333C47.2344 107.784 47.5766 108.441 48.1598 108.927C48.7391 109.417 49.474 109.658 50.3683 109.658C51.0099 109.658 51.527 109.541 51.9236 109.3C52.328 109.052 52.6585 108.818 52.919 108.6L53.8211 109.922ZM50.0417 103.359C49.3457 103.359 48.7391 103.522 48.222 103.841C47.701 104.164 47.3588 104.72 47.1955 105.505H52.3746V105.381C52.3435 104.977 52.2113 104.627 51.9858 104.323C51.7564 104.012 51.4726 103.775 51.1304 103.608C50.7882 103.445 50.4227 103.359 50.0417 103.359Z" fill="#FFC468"/>
<path d="M56.2093 111.135V98.1013H58.0134V111.135H56.2093Z" fill="#FFC468"/>
<path d="M69.2076 101.896V111.134H67.3724V109.704C67.0924 110.1 66.6764 110.466 66.1281 110.808C65.576 111.138 64.9383 111.306 64.2151 111.306C63.4375 111.306 62.7259 111.103 62.0844 110.699C61.4389 110.287 60.9335 109.715 60.5602 108.988C60.1869 108.265 60.0003 107.429 60.0003 106.484C60.0003 105.551 60.1908 104.723 60.5757 103.996C60.9685 103.272 61.5011 102.705 62.1777 102.3C62.862 101.896 63.6397 101.694 64.5106 101.694C65.1522 101.694 65.716 101.842 66.2059 102.129C66.6919 102.409 67.0808 102.736 67.3724 103.109V101.896H69.2076ZM64.6351 109.641C65.195 109.641 65.6849 109.509 66.1126 109.237C66.5364 108.957 66.863 108.58 67.0924 108.102C67.3296 107.627 67.4501 107.087 67.4501 106.484C67.4501 105.905 67.3296 105.38 67.0924 104.913C66.863 104.439 66.5364 104.066 66.1126 103.793C65.6849 103.514 65.195 103.374 64.6351 103.374C64.0946 103.374 63.6125 103.51 63.1886 103.778C62.7609 104.05 62.4304 104.416 62.1933 104.882C61.9638 105.349 61.8511 105.885 61.8511 106.484C61.8511 107.087 61.9638 107.627 62.1933 108.102C62.4304 108.58 62.7609 108.957 63.1886 109.237C63.6125 109.509 64.0946 109.641 64.6351 109.641Z" fill="#FFC468"/>
<path d="M76.5959 101.694C77.4241 101.694 78.0656 101.865 78.5245 102.207C78.9794 102.549 79.3021 103.012 79.4887 103.591C79.6754 104.163 79.7687 104.801 79.7687 105.504V111.134H77.949V105.629C77.949 105.185 77.8868 104.785 77.7624 104.431C77.6457 104.081 77.4513 103.805 77.1713 103.607C76.8914 103.401 76.4948 103.319 75.9893 103.358C75.5227 103.358 75.1067 103.459 74.7451 103.654C74.3796 103.852 74.0919 104.116 73.8741 104.447C73.6642 104.781 73.5631 105.143 73.5631 105.535V111.134H71.7589V101.896H73.5631V103.358C73.843 102.923 74.2513 102.541 74.7918 102.207C75.3283 101.865 75.931 101.694 76.5959 101.694Z" fill="#FFC468"/>
<path d="M83.3857 106.5C83.3857 107.114 83.518 107.658 83.7901 108.133C84.0701 108.611 84.4356 108.988 84.8944 109.268C85.3493 109.54 85.8314 109.672 86.3408 109.672C86.9318 109.672 87.4451 109.525 87.8805 109.221C88.316 108.91 88.666 108.592 88.9381 108.257L89.9335 109.501C89.7158 109.812 89.4086 110.108 89.0159 110.388C88.631 110.66 88.1916 110.882 87.6939 111.057C87.204 111.22 86.6908 111.306 86.1542 111.306C85.3027 111.306 84.5367 111.099 83.8523 110.683C83.1758 110.26 82.6431 109.684 82.2504 108.957C81.8538 108.222 81.6594 107.402 81.6594 106.5C81.6594 105.59 81.8538 104.773 82.2504 104.058C82.6431 103.335 83.1758 102.759 83.8523 102.332C84.5367 101.908 85.3027 101.694 86.1542 101.694C87.0135 101.694 87.7756 101.873 88.4405 102.223C89.1131 102.565 89.6108 103.012 89.9335 103.56L88.9381 104.789C88.666 104.396 88.2849 104.058 87.7872 103.778C87.2895 103.49 86.7996 103.342 86.3253 103.342C85.7731 103.342 85.2754 103.482 84.8322 103.762C84.385 104.035 84.0312 104.408 83.7746 104.882C83.5141 105.349 83.3857 105.889 83.3857 106.5Z" fill="#FFC468"/>
<path d="M93.244 100.123C92.828 100.123 92.5208 100.022 92.3264 99.8119C92.1281 99.6058 92.0309 99.3298 92.0309 98.9876C92.0309 98.6999 92.1281 98.4355 92.3264 98.1944C92.5208 97.9572 92.828 97.8367 93.244 97.8367C93.6562 97.8367 93.9634 97.9455 94.1617 98.1633C94.3561 98.3732 94.4572 98.6454 94.4572 98.9876C94.4572 99.2792 94.3561 99.5436 94.1617 99.7808C93.9634 100.01 93.6562 100.123 93.244 100.123ZM93.4618 111.134H91.6576V101.896H93.4618V111.134Z" fill="#FFC468"/>
<path d="M101.39 101.694C102.218 101.694 102.86 101.865 103.319 102.207C103.774 102.549 104.096 103.012 104.283 103.591C104.47 104.163 104.563 104.801 104.563 105.504V111.134H102.743V105.629C102.743 105.185 102.681 104.785 102.557 104.431C102.44 104.081 102.246 103.805 101.966 103.607C101.686 103.401 101.289 103.319 100.784 103.358C100.317 103.358 99.901 103.459 99.5394 103.654C99.1739 103.852 98.8861 104.116 98.6684 104.447C98.4584 104.781 98.3573 105.143 98.3573 105.535V111.134H96.5532V101.896H98.3573V103.358C98.6373 102.923 99.0456 102.541 99.586 102.207C100.123 101.865 100.725 101.694 101.39 101.694Z" fill="#FFC468"/>
<path d="M108.289 112.659C108.639 112.939 109.082 113.156 109.611 113.312C110.14 113.475 110.657 113.561 111.166 113.561C112.107 113.561 112.834 113.327 113.344 112.861C113.849 112.402 114.106 111.71 114.106 110.777V109.657C113.938 109.937 113.701 110.209 113.39 110.466C113.087 110.715 112.729 110.917 112.317 111.072C111.913 111.228 111.485 111.306 111.042 111.306C110.179 111.306 109.401 111.103 108.709 110.699C108.013 110.287 107.465 109.715 107.06 108.988C106.656 108.265 106.454 107.433 106.454 106.5C106.454 105.567 106.648 104.738 107.045 104.011C107.449 103.288 107.993 102.72 108.678 102.316C109.37 101.904 110.14 101.694 110.979 101.694C111.683 101.694 112.305 101.849 112.846 102.16C113.394 102.471 113.814 102.81 114.106 103.171V101.896H115.91V110.575C115.91 111.671 115.684 112.558 115.241 113.234C114.806 113.907 114.222 114.401 113.499 114.712C112.784 115.023 112.006 115.178 111.166 115.178C110.501 115.178 109.844 115.073 109.191 114.867C108.538 114.669 108.013 114.404 107.62 114.074L108.289 112.659ZM111.228 103.358C110.668 103.358 110.163 103.498 109.72 103.778C109.284 104.05 108.934 104.423 108.678 104.898C108.429 105.376 108.304 105.909 108.304 106.5C108.304 107.102 108.429 107.643 108.678 108.117C108.934 108.584 109.284 108.957 109.72 109.237C110.163 109.509 110.668 109.641 111.228 109.641C111.819 109.641 112.333 109.509 112.768 109.237C113.211 108.969 113.554 108.595 113.795 108.117C114.043 107.643 114.168 107.102 114.168 106.5C114.168 105.889 114.043 105.349 113.795 104.882C113.554 104.416 113.211 104.05 112.768 103.778C112.333 103.498 111.819 103.358 111.228 103.358Z" fill="#FFC468"/>
<path d="M73.2738 30.8182C71.1741 30.616 69.0551 30.2971 66.9554 30.2544C61.4652 30.1144 56.0956 31.1603 50.6832 31.9846C48.7468 32.284 47.8176 33.1278 46.9505 34.7919C43.9604 40.496 40.7099 46.06 37.5604 51.6591C37.3582 52.0401 37.0977 52.5222 37.1599 52.9033C37.4593 54.6724 37.8831 56.3988 38.2875 58.3079C38.8124 57.9036 39.2168 57.6042 39.6212 57.3242C41.8802 55.6562 44.6875 55.9983 46.1028 58.1252C47.1293 59.6533 47.0088 61.3796 45.7568 62.725C43.1556 65.5361 40.531 68.3473 37.8831 71.1352C36.6117 72.4805 34.4537 72.7216 32.7973 71.7612C31.242 70.8553 30.5149 69.0706 31.0826 67.2431C31.3237 66.4577 31.7281 65.6956 32.2335 65.0346C33.1589 63.8098 34.2321 62.6822 35.2002 61.4807C35.4413 61.1774 35.6241 60.6564 35.5619 60.2948C35.3208 58.9689 34.9786 57.6625 34.6326 56.3599C34.5742 56.1189 34.3332 55.8156 34.0882 55.7145C33.1823 55.3529 32.1713 55.1546 31.3237 54.6919C29.5079 53.7082 27.7698 52.5845 25.9929 51.5191C25.4875 51.2197 24.9859 50.9592 24.4376 50.7376C23.0651 50.1738 22.7035 49.5711 23.2478 48.2063C23.8738 46.6588 24.5815 45.1346 25.328 43.6493C28.3375 37.6264 31.6658 31.7824 35.4219 26.1795C36.0479 25.258 36.775 24.3715 37.5604 23.5511C38.8124 22.2252 39.8622 22.0852 41.3164 23.2089C43.2761 24.7136 45.1736 26.3389 46.9894 28.0264C47.8798 28.8507 48.6263 29.2318 49.9561 28.9712C55.248 27.9059 60.5982 27.0427 66.0067 27.0232C70.5481 27.0038 75.0507 27.4859 79.0478 30.0366C80.0393 30.6782 81.0464 30.2544 81.754 29.3523C83.9548 26.5411 86.1749 23.7299 88.4962 21.0004C89.4255 19.8961 90.2343 19.935 91.3424 20.8798C97.723 26.3389 104.084 31.8019 110.441 37.2648C111.332 38.0269 111.371 38.8512 110.523 39.7727C108.867 41.5808 107.191 43.3888 105.496 45.1541C104.687 45.9978 104.022 46.7599 103.82 48.0469C103.357 51.138 102.467 54.1281 100.367 56.6982C100.974 57.1803 101.436 57.6819 102.004 58.0241C104.306 59.4511 104.648 61.5779 104.084 63.9303C103.295 67.2198 101.195 69.3311 97.9057 70.1943C97.2992 70.3537 97.097 70.6142 96.9959 71.2791C96.4515 74.9729 94.9585 78.0835 91.323 79.771C91.0002 79.9109 90.7786 80.4942 90.7397 80.8947C90.5764 82.8815 90.1332 84.7712 88.7995 86.3576C87.6486 87.7224 86.1555 88.5661 84.3591 88.6439C83.4921 88.6867 83.2277 89.0483 83.0255 89.7909C82.139 93.1231 78.4451 95.9732 74.9924 95.8138C73.8609 95.7555 72.6089 95.2928 71.6796 94.6512C68.0247 92.1005 64.4942 89.4099 60.9014 86.7581C60.8198 86.6998 60.7381 86.657 60.5554 86.5559C59.8516 87.3219 59.1634 88.1229 58.4169 88.8655C56.3172 90.9768 52.985 90.413 51.6941 87.7418C51.0876 86.4976 51.107 85.2922 52.1179 84.1685C54.622 81.3379 57.1454 78.5267 59.5056 75.595C61.022 73.7287 63.6038 73.9464 64.8985 74.9301C66.551 76.1782 67.076 78.6473 65.8862 80.3736C65.1979 81.3768 64.292 82.2205 63.4832 83.1459C63.2422 83.4259 62.9778 83.7058 62.655 84.0675C63.7049 84.8918 64.6536 85.6927 65.6645 86.4354C68.3085 88.3445 70.972 90.2109 73.6393 92.12C74.4869 92.7227 75.354 92.8004 76.3027 92.4194C78.0796 91.7389 79.5727 90.7552 80.1598 88.7878C80.3193 88.2045 80.2415 87.7807 79.7943 87.4191C76.4038 84.6896 73.0133 81.9795 69.5994 79.2694C68.8723 78.7056 68.1258 78.204 68.2074 77.1192C68.2891 76.1977 68.8956 75.6339 69.7822 75.8944C70.5715 76.116 71.3763 76.4776 72.0218 76.9792C74.9107 79.2694 77.7375 81.6179 80.5837 83.9469C80.8675 84.1686 81.1086 84.4096 81.3924 84.6312C83.5698 86.3576 86.5171 85.3739 87.2442 82.6832C87.3064 82.4422 87.3647 82.1817 87.4075 81.9406C87.7497 80.3931 87.528 79.1683 86.0738 78.1029C82.8661 75.7544 79.7944 73.2465 76.7071 70.7542C76.2638 70.3926 75.7584 69.9532 75.6184 69.4516C75.4745 68.95 75.5562 68.1452 75.8983 67.803C76.2211 67.4842 76.9909 67.4842 77.5547 67.5036C77.8969 67.523 78.2196 67.8652 78.5229 68.1063C81.754 70.6764 84.9851 73.266 88.2163 75.8361C89.8688 77.162 90.557 77.0997 91.9101 75.455C93.0377 74.0903 93.8659 72.5622 93.8892 70.7542C93.8892 70.272 93.6248 69.6693 93.2632 69.3505C90.4364 66.9398 87.5669 64.5913 84.7402 62.1806C84.1764 61.7179 83.6709 61.158 83.2665 60.5553C82.8661 59.9721 82.9672 59.21 83.5504 58.829C83.9936 58.549 84.7402 58.3857 85.2262 58.5684C85.9339 58.829 86.5404 59.3694 87.1237 59.871C89.7093 62.0601 92.2911 64.2686 94.8146 66.5199C95.7439 67.3403 96.6732 67.5814 97.7035 66.9398C98.5706 66.3993 99.4999 65.855 100.126 65.0929C101.638 63.2849 101.397 61.5974 99.6399 60.0732C92.5361 53.8676 85.4478 47.6658 78.3207 41.5186C77.8969 41.157 77.1504 40.9392 76.5866 41.017C73.476 41.4214 70.3693 41.8607 67.2976 42.4051C66.31 42.5839 65.3612 43.0855 64.3931 43.4666C61.5041 44.633 58.8601 44.112 56.4378 42.3429C54.8008 41.157 54.622 39.5744 56.0762 38.1475C57.4254 36.8216 59.0818 35.799 60.4543 34.4925C62.2934 32.7467 64.4942 32.1013 66.9554 31.9224C69.0745 31.763 71.1741 31.3819 73.2932 31.0981C73.2738 31.0398 73.2738 30.9387 73.2738 30.8182ZM39.8039 25.7596C34.4343 32.8867 30.4955 40.5348 26.6384 48.2685C29.0413 49.6527 31.2848 50.9592 33.6061 52.3045C37.1988 45.7956 40.7332 39.4111 44.2443 33.0267C44.6059 32.3657 45.3563 31.5997 45.2319 31.0203C45.1113 30.3749 44.2054 29.8733 43.6183 29.3328C42.4479 28.1897 41.2153 27.0621 39.8039 25.7596ZM107.234 38.6296C106.545 38.0658 105.939 37.5837 105.375 37.0821C102.871 34.8541 100.41 32.5834 97.8435 30.3982C95.5222 28.4074 93.0999 26.5022 90.7164 24.5931C90.4948 24.4142 89.9115 24.3326 89.791 24.4531C88.1735 26.3195 86.5988 28.2286 84.9657 30.1766C90.6775 34.8736 96.331 39.5317 102.043 44.2325C103.8 42.3623 105.496 40.5348 107.234 38.6296Z" fill="#FFC468"/>
<path d="M56.2156 68.6861C58.3347 68.6861 60.0727 70.2141 60.1116 72.2632C60.131 72.9242 59.8705 73.7485 59.4467 74.2696C56.4567 77.8234 53.4083 81.3189 50.3794 84.83C48.6452 86.8402 46.5028 87.1785 44.687 85.7748C42.7701 84.2701 42.4474 81.7194 44.1038 79.7092C46.2228 77.1624 48.4819 74.7323 50.6826 72.2399C51.2892 71.5595 51.8763 70.8751 52.5023 70.2336C53.6532 69.071 54.602 68.6861 56.2156 68.6861Z" fill="#FFC468"/>
<path d="M41.1126 80.3349C37.8231 80.1132 35.8829 76.8005 37.5393 73.8882C38.488 72.2007 39.8217 70.6959 41.1126 69.2301C42.7689 67.3404 44.5264 65.5363 46.2606 63.7088C47.4115 62.5034 49.6317 62.1613 51.1053 62.9428C52.6217 63.7477 53.5277 65.7151 53.065 67.3832C52.9444 67.8031 52.6995 68.2036 52.4001 68.5457C49.1884 72.2007 45.9767 75.8556 42.7301 79.4678C42.3257 79.8916 41.6569 80.051 41.1126 80.3349Z" fill="#FFC468"/>
<defs>
<linearGradient id="paint0_linear_451_242" x1="119.503" y1="125.5" x2="0.00363992" y2="-0.0034658" gradientUnits="userSpaceOnUse">
<stop/>
<stop offset="1" stop-color="#707070"/>
</linearGradient>
</defs>
</svg>
