<svg width="51" height="38" viewBox="0 0 51 38" fill="none" xmlns="http://www.w3.org/2000/svg">
<path d="M46.532 10.1301C47.1104 10.4697 47.7832 10.5388 48.4372 10.3753C49.0911 10.2056 49.6319 9.79686 49.9715 9.21843C50.6631 8.00487 50.2543 6.47057 49.0346 5.7789C48.6447 5.55252 48.211 5.43933 47.7834 5.43933C46.9219 5.43933 46.0606 5.88574 45.6142 6.69057C45.2746 7.269 45.1866 7.9418 45.3501 8.59574C45.5196 9.25608 45.9472 9.79688 46.532 10.1301Z" fill="#FFCF23"/>
<path d="M27.6683 2.5215C27.6683 1.13826 26.5492 0 25.1469 0C23.7636 0 22.6442 1.13806 22.6442 2.5215C22.6442 3.90473 23.7634 5.02418 25.1469 5.02418C26.5492 5.03032 27.6683 3.90478 27.6683 2.5215Z" fill="#FFCF23"/>
<path d="M3.15816 5.51462C2.95061 5.45812 2.73057 5.43909 2.52303 5.43909C2.07661 5.43909 1.64267 5.55228 1.25298 5.77866C0.0582286 6.47027 -0.356667 8.00457 0.334948 9.21818C1.00775 10.3564 2.57972 10.8217 3.77447 10.13C4.14536 9.88482 4.46609 9.58928 4.69251 9.212C5.13892 8.42602 5.13892 7.45768 4.69251 6.69051C4.35928 6.11207 3.8121 5.68449 3.15816 5.51462Z" fill="#FFCF23"/>
<path d="M18.2805 18.9203C18.2617 18.9579 18.2617 18.9958 18.2428 19.0146C18.2052 19.0711 18.1485 19.0902 18.092 19.1278C18.0731 19.1467 18.0543 19.1843 18.0164 19.2034C17.9033 19.2599 17.7901 19.2977 17.6644 19.2977C17.57 19.2977 17.4757 19.2789 17.3815 19.2412C17.3439 19.2224 17.325 19.2036 17.306 19.1847C17.2872 19.1847 17.2683 19.1847 17.2495 19.1659L5.44084 10.5258C5.15797 10.8466 4.8436 11.1231 4.46612 11.3306C4.11406 11.557 3.73662 11.6702 3.34692 11.7582L7.36488 30.9174C19.1421 33.4577 31.1079 33.4577 42.9229 30.9174L46.9408 11.7582C46.5509 11.6639 46.1737 11.5507 45.8217 11.3495C45.4508 11.1231 45.1488 10.8463 44.866 10.5258L33.0322 19.1591C33.0322 19.1779 33.0134 19.1779 32.9945 19.1779C32.9569 19.1967 32.938 19.2156 32.9002 19.2344C32.8246 19.2721 32.7305 19.2909 32.6173 19.2909C32.5041 19.2909 32.3909 19.2532 32.2777 19.1965C32.2401 19.1777 32.2212 19.14 32.1834 19.121C32.1457 19.0833 32.089 19.0645 32.0514 19.0078C32.0325 18.989 32.0325 18.9513 32.0137 18.9134C31.9949 18.8946 31.976 18.8946 31.976 18.8758L26.3861 6.21826C25.9962 6.35028 25.5813 6.42581 25.1349 6.42581C24.7073 6.42581 24.2924 6.35028 23.9024 6.21826L18.3125 18.8758C18.2996 18.9012 18.2808 18.9012 18.2808 18.92L18.2805 18.9203Z" fill="#FFCF23"/>
<path d="M42.6021 32.3953C36.8047 33.6088 30.957 34.244 25.1218 34.244C19.2866 34.244 13.4578 33.6088 7.6792 32.3953L8.352 35.6084C19.4753 37.9475 30.7683 37.9475 41.923 35.6084L42.6021 32.3953Z" fill="#FFCF23"/>
</svg>
