<svg width="40" height="36" viewBox="0 0 40 36" fill="none" xmlns="http://www.w3.org/2000/svg">
<path d="M0.622166 16.4861C0.207256 16.915 0 17.4198 0 18.0001C0 18.5804 0.207256 19.0727 0.622166 19.4765L15.2561 34.6177C15.6464 35.0466 16.1222 35.2615 16.6831 35.2615C17.244 35.2615 17.7319 35.0466 18.1464 34.6177C18.5367 34.2139 18.7319 33.722 18.7319 33.1417C18.7319 32.561 18.5367 32.0565 18.1464 31.6273L6.98745 20.1196L40 20.1196V15.88L6.98745 15.88L18.1464 4.33426C18.5367 3.93041 18.7319 3.43851 18.7319 2.8582C18.7319 2.27747 18.5367 1.77306 18.1464 1.34378C17.7319 0.939941 17.244 0.7384 16.6831 0.7384C16.1222 0.7384 15.6464 0.93993 15.2561 1.34378L0.622166 16.4861Z" fill="url(#paint0_linear_10_243)"/>
<defs>
<linearGradient id="paint0_linear_10_243" x1="-4.17801e-06" y1="17.4769" x2="37.5" y2="17.4769" gradientUnits="userSpaceOnUse">
<stop stop-opacity="0.35"/>
<stop offset="1" stop-opacity="0"/>
</linearGradient>
</defs>
</svg>
