<svg width="42" height="36" viewBox="0 0 42 36" fill="none" xmlns="http://www.w3.org/2000/svg">
<path fill-rule="evenodd" clip-rule="evenodd" d="M42 17.9999C42 18.5802 41.7927 19.085 41.3778 19.5139L26.7439 34.6562C26.3536 35.0601 25.8778 35.2616 25.3169 35.2616C24.756 35.2616 24.2681 35.0601 23.8536 34.6562C23.4633 34.2269 23.2681 33.7225 23.2681 33.1418C23.2681 32.5615 23.4633 32.0696 23.8536 31.6657L35.0125 20.12H0.5V15.8804H35.0125L23.8536 4.37274C23.4633 3.94346 23.2681 3.43905 23.2681 2.85832C23.2681 2.27801 23.4633 1.78611 23.8536 1.38226C24.2681 0.953362 24.756 0.738525 25.3169 0.738525C25.8778 0.738525 26.3536 0.953373 26.7439 1.38226L41.3778 16.5235C41.7927 16.9273 42 17.4196 42 17.9999Z" fill="url(#paint0_linear_10_242)"/>
<defs>
<linearGradient id="paint0_linear_10_242" x1="39" y1="16.9539" x2="-6.00048" y2="17.4319" gradientUnits="userSpaceOnUse">
<stop stop-color="#0B0E13" stop-opacity="0.35"/>
<stop offset="1" stop-color="#0B0E13" stop-opacity="0"/>
</linearGradient>
</defs>
</svg>
