<svg width="1038" height="913" viewBox="0 0 1038 913" fill="none" xmlns="http://www.w3.org/2000/svg">
<path d="M499.003 510.566L499.002 510.562C497.965 505.31 498.696 501.615 500.387 498.952C502.086 496.275 504.826 494.525 508.033 493.315C511.241 492.105 514.843 491.463 518.184 490.955C518.741 490.87 519.294 490.789 519.838 490.709C522.5 490.317 524.943 489.957 526.661 489.377L526.661 489.377L526.671 489.373C532.556 487.288 538.403 488.11 544.368 488.948C544.538 488.972 544.708 488.996 544.878 489.02C550.958 489.872 557.176 490.657 563.26 487.871L563.26 487.871L563.272 487.865C568.225 485.487 574.119 486.25 579.316 489.706C580.351 490.621 581.52 491.672 582.275 493.168C583.297 495.333 583.242 497.888 582.537 500.196C581.831 502.509 580.51 504.446 579.157 505.402C577.746 506.269 576.173 506.656 574.457 507.003C574.237 507.047 574.015 507.091 573.79 507.135C572.285 507.432 570.677 507.748 569.141 508.403L569.135 508.405C566.518 509.543 564.247 511.715 562.173 514.231C560.543 516.208 558.991 518.455 557.469 520.657C557.054 521.257 556.642 521.854 556.231 522.441C554.293 525.209 552.383 527.766 550.338 529.612C548.299 531.45 546.204 532.512 543.887 532.433L543.878 532.433L543.869 532.433C540.732 532.4 537.777 530.274 534.643 527.651C534.211 527.29 533.775 526.919 533.336 526.545C532.223 525.598 531.092 524.635 529.959 523.773C528.373 522.567 526.719 521.506 524.978 520.893L524.977 520.893C522.428 520 519.898 520.1 517.46 520.372C516.831 520.442 516.213 520.522 515.601 520.602C513.797 520.836 512.052 521.063 510.268 520.994L510.249 520.993L510.231 520.993C505.692 521.042 500.374 517.728 499.003 510.566Z" stroke="url(#paint0_linear_118_18)" stroke-width="1.5" stroke-miterlimit="10"/>
<mask id="path-2-inside-1_118_18" fill="white">
<path d="M539.873 552.535C543.649 554.022 547.366 554.532 551.195 552.83C559.327 549.152 564.969 536.805 569.882 528.667C574.135 521.794 578.344 514.189 584.488 510.141C585.668 509.335 586.863 508.773 588.302 508.195C593.096 506.19 598.527 506.596 602.972 502.897C608.137 498.909 612.064 486.665 608.565 477.567C608.55 477.323 608.55 477.322 608.29 477.093C606.874 473.994 605.027 471.9 602.964 470.31C595.724 464.378 586.977 461.968 578.556 464.928C577.591 465.231 576.856 465.276 575.862 465.091C569.942 464.715 563.725 459.456 557.834 459.567C545.562 459.82 534.135 465.903 521.447 467.406C514.851 468.051 507.594 469.96 499.573 471.426C494.951 472.196 487.51 467.011 482.947 468.758C473.1 472.539 469.017 486.262 467.997 497.84C467.744 501.775 467.996 505.925 468.751 510.29C471.019 523.383 479.92 532.4 491.198 531.962C499.048 531.731 506.06 529.837 512.863 532.61C515.875 533.653 518.701 535.687 521.557 538.209C528.033 543.697 533.574 549.977 539.873 552.535Z"/>
</mask>
<path d="M539.873 552.535L539.308 553.925L539.316 553.928L539.323 553.931L539.873 552.535ZM551.195 552.83L551.804 554.201L551.813 554.197L551.195 552.83ZM569.882 528.667L568.607 527.877L568.603 527.884L568.598 527.891L569.882 528.667ZM584.488 510.141L585.313 511.394L585.324 511.387L585.335 511.38L584.488 510.141ZM588.302 508.195L588.861 509.588L588.871 509.584L588.881 509.579L588.302 508.195ZM602.972 502.897L602.055 501.709L602.033 501.726L602.012 501.744L602.972 502.897ZM608.565 477.567L607.067 477.657L607.081 477.889L607.165 478.105L608.565 477.567ZM608.29 477.093L606.926 477.717L607.058 478.006L607.297 478.217L608.29 477.093ZM602.964 470.31L602.014 471.47L602.031 471.484L602.049 471.498L602.964 470.31ZM578.556 464.928L579.006 466.359L579.029 466.351L579.053 466.343L578.556 464.928ZM575.862 465.091L576.136 463.616L576.048 463.6L575.957 463.594L575.862 465.091ZM557.834 459.567L557.806 458.068L557.803 458.068L557.834 459.567ZM521.447 467.406L521.593 468.899L521.608 468.898L521.624 468.896L521.447 467.406ZM499.573 471.426L499.82 472.906L499.832 472.904L499.843 472.902L499.573 471.426ZM482.947 468.758L482.411 467.357L482.409 467.357L482.947 468.758ZM467.997 497.84L466.503 497.708L466.502 497.726L466.501 497.743L467.997 497.84ZM468.751 510.29L470.229 510.034L468.751 510.29ZM491.198 531.962L491.154 530.462L491.147 530.463L491.14 530.463L491.198 531.962ZM512.863 532.61L512.296 533.999L512.334 534.014L512.372 534.027L512.863 532.61ZM521.557 538.209L520.564 539.333L520.576 539.343L520.587 539.353L521.557 538.209ZM539.323 553.931C543.308 555.5 547.473 556.126 551.804 554.201L550.585 551.459C547.259 552.938 543.989 552.544 540.422 551.14L539.323 553.931ZM551.813 554.197C556.287 552.173 559.927 547.856 562.994 543.253C566.045 538.674 568.797 533.366 571.167 529.442L568.598 527.891C566.054 532.105 563.529 537.04 560.497 541.589C557.482 546.114 554.235 549.809 550.577 551.463L551.813 554.197ZM571.158 529.456C573.313 525.974 575.382 522.431 577.693 519.221C579.998 516.02 582.46 513.273 585.313 511.394L583.663 508.889C580.372 511.057 577.658 514.136 575.259 517.468C572.866 520.791 570.705 524.487 568.607 527.877L571.158 529.456ZM585.335 511.38C586.386 510.661 587.468 510.146 588.861 509.588L587.744 506.803C586.258 507.399 584.95 508.009 583.642 508.903L585.335 511.38ZM588.881 509.579C591.132 508.637 593.447 508.29 596.123 507.639C598.71 507.009 601.445 506.119 603.931 504.05L602.012 501.744C600.053 503.374 597.851 504.13 595.413 504.724C593.063 505.296 590.266 505.748 587.723 506.812L588.881 509.579ZM603.889 504.084C606.84 501.805 609.238 497.384 610.472 492.517C611.715 487.611 611.856 481.944 609.965 477.028L607.165 478.105C608.774 482.288 608.701 487.292 607.563 491.78C606.417 496.306 604.268 500.001 602.055 501.709L603.889 504.084ZM610.062 477.476C610.061 477.468 610.066 477.002 609.817 476.572C609.701 476.372 609.566 476.232 609.491 476.159C609.42 476.089 609.336 476.016 609.283 475.969L607.297 478.217C607.331 478.247 607.353 478.267 607.372 478.283C607.39 478.3 607.393 478.303 607.39 478.3C607.388 478.299 607.303 478.218 607.221 478.076C607.125 477.91 607.086 477.755 607.071 477.662C607.065 477.625 607.064 477.602 607.064 477.606C607.065 477.612 607.065 477.623 607.067 477.657L610.062 477.476ZM609.654 476.47C608.13 473.133 606.122 470.851 603.88 469.122L602.049 471.498C603.932 472.95 605.618 474.854 606.926 477.717L609.654 476.47ZM603.915 469.15C596.375 462.972 587.09 460.338 578.058 463.513L579.053 466.343C586.864 463.598 595.073 465.784 602.014 471.47L603.915 469.15ZM578.105 463.497C577.375 463.727 576.889 463.756 576.136 463.616L575.588 466.566C576.824 466.796 577.807 466.736 579.006 466.359L578.105 463.497ZM575.957 463.594C573.325 463.427 570.568 462.164 567.447 460.776C564.475 459.454 561.141 458.004 557.806 458.068L557.863 461.067C560.418 461.019 563.138 462.143 566.228 463.517C569.168 464.824 572.478 466.379 575.767 466.588L575.957 463.594ZM557.803 458.068C551.448 458.199 545.351 459.838 539.377 461.578C533.349 463.333 527.461 465.183 521.271 465.917L521.624 468.896C528.12 468.126 534.29 466.183 540.216 464.458C546.195 462.717 551.949 461.189 557.865 461.067L557.803 458.068ZM521.301 465.913C514.632 466.565 507.154 468.516 499.304 469.95L499.843 472.902C508.034 471.405 515.07 469.536 521.593 468.899L521.301 465.913ZM499.327 469.946C498.476 470.088 497.383 469.967 496.027 469.632C494.677 469.299 493.248 468.804 491.703 468.3C490.2 467.809 488.598 467.314 487.06 467.065C485.526 466.817 483.904 466.785 482.411 467.357L483.483 470.159C484.272 469.857 485.291 469.818 486.58 470.027C487.865 470.235 489.268 470.661 490.773 471.152C492.236 471.629 493.819 472.177 495.307 472.545C496.789 472.91 498.36 473.149 499.82 472.906L499.327 469.946ZM482.409 467.357C476.964 469.449 473.252 474.231 470.791 479.766C468.324 485.316 467.022 491.816 466.503 497.708L469.492 497.971C469.992 492.286 471.242 486.136 473.533 480.985C475.83 475.818 479.083 471.848 483.485 470.158L482.409 467.357ZM466.501 497.743C466.239 501.81 466.5 506.079 467.273 510.546L470.229 510.034C469.491 505.771 469.25 501.74 469.494 497.936L466.501 497.743ZM467.273 510.546C469.624 524.119 478.99 533.937 491.256 533.461L491.14 530.463C480.85 530.862 472.414 522.647 470.229 510.034L467.273 510.546ZM491.242 533.461C493.254 533.402 495.204 533.237 497.071 533.07C498.953 532.902 500.738 532.734 502.488 532.658C505.976 532.507 509.182 532.729 512.296 533.999L513.429 531.221C509.74 529.717 506.039 529.501 502.358 529.661C500.523 529.741 498.658 529.916 496.805 530.082C494.937 530.248 493.067 530.406 491.154 530.462L491.242 533.461ZM512.372 534.027C515.106 534.974 517.756 536.853 520.564 539.333L522.55 537.085C519.647 534.52 516.644 532.332 513.353 531.193L512.372 534.027ZM520.587 539.353C522.182 540.704 523.723 542.108 525.252 543.509C526.774 544.903 528.289 546.3 529.801 547.606C532.813 550.208 535.924 552.55 539.308 553.925L540.437 551.146C537.522 549.962 534.713 547.885 531.762 545.335C530.291 544.065 528.814 542.703 527.278 541.297C525.75 539.897 524.17 538.457 522.527 537.064L520.587 539.353Z" fill="url(#paint1_linear_118_18)" mask="url(#path-2-inside-1_118_18)"/>
<path d="M552.521 573.829L552.51 573.833C546.798 575.807 541.521 574.059 536.5 571.222C532.514 568.945 528.805 565.676 525.061 562.023C523.722 560.718 522.374 559.357 521.008 557.979C518.582 555.532 516.101 553.028 513.518 550.673C509.807 547.162 505.904 544.655 502.043 542.892L502.034 542.888L502.025 542.884C497.344 540.894 492.59 540.5 487.723 540.64C485.293 540.71 482.819 540.914 480.313 541.123L480.169 541.135C477.703 541.341 475.201 541.55 472.636 541.645C455.01 542.236 443.303 528.451 440.238 509.99C439.351 503.44 438.72 496.941 439.32 490.875L439.32 490.875L439.321 490.865C440.041 482.512 441.448 472.454 444.48 463.782C447.521 455.086 452.132 447.962 459.138 445.189C460.454 444.699 462.182 444.884 464.262 445.555C466.327 446.222 468.597 447.32 470.931 448.483C471.178 448.606 471.425 448.73 471.673 448.854C473.748 449.892 475.856 450.946 477.827 451.708C480.017 452.554 482.175 453.098 484.028 452.778L484.036 452.777C487.932 452.06 491.704 451.218 495.372 450.398C497.319 449.964 499.238 449.535 501.13 449.136C506.606 447.979 511.906 447.053 517.235 446.851C525.995 446.57 534.143 442.888 542.1 439.168C542.403 439.026 542.706 438.884 543.009 438.742C550.703 435.14 558.234 431.614 566.196 430.9L566.2 430.9C567.768 430.751 569.48 431.244 571.331 432.186C573.179 433.126 575.092 434.474 577.051 435.945C577.637 436.385 578.229 436.837 578.824 437.291C580.195 438.34 581.58 439.398 582.938 440.338C584.885 441.687 586.854 442.849 588.779 443.448C590.106 443.886 591.501 444.093 592.901 443.725L592.928 443.718L592.955 443.709C604.659 439.664 616.432 443.691 625.892 451.816C628.684 454.283 631.245 457.219 633.2 461.868L633.406 462.358L633.478 462.353C635.885 468.756 635.819 476.426 634.237 483.24C632.647 490.091 629.565 495.911 626.12 498.676L626.112 498.682L626.105 498.689C622.963 501.349 619.544 502.509 615.949 503.425C615.197 503.616 614.433 503.798 613.661 503.981C610.779 504.665 607.787 505.375 604.892 506.738L604.884 506.742L604.876 506.746C603.182 507.594 601.231 508.716 599.534 510.086C591.578 516.411 585.909 526.633 580.832 535.787C580.281 536.78 579.737 537.76 579.198 538.722L579.195 538.727C578.093 540.728 576.959 542.937 575.772 545.25C573.456 549.763 570.937 554.673 568.052 559.209C563.691 566.067 558.642 571.815 552.521 573.829Z" stroke="url(#paint2_linear_118_18)" stroke-width="1.5" stroke-miterlimit="10"/>
<path d="M589.194 549.639L589.194 549.639C587.769 552.241 586.29 555.165 584.729 558.253C581.753 564.138 578.475 570.619 574.695 576.603C568.934 585.721 562.168 593.393 553.881 595.791C546.477 597.881 539.153 594.821 532.802 590.588C527.877 587.263 523.354 582.873 518.836 578.191C517.745 577.06 516.654 575.911 515.557 574.757C512.133 571.154 508.661 567.499 505.002 564.179C500.247 559.514 495.563 556.313 490.677 554.115L490.675 554.114C480.824 549.715 470.522 550.633 459.233 551.638C457.534 551.789 455.812 551.943 454.067 552.08L454.066 552.08C441.962 553.053 432.257 548.55 425.073 540.818C417.871 533.067 413.188 522.049 411.242 510.022L411.242 510.022L411.24 510.014C409.738 501.338 409.211 492.615 409.926 484.316C410.867 473.482 412.414 459.614 416.137 447.525C419.872 435.396 425.724 425.294 435.107 421.653L435.108 421.652C436.871 420.963 439.216 421.325 442.032 422.421C444.821 423.507 447.898 425.241 451.04 427.061C451.366 427.25 451.693 427.44 452.021 427.63C454.823 429.257 457.652 430.9 460.281 432.101C463.19 433.429 466.017 434.295 468.387 433.879L468.392 433.878C473.804 432.889 478.994 431.661 484.043 430.466C486.494 429.886 488.911 429.314 491.304 428.781C498.653 427.144 505.824 425.862 513.235 425.777C524.389 425.725 534.672 420.289 544.691 414.639C545.391 414.245 546.088 413.85 546.785 413.455C556.144 408.155 565.316 402.96 575.02 401.698C576.9 401.478 578.964 402.215 581.215 403.65C583.459 405.081 585.784 407.137 588.16 409.394C589.004 410.196 589.857 411.026 590.713 411.859C592.243 413.346 593.781 414.842 595.29 416.201C597.648 418.324 600.022 420.192 602.341 421.271L602.372 421.286L602.405 421.297L602.434 421.308C603.293 421.615 604.216 421.945 605.111 422.119C606.015 422.296 606.972 422.331 607.875 421.974C622.928 416.76 637.735 422.301 649.814 432.968C653.373 436.112 656.962 440.18 659.265 446.458C659.287 446.581 659.327 446.685 659.361 446.762C659.405 446.859 659.456 446.948 659.488 447.002L659.493 447.01C659.517 447.053 659.532 447.079 659.541 447.096L659.544 447.139L659.576 447.235C662.508 455.831 662.35 466.046 660.315 475.112C658.274 484.202 654.383 491.977 650.004 495.777L649.999 495.782C645.82 499.476 641.264 501.011 636.52 502.21C635.606 502.441 634.682 502.66 633.751 502.88C629.882 503.797 625.897 504.741 622.07 506.687L622.053 506.696L622.036 506.705L622.005 506.723C619.655 508.078 617.231 509.475 615.078 511.361C609.246 516.075 604.539 522.439 600.416 529.207C597.612 533.809 595.055 538.639 592.598 543.28C591.446 545.456 590.317 547.589 589.194 549.639Z" stroke="url(#paint3_linear_118_18)" stroke-width="1.5" stroke-miterlimit="10"/>
<path d="M555.459 617.498L555.462 617.497C565.925 614.84 574.407 605.182 581.533 593.712C586.257 586.108 590.31 577.845 593.933 570.457C595.775 566.701 597.506 563.171 599.158 560.069C600.359 557.783 601.574 555.408 602.814 552.983C605.879 546.989 609.1 540.69 612.659 534.66C617.661 526.187 623.37 518.171 630.346 512.164C632.96 509.756 635.846 507.838 638.976 506.162C643.853 503.459 648.964 502.231 653.947 501.035C654.905 500.805 655.858 500.576 656.804 500.338C662.704 498.853 668.404 497.003 673.631 492.39L673.635 492.386C679.062 487.667 683.823 478.005 686.282 466.684C688.736 455.389 688.862 442.6 685.176 431.717L685.144 431.622L685.141 431.572C685.133 431.553 685.125 431.538 685.113 431.514C685.102 431.491 685.086 431.459 685.062 431.408C684.983 431.24 684.882 431 684.845 430.68C681.947 422.731 677.566 417.735 673.234 413.909L673.224 413.9C658.777 400.683 640.679 393.63 622.011 400.052L622.002 400.055L621.992 400.058C619.758 400.761 617.754 399.996 615.479 398.911L615.459 398.901L615.44 398.891C612.729 397.398 609.933 394.843 607.139 391.941C605.405 390.14 603.637 388.167 601.875 386.201C600.802 385.003 599.731 383.808 598.671 382.656C595.846 379.584 593.075 376.786 590.41 374.855C587.729 372.913 585.29 371.947 583.095 372.296L583.092 372.296C571.462 374.105 560.577 381.024 549.518 388.056C548.49 388.709 547.46 389.364 546.428 390.016C534.38 397.623 522.031 404.804 508.486 404.501C498.862 404.356 489.756 405.999 480.566 408.114C477.775 408.756 474.971 409.444 472.142 410.137C465.682 411.721 459.091 413.337 452.224 414.522M555.459 617.498L452.095 413.783M555.459 617.498C545.881 619.971 536.758 615.571 529.088 609.946C523.229 605.572 517.896 600.063 512.54 594.265C511.584 593.23 510.626 592.185 509.665 591.136C505.259 586.327 500.776 581.434 495.946 576.978M555.459 617.498L381.483 509.625M452.224 414.522C452.223 414.522 452.223 414.522 452.222 414.522L452.095 413.783M452.224 414.522C452.224 414.522 452.225 414.521 452.226 414.521L452.095 413.783M452.224 414.522C449.349 415.032 445.863 413.85 442.233 412.037C438.907 410.376 435.309 408.103 431.736 405.845C431.372 405.615 431.008 405.386 430.645 405.156C426.693 402.665 422.807 400.27 419.289 398.728C415.738 397.172 412.76 396.579 410.534 397.416M452.095 413.783C447.108 414.669 439.657 409.962 432.132 405.209C423.883 399.997 415.545 394.729 410.267 396.715M410.534 397.416C410.535 397.416 410.535 397.415 410.536 397.415L410.267 396.715M410.534 397.416C398.769 401.933 391.74 415.018 387.349 430.6C382.974 446.121 381.291 463.841 380.015 477.28L380.012 477.313L380.011 477.318C378.942 487.828 379.843 498.727 381.483 509.625M410.534 397.416C410.533 397.416 410.532 397.416 410.532 397.417L410.267 396.715M410.267 396.715L381.483 509.625M381.483 509.625C381.483 509.624 381.483 509.623 381.482 509.622L380.742 509.739L381.483 509.628C381.483 509.627 381.483 509.626 381.483 509.625ZM381.483 509.625C383.853 524.569 389.572 538.463 398.525 548.249C407.459 558.015 419.627 563.714 435.016 562.3L435.017 562.3C436.178 562.195 437.328 562.088 438.467 561.982C453.327 560.599 466.394 559.383 478.792 564.878L478.794 564.878C484.7 567.51 490.162 571.404 495.946 576.978M495.946 576.978C495.944 576.976 495.942 576.974 495.94 576.972L495.432 577.523L495.952 576.983C495.95 576.981 495.948 576.98 495.946 576.978ZM582.977 371.557L582.977 371.555L582.977 371.557Z" stroke="url(#paint4_linear_118_18)" stroke-width="1.5" stroke-miterlimit="10"/>
<path d="M608.895 570.755L608.894 570.758C607.082 574.27 605.179 578.261 603.149 582.514C598.848 591.531 593.981 601.731 588.235 611.072C579.775 624.825 569.572 636.419 556.806 639.465C545.52 642.048 534.605 636.541 525.364 629.3C518.575 623.876 512.435 617.309 506.31 610.456C505.162 609.171 504.014 607.876 502.862 606.578C497.882 600.96 492.834 595.265 487.407 590.001C480.821 583.487 474.335 578.921 467.671 575.847L467.663 575.844C452.287 568.951 436.228 570.537 417.373 572.399C417.07 572.429 416.765 572.459 416.46 572.489L416.46 572.489C397.784 574.345 383.212 567.446 372.591 555.674C361.949 543.877 355.258 527.162 352.473 509.42C350.455 496.345 349.421 483.245 350.603 470.517L350.603 470.512C350.638 470.106 350.674 469.696 350.709 469.284C352.069 453.516 353.869 432.65 358.775 414.219C363.824 395.255 372.087 379.168 386.239 373.651C388.935 372.667 392.549 373.498 396.831 375.512C401.077 377.51 405.773 380.568 410.534 383.73C410.937 383.998 411.341 384.267 411.745 384.536C416.086 387.425 420.448 390.328 424.467 392.45C428.822 394.75 432.965 396.242 436.339 395.637L436.342 395.637C444.263 394.179 451.852 392.251 459.287 390.363C463.05 389.407 466.773 388.461 470.48 387.592C481.541 384.996 492.53 383.057 504.251 383.441L504.256 383.441C520.038 383.857 534.383 374.944 548.431 365.411C549.714 364.54 550.995 363.665 552.274 362.79C565.09 354.025 577.769 345.354 591.405 342.879L591.405 342.879L591.411 342.878C593.935 342.4 596.754 343.587 599.859 346.019C602.941 348.434 606.148 351.952 609.405 355.824C610.773 357.45 612.158 359.149 613.542 360.847C615.422 363.153 617.301 365.458 619.136 367.578C622.327 371.267 625.493 374.53 628.528 376.498C631.191 378.368 633.672 379.086 636.142 378.379L636.162 378.374L636.181 378.367C658.21 370.764 679.852 379.553 696.656 395.082C701.795 399.849 706.975 405.785 710.466 415.422C710.485 415.534 710.516 415.634 710.54 415.703C710.576 415.809 710.62 415.919 710.655 416.004C710.693 416.099 710.72 416.168 710.741 416.227C710.749 416.251 710.753 416.266 710.755 416.274L710.76 416.351L710.792 416.446C715.223 429.488 715.068 444.852 712.167 458.412C709.261 471.998 703.633 483.612 697.277 489.244C690.885 494.907 683.979 497.136 676.9 498.906C675.783 499.186 674.659 499.454 673.531 499.723C667.548 501.151 661.457 502.605 655.665 505.888C652.04 507.85 648.702 510.288 645.638 512.948L645.636 512.949C637.258 520.27 630.544 530.006 624.695 540.25C620.895 546.905 617.438 553.819 614.127 560.439C612.351 563.991 610.617 567.458 608.895 570.755Z" stroke="url(#paint5_linear_118_18)" stroke-width="1.5" stroke-miterlimit="10"/>
<path d="M721.18 486.33L721.184 486.326C728.588 479.775 735.081 466.212 738.435 450.361C741.783 434.536 741.966 416.596 736.911 401.384L736.88 401.291L736.874 401.193C736.867 401.082 736.84 401.004 736.767 400.825L736.761 400.808C736.696 400.648 736.601 400.413 736.566 400.105C732.483 388.799 726.511 381.932 720.574 376.231C701.157 358.166 676.479 347.856 651.091 356.636C648.313 357.65 645.264 356.385 642.405 354.328C638.977 351.893 635.386 347.934 631.757 343.465C629.662 340.885 627.522 338.092 625.381 335.299C623.821 333.263 622.26 331.226 620.716 329.271C617.026 324.598 613.394 320.339 609.918 317.39C606.415 314.417 603.245 312.926 600.437 313.42C591.881 315.086 583.625 319.017 575.472 323.992C568.942 327.977 562.512 332.609 556.059 337.257C554.449 338.418 552.837 339.579 551.221 340.732C535.113 352.224 518.651 362.874 500.495 362.106L500.493 362.106C486.674 361.484 473.746 363.784 460.81 366.86C456.665 367.846 452.512 368.913 448.327 369.989C439.483 372.262 430.498 374.572 421.155 376.22M721.18 486.33L421.023 375.482M721.18 486.33C713.861 492.904 705.873 495.504 697.645 497.589C696.361 497.914 695.07 498.227 693.774 498.541C686.793 500.233 679.668 501.959 672.862 505.827C668.761 508.064 664.717 511.036 661.188 514.218C651.541 522.839 643.758 534.168 636.997 546.091C632.198 554.555 627.893 563.357 623.803 571.719C622.136 575.127 620.505 578.462 618.891 581.672C616.879 585.625 614.753 590.135 612.48 594.959C607.512 605.502 601.837 617.543 595.098 628.543C585.27 644.586 573.344 658.114 558.391 661.418C544.928 664.381 532.198 657.287 521.629 648.645C513.925 642.299 507.043 634.616 500.203 626.641C499.034 625.278 497.866 623.906 496.696 622.531C491.03 615.877 485.304 609.151 479.106 603.004M721.18 486.33L478.576 603.535M421.155 376.22C421.154 376.221 421.154 376.221 421.154 376.221L421.023 375.482M421.155 376.22C421.155 376.22 421.156 376.22 421.156 376.22L421.023 375.482M421.155 376.22C419.2 376.572 417.028 376.282 414.736 375.572C412.438 374.862 409.972 373.715 407.408 372.301C402.777 369.748 397.744 366.276 392.722 362.812C392.191 362.445 391.659 362.079 391.128 361.713C385.559 357.88 380.057 354.176 375.089 351.768C370.077 349.339 365.835 348.345 362.676 349.593L362.671 349.595C354.405 352.787 347.894 359.16 342.724 367.57C337.553 375.983 333.75 386.395 330.892 397.586C325.559 418.468 323.55 441.923 322.01 459.891C321.899 461.186 321.791 462.453 321.683 463.688C320.389 478.632 321.572 494.176 323.708 509.207M421.023 375.482C414.194 376.712 403.733 369.496 393.144 362.192C381.495 354.157 369.692 346.015 362.4 348.895C329.684 361.53 324.452 422.602 321.264 459.817C321.152 461.116 321.044 462.385 320.936 463.623C319.634 478.648 320.825 494.256 322.966 509.318M323.708 509.207C323.708 509.205 323.708 509.204 323.707 509.202L322.966 509.318M323.708 509.207C323.708 509.209 323.709 509.21 323.709 509.212L322.966 509.318M323.708 509.207C326.909 529.742 334.571 549.276 346.904 563.113C359.214 576.925 376.194 585.085 398.164 582.908M322.966 509.318C329.397 550.581 353.784 588.061 398.242 583.654M398.242 583.654L398.164 582.908M398.242 583.654C420.464 581.328 438.784 579.484 456.225 587.493C463.807 590.954 471.247 596.139 478.576 603.535M398.242 583.654L398.168 582.907C398.167 582.908 398.166 582.908 398.164 582.908M398.164 582.908C420.343 580.587 438.877 578.702 456.536 586.811M478.576 603.535L479.104 603.003C479.105 603.003 479.105 603.004 479.106 603.004M478.576 603.535L479.109 603.007C479.108 603.006 479.107 603.005 479.106 603.004M456.536 586.811L456.226 587.49L456.538 586.811C456.537 586.811 456.537 586.811 456.536 586.811ZM456.536 586.811C464.209 590.313 471.722 595.552 479.106 603.004" stroke="url(#paint6_linear_118_18)" stroke-width="1.5" stroke-miterlimit="10"/>
<path d="M559.717 683.143L559.709 683.145C544.554 686.455 529.78 678.025 517.896 667.991C509.265 660.598 501.576 651.797 493.901 642.738C492.973 641.642 492.045 640.543 491.116 639.442C484.371 631.451 477.552 623.372 470.064 616.045C461.648 607.683 453.358 601.754 444.671 597.82C424.979 588.609 404.242 590.627 379.128 593.126L379.121 593.127C353.87 595.868 334.423 586.512 320.361 570.663C306.276 554.788 297.579 532.375 293.963 509.044L293.962 509.041C291.19 491.606 289.874 473.868 291.524 456.701L291.525 456.698C291.757 454.192 291.992 451.568 292.235 448.844C294.014 428.905 296.266 403.664 301.874 380.992C305.061 368.111 309.321 356.102 315.167 346.389C321.011 336.68 328.413 329.306 337.875 325.614L337.879 325.613C339.617 324.925 341.685 324.877 344.059 325.379C346.433 325.88 349.064 326.922 351.888 328.355C357.539 331.223 363.836 335.591 370.214 340.096C370.719 340.453 371.223 340.81 371.729 341.167C377.588 345.311 383.471 349.473 388.871 352.521C391.807 354.178 394.625 355.522 397.242 356.357C399.854 357.19 402.316 357.535 404.517 357.137C415.306 355.229 425.641 352.519 435.806 349.853C440.558 348.607 445.273 347.371 449.98 346.23C464.789 342.643 479.595 339.985 495.513 340.846L495.517 340.846C516.032 341.842 534.547 329.463 552.686 316.043C554.544 314.668 556.398 313.282 558.251 311.897C565.479 306.495 572.686 301.109 580.014 296.464C589.215 290.633 598.549 286.012 608.253 284.033C611.464 283.401 615.04 285.138 618.962 288.619C622.852 292.073 626.898 297.077 631.007 302.568C632.682 304.807 634.373 307.133 636.064 309.46C638.495 312.806 640.928 316.154 643.32 319.248C647.376 324.493 651.404 329.13 655.285 331.971C658.47 334.542 661.739 335.749 664.974 334.731L664.983 334.728L664.993 334.725C693.994 324.742 721.977 336.809 743.751 357.188C750.484 363.593 757.52 371.638 761.936 384.44L761.96 384.509L761.996 384.572C762.086 384.727 762.14 384.89 762.219 385.139L762.226 385.161C762.293 385.373 762.381 385.651 762.534 385.935C768.312 403.294 768.157 423.776 764.397 441.838C760.627 459.951 753.269 475.463 744.816 482.934L744.808 482.942C736.448 490.556 727.318 493.532 717.94 495.901C716.479 496.27 715.01 496.624 713.536 496.98C705.581 498.9 697.486 500.854 689.777 505.298C684.986 508.06 680.465 511.303 676.464 515.014C665.548 524.937 656.761 537.919 649.122 551.547C643.875 560.907 639.149 570.611 634.647 579.855C632.6 584.06 630.598 588.17 628.615 592.109C626.246 596.779 623.75 602.141 621.077 607.882C615.525 619.807 609.211 633.368 601.699 645.757C590.567 664.114 576.98 679.574 559.717 683.143Z" stroke="url(#paint7_linear_118_18)" stroke-width="1.5" stroke-miterlimit="10"/>
<path d="M706.439 504.535C701.153 507.582 696.42 511.333 691.738 515.555L691.733 515.56C679.542 526.786 669.753 541.484 661.268 556.88C655.467 567.404 650.256 578.295 645.305 588.643C643.019 593.419 640.789 598.08 638.582 602.536C636.081 607.553 633.437 613.291 630.605 619.437C624.335 633.042 617.144 648.647 608.539 662.861C596.042 683.506 580.73 700.906 561.28 704.854C543.916 708.304 527.347 698.751 514.148 687.094L514.144 687.09C504.594 678.771 496.106 668.976 487.663 658.891C486.474 657.472 485.286 656.046 484.096 654.618C476.847 645.918 469.526 637.131 461.522 629.067C452.291 619.521 442.975 612.918 433.527 608.542L433.524 608.54C411.573 598.488 388.382 600.407 360.572 603.315L360.57 603.316C332.022 606.38 310.164 595.761 294.412 577.872C278.636 559.956 268.968 534.722 264.938 508.597L264.937 508.592C261.787 488.978 260.337 469.041 262.1 449.659C262.388 446.525 262.675 443.221 262.975 439.778C264.917 417.475 267.366 389.361 273.48 364.056C277.008 349.454 281.746 335.831 288.286 324.825C294.824 313.822 303.134 305.478 313.795 301.347C315.771 300.583 318.12 300.557 320.807 301.159C323.494 301.761 326.468 302.979 329.656 304.64C336.035 307.965 343.14 312.997 350.327 318.173C350.873 318.566 351.42 318.96 351.966 319.355C358.592 324.132 365.239 328.925 371.33 332.435C374.63 334.337 377.792 335.877 380.723 336.837C383.649 337.796 386.398 338.193 388.846 337.749C400.691 335.632 412.092 332.627 423.343 329.661C428.857 328.207 434.335 326.763 439.812 325.438C456.496 321.4 473.249 318.44 491.268 319.541L491.269 319.541C514.03 320.896 534.6 306.849 554.771 291.501C556.966 289.831 559.157 288.145 561.346 286.46C569.253 280.374 577.142 274.301 585.16 269.038C595.392 262.321 605.773 256.965 616.559 254.617L616.559 254.617C620.049 253.854 623.968 255.822 628.284 259.799C632.562 263.741 637.029 269.47 641.572 275.762C643.45 278.364 645.346 281.07 647.243 283.777C649.907 287.579 652.574 291.385 655.197 294.911C659.693 300.955 664.15 306.306 668.428 309.612L668.435 309.617C672.043 312.341 675.629 314.108 679.155 312.794C711.767 301.618 743.031 315.2 767.167 338.124C774.697 345.464 782.527 354.443 787.537 368.925L787.561 368.993L787.597 369.056C787.687 369.211 787.741 369.374 787.82 369.623L787.826 369.645C787.893 369.856 787.981 370.133 788.134 370.417C794.543 390.065 794.294 413.066 790.054 433.332C785.803 453.646 777.577 471.053 768.198 479.562C758.78 487.978 748.502 491.268 737.971 493.922C736.425 494.311 734.871 494.688 733.314 495.065C724.296 497.248 715.14 499.465 706.439 504.535ZM706.439 504.535C706.439 504.535 706.438 504.535 706.438 504.536L706.815 505.184L706.441 504.534C706.44 504.534 706.44 504.534 706.439 504.535Z" stroke="url(#paint8_linear_118_18)" stroke-width="1.5" stroke-miterlimit="10"/>
<path d="M510.408 706.435L510.409 706.436C524.925 719.487 543.541 730.378 562.598 726.58L562.602 726.579C584.366 722.366 601.402 703.028 615.235 680.098C624.765 664.302 632.694 646.951 639.583 631.876C642.69 625.076 645.585 618.74 648.321 613.219L648.321 613.218C650.89 608.044 653.483 602.616 656.142 597.05C661.511 585.811 667.15 574.006 673.408 562.578C682.772 545.476 693.567 529.125 707.029 516.597L707.032 516.594C712.191 511.838 717.639 507.807 723.359 504.256L723.366 504.251L723.374 504.246C732.976 498.603 743.098 496.16 753.086 493.749C754.823 493.33 756.556 492.911 758.281 492.477C769.961 489.54 781.384 485.874 791.844 476.416C802.272 466.988 811.364 447.63 816.033 425.083C820.692 402.586 820.912 377.075 813.764 355.388C813.602 355.079 813.51 354.73 813.443 354.477L813.433 354.439C813.346 354.111 813.289 353.916 813.213 353.784L813.177 353.721L813.153 353.653C807.548 337.487 798.906 327.332 790.604 319.311C763.852 293.844 729.299 278.749 693.563 291.097C689.809 292.415 685.75 290.71 681.819 287.473C677.148 283.7 672.283 277.656 667.372 270.838C664.535 266.899 661.652 262.656 658.77 258.417C656.672 255.328 654.574 252.241 652.495 249.274C647.537 242.195 642.657 235.749 637.978 231.307C633.26 226.827 628.959 224.589 625.115 225.432C613.183 228.094 601.725 234.141 590.447 241.713C581.624 247.637 572.949 254.466 564.26 261.307C561.836 263.215 559.411 265.124 556.982 267.015C534.779 284.291 512.159 300.062 487.042 298.48L487.04 298.48C466.798 297.148 448.165 300.466 429.639 305.013C423.612 306.492 417.587 308.104 411.521 309.727C398.974 313.085 386.249 316.49 372.957 318.866M510.408 706.435L372.825 318.127M510.408 706.435C499.931 697.068 490.637 686.157 481.425 675.045C480.409 673.821 479.395 672.594 478.381 671.367C470.198 661.469 461.984 651.532 452.998 642.565M510.408 706.435L422.182 620.01M372.957 318.866L372.825 318.127M372.957 318.866C372.957 318.866 372.958 318.865 372.959 318.865L372.825 318.127M372.957 318.866C370.263 319.355 367.23 318.904 363.991 317.822C360.746 316.738 357.239 315.001 353.576 312.858C346.835 308.914 339.475 303.537 332.128 298.171C331.495 297.709 330.862 297.246 330.229 296.785C322.235 290.953 314.323 285.282 307.219 281.534C303.67 279.661 300.354 278.286 297.357 277.607C294.36 276.928 291.734 276.956 289.52 277.824L289.516 277.826C277.656 282.397 268.453 291.711 261.244 304.002C254.033 316.296 248.846 331.523 245.006 347.829C238.499 375.462 235.889 406.063 233.804 430.522C233.427 434.934 233.068 439.147 232.706 443.106M372.825 318.127C363.136 319.891 347.905 308.766 332.564 297.56C315.96 285.433 299.227 273.211 289.246 277.126C244.664 294.309 237.601 377.15 233.055 430.471C232.679 434.88 232.32 439.088 231.959 443.04C230.077 464.715 231.667 486.915 234.956 508.767M232.706 443.106C232.706 443.105 232.706 443.105 232.706 443.105L231.961 443.04L232.706 443.108C232.706 443.107 232.706 443.107 232.706 443.106ZM232.706 443.106C230.831 464.702 232.414 486.839 235.698 508.654M235.698 508.654C235.698 508.654 235.698 508.654 235.698 508.653L234.956 508.767M235.698 508.654C235.698 508.655 235.698 508.655 235.698 508.655L234.956 508.767M235.698 508.654C240.151 537.695 250.789 565.748 268.284 585.673C285.753 605.569 310.078 617.386 342.049 613.993M234.956 508.767C243.891 567.029 277.667 621.582 342.129 614.738M342.129 614.738L342.049 613.993M342.129 614.738L342.05 613.992C342.05 613.993 342.049 613.993 342.049 613.993M342.129 614.738L422.182 620.01M342.049 613.993C372.79 610.662 398.198 608.854 422.182 620.01M422.182 620.01C422.181 620.01 422.18 620.009 422.179 620.009L421.866 620.689L422.182 620.01ZM422.182 620.01C432.642 624.818 442.735 632.109 452.998 642.565M452.998 642.565C452.997 642.565 452.996 642.564 452.995 642.563L452.466 643.093L453.001 642.568C453 642.567 452.999 642.566 452.998 642.565Z" stroke="url(#paint9_linear_118_18)" stroke-width="1.5" stroke-miterlimit="10"/>
<path d="M506.669 725.778L506.673 725.782C522.509 740.458 542.917 752.471 564.182 748.534C588.137 744.064 606.893 722.728 622.121 697.445C632.497 680.219 641.152 661.314 648.679 644.874C652.195 637.194 655.465 630.052 658.549 623.87M506.669 725.778L659.222 624.203M506.669 725.778C495.269 715.365 485.231 703.335 475.243 691.105C474.391 690.062 473.539 689.018 472.687 687.972C463.561 676.777 454.382 665.518 444.185 655.347C432.884 643.975 421.77 636.013 410.55 630.763C384.515 618.257 356.9 620.2 323.235 623.953L323.234 623.953C288.106 627.904 261.375 614.887 242.184 592.951C222.968 570.986 211.296 540.055 206.428 508.221L206.428 508.221C202.78 484.463 200.82 460.147 203.037 436.085L203.037 436.084C203.453 431.519 203.865 426.639 204.297 421.515C206.549 394.796 209.363 361.422 216.385 331.215C220.567 313.219 226.234 296.393 234.139 282.797C242.041 269.205 252.151 258.888 265.207 253.816C267.66 252.871 270.568 252.867 273.878 253.646C277.188 254.426 280.847 255.978 284.76 258.08C292.59 262.285 301.311 268.619 310.114 275.121C310.789 275.62 311.465 276.12 312.141 276.62C320.253 282.62 328.376 288.627 335.807 293.033C339.834 295.42 343.685 297.353 347.244 298.562C350.796 299.769 354.114 300.273 357.053 299.738C371.849 297.166 386.022 293.371 400.016 289.624C406.522 287.883 412.989 286.151 419.461 284.558C439.893 279.528 460.469 275.847 482.812 277.42C510.292 279.352 534.963 261.856 559.196 242.62C561.886 240.485 564.571 238.327 567.255 236.171C576.7 228.582 586.134 221.003 595.735 214.422C608.058 205.976 620.595 199.221 633.673 196.246L633.677 196.245M506.669 725.778L633.677 196.245M658.549 623.87C658.55 623.869 658.55 623.869 658.55 623.868L659.222 624.203M658.549 623.87C658.549 623.871 658.549 623.872 658.548 623.872L659.222 624.203M658.549 623.87C661.294 618.274 664.066 612.399 666.912 606.367C672.778 593.936 678.957 580.842 685.848 568.166C696.089 549.328 707.95 531.319 722.815 517.603M659.222 624.203C661.976 618.586 664.754 612.698 667.603 606.66C682.173 575.783 698.605 540.96 723.328 518.149M722.815 517.603L723.328 518.149M722.815 517.603C722.816 517.601 722.818 517.6 722.819 517.598L723.328 518.149M722.815 517.603L723.328 518.149M633.677 196.245C637.869 195.266 642.563 197.755 647.708 202.746C652.81 207.693 658.135 214.885 663.542 222.78C665.819 226.103 668.115 229.559 670.412 233.016C673.544 237.73 676.677 242.445 679.759 246.824C685.109 254.422 690.398 261.146 695.462 265.325L633.677 196.245ZM740.823 504.167C740.82 504.168 740.818 504.17 740.815 504.171L741.197 504.817L740.832 504.161C740.829 504.163 740.826 504.165 740.823 504.167ZM840.114 340.271C840.117 340.279 840.12 340.287 840.124 340.295L840.819 340.015L840.106 340.247C840.109 340.255 840.112 340.263 840.114 340.271ZM814.788 300.695L815.3 300.158L814.786 300.693C814.787 300.694 814.787 300.694 814.788 300.695Z" stroke="url(#paint10_linear_118_18)" stroke-width="1.5" stroke-miterlimit="10"/>
<path d="M502.933 745.123L502.931 745.121C490.605 733.66 479.762 720.514 468.998 707.138C467.897 705.77 466.797 704.399 465.696 703.027C456.045 691.003 446.344 678.917 435.614 667.881L435.611 667.878C423.516 655.572 411.62 646.918 399.385 641.238C370.847 627.907 341.278 629.966 304.673 633.897L304.67 633.898C266.121 638.179 236.918 623.902 216.006 599.928C195.069 575.924 182.427 542.172 177.143 507.545L177.143 507.543C173.119 481.611 171.269 455.08 173.598 428.8C174.065 423.64 174.524 418.108 175.007 412.288C177.422 383.191 180.433 346.904 187.975 314.036C192.5 294.32 198.645 275.88 207.243 260.991C215.839 246.105 226.857 234.816 241.113 229.305C243.806 228.284 246.994 228.299 250.616 229.173C254.238 230.048 258.24 231.768 262.516 234.089C271.072 238.733 280.6 245.707 290.21 252.865C290.98 253.438 291.75 254.012 292.52 254.587C301.345 261.169 310.174 267.753 318.247 272.601C322.639 275.239 326.833 277.379 330.707 278.729C334.574 280.077 338.177 280.657 341.361 280.107L341.367 280.106C357.171 277.261 372.321 273.159 387.282 269.108C394.668 267.108 402.009 265.12 409.359 263.302C431.634 257.793 454.095 253.815 478.541 255.627L478.542 255.627C508.253 257.793 534.976 238.636 561.243 217.502C564.232 215.097 567.215 212.666 570.197 210.236C580.361 201.954 590.515 193.68 600.844 186.477C614.199 177.164 627.782 169.689 641.943 166.343C646.49 165.283 651.569 168.059 657.118 173.575C662.62 179.046 668.36 186.986 674.185 195.697C676.651 199.383 679.136 203.216 681.623 207.049C684.985 212.234 688.348 217.419 691.66 222.241C697.425 230.636 703.124 238.069 708.581 242.714C713.297 246.877 718.128 249.055 722.622 247.439C765.581 232.695 806.72 251.063 838.189 281.387C848.05 291.014 858.265 303.012 865.057 322.485C865.129 323.3 865.441 324.075 865.705 324.728L865.716 324.755C874.246 350.78 873.972 381.459 868.417 408.498C862.854 435.572 852.031 458.831 839.625 470.094L839.625 470.094C827.072 481.516 813.422 485.929 799.475 489.463C797.416 489.984 795.348 490.487 793.276 490.991C781.346 493.893 769.264 496.831 757.743 503.634C750.558 507.777 744.185 512.853 738.107 518.385L738.099 518.392C721.969 533.533 709.105 553.257 697.986 573.834C690.652 587.406 684.055 601.392 677.782 614.694C674.551 621.545 671.405 628.215 668.288 634.553C665.068 641.085 661.649 648.603 657.972 656.687C649.733 674.801 640.203 695.754 628.733 714.809C612.139 742.379 591.657 765.657 565.514 770.505L565.513 770.505C542.557 774.789 520.089 761.196 502.933 745.123ZM478.596 254.891L478.596 254.891L478.596 254.891Z" stroke="url(#paint11_linear_118_18)" stroke-width="1.5" stroke-miterlimit="10"/>
<path d="M499.191 764.463L499.191 764.462C485.94 751.953 474.294 737.752 462.7 723.353C461.82 722.261 460.941 721.167 460.061 720.074C449.355 706.759 438.593 693.375 426.585 681.165L426.583 681.162C413.447 667.937 400.789 658.845 387.54 652.494L387.536 652.492C356.965 638.059 325.18 640.006 285.644 644.36L285.64 644.361C243.81 649.207 212.201 633.729 189.6 607.714C166.972 581.669 153.356 545.036 147.658 507.615L147.657 507.613C143.24 479.249 141.014 450.54 143.698 422.039L143.698 422.038C144.284 415.808 144.853 409.069 145.454 401.948C148.08 370.86 151.317 332.518 159.216 297.676C164.068 276.27 170.67 256.233 179.942 240.043C189.212 223.857 201.122 211.565 216.577 205.553C219.476 204.43 222.92 204.444 226.836 205.397C230.752 206.35 235.084 208.228 239.717 210.76C248.987 215.828 259.329 223.442 269.762 231.254C270.585 231.87 271.409 232.488 272.232 233.105C281.828 240.3 291.428 247.498 300.201 252.798C304.966 255.677 309.513 258.012 313.706 259.485C317.893 260.956 321.785 261.589 325.214 260.994L325.215 260.993C342.521 257.953 359.117 253.461 375.524 249.02C383.352 246.901 391.137 244.794 398.936 242.862C423.118 236.87 447.521 232.53 474.068 234.581C490.12 235.84 505.332 231.24 520.055 223.455C534.771 215.674 549.04 204.687 563.211 193.123C566.456 190.475 569.695 187.796 572.934 185.119C583.857 176.088 594.774 167.063 605.885 159.202C620.285 149.014 634.945 140.832 650.252 137.173C652.667 136.605 655.226 137.074 657.946 138.454C660.674 139.839 663.521 142.121 666.466 145.106C672.357 151.078 678.518 159.736 684.775 169.233C687.427 173.258 690.102 177.442 692.777 181.628C696.388 187.277 700 192.928 703.558 198.19C709.76 207.361 715.885 215.488 721.738 220.598L721.743 220.603L721.749 220.608C726.95 224.97 731.793 227.395 736.776 225.76L736.785 225.757C783.357 209.812 827.554 229.95 861.624 262.572C872.519 273.112 883.546 286.286 890.917 307.199C890.989 308.014 891.301 308.789 891.565 309.442L891.575 309.467C900.736 337.782 900.43 370.976 894.424 400.215C888.411 429.491 876.72 454.642 863.27 466.949C849.79 479.282 834.996 484.071 819.869 487.921C817.657 488.484 815.435 489.028 813.209 489.572C800.247 492.743 787.127 495.952 774.677 503.346L774.669 503.351C767.037 508.005 760.192 513.349 753.646 519.407L753.644 519.409C736.11 535.738 722.179 557.121 710.181 579.437C702.21 594.262 695.072 609.543 688.298 624.042C684.883 631.353 681.561 638.465 678.271 645.221C674.818 652.255 671.148 660.368 667.198 669.101C658.339 688.686 648.069 711.389 635.673 732.03C617.743 761.885 595.537 787.104 567.078 792.216L567.074 792.217C541.931 796.878 517.661 781.928 499.191 764.463Z" stroke="url(#paint12_linear_118_18)" stroke-width="1.5" stroke-miterlimit="10"/>
<path d="M495.453 783.806L495.451 783.804C481.275 770.247 468.824 754.93 456.364 739.449C455.856 738.817 455.347 738.185 454.839 737.553C442.895 722.706 430.878 707.768 417.299 694.22C403.349 679.814 389.422 670.067 375.418 663.276L375.413 663.274C342.808 647.736 308.817 649.818 266.357 654.594L266.356 654.594C221.35 659.755 187.331 643.016 163.008 614.961C138.659 586.876 124.013 547.427 117.899 507.214C113.348 476.651 110.988 445.743 113.785 415.027L113.785 415.027C114.369 408.522 114.937 401.497 115.536 394.079C118.256 360.429 121.63 318.689 130.117 280.784C135.296 257.659 142.368 236.009 152.33 218.526C162.29 201.046 175.109 187.782 191.763 181.33C194.902 180.131 198.626 180.169 202.855 181.223C207.083 182.276 211.759 184.331 216.756 187.093C226.752 192.618 237.903 200.895 249.145 209.378C250.011 210.032 250.877 210.686 251.744 211.341C262.105 219.169 272.467 226.998 281.93 232.759C287.059 235.882 291.95 238.414 296.457 240.012C300.958 241.607 305.134 242.292 308.807 241.651L308.809 241.651C327.431 238.365 345.251 233.492 362.874 228.674C371.282 226.375 379.645 224.088 388.029 221.992C414.022 215.493 440.308 210.793 469.08 213.077C486.306 214.449 502.635 209.49 518.438 201.08C534.233 192.674 549.547 180.797 564.751 168.282C568.321 165.342 571.885 162.368 575.448 159.395C587.076 149.692 598.696 139.996 610.515 131.531C625.95 120.477 641.658 111.573 658.05 107.543C660.673 106.904 663.443 107.402 666.374 108.892C669.315 110.387 672.377 112.86 675.539 116.098C681.864 122.575 688.461 131.979 695.152 142.291C698.012 146.7 700.895 151.284 703.777 155.867C707.611 161.963 711.443 168.057 715.218 173.732C721.839 183.685 728.374 192.492 734.62 198.009C740.127 202.872 745.448 205.245 750.662 203.605L750.672 203.602L750.681 203.599C800.376 186.485 848.105 208.126 884.541 243.3L884.543 243.301C896.491 254.773 908.325 268.899 916.045 291.556L916.051 291.575L916.059 291.594C916.196 291.935 916.339 292.338 916.489 292.762L916.49 292.766C916.633 293.172 916.783 293.596 916.932 293.966C926.838 324.441 926.503 360.209 920.051 391.712C913.591 423.25 901.035 450.353 886.656 463.573L886.655 463.574C872.133 476.949 856.196 482.113 839.92 486.248C837.528 486.855 835.128 487.441 832.722 488.027C818.79 491.425 804.705 494.86 791.355 502.827L791.35 502.83C783.242 507.759 775.691 513.637 768.682 520.216L768.679 520.219C750.003 537.964 735.133 561.056 722.289 585.106C713.926 600.766 706.401 616.876 699.245 632.195C695.419 640.387 691.698 648.352 688.011 655.901L688.01 655.902C684.42 663.285 680.6 671.771 676.489 680.904C666.921 702.161 655.777 726.919 642.285 749.393C622.988 781.536 599.057 808.697 568.41 814.187C541.55 818.955 515.245 802.899 495.453 783.806Z" stroke="url(#paint13_linear_118_18)" stroke-width="1.5" stroke-miterlimit="10"/>
<path d="M491.711 803.145L491.71 803.144C476.61 788.542 463.415 772.106 450.273 755.473C449.407 754.378 448.542 753.281 447.676 752.185C435.407 736.641 423.078 721.02 409.214 706.722L409.212 706.72C394.225 691.397 379.519 680.959 364.499 673.736L364.496 673.735C329.615 657.111 293.164 659.096 248.019 664.28L248.019 664.28C199.599 669.893 163.115 652.015 137.076 621.982C111.01 591.92 95.3945 549.65 88.8587 506.522C83.9449 474.022 81.4371 440.671 84.3461 407.742C84.9838 400.633 85.6021 392.934 86.2558 384.791C89.1403 348.865 92.7174 304.313 101.72 263.82C107.241 238.99 114.792 215.733 125.448 196.96C136.102 178.19 149.829 163.953 167.685 157.061L167.685 157.061C171.063 155.756 175.067 155.796 179.607 156.934C184.146 158.072 189.163 160.293 194.523 163.278C205.245 169.248 217.204 178.196 229.256 187.365C230.206 188.088 231.157 188.813 232.107 189.537C243.193 197.982 254.274 206.424 264.389 212.641C269.883 216.017 275.119 218.755 279.94 220.483C284.755 222.209 289.216 222.95 293.134 222.264L293.136 222.264C312.955 218.753 331.948 213.565 350.743 208.432C359.876 205.938 368.963 203.456 378.075 201.186C405.975 194.235 434.208 189.233 465.083 191.757L465.084 191.757C483.425 193.246 500.809 187.931 517.638 178.9C534.46 169.873 550.772 157.107 566.978 143.643C570.801 140.466 574.618 137.251 578.435 134.036C590.815 123.608 603.194 113.182 615.793 104.066C632.269 92.1454 649.054 82.519 666.59 78.1134C669.36 77.4367 672.29 77.9825 675.398 79.5957C678.514 81.2131 681.763 83.8824 685.119 87.3709C691.832 94.3491 698.85 104.471 705.972 115.569C709.018 120.316 712.089 125.25 715.159 130.184C719.243 136.746 723.325 143.306 727.348 149.423C734.403 160.149 741.363 169.65 748.004 175.632L748.01 175.637C753.749 180.705 759.609 183.576 765.081 181.655C818.39 163.343 869.404 186.5 908.204 224.223L908.209 224.228C920.932 236.385 933.56 251.441 941.872 275.772C942.028 276.263 942.179 276.692 942.326 277.108C942.475 277.529 942.619 277.938 942.767 278.405L942.768 278.409C953.306 311.058 953.006 349.408 946.166 383.179C939.32 416.978 925.96 446.026 910.533 460.166L910.532 460.167C894.961 474.464 877.876 479.942 860.448 484.361C858.008 484.98 855.56 485.578 853.108 486.177C838.075 489.849 822.888 493.559 808.519 502.28L808.513 502.284C799.707 507.741 791.681 513.891 784.207 520.993C764.137 540.048 748.199 564.797 734.475 590.555C725.424 607.543 717.315 625.013 709.619 641.592C705.653 650.136 701.797 658.443 697.979 666.325L697.978 666.326C694.201 674.155 690.183 683.148 685.858 692.826C675.64 715.692 663.712 742.382 649.223 766.584C628.592 801.043 602.937 830.144 569.973 835.898L569.971 835.898C540.925 841.044 512.817 823.63 491.711 803.145ZM491.188 803.683C512.336 824.209 540.682 841.848 570.102 836.637L491.188 803.683Z" stroke="url(#paint14_linear_118_18)" stroke-width="1.5" stroke-miterlimit="10"/>
<path d="M707.734 677.25L707.732 677.252C703.77 685.484 699.549 694.936 695.004 705.114C684.109 729.513 671.354 758.08 655.836 783.978C633.838 820.693 606.458 851.736 571.306 857.868C540.545 863.12 510.648 844.589 487.968 822.485C471.944 806.835 457.944 789.284 443.972 771.657L442.912 770.32C429.303 753.15 415.673 735.952 400.213 720.492C384.436 704.241 368.951 693.114 352.919 685.462L352.918 685.461C316.02 667.981 277.353 669.854 229.281 675.46C177.565 681.395 138.67 662.255 110.941 630.182C83.1844 598.077 66.5987 552.987 59.648 507.065L59.6479 507.065C54.3563 472.384 51.7157 436.838 54.9807 401.684L54.9808 401.683C55.7305 393.552 56.45 384.694 57.2127 375.306C60.3021 337.275 64.1001 290.521 73.4816 247.949C79.3291 221.414 87.3367 196.553 98.6661 176.476C109.994 156.401 124.613 141.161 143.667 133.768L143.67 133.767C147.254 132.36 151.509 132.399 156.336 133.616C161.162 134.833 166.501 137.213 172.206 140.41C183.618 146.805 196.361 156.395 209.205 166.221C210.203 166.984 211.202 167.749 212.201 168.514C224.031 177.576 235.86 186.637 246.656 193.309C252.512 196.927 258.091 199.861 263.226 201.713C268.354 203.562 273.099 204.356 277.261 203.624L277.263 203.624C298.4 199.867 318.646 194.297 338.686 188.785C348.411 186.109 358.087 183.448 367.793 181.013C397.535 173.552 427.65 168.192 460.626 170.955C480.148 172.619 498.633 166.961 516.523 157.298C534.406 147.639 551.738 133.954 568.959 119.51C573.036 116.09 577.106 112.629 581.177 109.167C594.32 97.9894 607.464 86.8102 620.847 77.0368C638.37 64.2405 656.234 53.9063 674.917 49.1869L674.918 49.1868C677.865 48.4399 680.976 49.0122 684.267 50.7308C687.566 52.4538 691.001 55.3075 694.547 59.0409C701.64 66.5084 709.047 77.3563 716.572 89.2578C719.74 94.2686 722.933 99.474 726.129 104.683C730.498 111.807 734.873 118.937 739.192 125.586C746.673 137.102 754.072 147.309 761.17 153.754C767.226 159.566 773.317 162.402 779.266 160.464L779.277 160.46C836.198 140.948 890.269 165.877 931.67 205.897C945.192 218.99 958.615 234.981 967.521 260.997L967.527 261.016L967.535 261.035C967.811 261.72 968.105 262.65 968.412 263.622L968.413 263.624C979.574 298.442 979.245 339.367 971.959 375.401C964.667 411.463 950.441 442.461 933.965 457.522L933.962 457.524C917.348 472.864 899.18 478.714 880.634 483.414C878.002 484.082 875.361 484.726 872.715 485.371C856.747 489.265 840.601 493.203 825.246 502.49C815.937 507.984 807.448 514.658 799.518 522.274C778.168 542.509 761.225 568.911 746.625 596.405C737.156 614.236 728.65 632.572 720.567 649.995C716.194 659.422 711.944 668.581 707.734 677.25Z" stroke="url(#paint15_linear_118_18)" stroke-width="1.5" stroke-miterlimit="10"/>
<path d="M30.3634 506.387L29.6221 506.501L30.3634 506.387C24.6944 469.527 21.9055 431.538 25.2677 393.927C26.0782 385.16 26.8537 375.578 27.6772 365.403C30.9316 325.192 34.9362 275.712 44.8162 230.604C51.005 202.348 59.49 175.857 71.5121 154.472C83.5329 133.088 99.0594 116.86 119.314 109.027L119.317 109.026C123.109 107.545 127.622 107.609 132.745 108.928C137.867 110.247 143.539 112.805 149.602 116.231C161.729 123.085 175.288 133.337 188.957 143.833C189.964 144.606 190.971 145.38 191.979 146.155C204.625 155.878 217.275 165.602 228.812 172.755C235.041 176.617 240.973 179.746 246.427 181.722C251.875 183.696 256.908 184.541 261.315 183.763L261.316 183.763C283.651 179.782 305.072 173.897 326.285 168.07C336.734 165.199 347.132 162.343 357.565 159.734C389.215 151.821 421.277 146.159 456.358 149.162C477.054 150.939 496.655 144.906 515.623 134.6C534.584 124.298 552.959 109.699 571.213 94.2884C575.561 90.6176 579.901 86.9014 584.241 83.1853C598.143 71.2832 612.043 59.3818 626.189 48.9756C644.746 35.3241 663.659 24.2994 683.428 19.2696L683.429 19.2694C687.227 18.2988 691.293 19.4274 695.638 22.3148C699.984 25.203 704.518 29.794 709.189 35.5622C718.434 46.9799 728.079 62.8354 737.745 78.7263L738.044 79.2175C747.791 95.2419 757.558 111.258 766.899 122.59C771.569 128.255 776.17 132.798 780.651 135.585C785.139 138.377 789.595 139.457 793.887 138.015L793.889 138.014C854.194 117.561 911.553 144.008 955.319 186.578L955.322 186.581C969.619 200.358 983.852 217.525 993.352 245.223L993.352 245.224C1006.12 282.265 1006.1 326.29 998.431 365.164C990.758 404.066 975.459 437.641 957.825 453.873C940.16 470.135 920.847 476.36 901.153 481.376C898.378 482.082 895.595 482.765 892.807 483.449C875.833 487.611 858.687 491.816 842.398 501.698C810.945 520.718 787.3 551.676 767.764 585.609C753.98 609.551 742.209 635.038 731.186 658.905C726.592 668.852 722.128 678.518 717.702 687.673L717.702 687.675C713.515 696.388 709.049 706.414 704.236 717.222C692.696 743.13 679.157 773.526 662.678 801.082C639.315 840.149 610.213 873.192 572.867 879.58C539.918 885.209 508.219 865.319 484.225 841.823L483.717 842.343L484.225 841.823C467.285 825.249 452.484 806.644 437.739 787.902C437.067 787.048 436.395 786.194 435.724 785.34C421.66 767.455 407.56 749.524 391.651 733.265L391.115 733.789L391.651 733.264C363.923 704.951 337.015 690.81 307.834 684.847C278.686 678.89 247.319 681.106 210.715 685.405C155.709 691.784 114.404 671.382 84.9513 637.238C55.4717 603.063 37.8514 555.095 30.3634 506.387Z" stroke="url(#paint16_linear_118_18)" stroke-width="1.5" stroke-miterlimit="10"/>
<defs>
<linearGradient id="paint0_linear_118_18" x1="539.904" y1="486.949" x2="542.71" y2="533.288" gradientUnits="userSpaceOnUse">
<stop stop-color="white" stop-opacity="0.06"/>
<stop offset="1" stop-color="white" stop-opacity="0"/>
</linearGradient>
<linearGradient id="paint1_linear_118_18" x1="536.925" y1="460.802" x2="542.577" y2="554.14" gradientUnits="userSpaceOnUse">
<stop stop-color="white" stop-opacity="0.06"/>
<stop offset="1" stop-color="white" stop-opacity="0"/>
</linearGradient>
<linearGradient id="paint2_linear_118_18" x1="534.008" y1="432.095" x2="542.708" y2="575.748" gradientUnits="userSpaceOnUse">
<stop stop-color="white" stop-opacity="0.06"/>
<stop offset="1" stop-color="white" stop-opacity="0"/>
</linearGradient>
<linearGradient id="paint3_linear_118_18" x1="531.239" y1="403.589" x2="542.989" y2="597.614" gradientUnits="userSpaceOnUse">
<stop stop-color="white" stop-opacity="0.06"/>
<stop offset="1" stop-color="white" stop-opacity="0"/>
</linearGradient>
<linearGradient id="paint4_linear_118_18" x1="528.074" y1="374.85" x2="542.884" y2="619.42" gradientUnits="userSpaceOnUse">
<stop stop-color="white" stop-opacity="0.06"/>
<stop offset="1" stop-color="white" stop-opacity="0"/>
</linearGradient>
<linearGradient id="paint5_linear_118_18" x1="525.202" y1="346.088" x2="543.085" y2="641.394" gradientUnits="userSpaceOnUse">
<stop stop-color="white" stop-opacity="0.06"/>
<stop offset="1" stop-color="white" stop-opacity="0"/>
</linearGradient>
<linearGradient id="paint6_linear_118_18" x1="522.754" y1="317.333" x2="543.712" y2="663.416" gradientUnits="userSpaceOnUse">
<stop stop-color="white" stop-opacity="0.06"/>
<stop offset="1" stop-color="white" stop-opacity="0"/>
</linearGradient>
<linearGradient id="paint7_linear_118_18" x1="519.437" y1="288.599" x2="543.458" y2="685.259" gradientUnits="userSpaceOnUse">
<stop stop-color="white" stop-opacity="0.06"/>
<stop offset="1" stop-color="white" stop-opacity="0"/>
</linearGradient>
<linearGradient id="paint8_linear_118_18" x1="516.503" y1="259.841" x2="543.583" y2="707.02" gradientUnits="userSpaceOnUse">
<stop stop-color="white" stop-opacity="0.06"/>
<stop offset="1" stop-color="white" stop-opacity="0"/>
</linearGradient>
<linearGradient id="paint9_linear_118_18" x1="513.642" y1="231.34" x2="543.769" y2="728.84" gradientUnits="userSpaceOnUse">
<stop stop-color="white" stop-opacity="0.06"/>
<stop offset="1" stop-color="white" stop-opacity="0"/>
</linearGradient>
<linearGradient id="paint10_linear_118_18" x1="510.937" y1="202.812" x2="544.124" y2="750.84" gradientUnits="userSpaceOnUse">
<stop stop-color="white" stop-opacity="0.06"/>
<stop offset="1" stop-color="white" stop-opacity="0"/>
</linearGradient>
<linearGradient id="paint11_linear_118_18" x1="507.97" y1="173.584" x2="544.264" y2="772.904" gradientUnits="userSpaceOnUse">
<stop stop-color="white" stop-opacity="0.06"/>
<stop offset="1" stop-color="white" stop-opacity="0"/>
</linearGradient>
<linearGradient id="paint12_linear_118_18" x1="504.899" y1="145.095" x2="544.24" y2="794.738" gradientUnits="userSpaceOnUse">
<stop stop-color="white" stop-opacity="0.06"/>
<stop offset="1" stop-color="white" stop-opacity="0"/>
</linearGradient>
<linearGradient id="paint13_linear_118_18" x1="501.627" y1="116.112" x2="544.058" y2="816.777" gradientUnits="userSpaceOnUse">
<stop stop-color="white" stop-opacity="0.06"/>
<stop offset="1" stop-color="white" stop-opacity="0"/>
</linearGradient>
<linearGradient id="paint14_linear_118_18" x1="498.843" y1="87.3612" x2="544.336" y2="838.593" gradientUnits="userSpaceOnUse">
<stop stop-color="white" stop-opacity="0.06"/>
<stop offset="1" stop-color="white" stop-opacity="0"/>
</linearGradient>
<linearGradient id="paint15_linear_118_18" x1="495.842" y1="59.0957" x2="544.381" y2="860.621" gradientUnits="userSpaceOnUse">
<stop stop-color="white" stop-opacity="0.06"/>
<stop offset="1" stop-color="white" stop-opacity="0"/>
</linearGradient>
<linearGradient id="paint16_linear_118_18" x1="492.986" y1="29.8542" x2="544.617" y2="882.44" gradientUnits="userSpaceOnUse">
<stop stop-color="white" stop-opacity="0.06"/>
<stop offset="1" stop-color="white" stop-opacity="0"/>
</linearGradient>
</defs>
</svg>
