<svg width="377" height="383" viewBox="0 0 377 383" fill="none" xmlns="http://www.w3.org/2000/svg">
<path d="M73.5709 0H303.429C344.063 0 377 32.9433 377 73.5766V309.412C377 350.057 344.063 383 303.429 383H73.5709C32.9373 383 0 350.057 0 309.412V73.5766C0 32.9433 32.9373 0 73.5709 0Z" fill="url(#paint0_linear_543_508)"/>
<path fill-rule="evenodd" clip-rule="evenodd" d="M221.25 160.8V97.9606C221.25 95.7034 223.079 93.875 225.336 93.875H319.172C321.421 93.875 323.25 95.7034 323.25 97.9606V160.567C323.277 161.021 323.225 161.481 323.091 161.925C322.601 163.627 321.03 164.875 319.172 164.875H225.336C225.301 164.875 225.266 164.875 225.231 164.874C224.013 164.846 222.82 164.274 222.041 163.21C221.507 162.484 221.25 161.638 221.25 160.8ZM269.462 144.776C270.223 145.481 271.21 145.875 272.237 145.875H272.27C273.297 145.875 274.285 145.481 275.037 144.776L281.091 139.131L306.03 156.712H237.755L262.636 138.41L269.462 144.776ZM256.572 132.754L229.423 107.434V152.725L256.572 132.754ZM315.085 152.973L287.273 133.367L315.085 107.432V152.973ZM235.687 102.038H308.814L272.254 136.135L235.687 102.038Z" fill="#FFB136"/>
<path d="M99.4637 62.2407C96.12 62.2407 93.3977 64.9549 93.3977 68.2986V112.085C93.3977 115.421 96.12 118.143 99.4637 118.143H108.007C109.478 118.143 110.844 118.928 111.579 120.203L121.398 137.183L131.208 120.203C131.952 118.928 133.309 118.143 134.789 118.143H173.875C177.219 118.143 179.941 115.421 179.941 112.085V68.2986C179.941 64.9549 177.219 62.2407 173.875 62.2407H99.4637ZM121.398 149.553C119.918 149.553 118.561 148.768 117.817 147.492L105.62 126.392H99.4637C91.5664 126.392 85.1406 119.975 85.1406 112.085V68.2986C85.1406 60.4094 91.5664 54 99.4637 54H173.875C181.772 54 188.198 60.4094 188.198 68.2986V112.085C188.198 119.975 181.772 126.392 173.875 126.392H137.168L124.971 147.492C124.235 148.768 122.87 149.553 121.398 149.553Z" fill="white"/>
<path d="M111.754 87.9255C110.27 87.9255 109.066 89.0266 109.066 90.375C109.066 91.7234 110.27 92.8245 111.754 92.8245C113.23 92.8245 114.434 91.7234 114.434 90.375C114.434 89.0266 113.23 87.9255 111.754 87.9255ZM111.754 100.875C105.409 100.875 100.25 96.1596 100.25 90.375C100.25 84.5904 105.409 79.875 111.754 79.875C118.091 79.875 123.25 84.5904 123.25 90.375C123.25 96.1596 118.091 100.875 111.754 100.875Z" fill="#FFB136"/>
<path d="M136.75 87.9255C135.274 87.9255 134.069 89.0266 134.069 90.375C134.069 91.7234 135.274 92.8245 136.75 92.8245C138.234 92.8245 139.439 91.7234 139.439 90.375C139.439 89.0266 138.234 87.9255 136.75 87.9255ZM136.75 100.875C130.411 100.875 125.25 96.1596 125.25 90.375C125.25 84.5904 130.411 79.875 136.75 79.875C143.089 79.875 148.25 84.5904 148.25 90.375C148.25 96.1596 143.089 100.875 136.75 100.875Z" fill="#FFB136"/>
<path d="M161.246 87.9255C159.835 87.9255 158.683 89.0266 158.683 90.375C158.683 91.7234 159.835 92.8245 161.246 92.8245C162.665 92.8245 163.817 91.7234 163.817 90.375C163.817 89.0266 162.665 87.9255 161.246 87.9255ZM161.246 100.875C155.184 100.875 150.25 96.1596 150.25 90.375C150.25 84.5904 155.184 79.875 161.246 79.875C167.316 79.875 172.25 84.5904 172.25 90.375C172.25 96.1596 167.316 100.875 161.246 100.875Z" fill="#FFB136"/>
<path d="M302.638 272.875H313.493C314.338 272.875 315.16 272.778 315.949 272.594C316.089 272.608 316.232 272.616 316.376 272.616C317.733 272.616 318.829 273.719 318.829 275.068C318.829 276.425 317.733 277.521 316.376 277.521H302.168C299.887 277.521 298.039 279.368 298.039 281.649C298.039 283.922 299.887 285.77 302.168 285.77H312.733C313.123 285.901 313.54 285.972 313.973 285.972C315.267 285.972 316.326 287.047 316.326 288.379C316.326 289.703 315.267 290.786 313.973 290.786H300.212C298.023 290.786 296.25 292.592 296.25 294.831C296.25 297.07 298.023 298.875 300.212 298.875H310.617C310.889 298.929 311.17 298.957 311.459 298.957C312.826 298.957 313.93 300.04 313.93 301.363C313.93 302.694 312.826 303.768 311.459 303.768H284.077C281.029 303.849 277.759 303.672 274.093 303.239C270.765 302.838 267.791 302.429 265.114 301.459C264.216 301.13 263.285 300.665 262.206 300.016C262.033 299.912 261.869 299.808 261.704 299.703C260.518 298.974 259.175 298.148 257.445 297.618C256.053 297.201 254.776 297.226 253.845 297.25C253.697 297.258 253.54 297.258 253.392 297.258L250.377 297.282C248.079 297.306 246.234 299.126 246.25 301.363C246.267 303.584 248.128 305.372 250.41 305.372H250.443L253.458 305.348C253.656 305.348 253.862 305.34 254.059 305.332C254.151 305.332 254.252 305.331 254.354 305.329C254.61 305.326 254.87 305.323 254.982 305.34C255.644 305.55 256.353 305.985 257.169 306.486L257.247 306.535C257.338 306.591 257.43 306.647 257.523 306.703C257.616 306.759 257.709 306.815 257.799 306.872C259.348 307.81 260.789 308.515 262.198 309.029C265.724 310.311 269.357 310.817 273.08 311.258C276.523 311.675 279.67 311.875 282.66 311.875C283.179 311.875 283.698 311.867 284.217 311.851H311.459C317.415 311.851 322.25 307.152 322.25 301.363C322.25 299.48 321.737 297.71 320.839 296.181C322.932 294.258 324.25 291.472 324.25 288.379C324.25 286.594 323.812 284.912 323.041 283.439C325.504 281.477 327.086 278.454 327.086 275.068C327.086 271.753 325.566 268.785 323.185 266.822C323.867 265.42 324.25 263.849 324.25 262.191C324.25 256.293 319.422 251.506 313.493 251.506H290.559C290.584 251.457 290.6 251.424 290.616 251.375C291.035 250.501 291.47 249.636 291.938 248.712C292.948 246.752 293.983 244.718 294.78 242.439C297.653 234.189 297.473 226.747 294.262 220.915C294.213 220.825 294.164 220.743 294.106 220.662C293.975 220.457 293.827 220.245 293.663 220.016C291.955 217.746 289.664 216.079 287.217 215.336C282.848 214.004 278.119 215.63 275.721 219.289C274.202 221.609 274.161 223.978 274.243 226.012C274.309 227.67 274.243 229.124 274.046 230.48C273.602 233.462 272.691 236.019 271.336 238.069C270.677 239.07 270.165 239.858 269.805 240.412C269.748 240.5 269.694 240.582 269.645 240.658C269.511 240.876 269.404 241.044 269.324 241.17C269.296 241.214 269.272 241.253 269.25 241.287C269.234 241.312 269.218 241.336 269.209 241.361C268.134 242.766 266.672 244.538 264.882 246.352C261.376 249.938 255.915 254.365 249.864 255.141C247.597 255.435 245.996 257.502 246.283 259.756C246.579 262.011 248.656 263.604 250.931 263.31C262.698 261.798 271.886 251.531 276 246.09C276.049 246.041 276.091 245.984 276.132 245.927C276.141 245.913 276.151 245.899 276.162 245.884C276.197 245.835 276.237 245.777 276.288 245.715C277.519 244.056 278.234 242.921 278.34 242.741C278.529 242.439 278.669 242.12 278.776 241.802C280.508 238.902 281.682 235.504 282.249 231.681C282.528 229.81 282.619 227.85 282.528 225.677C282.504 225.13 282.463 224.101 282.668 223.782C283.111 223.12 284.072 222.99 284.795 223.21C285.542 223.439 286.371 224.084 287.003 224.934L287.077 225.032C289.565 229.721 288.383 235.61 286.938 239.743C286.33 241.491 285.468 243.191 284.548 244.988C284.072 245.919 283.579 246.891 283.103 247.896C281.978 250.297 281.403 252.895 281.403 255.623C281.403 257.894 283.259 259.74 285.55 259.74H313.493C314.856 259.74 315.957 260.843 315.957 262.191C315.957 263.538 314.856 264.641 313.493 264.641H302.638C300.347 264.641 298.491 266.487 298.491 268.758C298.491 271.037 300.347 272.875 302.638 272.875Z" fill="white"/>
<path fill-rule="evenodd" clip-rule="evenodd" d="M126.087 178.027C84.0909 178.027 50 212.118 50 254.115C50 296.103 84.0909 330.194 126.087 330.194C168.076 330.194 202.166 296.103 202.166 254.115C202.166 212.118 168.076 178.027 126.087 178.027ZM126.087 188.173C162.475 188.173 192.021 217.718 192.021 254.115C192.021 290.503 162.475 320.048 126.087 320.048C89.691 320.048 60.1455 290.503 60.1455 254.115C60.1455 217.718 89.691 188.173 126.087 188.173ZM161.617 259.216C163.17 258.309 164.127 256.641 164.127 254.842C164.127 253.044 163.17 251.376 161.617 250.469L110.898 220.768C109.328 219.844 107.382 219.836 105.813 220.743C104.235 221.642 103.262 223.327 103.262 225.141V284.543C103.262 286.358 104.235 288.042 105.813 288.941C107.382 289.849 109.328 289.841 110.898 288.917L161.617 259.216ZM149.019 254.842L113.407 275.697V233.987L149.019 254.842Z" fill="white"/>
<defs>
<linearGradient id="paint0_linear_543_508" x1="337.439" y1="354.082" x2="0.299394" y2="-0.284839" gradientUnits="userSpaceOnUse">
<stop/>
<stop offset="1" stop-color="#707070"/>
</linearGradient>
</defs>
</svg>
