<svg width="134" height="136" viewBox="0 0 134 136" fill="none" xmlns="http://www.w3.org/2000/svg">
<path d="M26.1031 0H107.657C122.074 0 133.76 11.6979 133.76 26.1264V109.87C133.76 124.302 122.074 136 107.657 136H26.1031C11.6862 136 0 124.302 0 109.87V26.1264C0 11.6979 11.6862 0 26.1031 0Z" fill="url(#paint0_linear_462_185)"/>
<path d="M36.9115 99.0013L40.9472 105.577L45.0607 99.0013H46.8214V111.342H44.9205V106.278C44.9205 105.542 44.9361 104.841 44.9672 104.174C44.9984 103.512 45.0451 102.846 45.1074 102.18L41.4769 107.789H40.3083L36.7713 102.211C36.8414 102.866 36.8882 103.528 36.9115 104.19C36.931 104.844 36.9427 105.542 36.9427 106.278V111.342H35.0417V99.0013H36.9115Z" fill="#FFC468"/>
<path d="M51.4182 100.307C51.0014 100.307 50.6937 100.206 50.4989 99.9953C50.3003 99.7889 50.2029 99.5123 50.2029 99.1695C50.2029 98.8813 50.3003 98.6164 50.4989 98.3749C50.6937 98.1372 51.0014 98.0165 51.4182 98.0165C51.8311 98.0165 52.1389 98.1256 52.3375 98.3437C52.5323 98.554 52.6336 98.8267 52.6336 99.1695C52.6336 99.4617 52.5323 99.7266 52.3375 99.9642C52.1389 100.194 51.8311 100.307 51.4182 100.307ZM51.6364 111.339H49.8289V102.083H51.6364V111.339Z" fill="#FFC468"/>
<path d="M59.5837 101.881C60.4134 101.881 61.0561 102.052 61.5158 102.395C61.9715 102.738 62.2948 103.202 62.4818 103.782C62.6688 104.355 62.7623 104.993 62.7623 105.698V111.339H60.9393V105.823C60.9393 105.379 60.8769 104.978 60.7523 104.623C60.6354 104.273 60.4406 103.996 60.1602 103.798C59.8797 103.591 59.4824 103.509 58.976 103.548C58.5085 103.548 58.0917 103.649 57.7294 103.844C57.3633 104.043 57.075 104.308 56.8569 104.639C56.6465 104.974 56.5452 105.336 56.5452 105.73V111.339H54.7378V102.084H56.5452V103.548C56.8257 103.112 57.2347 102.73 57.7762 102.395C58.3138 102.052 58.9175 101.881 59.5837 101.881Z" fill="#FFC468"/>
<path d="M73.8988 98.2822V111.34H72.0913V110.031C71.8187 110.397 71.4213 110.732 70.8916 111.043C70.3618 111.355 69.758 111.511 69.0841 111.511C68.2505 111.511 67.4987 111.308 66.8248 110.903C66.1587 110.49 65.6289 109.918 65.2354 109.189C64.8498 108.465 64.6589 107.631 64.6589 106.696C64.6589 105.761 64.8498 104.932 65.2354 104.203C65.6289 103.479 66.1548 102.91 66.8092 102.505C67.4714 102.092 68.2154 101.882 69.0374 101.882C69.6918 101.882 70.2839 102.018 70.8137 102.287C71.3512 102.559 71.7797 102.875 72.0913 103.237V98.2822H73.8988ZM69.3334 109.953C69.9021 109.953 70.3968 109.813 70.8137 109.532C71.2383 109.244 71.5655 108.854 71.7953 108.363C72.0329 107.865 72.1537 107.312 72.1537 106.696C72.1537 106.073 72.0329 105.52 71.7953 105.029C71.5655 104.542 71.2383 104.156 70.8137 103.876C70.3968 103.595 69.9021 103.455 69.3334 103.455C68.7803 103.455 68.2933 103.595 67.8687 103.876C67.4519 104.156 67.1208 104.542 66.8715 105.029C66.63 105.52 66.5131 106.073 66.5131 106.696C66.5131 107.312 66.63 107.865 66.8715 108.363C67.1208 108.854 67.4519 109.244 67.8687 109.532C68.2933 109.813 68.7803 109.953 69.3334 109.953Z" fill="#FFC468"/>
<path d="M81.7639 104.514C81.4289 104.183 81.051 103.914 80.6264 103.704C80.2096 103.486 79.824 103.377 79.4734 103.377C79.2319 103.377 78.9903 103.408 78.741 103.47C78.4995 103.533 78.297 103.642 78.1334 103.798C77.9775 103.953 77.8996 104.187 77.8996 104.499C77.9074 104.927 78.0944 105.227 78.4606 105.402C78.8345 105.57 79.2942 105.726 79.8473 105.87C80.3343 106.006 80.8056 106.174 81.2653 106.368C81.721 106.555 82.0989 106.836 82.4027 107.21C82.7027 107.576 82.8546 108.094 82.8546 108.768C82.8546 109.341 82.6871 109.835 82.356 110.248C82.0326 110.653 81.6158 110.965 81.1094 111.183C80.5991 111.401 80.0655 111.51 79.5045 111.51C78.8267 111.51 78.1645 111.39 77.5101 111.152C76.8557 110.914 76.2986 110.498 75.8429 109.906L77.0894 108.846C77.401 109.212 77.7594 109.496 78.1645 109.703C78.5696 109.913 79.0682 110.015 79.6603 110.015C79.8785 110.015 80.0966 109.98 80.3148 109.906C80.5407 109.824 80.7355 109.699 80.8913 109.532C81.0549 109.368 81.1406 109.134 81.1406 108.83C81.1406 108.55 81.051 108.332 80.8757 108.176C80.7082 108.02 80.4862 107.892 80.2057 107.786C79.9252 107.685 79.6136 107.592 79.2708 107.506C78.7605 107.373 78.2619 107.202 77.775 106.992C77.2842 106.785 76.879 106.493 76.5596 106.119C76.2363 105.737 76.0766 105.212 76.0766 104.545C76.0766 103.996 76.2324 103.525 76.544 103.128C76.8557 102.734 77.2608 102.426 77.7594 102.208C78.2658 101.99 78.8112 101.881 79.3955 101.881C79.9447 101.881 80.5407 102.002 81.1873 102.239C81.8418 102.481 82.3754 102.855 82.7922 103.361L81.7639 104.514Z" fill="#FFC468"/>
<path d="M92.8134 110.125H92.7978C92.4239 110.491 91.9019 110.81 91.2397 111.091C90.5853 111.371 89.8997 111.511 89.1829 111.511C88.2168 111.511 87.3638 111.309 86.6275 110.904C85.8991 110.499 85.3265 109.945 84.9136 109.236C84.4967 108.52 84.2903 107.709 84.2903 106.806C84.2903 105.77 84.5084 104.885 84.9447 104.157C85.381 103.421 85.9575 102.856 86.6743 102.458C87.391 102.065 88.174 101.866 89.0271 101.866C89.7945 101.866 90.4957 102.061 91.1306 102.443C91.7733 102.828 92.2836 103.358 92.6576 104.032C93.0316 104.698 93.2185 105.477 93.2185 106.369L93.203 107.148H86.1133C86.2146 107.982 86.5574 108.64 87.1417 109.127C87.7221 109.618 88.4584 109.86 89.3543 109.86C89.997 109.86 90.5151 109.743 90.9125 109.501C91.3176 109.252 91.6487 109.018 91.9097 108.8L92.8134 110.125ZM89.0271 103.549C88.3298 103.549 87.7221 103.713 87.204 104.032C86.6821 104.355 86.3393 104.913 86.1757 105.699H91.3643V105.575C91.3332 105.17 91.2007 104.819 90.9748 104.515C90.745 104.204 90.4606 103.966 90.1178 103.798C89.775 103.635 89.4088 103.549 89.0271 103.549Z" fill="#FFC468"/>
<path d="M98.1712 111.338H96.3481V103.844H94.4316V102.083H96.3481V99.7146H98.1712V102.083H100.321V103.844H98.1712V111.338Z" fill="#FFC468"/>
<path fill-rule="evenodd" clip-rule="evenodd" d="M67.3343 16.1242C66.6097 16.1165 65.8891 16.1437 65.1684 16.1905C56.5245 16.7904 48.4922 21.5973 43.9814 29.4075C37.9825 39.8044 39.3614 52.8345 48.204 61.4745C50.0699 63.2975 50.6542 64.9414 50.7672 66.8735C50.8762 68.8095 50.4166 71.0571 49.9998 73.6943C49.8128 74.8863 50.0426 76.0861 50.6853 77.1262C51.3281 78.1623 52.3253 79.0427 53.6342 79.8685C58.8696 83.1796 67.79 85.3844 74.4629 84.4885C77.2559 84.1106 78.853 82.1473 79.2503 79.6893C79.4879 78.2363 79.71 77.1885 80.0644 76.6938C80.415 76.1991 80.8786 75.9069 82.4679 75.9342C84.0884 75.9614 85.7946 76.1367 87.3956 75.5485C89.0005 74.9564 90.2509 73.3671 90.5158 70.8468C90.6404 69.7171 90.4223 69.8184 91.1858 68.8368C92.4051 67.2786 92.9076 66.2346 92.1986 64.5323C93.8269 64.0259 94.1814 62.7171 93.7139 61.229L92.7829 58.2763L96.4134 56.9207C97.4691 56.5312 98.1663 55.6002 98.3377 54.6302C98.5052 53.6642 98.2248 52.6553 97.5781 51.8645C95.498 49.3169 93.6321 47.9847 92.5881 45.6007C91.9766 44.2062 92.0895 43.7153 92.3505 42.8272C92.6115 41.9351 93.1569 40.6769 93.1608 38.737C93.1763 32.9056 89.9626 28.3636 86.8697 24.9512C83.0094 20.6974 78.0739 18.0564 73.898 17.0397L74.0071 17.0708C73.972 17.0552 73.937 17.0436 73.898 17.0319C71.7166 16.4476 69.5157 16.1515 67.3343 16.1242ZM67.3031 18.4147C69.2937 18.442 71.2998 18.7108 73.2903 19.2406C73.2981 19.2406 73.302 19.2406 73.3059 19.2406C73.3215 19.2445 73.3371 19.2523 73.3527 19.2561C77.0338 20.1521 81.6499 22.6062 85.1674 26.486C88.1123 29.7309 90.8858 33.747 90.8742 38.7292C90.8703 40.2601 90.4768 41.0782 90.1496 42.1883C89.8263 43.2985 89.7017 44.7242 90.4846 46.5161C91.7935 49.5 93.9827 50.9647 95.8018 53.3136C96.3511 54.0226 96.1291 54.5874 95.611 54.7822L91.9376 56.1494C91.7039 56.239 91.2637 56.3793 90.8664 56.8467C90.469 57.3181 90.3327 58.1361 90.547 58.81L91.5286 61.9224C91.6805 62.3938 91.4663 62.7483 90.882 62.7911C90.0016 62.8573 89.4212 63.765 89.8925 64.509C90.7183 65.8178 90.0328 66.5969 89.3783 67.45C88.4162 68.7004 88.3499 69.6392 88.2448 70.6014C88.0344 72.6036 87.493 73.0788 86.6009 73.4061C85.7089 73.7333 84.2013 73.6826 82.503 73.6515C80.5163 73.6164 79.0244 74.2202 78.1985 75.3693C77.3766 76.5185 77.2208 77.8663 76.9871 79.3349C76.7066 81.0956 75.6665 82.0305 74.1707 82.2213C68.2692 82.9771 59.4422 80.8385 54.8534 77.9364C53.7277 77.2236 53.0109 76.5458 52.6292 75.9264C52.2474 75.3109 52.1422 74.7733 52.2552 74.0527C52.6642 71.4856 53.1823 69.1133 53.046 66.741C52.9096 64.3687 52.0215 62.0042 49.805 59.8423C41.6948 51.9152 40.4482 40.1043 45.9641 30.5489C50.0855 23.4047 57.4283 19.0185 65.3242 18.4693C65.9826 18.4225 66.6409 18.4069 67.3031 18.4147Z" fill="#FFC468"/>
<path fill-rule="evenodd" clip-rule="evenodd" d="M56.6783 31.23C56.203 31.1989 55.7356 31.2456 55.2837 31.4754C54.8357 31.7091 54.4306 32.2311 54.3917 32.8077C54.3371 33.6296 54.2397 34.1594 54.1151 34.4009C53.9632 34.7047 53.8385 34.7281 53.5814 34.5801C53.3477 34.4437 52.9426 34.097 52.405 33.4777C52.0233 33.0414 51.3844 32.87 50.8858 32.9557C50.3872 33.0414 49.9782 33.2907 49.6198 33.6023L48.2954 34.7553C47.9331 35.0709 47.6254 35.4409 47.4734 35.924C47.3215 36.407 47.4072 37.0575 47.789 37.4938C48.3304 38.1132 48.607 38.5728 48.7239 38.8105C48.8641 39.087 48.7161 39.2506 48.4707 39.3169C48.2136 39.387 47.6799 39.4259 46.8541 39.3675C46.2775 39.3285 45.701 39.6558 45.4128 40.0687C45.1206 40.4816 45.0038 40.9451 44.9726 41.4243L44.8518 43.1694C44.8207 43.6446 44.8674 44.1199 45.0972 44.5679C45.331 45.0197 45.8607 45.4209 46.4412 45.4638C47.2631 45.5183 47.7773 45.6508 48.0344 45.7365C48.3499 45.8416 48.3577 46.0715 48.2136 46.2662C48.05 46.4805 47.7305 46.9012 47.1073 47.4388C46.671 47.8205 46.4957 48.4594 46.5814 48.958C46.6671 49.4566 46.9203 49.8617 47.2358 50.224L48.3889 51.5445C48.7044 51.9068 49.0706 52.2028 49.5536 52.3587C50.0327 52.5106 50.691 52.4327 51.1312 52.0509C51.7545 51.5095 52.2024 51.2017 52.4557 51.116C52.7283 51.0225 52.8841 51.0887 52.9543 51.3614C53.0244 51.6224 53.0711 52.16 53.0166 52.9819C52.9776 53.5623 53.3048 54.1272 53.7139 54.4193C54.1268 54.7115 54.5942 54.8244 55.0734 54.8556L56.8302 54.9764C57.3054 55.0075 57.7807 54.9647 58.2286 54.7309C58.6766 54.4972 59.0817 53.9791 59.1246 53.3987C59.1791 52.5768 59.3154 52.0626 59.3973 51.8055C59.5336 51.3926 59.7556 51.5017 59.927 51.6302C60.1452 51.7899 60.5659 52.1093 61.1112 52.7287C61.493 53.1689 62.1318 53.3403 62.6304 53.2507C63.129 53.1611 63.5303 52.9157 63.8886 52.6041L65.2209 51.451C65.5831 51.1355 65.887 50.7654 66.0428 50.2824C66.1947 49.8033 66.109 49.1527 65.7273 48.7126C65.1858 48.0932 64.9131 47.6374 64.7885 47.3959C64.621 47.0609 64.843 46.9207 65.0417 46.8895C65.3105 46.8506 65.8363 46.7843 66.6583 46.8389C67.2387 46.8778 67.8113 46.5506 68.1035 46.1377C68.3956 45.7248 68.5047 45.2612 68.5359 44.786L68.6605 43.0292C68.6956 42.5539 68.641 42.0787 68.4073 41.6307C68.1775 41.1828 67.6555 40.7854 67.0751 40.7465C66.2532 40.6919 65.739 40.5556 65.4819 40.4699C65.1274 40.353 65.1624 40.1738 65.2949 39.944C65.4312 39.7103 65.7857 39.3013 66.4051 38.7598C66.8414 38.3781 67.0205 37.747 66.9348 37.2484C66.8491 36.7537 66.5959 36.3447 66.2765 35.9863L65.1157 34.6619C64.8002 34.3035 64.4301 33.9957 63.9471 33.8438C63.464 33.6919 62.8135 33.7815 62.3733 34.1632C61.754 34.7047 61.3138 35.0124 61.0567 35.0942C60.6594 35.2189 60.6048 35.0475 60.5503 34.841C60.4802 34.5801 60.4412 34.0464 60.4996 33.2245C60.5386 32.6479 60.2114 32.0714 59.7985 31.7832C59.3817 31.491 58.9181 31.3819 58.4429 31.3508L56.6783 31.23ZM58.7935 33.1816C58.735 34.0425 58.7428 34.7125 58.8947 35.2851C59.0545 35.8772 59.4674 36.407 59.9699 36.6524C60.4685 36.8978 61.1268 36.9056 61.6955 36.6758C62.2487 36.4537 62.7901 36.0525 63.4485 35.4838L65.2248 37.5328C64.5781 38.0976 64.1068 38.5728 63.8107 39.087C63.503 39.6168 63.4173 40.2751 63.5965 40.8049C63.7718 41.3347 64.2431 41.806 64.808 42.0475C65.3572 42.2774 66.0194 42.3786 66.8881 42.441L66.7089 45.1249C65.8402 45.0704 65.1702 45.082 64.5937 45.2379C63.9977 45.3976 63.4718 45.8027 63.2225 46.3013C62.9732 46.8038 62.9693 47.4738 63.2031 48.0425C63.4251 48.5918 63.8263 49.1216 64.3912 49.776L62.3383 51.5523C61.7695 50.9096 61.2943 50.4343 60.7801 50.1383C60.2503 49.8305 59.592 49.7448 59.0622 49.924C58.5286 50.0993 58.0494 50.5707 57.8118 51.1355C57.5781 51.6808 57.4846 52.3431 57.4223 53.2039L54.7189 53.017C54.7734 52.1561 54.7695 51.49 54.6137 50.9174C54.454 50.3253 54.045 49.7994 53.5425 49.5501C53.04 49.3008 52.3777 49.2969 51.809 49.5267C51.2598 49.7526 50.7183 50.1461 50.0678 50.7109L48.2798 48.6814C48.9303 48.1088 49.4056 47.6335 49.7016 47.1193C50.0054 46.5857 50.0872 45.9273 49.9081 45.4015C49.7328 44.8717 49.2692 44.3926 48.7044 44.151C48.1551 43.9212 47.4929 43.8277 46.6242 43.7654L46.8034 41.0776C47.6721 41.136 48.3421 41.1243 48.9186 40.9685C49.5107 40.8049 50.0405 40.3998 50.2898 39.9012C50.5391 39.4026 50.543 38.7325 50.3093 38.1638C50.0873 37.6146 49.6899 37.077 49.1251 36.4226L51.1585 34.6541C51.7311 35.3046 52.2102 35.7682 52.7283 36.0642C53.2659 36.3719 53.9203 36.4576 54.4501 36.2823C54.9799 36.1032 55.4551 35.6357 55.6927 35.0709C55.9264 34.5216 56.0277 33.8633 56.0901 33.0024L58.7935 33.1816Z" fill="#FFC468"/>
<path fill-rule="evenodd" clip-rule="evenodd" d="M57.0712 38.4326C54.4963 38.2573 52.2487 40.2128 52.0734 42.7838C51.8981 45.3509 53.8652 47.5907 56.4401 47.766C59.0111 47.9413 61.2587 45.9897 61.434 43.4226C61.6093 40.8556 59.646 38.6079 57.0712 38.4326ZM56.9582 40.1427C58.6059 40.2557 59.833 41.6619 59.7239 43.3019C59.611 44.9457 58.1969 46.1728 56.5492 46.0637C54.9053 45.9507 53.6744 44.5406 53.7873 42.9007C53.9003 41.2607 55.3104 40.0297 56.9582 40.1427Z" fill="#FFC468"/>
<path fill-rule="evenodd" clip-rule="evenodd" d="M72.5822 22.4373C72.1498 22.4295 71.7174 22.5152 71.3551 22.7489C70.9929 22.9865 70.7397 23.3527 70.6111 23.7188C70.4008 24.2954 70.4086 24.8135 70.3501 25.1601C70.3268 25.2926 70.3034 25.351 70.2839 25.4056C70.2294 25.3822 70.1671 25.3549 70.0619 25.2731C69.7814 25.0589 69.4347 24.6693 68.8894 24.3811C68.5466 24.198 68.1298 24.0967 67.7013 24.1629C67.2728 24.233 66.8832 24.4512 66.5677 24.7511L65.4809 25.7873C65.1654 26.0872 64.9199 26.4612 64.8343 26.8858C64.7447 27.3104 64.8304 27.7428 64.9979 28.0934C65.2588 28.6465 65.6367 29.0049 65.8315 29.2971C65.9055 29.4061 65.8938 29.4607 65.7263 29.4685C65.3134 29.484 64.6395 29.3944 63.9773 29.9164C63.4903 30.2982 63.28 30.7461 63.0813 31.1435C62.8827 31.5369 62.7463 31.8797 62.7463 31.8797L64.3551 32.4874C64.3551 32.4874 64.4525 32.2225 64.6083 31.9148C64.7641 31.607 65.0329 31.2642 65.0329 31.2603C64.9979 31.2876 65.3134 31.2019 65.8081 31.1785C66.0535 31.1668 66.334 31.1552 66.6651 31.0461C66.9923 30.9331 67.3974 30.6527 67.5805 30.2358C67.748 29.8541 67.7363 29.4217 67.6389 29.0984C67.5416 28.7712 67.3896 28.5258 67.2377 28.3076L66.4275 27.2987L68.0596 25.7873L69.0101 26.6287C69.2205 26.7884 69.4659 26.9559 69.7853 27.0689C70.1047 27.178 70.5371 27.2091 70.9228 27.0611C71.3123 26.9092 71.6044 26.6014 71.7642 26.3015C71.9278 26.0015 71.994 25.7211 72.0407 25.4601L72.2939 24.1902L74.2962 24.233L74.4909 25.5146C74.526 25.7756 74.5727 26.0639 74.7208 26.3677C74.8688 26.6755 75.1454 27.0027 75.5271 27.1702C76.3451 27.5363 77.0619 27.1585 77.5683 26.843L78.511 26.0911L79.9406 27.5792L79.1382 28.479C78.7993 28.9659 78.3824 29.6593 78.7058 30.4968C79.0291 31.3343 79.8082 31.5681 80.3886 31.7005L81.5884 31.8407L81.5923 33.9248L80.2522 34.0572C79.9912 34.0923 79.703 34.1429 79.3991 34.2871C79.0914 34.4351 78.7603 34.7194 78.5928 35.1012C78.2305 35.9192 78.6123 36.6282 78.9278 37.1307C79.2083 37.5748 79.5043 37.8747 79.6874 38.0656L78.1838 39.4952C78.0007 39.3082 77.7124 39.0005 77.2839 38.7005C76.797 38.3577 76.1036 37.9448 75.2661 38.2682C74.8766 38.4162 74.5805 38.7278 74.4169 39.0278C74.2533 39.3277 74.1832 39.616 74.1404 39.877L73.9339 41.1469L71.846 41.0962C71.8499 40.808 71.8499 40.4067 71.7486 39.912C71.6356 39.3511 71.4525 38.6694 70.7825 38.2214C70.0463 37.7345 69.4036 37.9526 68.8894 38.0656C68.3752 38.1825 67.9584 38.35 67.9584 38.35L68.5933 39.9432C68.5933 39.9432 68.9049 39.8224 69.2594 39.7328C69.9333 39.5614 70.019 39.6705 70.0658 40.2548C70.093 40.621 70.1515 41.03 70.1476 41.2053C70.1359 41.7428 70.4631 42.2648 70.8526 42.5141C71.2461 42.7673 71.6668 42.8491 72.0914 42.8569L73.595 42.8959C74.0313 42.9037 74.4676 42.8141 74.8298 42.5765C75.1921 42.3388 75.4375 41.9727 75.5661 41.6065C75.7764 41.03 75.8037 40.5158 75.8271 40.1652C75.866 39.6199 76.1699 39.9782 76.2984 40.1068C76.5516 40.36 76.9061 40.6288 77.0619 40.7885C77.4359 41.1741 78.0397 41.3066 78.4915 41.2053C78.9434 41.104 79.2979 40.8625 79.6017 40.5742L80.6885 39.5419C81.0002 39.2498 81.2611 38.9109 81.3819 38.4629C81.5027 38.015 81.3975 37.3995 81.0274 37.0138C80.8794 36.858 80.6145 36.5035 80.3769 36.2153C80.1782 35.9699 80.1938 35.7712 80.4665 35.7556C80.8171 35.7323 81.339 35.74 81.9273 35.5609C82.2973 35.4479 82.6791 35.2181 82.9323 34.8675C83.1894 34.5208 83.2945 34.0884 83.3062 33.656L83.3413 32.1602C83.353 31.7395 83.2906 31.3149 83.0608 30.9136C82.8271 30.5085 82.3207 30.1501 81.787 30.1385C81.5728 30.1346 81.1365 30.0839 80.7664 30.0333C80.4509 29.9904 80.3107 29.7567 80.5444 29.4607C80.7664 29.1763 81.0742 28.8452 81.23 28.6972C81.6156 28.3271 81.752 27.7272 81.6546 27.2753C81.5572 26.8235 81.3157 26.4651 81.0196 26.1613L79.9796 25.0744C79.6874 24.7706 79.3485 24.5096 78.9005 24.3889C78.4487 24.2681 77.8332 24.3811 77.4475 24.755C77.2995 24.8992 76.9723 25.1991 76.6568 25.3939C76.3646 25.5769 76.2088 25.5575 76.2556 25.5886C76.24 25.538 76.2088 25.4562 76.1893 25.3043C76.1465 24.9576 76.1738 24.4356 75.9946 23.8474C75.8816 23.4773 75.6557 23.1034 75.3012 22.8502C74.9506 22.597 74.526 22.4879 74.0897 22.4801L72.5822 22.4373Z" fill="#FFC468"/>
<path fill-rule="evenodd" clip-rule="evenodd" d="M73.1789 28.8727C71.0949 28.822 69.3419 30.4893 69.2913 32.5694C69.2407 34.6495 70.9157 36.3947 72.9997 36.4453C75.0837 36.496 76.8367 34.8365 76.8873 32.7564V32.7486C76.938 30.6684 75.2629 28.9233 73.1789 28.8727ZM73.1399 30.5905C74.3008 30.6178 75.1928 31.5566 75.1656 32.7096C75.1383 33.8627 74.1956 34.7625 73.0387 34.7352C71.8817 34.708 70.9858 33.7653 71.0131 32.6161C71.0403 31.4631 71.983 30.5633 73.1399 30.5905Z" fill="#FFC468"/>
<defs>
<linearGradient id="paint0_linear_462_185" x1="119.724" y1="125.731" x2="0.00363373" y2="-0.00345991" gradientUnits="userSpaceOnUse">
<stop/>
<stop offset="1" stop-color="#707070"/>
</linearGradient>
</defs>
</svg>
