<svg width="377" height="383" viewBox="0 0 377 383" fill="none" xmlns="http://www.w3.org/2000/svg">
<path d="M73.5709 0H303.429C344.063 0 377 32.9433 377 73.5766V309.412C377 350.057 344.063 383 303.429 383H73.5709C32.9373 383 0 350.057 0 309.412V73.5766C0 32.9433 32.9373 0 73.5709 0Z" fill="url(#paint0_linear_544_520)"/>
<path fill-rule="evenodd" clip-rule="evenodd" d="M88.6474 63.6611H87.4935H69.8921C50.6884 63.6611 35 79.3904 35 98.635H35.0245V260.947H35C35 280.192 50.6884 295.921 69.8921 295.921H163.066V316.04L105.733 331.434C97.9742 333.511 101.13 345.316 108.88 343.239L169.941 326.84H207.392L268.453 343.239C276.203 345.316 279.359 333.511 271.601 331.434L214.268 316.04V295.921H307.441C326.645 295.921 342.333 280.192 342.333 260.947V98.635C342.333 79.3904 326.637 63.6611 307.441 63.6611H225.378H224.634C224.639 63.6761 224.644 63.691 224.649 63.7059L226.123 75.8995H307.441C319.909 75.8995 330.128 86.1432 330.128 98.635V260.947C330.128 273.439 319.909 283.682 307.441 283.682H69.8921C57.4248 283.682 47.2057 273.439 47.2057 260.947H47.1812V98.635H47.2057C47.2057 86.1432 57.4248 75.8995 69.8921 75.8995H87.1581L88.6323 63.7059C88.6373 63.691 88.6424 63.6761 88.6474 63.6611ZM175.271 314.601H202.062V295.921H175.271V314.601Z" fill="white"/>
<path fill-rule="evenodd" clip-rule="evenodd" d="M87.1406 91.9149H69.8921C66.5239 91.9149 63.7933 94.6536 63.7933 98.03V261.544C63.7933 264.928 66.5239 267.667 69.8921 267.667H307.441C310.809 267.667 313.548 264.928 313.548 261.544V98.03C313.548 94.6536 310.809 91.9149 307.441 91.9149H226.141V104.153H301.334V255.429H290.968V250.27C290.968 224.493 269.941 203.426 244.222 203.426C218.502 203.426 197.476 224.493 197.476 250.27V255.429H75.999V104.153H87.1406V91.9149ZM209.689 250.27V255.429H278.754V250.27C278.754 231.246 263.205 215.664 244.222 215.664C225.239 215.664 209.689 231.246 209.689 250.27Z" fill="white"/>
<path fill-rule="evenodd" clip-rule="evenodd" d="M214.823 167.209C214.823 150.94 227.986 137.746 244.222 137.746C260.458 137.746 273.62 150.94 273.62 167.209C273.62 183.478 260.458 196.673 244.222 196.673C227.986 196.673 214.823 183.478 214.823 167.209ZM261.414 167.209C261.414 157.693 253.713 149.984 244.222 149.984C234.722 149.984 227.029 157.693 227.029 167.209C227.029 176.725 234.73 184.443 244.222 184.443C253.721 184.443 261.414 176.725 261.414 167.209Z" fill="white"/>
<path fill-rule="evenodd" clip-rule="evenodd" d="M197.146 41H115.143C102.543 41 91.561 49.194 87.6431 60.85C85.9573 65.1666 86.0121 67.5815 86.1194 72.3198C86.1264 72.6289 86.1336 72.9479 86.1406 73.278V112.206C86.1406 128.204 99.1811 141.271 115.143 141.271H157.07L192.763 177.044C194.393 179.905 203.27 180.517 203.339 172.652V140.59C216.578 137.685 226.141 125.838 226.141 112.206V73.278C226.049 67.9959 225.732 65.0701 224.638 60.85C220.729 49.194 209.747 41 197.146 41ZM196.759 54H114.745C105.249 54 98.1406 59.5842 98.1406 70.6371V112.778C98.1406 124.068 105.249 129.415 114.745 129.415H159.578C161.321 129.415 162.555 130.137 163.684 131.291L190.558 158.223V131.291C190.558 129.415 191.058 129.146 196.643 129.146C205.759 129.146 213.355 121.918 213.355 112.778V70.6371C213.355 61.5548 205.933 54 196.759 54ZM190.644 71.2634C198.813 71.2634 198.813 83.6914 190.644 83.6914H120.509C112.348 83.6914 112.348 71.2634 120.509 71.2634H190.644ZM190.644 99.3738C198.813 99.3738 198.813 111.802 190.644 111.802H120.509C112.348 111.802 112.348 99.3738 120.509 99.3738H190.644Z" fill="#FFB136"/>
<defs>
<linearGradient id="paint0_linear_544_520" x1="337.439" y1="354.082" x2="0.299394" y2="-0.284839" gradientUnits="userSpaceOnUse">
<stop/>
<stop offset="1" stop-color="#707070"/>
</linearGradient>
</defs>
</svg>
