<svg width="136" height="137" viewBox="0 0 136 137" fill="none" xmlns="http://www.w3.org/2000/svg">
<path d="M26.4799 0H109.211C123.836 0 135.691 11.7378 135.691 26.2155V110.248C135.691 124.726 123.836 136.464 109.211 136.464H26.4799C11.8549 136.464 0 124.726 0 110.248V26.2155C0 11.7378 11.8549 0 26.4799 0Z" fill="url(#paint0_linear_462_183)"/>
<path d="M41.508 107.983C42.0019 108.683 42.5117 109.226 43.0412 109.609C43.5786 109.996 44.2662 110.188 45.1119 110.188C45.511 110.188 45.8943 110.125 46.2657 110C46.6451 109.867 46.9494 109.672 47.1825 109.421C47.4236 109.171 47.5461 108.874 47.5461 108.53C47.5461 107.948 47.2932 107.491 46.7874 107.154C46.2816 106.822 45.5624 106.568 44.6377 106.388C43.4759 106.162 42.5512 105.755 41.8557 105.169C41.1602 104.586 40.8125 103.738 40.8125 102.62C40.8125 101.913 41.0101 101.303 41.4131 100.791C41.8123 100.271 42.3378 99.8686 42.9938 99.5872C43.6577 99.2979 44.369 99.1494 45.1277 99.1494C46.1156 99.1494 46.9691 99.3448 47.6883 99.7279C48.4036 100.103 48.9608 100.643 49.3638 101.338L48.0045 102.652C47.6883 102.12 47.2813 101.694 46.7874 101.37C46.3013 101.037 45.7323 100.869 45.0803 100.869C44.4164 100.869 43.8553 101.022 43.4048 101.323C42.9622 101.628 42.7409 102.042 42.7409 102.573C42.7409 103.168 42.978 103.605 43.4522 103.887C43.9264 104.168 44.5468 104.395 45.3174 104.559C46.0207 104.696 46.6925 104.915 47.3248 105.216C47.957 105.509 48.4708 105.888 48.8738 106.357C49.2729 106.818 49.4745 107.381 49.4745 108.046C49.4745 109.226 49.0675 110.164 48.2574 110.86C47.4433 111.548 46.329 111.892 44.9064 111.892C43.9461 111.892 43.0649 111.704 42.2667 111.329C41.4764 110.954 40.7848 110.34 40.196 109.484L41.508 107.983Z" fill="#FFC468"/>
<path d="M54.7627 111.72H52.9133V104.2H50.9691V102.433H52.9133V100.057H54.7627V102.433H56.944V104.2H54.7627V111.72Z" fill="#FFC468"/>
<path d="M67.6329 107.062C67.6329 108.011 67.4195 108.852 67.0007 109.579C66.5778 110.298 66.0048 110.869 65.2777 111.283C64.5586 111.689 63.7524 111.893 62.8594 111.893C61.9623 111.893 61.1523 111.689 60.4252 111.283C59.6981 110.869 59.1172 110.298 58.6864 109.579C58.2636 108.852 58.0542 108.011 58.0542 107.062C58.0542 106.124 58.2636 105.291 58.6864 104.56C59.1172 103.833 59.6981 103.262 60.4252 102.856C61.1523 102.442 61.9623 102.23 62.8594 102.23C63.7524 102.23 64.5586 102.442 65.2777 102.856C66.0048 103.262 66.5778 103.833 67.0007 104.56C67.4195 105.291 67.6329 106.124 67.6329 107.062ZM65.7519 107.062C65.7598 106.436 65.6334 105.889 65.3726 105.42C65.1197 104.943 64.7719 104.572 64.3294 104.31C63.8947 104.04 63.4047 103.903 62.8594 103.903C62.3101 103.903 61.8082 104.04 61.3577 104.31C60.9152 104.572 60.5595 104.943 60.2987 105.42C60.0458 105.889 59.9233 106.436 59.9351 107.062C59.9233 107.679 60.0458 108.226 60.2987 108.703C60.5595 109.184 60.9152 109.559 61.3577 109.829C61.8082 110.103 62.3101 110.235 62.8594 110.235C63.4047 110.235 63.8947 110.103 64.3294 109.829C64.7719 109.559 65.1197 109.184 65.3726 108.703C65.6334 108.226 65.7598 107.679 65.7519 107.062Z" fill="#FFC468"/>
<path d="M70.8103 107.062C70.8103 107.679 70.9446 108.226 71.2213 108.703C71.5058 109.184 71.8772 109.563 72.3435 109.845C72.8059 110.118 73.2959 110.251 73.8135 110.251C74.4142 110.251 74.9358 110.103 75.3784 109.798C75.821 109.485 76.1766 109.164 76.4532 108.828L77.4648 110.079C77.2435 110.392 76.9314 110.689 76.5322 110.97C76.141 111.244 75.6945 111.467 75.1887 111.643C74.6908 111.807 74.1692 111.893 73.6238 111.893C72.7584 111.893 71.98 111.686 71.2845 111.267C70.5969 110.841 70.0555 110.263 69.6564 109.532C69.2533 108.793 69.0558 107.968 69.0558 107.062C69.0558 106.147 69.2533 105.326 69.6564 104.607C70.0555 103.88 70.5969 103.301 71.2845 102.871C71.98 102.445 72.7584 102.23 73.6238 102.23C74.4972 102.23 75.2717 102.41 75.9474 102.762C76.631 103.106 77.1368 103.556 77.4648 104.107L76.4532 105.342C76.1766 104.947 75.7893 104.607 75.2835 104.326C74.7777 104.036 74.2798 103.888 73.7977 103.888C73.2366 103.888 72.7308 104.028 72.2803 104.31C71.8259 104.583 71.4663 104.959 71.2055 105.436C70.9407 105.905 70.8103 106.448 70.8103 107.062Z" fill="#FFC468"/>
<path d="M79.2206 111.72V98.6182H81.0542V106.592L85.2903 102.433H87.7877L83.3777 106.514L87.9142 111.72H85.5432L82.0816 107.718L81.0542 108.671V111.72H79.2206Z" fill="#FFC468"/>
<path d="M94.8081 104.873C94.4683 104.54 94.085 104.271 93.6542 104.06C93.2314 103.841 92.8402 103.731 92.4846 103.731C92.2396 103.731 91.9946 103.763 91.7417 103.825C91.4967 103.888 91.2912 103.997 91.1252 104.154C90.9671 104.31 90.8881 104.544 90.8881 104.857C90.896 105.287 91.0857 105.588 91.4571 105.764C91.8365 105.932 92.3028 106.088 92.8639 106.233C93.3579 106.37 93.836 106.538 94.3023 106.733C94.7647 106.921 95.148 107.202 95.4562 107.578C95.7605 107.945 95.9146 108.465 95.9146 109.141C95.9146 109.716 95.7447 110.212 95.4088 110.626C95.0808 111.033 94.658 111.346 94.1442 111.564C93.6266 111.783 93.0852 111.893 92.5162 111.893C91.8286 111.893 91.1568 111.772 90.4929 111.533C89.8291 111.295 89.264 110.876 88.8016 110.282L90.0662 109.219C90.3823 109.587 90.7458 109.872 91.1568 110.079C91.5678 110.29 92.0736 110.392 92.6742 110.392C92.8955 110.392 93.1168 110.357 93.3381 110.282C93.5673 110.2 93.7649 110.075 93.923 109.907C94.0889 109.743 94.1759 109.508 94.1759 109.204C94.1759 108.922 94.085 108.703 93.9072 108.547C93.7372 108.391 93.512 108.262 93.2275 108.156C92.943 108.054 92.6268 107.961 92.2791 107.875C91.7614 107.742 91.2556 107.57 90.7617 107.359C90.2637 107.151 89.8528 106.858 89.5287 106.483C89.2008 106.1 89.0387 105.572 89.0387 104.904C89.0387 104.353 89.1968 103.88 89.5129 103.481C89.8291 103.086 90.24 102.778 90.7458 102.559C91.2596 102.34 91.8128 102.23 92.4055 102.23C92.9627 102.23 93.5673 102.352 94.2233 102.59C94.8872 102.832 95.4285 103.208 95.8513 103.716L94.8081 104.873Z" fill="#FFC468"/>
<path d="M46.9246 62.8672H58.7044V87.3238H46.9246V62.8672Z" fill="#FFC468"/>
<path d="M64.5892 51.6729H76.3651V87.3239H64.5892V51.6729Z" fill="#FFC468"/>
<path d="M82.2579 37.7148H94.0337V87.3238H82.2579V37.7148Z" fill="#FFC468"/>
<path d="M98.8729 88.3558H41.3529C40.7721 88.3558 40.3058 87.8945 40.3058 87.3239C40.3058 86.7571 40.7721 86.292 41.3529 86.292H98.8729C99.4538 86.292 99.9201 86.7571 99.9201 87.3239C99.9201 87.8945 99.4538 88.3558 98.8729 88.3558Z" fill="#FFC468"/>
<path d="M37.5658 64.5714C37.3287 64.5714 37.0877 64.4932 36.8901 64.329C36.4475 63.9616 36.3922 63.3089 36.7676 62.875L45.2834 52.9391C45.6193 52.5483 46.1962 52.4584 46.6388 52.732L51.195 55.5384L63.7889 40.7128C64.1168 40.3297 64.678 40.232 65.1166 40.4861L70.2458 43.4332L86.163 24.7849C86.5344 24.3511 87.1944 24.2924 87.6369 24.6598C88.0795 25.0273 88.1348 25.68 87.7634 26.1139L71.2811 45.4267C70.9532 45.8097 70.392 45.9074 69.9534 45.6534L64.8281 42.7062L52.2145 57.5514C51.8786 57.9461 51.3017 58.036 50.8591 57.7663L46.295 54.956L38.368 64.2039C38.1586 64.4463 37.8622 64.5714 37.5658 64.5714Z" fill="#FFC468"/>
<path d="M93.0195 18.6328L88.7122 31.8246L86.6297 26.1218L80.5719 25.0782L93.0195 18.6328Z" fill="#FFC468"/>
<defs>
<linearGradient id="paint0_linear_462_183" x1="121.452" y1="126.16" x2="1.39522" y2="-1.31404" gradientUnits="userSpaceOnUse">
<stop/>
<stop offset="1" stop-color="#707070"/>
</linearGradient>
</defs>
</svg>
