<svg xmlns="http://www.w3.org/2000/svg" xmlns:xlink="http://www.w3.org/1999/xlink" width="900" zoomAndPan="magnify" viewBox="0 0 675 1199.999942" height="1600" preserveAspectRatio="xMidYMid meet" version="1.0"><defs><clipPath id="f480c02f70"><path d="M 23 206 L 649 206 L 649 926 L 23 926 Z M 23 206 " clip-rule="nonzero"/></clipPath><clipPath id="2e02f08c1e"><path d="M -156.148438 658.488281 L 340.300781 187.964844 L 763.875 634.878906 L 267.421875 1105.402344 Z M -156.148438 658.488281 " clip-rule="nonzero"/></clipPath><clipPath id="6180d5debc"><path d="M -156.148438 658.488281 L 340.300781 187.964844 L 763.875 634.878906 L 267.421875 1105.402344 Z M -156.148438 658.488281 " clip-rule="nonzero"/></clipPath></defs><g clip-path="url(#f480c02f70)"><g clip-path="url(#2e02f08c1e)"><g clip-path="url(#6180d5debc)"><path fill="#ffffff" d="M 637.441406 753.769531 C 635.816406 755.308594 634.0625 756.671875 632.171875 757.859375 C 630.28125 759.050781 628.292969 760.046875 626.207031 760.84375 C 624.117188 761.644531 621.972656 762.230469 619.773438 762.609375 C 617.570312 762.984375 615.351562 763.140625 613.117188 763.082031 L 411.773438 757.671875 L 426.824219 887.730469 C 427.007812 889.265625 427.082031 890.808594 427.050781 892.355469 C 427.019531 893.902344 426.886719 895.441406 426.644531 896.96875 C 426.40625 898.5 426.0625 900.003906 425.617188 901.484375 C 425.171875 902.96875 424.628906 904.414062 423.984375 905.820312 C 423.34375 907.226562 422.605469 908.585938 421.78125 909.890625 C 420.953125 911.199219 420.039062 912.445312 419.042969 913.628906 C 418.042969 914.8125 416.96875 915.921875 415.820312 916.957031 C 414.671875 917.992188 413.457031 918.945312 412.179688 919.816406 C 410.898438 920.6875 409.566406 921.46875 408.183594 922.15625 C 406.796875 922.847656 405.371094 923.4375 403.90625 923.933594 C 402.4375 924.425781 400.945312 924.820312 399.425781 925.109375 C 397.90625 925.398438 396.371094 925.585938 394.828125 925.667969 C 393.28125 925.75 391.738281 925.726562 390.195312 925.597656 C 388.652344 925.46875 387.128906 925.234375 385.617188 924.898438 C 384.105469 924.5625 382.625 924.121094 381.175781 923.582031 C 379.722656 923.042969 378.316406 922.410156 376.953125 921.679688 L 199.542969 826.875 L 67.398438 867.023438 C 65.832031 867.5 64.234375 867.859375 62.617188 868.105469 C 60.996094 868.351562 59.367188 868.480469 57.726562 868.488281 C 56.089844 868.5 54.457031 868.394531 52.835938 868.167969 C 51.210938 867.941406 49.613281 867.601562 48.039062 867.144531 C 46.464844 866.691406 44.929688 866.121094 43.4375 865.445312 C 41.945312 864.769531 40.511719 863.988281 39.132812 863.101562 C 37.75 862.21875 36.441406 861.238281 35.203125 860.164062 C 33.964844 859.089844 32.8125 857.933594 31.742188 856.691406 C 30.671875 855.449219 29.695312 854.140625 28.8125 852.757812 C 27.929688 851.375 27.152344 849.9375 26.480469 848.445312 C 25.804688 846.949219 25.242188 845.414062 24.789062 843.839844 C 24.335938 842.265625 24 840.664062 23.78125 839.042969 C 23.558594 837.417969 23.457031 835.785156 23.46875 834.148438 C 23.484375 832.507812 23.617188 830.878906 23.867188 829.261719 C 24.117188 827.640625 24.480469 826.046875 24.960938 824.480469 C 25.441406 822.914062 26.03125 821.390625 26.730469 819.910156 L 307.414062 225.609375 C 308.074219 224.207031 308.832031 222.855469 309.679688 221.554688 C 310.527344 220.253906 311.460938 219.019531 312.476562 217.84375 C 313.496094 216.671875 314.589844 215.574219 315.757812 214.550781 C 316.925781 213.527344 318.15625 212.589844 319.453125 211.734375 C 320.75 210.882812 322.097656 210.121094 323.496094 209.449219 C 324.898438 208.78125 326.339844 208.210938 327.816406 207.738281 C 329.296875 207.261719 330.800781 206.894531 332.328125 206.628906 C 333.859375 206.359375 335.398438 206.199219 336.953125 206.144531 C 338.503906 206.085938 340.050781 206.136719 341.597656 206.292969 C 343.140625 206.449219 344.667969 206.710938 346.179688 207.074219 C 347.6875 207.441406 349.164062 207.90625 350.609375 208.472656 C 352.054688 209.039062 353.457031 209.703125 354.8125 210.460938 C 356.164062 211.222656 357.460938 212.070312 358.703125 213.003906 C 359.941406 213.941406 361.109375 214.957031 362.210938 216.054688 C 363.308594 217.148438 364.328125 218.316406 365.269531 219.550781 C 366.210938 220.789062 367.0625 222.082031 367.824219 223.433594 L 643.660156 712.347656 C 644.125 713.167969 644.550781 714.007812 644.945312 714.859375 C 645.335938 715.714844 645.695312 716.585938 646.015625 717.46875 C 646.335938 718.355469 646.617188 719.25 646.867188 720.15625 C 647.113281 721.066406 647.320312 721.984375 647.492188 722.90625 C 647.660156 723.832031 647.792969 724.761719 647.886719 725.699219 C 647.980469 726.636719 648.035156 727.574219 648.050781 728.515625 C 648.066406 729.453125 648.042969 730.394531 647.980469 731.332031 C 647.917969 732.269531 647.816406 733.203125 647.675781 734.136719 C 647.539062 735.066406 647.359375 735.988281 647.144531 736.902344 C 646.925781 737.816406 646.671875 738.722656 646.382812 739.617188 C 646.089844 740.511719 645.765625 741.390625 645.398438 742.257812 C 645.035156 743.125 644.636719 743.976562 644.199219 744.808594 C 643.765625 745.644531 643.296875 746.457031 642.796875 747.253906 C 642.292969 748.046875 641.757812 748.820312 641.191406 749.570312 C 640.625 750.320312 640.03125 751.046875 639.402344 751.75 C 638.777344 752.449219 638.121094 753.125 637.441406 753.769531 Z M 374.953125 688.574219 L 554.851562 693.417969 L 340.808594 314.226562 L 121.070312 779.574219 L 193.300781 757.589844 C 195.441406 756.945312 197.621094 756.515625 199.839844 756.300781 C 202.0625 756.085938 204.285156 756.085938 206.507812 756.308594 C 208.726562 756.53125 210.90625 756.96875 213.042969 757.617188 C 215.175781 758.269531 217.230469 759.121094 219.199219 760.175781 L 351.773438 830.972656 L 343.078125 755.785156 L 324.472656 755.273438 C 323.359375 755.242188 322.25 755.15625 321.140625 755.019531 C 320.035156 754.878906 318.941406 754.683594 317.855469 754.4375 C 316.765625 754.191406 315.695312 753.890625 314.636719 753.539062 C 313.578125 753.1875 312.542969 752.785156 311.523438 752.332031 C 310.507812 751.875 309.511719 751.375 308.546875 750.820312 C 307.578125 750.269531 306.636719 749.671875 305.726562 749.027344 C 304.816406 748.382812 303.941406 747.699219 303.101562 746.96875 C 302.257812 746.238281 301.453125 745.46875 300.6875 744.660156 C 299.917969 743.851562 299.195312 743.003906 298.511719 742.125 C 297.828125 741.246094 297.1875 740.332031 296.59375 739.390625 C 296 738.449219 295.453125 737.476562 294.953125 736.480469 C 294.453125 735.484375 294.007812 734.464844 293.605469 733.425781 C 293.207031 732.386719 292.859375 731.328125 292.566406 730.253906 C 292.269531 729.175781 292.03125 728.089844 291.839844 726.992188 C 291.652344 725.894531 291.519531 724.789062 291.4375 723.675781 C 291.359375 722.566406 291.335938 721.453125 291.363281 720.339844 L 296.5 527.882812 C 296.550781 526.78125 296.652344 525.683594 296.808594 524.59375 C 296.960938 523.503906 297.171875 522.421875 297.429688 521.351562 C 297.691406 520.28125 298 519.222656 298.363281 518.183594 C 298.726562 517.140625 299.140625 516.121094 299.601562 515.121094 C 300.0625 514.121094 300.574219 513.144531 301.128906 512.191406 C 301.6875 511.242188 302.289062 510.320312 302.933594 509.425781 C 303.582031 508.535156 304.269531 507.675781 305 506.847656 C 305.730469 506.023438 306.496094 505.234375 307.304688 504.484375 C 308.109375 503.730469 308.949219 503.019531 309.828125 502.351562 C 310.703125 501.683594 311.609375 501.058594 312.542969 500.476562 C 313.480469 499.894531 314.441406 499.359375 315.429688 498.871094 C 316.417969 498.382812 317.429688 497.945312 318.460938 497.554688 C 319.492188 497.164062 320.539062 496.828125 321.601562 496.539062 C 322.667969 496.25 323.742188 496.015625 324.828125 495.832031 C 325.914062 495.648438 327.007812 495.515625 328.109375 495.441406 C 329.207031 495.363281 330.308594 495.339844 331.410156 495.367188 C 332.511719 495.398438 333.609375 495.480469 334.703125 495.617188 C 335.796875 495.753906 336.882812 495.941406 337.957031 496.183594 C 339.035156 496.425781 340.09375 496.71875 341.140625 497.066406 C 342.1875 497.410156 343.21875 497.804688 344.226562 498.25 C 345.234375 498.695312 346.21875 499.1875 347.179688 499.726562 C 348.140625 500.265625 349.074219 500.851562 349.976562 501.484375 C 350.882812 502.113281 351.753906 502.789062 352.589844 503.503906 C 353.429688 504.21875 354.230469 504.972656 354.996094 505.765625 C 355.761719 506.5625 356.488281 507.390625 357.171875 508.253906 C 357.855469 509.117188 358.5 510.011719 359.097656 510.9375 C 359.695312 511.867188 360.246094 512.816406 360.75 513.796875 C 361.257812 514.777344 361.710938 515.78125 362.121094 516.804688 C 362.527344 517.828125 362.886719 518.871094 363.191406 519.929688 C 363.5 520.988281 363.753906 522.058594 363.957031 523.140625 C 364.160156 524.226562 364.308594 525.316406 364.40625 526.414062 C 364.5 527.511719 364.546875 528.613281 364.535156 529.714844 L 360.28125 688.179688 L 373.859375 688.554688 Z M 374.953125 688.574219 " fill-opacity="1" fill-rule="nonzero"/></g></g></g></svg>