<svg width="505" height="505" viewBox="0 0 505 505" fill="none" xmlns="http://www.w3.org/2000/svg">
<path d="M475.957 49.0169C475.91 48.4807 475.859 47.9133 475.816 47.2997H469.533C443.74 47.3144 418.006 46.2281 392.359 43.2039C362.074 39.6366 332.42 33.2948 303.984 22.2552C292.075 17.6184 280.373 12.4717 268.467 7.23522C262.996 4.82884 257.481 2.4035 251.884 0C251.319 0.278809 250.741 0.564121 250.152 0.855059C246.055 2.87727 241.407 5.1713 236.749 7.44289C195.762 27.3199 152.514 39.299 107.269 44.0994C83.8101 46.5804 60.2484 47.4318 36.6572 47.2997C35.0933 47.2899 33.5294 47.2932 31.9964 47.2965C31.2414 47.2981 30.4939 47.2997 29.7575 47.2997C29.6709 47.9289 29.5889 48.4106 29.5221 48.8027C29.419 49.4078 29.3522 49.7998 29.3611 50.1917C30.1686 84.5288 31.6806 118.822 35.4388 152.997C38.3565 179.662 42.511 203.076 48.537 229.16C52.1677 229.812 55.7652 230.449 59.3307 231.071C52.9503 203.646 48.1858 178.939 44.8635 150.942C41.3255 121.185 39.329 91.3404 38.595 61.3927C38.5644 60.3611 38.5693 59.3224 38.5751 58.0886C38.5776 57.5492 38.5803 56.9724 38.5803 56.3427C39.5959 56.3427 40.5787 56.3437 41.5374 56.3446C44.3203 56.3474 46.9 56.3499 49.4877 56.3281C93.6899 55.9611 137.334 51.3368 179.966 39.0494C203.263 32.3406 225.739 23.5031 247.289 12.3901C251.165 10.3936 254.086 10.2028 258.138 12.2727C297.642 32.5314 339.51 45.2004 383.492 51.1753C409.506 54.6985 435.622 56.4308 461.855 56.3427C462.855 56.3329 463.854 56.3362 464.849 56.3395C465.345 56.3411 465.84 56.3427 466.333 56.3427C466.333 59.2097 466.385 62.0303 466.437 64.8169C466.547 70.763 466.655 76.5546 466.245 82.3121C465.983 85.9603 465.727 89.6092 465.47 93.2582C464.03 113.763 462.589 134.27 460.197 154.671C457.051 181.487 452.753 205.066 446.513 231.185C449.945 230.56 453.403 229.92 456.891 229.265C460.304 214.762 463.109 203.095 465.437 188.303C472.543 143.191 475.391 97.7263 476.125 52.1002C476.144 51.1177 476.057 50.1353 475.957 49.0169Z" fill="white"/>
<path d="M433.133 307.576C429.59 308.235 426.092 308.878 422.638 309.505C405.874 348.163 381.622 379.873 352.165 410.092C322.658 440.334 289.348 465.921 254.673 489.85C254.336 490.075 253.963 490.252 253.481 490.48C253.208 490.61 252.9 490.756 252.545 490.936C216.563 466.215 182.476 439.878 152.176 408.844C122.717 378.671 99.741 347.901 83.1157 310.538C79.5036 309.876 75.8446 309.196 72.136 308.498C89.2942 348.244 112.997 381.341 143.984 413.395C176.604 447.145 213.774 475.287 252.824 502.137C287.704 478.062 321.189 453.076 351.24 423.73C386.172 389.602 413.896 352.536 433.133 307.576Z" fill="white"/>
<path d="M454.075 69.4673C453.848 73.6883 453.676 77.8287 453.507 81.9102C453.141 90.7463 452.786 99.3067 451.903 107.812L451.62 110.547L451.62 110.55C449.117 134.801 446.613 159.072 442.962 183.166C440.229 201.189 436.856 216.063 432.523 233.68C426.081 234.803 419.731 235.871 413.462 236.885C413.806 232.572 413.981 231.212 413.981 226.81C413.981 137.221 341.354 64.5939 251.764 64.5939C162.175 64.5939 89.5478 137.221 89.5478 226.81C89.5478 230.968 89.7042 232.089 90.0115 236.168C84.4973 235.3 78.9086 234.393 73.2396 233.446C65.5261 201.95 60.0287 173.054 56.9457 140.769C55.4366 125.037 54.3423 109.276 53.2478 93.5109C52.7878 86.8861 52.3278 80.2606 51.837 73.6365C51.7821 72.9682 51.7956 72.2885 51.8137 71.3873C51.8245 70.8434 51.837 70.2188 51.837 69.4673C52.6815 69.4673 53.5074 69.4724 54.3206 69.4773H54.3217C55.9113 69.487 57.452 69.4965 58.9863 69.4673C114.243 68.4544 167.972 59.3086 219.588 39.1526C228.3 35.7547 236.801 31.7898 245.294 27.8288L245.297 27.8273C246.563 27.2368 247.829 26.6463 249.095 26.0579C251.723 24.8247 253.749 24.6486 256.435 25.9992C298.127 46.9919 342.52 59.1618 388.602 65.0926C402.332 66.861 416.189 67.6162 430.047 68.3714C436.205 68.7071 442.364 69.0427 448.512 69.4673C449.453 69.5319 450.4 69.5153 451.611 69.4941C452.324 69.4816 453.128 69.4675 454.075 69.4673Z" fill="white"/>
<path d="M98.6138 313.321C107.549 332.301 118.32 347.421 131.272 364.525C154.834 395.633 182.711 422.439 213.378 446.382C222.294 453.356 231.403 460.08 240.435 466.748L240.437 466.749C244.372 469.654 248.293 472.549 252.178 475.449C252.678 475.185 253.075 474.988 253.404 474.824C253.935 474.56 254.289 474.384 254.615 474.157C285.855 452.621 315.523 429.162 342.095 401.96C368.629 374.773 391.027 346.657 407.139 312.258C400.967 313.33 394.932 314.346 389.021 315.307C360.288 360.807 309.555 389.027 251.764 389.027C193.845 389.027 143.016 361.672 114.316 316.003C109.177 315.151 103.946 314.256 98.6138 313.321Z" fill="white"/>
<path fill-rule="evenodd" clip-rule="evenodd" d="M406.416 237.572C406.803 233.105 407 231.568 407 227C407 141.459 337.541 72 252 72C166.459 72 97 141.459 97 227C97 231.507 97.1925 232.986 97.5696 237.396C101.102 237.951 104.603 238.488 108.075 239.008C107.736 235.705 107.509 235.354 107.398 231.991H145.663C145.788 237.128 146.127 239.217 146.665 244.22C150.216 244.644 153.74 245.047 157.238 245.43C156.612 239.993 156.246 237.49 156.199 232.13H197.653C197.653 238.524 197.944 242.299 198.49 249.104C202.004 249.341 205.498 249.555 208.976 249.748C208.408 242.986 208.061 239.109 207.912 232.13H246.87V250.997C250.252 251.03 253.624 251.042 256.991 251.032V232.13H295.949C295.874 239.204 295.512 243.172 294.91 250.024C298.384 249.849 301.862 249.652 305.345 249.433C305.908 242.516 306.208 238.627 306.208 232.13H347.801C347.704 237.626 347.289 240.272 346.614 245.844C350.108 245.46 353.618 245.055 357.145 244.63C357.713 239.476 358.069 237.246 358.199 231.991H396.463C396.35 235.444 396.113 235.884 395.759 239.273C399.286 238.725 402.837 238.158 406.416 237.572ZM197.514 222.009H156.061C156.338 206.204 159.25 189.29 163.27 175.842C175.332 178.753 187.809 181.11 200.564 182.774C198.623 195.667 197.514 209.531 197.514 222.009ZM186.562 110.958C182.403 109.017 178.382 106.937 174.777 104.719C185.175 98.203 196.544 92.7961 208.467 89.0528C200.564 95.5689 193.217 102.917 186.562 110.958ZM107.537 222.009C108.23 200.936 113.36 180.971 122.233 163.087L122.51 162.948C132.492 166.83 142.751 170.296 153.565 173.208C148.99 188.597 146.217 205.095 145.801 222.009H107.537ZM165.35 111.235C169.786 114.008 174.777 116.781 180.046 119.415C170.895 131.754 162.854 146.173 156.477 163.503C146.079 160.73 136.651 157.541 127.085 153.936C136.513 137.577 151.902 121.217 165.35 111.235ZM189.612 123.713C196.96 126.902 204.724 129.397 212.626 131.338C208.744 142.152 204.308 159.898 202.367 172.376C190.028 170.851 178.243 168.771 166.736 165.998C172.42 150.609 180.184 136.329 189.612 123.713ZM196.267 115.256C207.219 102.64 219.697 91.9642 233.977 83.7844C227.183 95.5689 221.222 107.908 216.092 121.495C208.467 119.554 202.783 117.751 196.267 115.256ZM246.87 125.515C240.77 125.377 232.729 124.683 226.49 123.574C231.204 111.097 238.829 95.0143 246.87 82.814V125.515ZM212.626 173.623C214.706 160.869 219.004 144.509 222.886 133.418C229.263 134.804 238.968 135.775 246.87 135.913V175.564C237.166 175.564 221.499 174.733 212.626 173.623ZM303.158 182.774C316.052 181.11 328.391 178.753 340.453 175.842C344.612 189.29 347.523 206.204 347.801 222.009H306.208C306.208 209.531 305.099 195.667 303.158 182.774ZM317.3 110.958C310.645 102.917 303.297 95.5689 295.394 89.0528C307.456 92.7961 318.825 98.203 329.084 104.719C325.479 106.937 321.459 109.017 317.3 110.958ZM350.435 173.346C361.249 170.296 371.647 166.969 381.49 163.087L381.767 163.225C390.502 181.11 395.77 201.074 396.463 222.148H358.199C357.783 205.095 355.01 188.735 350.435 173.346ZM337.264 166.137C325.757 168.771 313.972 170.989 301.633 172.514C299.692 159.898 295.117 142.152 291.374 131.477C299.276 129.397 307.04 126.902 314.388 123.852C323.816 136.468 331.58 150.748 337.264 166.137ZM287.769 121.495C282.778 107.908 276.817 95.5689 269.885 83.7844C284.165 91.9642 296.781 102.64 307.595 115.256C301.079 117.751 295.256 119.554 287.769 121.495ZM257.13 125.515V82.814C265.032 95.0143 272.796 111.097 277.51 123.574C271.271 124.683 263.368 125.377 257.13 125.515ZM257.13 175.564V135.913C265.032 135.775 274.598 134.804 281.115 133.418C284.996 144.509 289.294 160.869 291.374 173.623C282.501 174.733 266.834 175.564 257.13 175.564ZM347.385 163.503C341.007 146.173 333.105 131.754 323.954 119.415C329.223 116.92 334.214 114.008 338.512 111.235C352.098 121.356 367.488 137.577 376.776 153.936C367.21 157.68 357.783 160.73 347.385 163.503ZM246.87 222.009H207.912C208.19 208.977 209.16 196.36 210.962 184.021C222.886 185.269 233.977 185.962 246.87 186.101V222.009ZM257.13 186.101C270.023 185.962 281.114 185.269 293.038 184.021C294.701 196.36 295.81 208.977 296.088 222.009H257.13V186.101Z" fill="white"/>
<path fill-rule="evenodd" clip-rule="evenodd" d="M380.364 316.914C375.459 317.713 370.64 318.473 365.9 319.192C357.528 329.678 347.654 336.22 338.65 342.903C334.214 340.131 329.223 337.219 323.954 334.724C327.228 330.309 330.343 328.628 333.291 323.642C328.872 324.171 324.513 324.66 320.204 325.108C318.345 327.953 316.404 328.728 314.388 330.426C308.692 328.954 302.746 328.899 296.679 327.195C265.791 329.434 236.862 329.467 206.476 327.336C200.654 329.05 194.948 328.014 189.473 330.287C187.553 327.717 185.702 328.084 183.923 325.389C179.629 324.952 175.291 324.475 170.902 323.957C173.789 328.825 176.841 330.402 180.046 334.724C174.777 337.219 169.786 340.131 165.488 342.903C156.51 336.215 146.805 329.863 138.534 319.568C133.727 318.84 128.843 318.069 123.874 317.256C151.766 358.14 198.72 382 252 382C305.369 382 352.478 358.017 380.364 316.914ZM186.562 343.042C193.217 351.083 200.564 358.431 208.467 364.947C196.544 361.204 185.175 355.936 174.777 349.281C178.382 347.063 182.403 344.983 186.562 343.042ZM216.092 332.644C221.222 346.231 227.045 358.57 233.977 370.354C219.697 362.174 207.219 351.499 196.267 338.883C202.783 336.387 208.606 334.585 216.092 332.644ZM246.87 328.623V371.325C238.829 358.986 231.204 343.042 226.49 330.564C232.729 329.455 240.632 328.762 246.87 328.623ZM317.438 343.181C321.597 345.122 325.618 347.201 329.223 349.419C318.825 355.936 307.456 361.204 295.533 365.086C303.436 358.57 310.783 351.222 317.438 343.181ZM307.595 338.883C296.642 351.499 284.165 362.174 269.885 370.354C276.817 358.57 282.778 346.092 287.769 332.644C295.394 334.585 301.079 336.387 307.595 338.883ZM257.13 328.623C263.23 328.623 271.271 329.455 277.51 330.564C272.796 343.042 265.032 358.986 257.13 371.325V328.623Z" fill="white"/>
<path d="M254.604 285.868C253.607 286.367 252.36 286.616 250.864 286.616H243.86V271.52H250.932C252.655 271.52 254.015 271.815 255.012 272.404C256.055 272.993 256.825 273.719 257.324 274.58C257.823 275.441 258.14 276.303 258.276 277.164C258.457 277.98 258.548 278.66 258.548 279.204C258.548 279.929 258.412 280.723 258.14 281.584C257.913 282.4 257.505 283.193 256.916 283.964C256.372 284.735 255.601 285.369 254.604 285.868Z" fill="white"/>
<path fill-rule="evenodd" clip-rule="evenodd" d="M476 231C310.623 262.117 213.221 264.187 29 231L46.1211 298.533C217.428 330.748 282.892 331.561 459.804 298.533L476 231ZM165.68 258.268L132.806 254.688L131.795 263.966L143.195 265.208L138.893 304.71L148.504 305.757L152.805 266.255L164.669 267.547L165.68 258.268ZM331 259.5C335.574 259.209 337.917 258.96 342 258.5L354.148 284.281L359.223 265.787L354.565 257.187L363.66 256.136L377.163 280.867L382 254L392 252.5L379.461 303.149L364.981 276.417L355.536 306.041L331 259.5ZM257.528 263.224C255.08 262.408 252.292 262 249.164 262H234V312.048H243.86V296.136H250.598L260.996 312.048H272.488L260.541 294.048C262.267 293.099 263.688 291.936 264.804 290.56C266.209 288.883 267.207 287.024 267.796 284.984C268.431 282.944 268.748 280.904 268.748 278.864C268.748 276.28 268.317 273.968 267.456 271.928C266.595 269.843 265.325 268.075 263.648 266.624C262.016 265.128 259.976 263.995 257.528 263.224Z" fill="white"/>
</svg>
