<svg width="136" height="137" viewBox="0 0 136 137" fill="none" xmlns="http://www.w3.org/2000/svg">
<path d="M26.4799 0H109.211C123.836 0 135.691 11.7378 135.691 26.2155V110.248C135.691 124.726 123.836 136.464 109.211 136.464H26.4799C11.8549 136.464 0 124.726 0 110.248V26.2155C0 11.7378 11.8549 0 26.4799 0Z" fill="url(#paint0_linear_585_891)"/>
<path d="M19.1637 115.808L17.91 112.524H12.3459L11.0921 115.808H9L14.1486 102.584H16.2333L21.3449 115.808H19.1637ZM14.1115 107.912L13.1026 110.554H17.1681L16.122 107.839C15.9588 107.396 15.7919 106.922 15.625 106.414C15.4618 105.903 15.2986 105.389 15.1353 104.872C14.9573 105.4 14.7811 105.927 14.6086 106.459C14.4398 106.986 14.2748 107.47 14.1115 107.912Z" fill="#FFC468"/>
<path d="M28.2579 105.721C29.0776 105.721 29.7361 105.909 30.2313 106.281C30.7246 106.65 31.0789 107.158 31.2922 107.802C31.4702 107.488 31.7299 107.171 32.0711 106.85C32.4161 106.525 32.8167 106.258 33.273 106.045C33.7274 105.83 34.2152 105.721 34.7345 105.721C35.5951 105.721 36.2646 105.909 36.745 106.281C37.2235 106.65 37.5629 107.149 37.7613 107.772C37.9579 108.392 38.0581 109.089 38.0581 109.86V115.808H36.0847V109.971C36.0847 109.239 35.9437 108.647 35.6618 108.193C35.3836 107.741 34.8606 107.514 34.089 107.514C33.3509 107.514 32.7462 107.746 32.2714 108.207C31.7966 108.665 31.5592 109.222 31.5592 109.875V115.808H29.5858V109.934C29.5858 109.226 29.4319 108.647 29.1259 108.193C28.8235 107.741 28.3246 107.514 27.6273 107.514C27.1469 107.514 26.7166 107.623 26.3364 107.839C25.9543 108.051 25.6557 108.331 25.4387 108.68C25.2254 109.025 25.1197 109.41 25.1197 109.838V115.808H23.1463V105.89H25.1197V107.477C25.4257 107.025 25.8542 106.619 26.4032 106.259C26.9559 105.901 27.5753 105.721 28.2579 105.721Z" fill="#FFC468"/>
<path d="M49.9617 105.89V115.808H47.9883V114.281C47.6805 114.694 47.2316 115.085 46.6381 115.454C46.0446 115.817 45.3547 116 44.5683 116C43.7318 116 42.9677 115.779 42.2759 115.336C41.5878 114.893 41.0406 114.284 40.6363 113.506C40.2301 112.724 40.028 111.829 40.028 110.82C40.028 109.812 40.2357 108.921 40.6512 108.148C41.0703 107.372 41.6471 106.767 42.3797 106.333C43.116 105.901 43.9544 105.684 44.8947 105.684C45.5865 105.684 46.1948 105.837 46.7197 106.141C47.2483 106.442 47.6712 106.794 47.9883 107.197V105.89H49.9617ZM45.0282 114.199C45.631 114.199 46.1596 114.052 46.6159 113.757C47.0758 113.462 47.4319 113.061 47.6842 112.554C47.9364 112.043 48.0625 111.465 48.0625 110.82C48.0625 110.191 47.9364 109.624 47.6842 109.123C47.4319 108.617 47.0758 108.215 46.6159 107.92C46.1596 107.625 45.631 107.477 45.0282 107.477C44.444 107.477 43.9228 107.623 43.4629 107.912C43.0066 108.204 42.6542 108.602 42.402 109.108C42.1497 109.61 42.0236 110.181 42.0236 110.82C42.0236 111.465 42.1497 112.043 42.402 112.554C42.6542 113.061 43.0066 113.462 43.4629 113.757C43.9228 114.052 44.444 114.199 45.0282 114.199Z" fill="#FFC468"/>
<path d="M59.6679 114.126V115.808H52.2788V114.185L57.2568 107.573H52.2788V105.89H59.5492V107.477L54.5563 114.126H59.6679Z" fill="#FFC468"/>
<path d="M71.4409 110.842C71.4409 111.851 71.2146 112.742 70.7658 113.513C70.3151 114.286 69.7068 114.893 68.9408 115.336C68.1729 115.779 67.3161 116 66.3664 116C65.4168 116 64.5563 115.779 63.7847 115.336C63.0131 114.893 62.4011 114.286 61.9523 113.513C61.5016 112.742 61.2771 111.851 61.2771 110.842C61.2771 109.835 61.5016 108.944 61.9523 108.171C62.4011 107.394 63.0131 106.787 63.7847 106.348C64.5563 105.905 65.4168 105.684 66.3664 105.684C67.3161 105.684 68.1729 105.905 68.9408 106.348C69.7068 106.787 70.3151 107.394 70.7658 108.171C71.2146 108.944 71.4409 109.835 71.4409 110.842ZM69.4452 110.842C69.4601 110.174 69.3302 109.586 69.0595 109.078C68.7868 108.567 68.4159 108.169 67.9466 107.883C67.4756 107.599 66.9488 107.455 66.3664 107.455C65.7878 107.455 65.261 107.599 64.7862 107.883C64.3114 108.169 63.9368 108.567 63.666 109.078C63.3934 109.586 63.2617 110.174 63.2728 110.842C63.2617 111.497 63.3934 112.08 63.666 112.591C63.9368 113.098 64.3114 113.497 64.7862 113.786C65.261 114.078 65.7878 114.222 66.3664 114.222C66.9488 114.222 67.4756 114.078 67.9466 113.786C68.4159 113.497 68.7868 113.098 69.0595 112.591C69.3302 112.08 69.4601 111.497 69.4452 110.842Z" fill="#FFC468"/>
<path d="M78.7873 105.684C79.6868 105.684 80.3842 105.866 80.8794 106.23C81.3728 106.595 81.7177 107.086 81.9106 107.706C82.1072 108.322 82.2074 109.008 82.2074 109.765V115.808H80.2488V109.897C80.2488 109.416 80.1839 108.988 80.0559 108.613C79.9317 108.235 79.7165 107.94 79.4105 107.728C79.1082 107.512 78.6853 107.422 78.1419 107.455C77.6374 107.455 77.1867 107.564 76.7917 107.779C76.4003 107.997 76.0906 108.281 75.8643 108.635C75.6362 108.986 75.523 109.373 75.523 109.801V115.808H73.5645V105.89H75.523V107.455C75.8235 106.994 76.2668 106.582 76.851 106.222C77.4334 105.865 78.0788 105.684 78.7873 105.684Z" fill="#FFC468"/>
<path d="M90.678 115.808V102.584H99.2986V104.547H92.7256V108.215H98.4455V110.178H92.7256V115.808H90.678Z" fill="#FFC468"/>
<path d="M107.652 102.584C108.947 102.584 109.924 102.869 110.582 103.433C111.239 103.999 111.569 104.826 111.569 105.913C111.569 106.503 111.424 107.032 111.139 107.499C110.857 107.962 110.436 108.326 109.878 108.591C110.293 108.73 110.681 108.942 111.042 109.226C111.402 109.506 111.697 109.868 111.925 110.311C112.151 110.753 112.266 111.29 112.266 111.919C112.266 112.687 112.133 113.325 111.866 113.83C111.602 114.332 111.257 114.729 110.827 115.019C110.397 115.305 109.922 115.509 109.403 115.631C108.883 115.749 108.364 115.808 107.845 115.808H102.11V102.584H107.652ZM107.311 104.547H104.158V108.06H107.541C108.06 108.051 108.516 107.896 108.913 107.595C109.314 107.291 109.514 106.861 109.514 106.304C109.514 105.675 109.301 105.224 108.876 104.953C108.455 104.684 107.934 104.547 107.311 104.547ZM107.637 110.03H104.158V113.845H107.734C108.455 113.845 109.043 113.687 109.499 113.366C109.954 113.041 110.182 112.546 110.182 111.882C110.182 111.401 110.048 111.03 109.781 110.768C109.514 110.502 109.188 110.314 108.802 110.2C108.416 110.087 108.027 110.03 107.637 110.03Z" fill="#FFC468"/>
<path d="M123.819 115.808L122.565 112.524H117.001L115.747 115.808H113.655L118.804 102.584H120.888L126 115.808H123.819ZM118.767 107.912L117.758 110.554H121.823L120.777 107.839C120.614 107.396 120.447 106.922 120.28 106.414C120.117 105.903 119.954 105.389 119.79 104.872C119.612 105.4 119.436 105.927 119.264 106.459C119.095 106.986 118.93 107.47 118.767 107.912Z" fill="#FFC468"/>
<path d="M41.8597 36.4377C39.7867 35.3969 37.1106 37.139 37.0122 39.4659C36.7868 42.3087 36.5735 45.153 36.3602 47.9972C36.1469 50.8415 35.9337 53.6857 35.7083 56.5286C35.278 61.5336 35.8548 66.7323 37.9506 71.3167C39.2376 73.9842 41.2705 76.0591 43.3052 78.1359C44.5252 79.3811 45.7459 80.6271 46.8068 82.0018C47.7283 83.1291 48.228 84.4866 48.7267 85.8416C48.9748 86.5157 49.2226 87.1892 49.5221 87.8333C50.0989 88.562 51.5085 87.9717 51.2785 87.0142C50.4575 82.3752 47.228 79.0275 44.1037 75.7888C43.5578 75.223 43.0151 74.6605 42.4891 74.095C38.5701 70.0899 37.6149 64.1145 37.6836 58.6815C37.9689 54.2838 38.3115 49.888 38.654 45.4933C38.7968 43.6605 38.9396 41.8278 39.0783 39.9953C39.056 39.049 39.7961 38.0786 40.8069 38.2889C41.3577 38.6412 41.8455 39.2076 41.762 39.9252C41.8041 42.0713 41.7976 44.2181 41.7911 46.3643C41.783 49.028 41.7749 51.6908 41.8597 54.3507V36.4377Z" fill="#FFC468"/>
<path d="M93.8506 38.3728V36.1517C95.3572 36.3323 96.7706 37.5501 96.9672 39.1451C97.1624 40.9859 97.2901 42.8331 97.4179 44.6807C97.5063 45.9587 97.5947 47.2368 97.7054 48.5131C97.7816 49.9629 97.9102 51.4157 98.0389 52.8699C98.3799 56.7228 98.7218 60.5853 98.093 64.4265C97.57 67.6642 96.6426 70.9369 94.7082 73.6082C93.5453 75.2673 92.134 76.7028 90.7225 78.1385C89.4235 79.4597 88.1243 80.781 87.0186 82.277C86.2142 83.3474 85.7598 84.5993 85.3061 85.8493C85.0631 86.5188 84.8203 87.1878 84.524 87.828C83.9435 88.5678 82.5544 87.9996 82.738 87.0477C83.0792 85.3929 83.7488 83.8229 84.4981 82.3249C85.7428 80.1283 87.4892 78.3366 89.2345 76.5461C91.0832 74.6494 92.9308 72.754 94.1796 70.3797C96.1345 66.0905 96.626 61.2294 96.2179 56.5602C96.0219 54.1675 95.844 51.7732 95.666 49.3793C95.4247 46.1326 95.1835 42.8867 94.8974 39.6469C94.8935 38.9538 94.3921 38.6228 93.8506 38.3728Z" fill="#FFC468"/>
<path fill-rule="evenodd" clip-rule="evenodd" d="M78.8159 63.6458L68.4282 68.1414V38.4555L75.8355 35.1071L75.8874 49.9025C75.8915 50.5198 76.3979 51.0214 77.0185 51.0152C77.1741 51.0152 77.3236 50.9863 77.4647 50.9203L85.3119 47.5533C85.727 47.3799 85.9989 46.9773 85.9989 46.5252V30.71L91.5881 28.2967L91.5653 55.6136C91.6662 55.6606 91.7655 55.7103 91.863 55.7625C92.9241 56.3319 93.5577 57.2709 93.8212 58.3233V26.5874C93.8275 26.5482 93.8275 26.5131 93.8212 26.478C93.8275 26.414 93.8275 26.3479 93.8171 26.2901C93.8067 25.8421 93.5369 25.4437 93.1197 25.2765L68.0982 15.0867C67.8222 14.9711 67.5171 14.9711 67.2411 15.0867L42.2196 25.2703C41.7298 25.4602 41.433 25.9619 41.5181 26.478C41.5139 26.5131 41.5139 26.5482 41.5181 26.5874V56.5482C41.7993 56.2431 42.1379 55.9767 42.5369 55.7625C42.9241 55.5551 43.34 55.3882 43.771 55.2661L43.7616 28.3111L66.1702 38.2924V68.1166L54.2198 62.7933C55.5186 64.2611 56.7537 65.4372 57.9819 66.1138C58.2904 66.3507 58.6549 66.6176 59.0584 66.913C59.5527 67.2749 60.1056 67.6797 60.6851 68.1244L66.8364 70.8643L66.936 70.8932L67.0107 70.9241C67.1975 70.9778 67.3967 70.9778 67.5815 70.9241L67.6582 70.9035L67.7475 70.8684L73.8215 68.2423C74.7185 67.5446 75.6065 66.8488 76.4181 66.1138C77.2501 65.3203 78.0429 64.4919 78.8159 63.6458ZM52.1319 23.6518L74.1585 33.3586L67.5171 36.2611L45.4842 26.3686L52.1319 23.6518ZM67.6665 17.3307L89.8509 26.3686L84.7018 28.6745L63.0155 19.2237L67.6665 17.3307ZM83.6848 31.6905V45.7985L78.0853 48.1994L78.0894 34.1183L83.6848 31.6905ZM60.3299 20.5119L81.9207 29.9152L76.9541 32.1571L55.3613 22.6217L60.3299 20.5119Z" fill="#FFC468"/>
<path d="M43.1394 56.8977C44.5954 56.0693 46.6022 56.0693 47.8392 57.322C50.1873 59.7571 52.131 62.5797 54.5106 64.989C57.0219 67.4039 60.5272 69.2764 61.3396 72.9974C62.2317 77.4785 62.8289 82.0259 63.7674 86.5015C64.092 87.2449 63.6728 88.1655 62.8178 88.1618C61.9739 88.171 61.8014 87.2837 61.6642 86.6251C60.7331 82.3525 60.1934 77.9932 59.3439 73.7058C58.8561 71.1028 56.5712 69.5992 54.7313 68.009C51.467 65.4502 49.2599 61.8141 46.3777 58.8642C45.4764 57.9049 43.1431 58.6927 43.7348 60.2239C45.5283 64.1164 48.0488 67.6345 49.9406 71.4773C50.2707 72.6303 48.4791 73.2501 48.0229 72.1746C46.0365 68.8595 44.1484 65.4761 42.2306 62.1185C41.2105 60.4748 41.3422 57.9215 43.1394 56.8977Z" fill="#FFC468"/>
<path d="M86.7026 56.9143C88.535 55.6506 91.5712 56.4272 92.2982 58.665C92.7916 60.2276 92.0534 61.792 91.2614 63.0981C89.4679 66.107 87.8173 69.2081 85.9885 72.1894C85.5267 73.2391 83.7981 72.634 84.0708 71.5049C85.9626 67.6714 88.4516 64.1589 90.271 60.2884C90.935 58.7609 88.6296 57.8994 87.6856 58.831C84.783 61.7717 82.5814 65.417 79.3265 67.9924C77.5552 69.5347 75.3481 70.9533 74.7565 73.4162C73.7605 78.0909 73.3042 82.8782 72.1209 87.5087C71.8372 88.6267 69.8619 88.1249 70.1976 87.0162C71.0879 82.3469 71.7852 77.6353 72.6978 72.966C73.3413 69.9682 75.873 68.1049 78.0578 66.273C81.413 63.6276 83.531 59.7295 86.7026 56.9143Z" fill="#FFC468"/>
<defs>
<linearGradient id="paint0_linear_585_891" x1="121.452" y1="126.16" x2="1.39522" y2="-1.31404" gradientUnits="userSpaceOnUse">
<stop/>
<stop offset="1" stop-color="#707070"/>
</linearGradient>
</defs>
</svg>
