<svg width="30" height="31" viewBox="0 0 30 31" fill="none" xmlns="http://www.w3.org/2000/svg">
<path d="M29.4474 19.2676C29.8048 17.9697 30 16.604 30 15.1923C30 6.81524 23.2713 0 14.9999 0C9.78791 0 5.19056 2.70746 2.50107 6.80509C2.4392 6.88229 2.38843 6.96455 2.34591 7.05001C0.863326 9.40541 0 12.198 0 15.1923C0 23.5694 6.72873 30.3846 15.0001 30.3846C16.0542 30.3846 17.0827 30.2726 18.076 30.0622C18.0785 30.0615 18.081 30.0611 18.0835 30.0604C23.532 28.9028 27.8989 24.7408 29.4185 19.3712C29.4305 19.3373 29.4383 19.3022 29.4476 19.2674L29.4474 19.2676ZM15.0001 2.70647C15.8302 2.70647 16.641 2.79127 17.4255 2.9504C17.4167 2.96065 17.4078 2.97144 17.399 2.98168L17.2082 3.20491C17.032 3.41118 16.8206 3.62703 16.5965 3.85565C15.9947 4.46959 15.3126 5.16561 14.928 6.07383C14.2906 7.56253 14.4312 9.37742 15.3208 11.1795C15.5863 11.7228 15.6355 12.3979 15.4499 12.9416C15.3194 13.3235 15.0869 13.5974 14.7636 13.7535C14.1908 14.0274 12.9424 13.7126 12.1162 13.5047L11.8233 13.4315C10.1551 13.0215 9.05316 12.2139 8.01979 10.6437C7.44437 9.76941 6.77044 8.82508 5.75499 7.85221C5.6169 7.71742 5.4751 7.58769 5.33431 7.45653C7.59412 4.56624 11.0857 2.70638 15.0003 2.70638L15.0001 2.70647ZM19.0015 26.9993C18.9318 22.8094 19.6885 21.2486 20.1524 21.0158C20.8916 20.6414 22.3455 20.6444 23.7455 20.6436C24.4988 20.6439 25.3045 20.6444 26.1142 20.5919C24.693 23.5809 22.1293 25.909 19.0014 26.9995L19.0015 26.9993ZM27.063 17.7663C26.0325 17.9354 24.875 17.9369 23.7475 17.937C21.9589 17.9352 20.2613 17.9344 18.9611 18.5929C17.0375 19.5594 16.179 22.5145 16.3437 27.6024C15.9021 27.6511 15.4543 27.6779 15.0001 27.6779C8.20231 27.6779 2.67218 22.077 2.67218 15.1921C2.67218 13.2576 3.10887 11.4244 3.88749 9.78843C3.89467 9.79548 3.90228 9.80208 3.90945 9.80913C4.69462 10.5615 5.23154 11.2869 5.79619 12.1446C7.20276 14.2816 8.86703 15.4896 11.1921 16.0611L11.4707 16.1308C12.2432 16.3254 13.1898 16.5639 14.1371 16.5639C14.7425 16.5639 15.3479 16.4665 15.909 16.1983C16.8785 15.7302 17.6121 14.8878 17.9748 13.8264C18.3924 12.6043 18.2955 11.1659 17.7132 9.9736C17.4646 9.47053 16.9349 8.18823 17.3818 7.14477C17.5677 6.70547 18.0378 6.22575 18.4928 5.76179C18.7385 5.51081 18.9929 5.25156 19.2291 4.97482L19.4183 4.75358C19.6567 4.47485 19.9129 4.17453 20.1727 3.86233C24.3928 5.84702 27.3276 10.1777 27.3276 15.192C27.3276 16.0744 27.2355 16.9351 27.0628 17.7661L27.063 17.7663Z" fill="white"/>
</svg>
