<svg width="1450" height="406" viewBox="0 0 1450 406" fill="none" xmlns="http://www.w3.org/2000/svg">
<g clip-path="url(#clip0_938_6005)">
<rect width="1450" height="406" fill="#0B0A09"/>
<g opacity="0.4">
<g clip-path="url(#clip1_938_6005)">
<path d="M488.832 267.963L487.798 268.996L495.701 276.895L496.734 275.862L488.832 267.963Z" fill="#625240"/>
<path d="M501.928 281.058L500.894 282.092L508.796 289.991L509.83 288.957L501.928 281.058Z" fill="#625240"/>
<path d="M580.067 281.47L579.033 282.504L586.935 290.403L587.969 289.37L580.067 281.47Z" fill="#625240"/>
<path d="M553.882 255.297L552.848 256.33L560.75 264.229L561.784 263.196L553.882 255.297Z" fill="#625240"/>
<path d="M566.967 268.4L565.933 269.434L573.835 277.333L574.869 276.299L566.967 268.4Z" fill="#625240"/>
<path d="M488.416 189.849L487.382 190.883L495.284 198.782L496.318 197.749L488.416 189.849Z" fill="#625240"/>
<path d="M540.786 242.185L539.752 243.219L547.655 251.118L548.689 250.084L540.786 242.185Z" fill="#625240"/>
<path d="M501.49 202.943L500.456 203.977L508.359 211.876L509.393 210.842L501.49 202.943Z" fill="#625240"/>
<path d="M514.586 216.025L513.552 217.059L521.454 224.958L522.488 223.924L514.586 216.025Z" fill="#625240"/>
<path d="M527.697 229.119L526.663 230.152L534.565 238.052L535.599 237.018L527.697 229.119Z" fill="#625240"/>
<path d="M658.217 281.91L657.183 282.943L665.085 290.843L666.119 289.809L658.217 281.91Z" fill="#625240"/>
<path d="M592.736 216.463L591.702 217.496L599.604 225.395L600.638 224.362L592.736 216.463Z" fill="#625240"/>
<path d="M618.936 242.625L617.902 243.658L625.804 251.557L626.838 250.524L618.936 242.625Z" fill="#625240"/>
<path d="M579.65 203.373L578.616 204.406L586.519 212.306L587.553 211.272L579.65 203.373Z" fill="#625240"/>
<path d="M645.127 268.807L644.083 269.852L651.985 277.751L653.03 276.707L645.127 268.807Z" fill="#625240"/>
<path d="M632.021 255.724L630.987 256.758L638.889 264.657L639.923 263.624L632.021 255.724Z" fill="#625240"/>
<path d="M605.836 229.548L604.802 230.582L612.704 238.481L613.738 237.448L605.836 229.548Z" fill="#625240"/>
<path d="M501.074 124.83L500.04 125.863L507.942 133.763L508.976 132.729L501.074 124.83Z" fill="#625240"/>
<path d="M514.174 137.922L513.14 138.955L521.042 146.854L522.076 145.821L514.174 137.922Z" fill="#625240"/>
<path d="M487.988 111.746L486.954 112.779L494.857 120.679L495.891 119.645L487.988 111.746Z" fill="#625240"/>
<path d="M566.54 190.277L565.506 191.311L573.408 199.21L574.442 198.176L566.54 190.277Z" fill="#625240"/>
<path d="M527.259 151.006L526.225 152.039L534.127 159.938L535.161 158.905L527.259 151.006Z" fill="#625240"/>
<path d="M553.455 177.193L552.421 178.227L560.323 186.126L561.357 185.092L553.455 177.193Z" fill="#625240"/>
<path d="M540.355 164.101L539.321 165.135L547.223 173.034L548.257 172L540.355 164.101Z" fill="#625240"/>
<path d="M618.504 164.525L617.47 165.559L625.373 173.458L626.407 172.424L618.504 164.525Z" fill="#625240"/>
<path d="M605.409 151.429L604.375 152.463L612.277 160.362L613.311 159.329L605.409 151.429Z" fill="#625240"/>
<path d="M592.309 138.339L591.275 139.373L599.177 147.272L600.211 146.239L592.309 138.339Z" fill="#625240"/>
<path d="M579.223 125.254L578.189 126.287L586.092 134.186L587.126 133.153L579.223 125.254Z" fill="#625240"/>
<path d="M631.604 177.609L630.57 178.643L638.473 186.542L639.507 185.508L631.604 177.609Z" fill="#625240"/>
<path d="M644.689 190.701L643.656 191.734L651.558 199.634L652.592 198.6L644.689 190.701Z" fill="#625240"/>
<path d="M657.79 203.785L656.756 204.818L664.658 212.718L665.692 211.684L657.79 203.785Z" fill="#625240"/>
<path d="M487.546 33.6227L486.512 34.6562L494.415 42.5555L495.449 41.522L487.546 33.6227Z" fill="#625240"/>
<path d="M500.657 46.7157L499.613 47.7598L507.515 55.659L508.559 54.6149L500.657 46.7157Z" fill="#625240"/>
<path d="M670.885 216.865L669.851 217.898L677.754 225.798L678.788 224.764L670.885 216.865Z" fill="#625240"/>
<path d="M513.742 59.8082L512.708 60.8418L520.611 68.7411L521.645 67.7075L513.742 59.8082Z" fill="#625240"/>
<path d="M553.028 99.068L551.994 100.102L559.896 108.001L560.93 106.967L553.028 99.068Z" fill="#625240"/>
<path d="M526.842 72.8922L525.808 73.9258L533.711 81.825L534.745 80.7915L526.842 72.8922Z" fill="#625240"/>
<path d="M566.123 112.162L565.089 113.195L572.992 121.095L574.026 120.061L566.123 112.162Z" fill="#625240"/>
<path d="M539.928 85.984L538.894 87.0176L546.796 94.9168L547.83 93.8833L539.928 85.984Z" fill="#625240"/>
<path d="M710.171 256.131L709.137 257.164L717.039 265.063L718.073 264.03L710.171 256.131Z" fill="#625240"/>
<path d="M683.97 230.002L682.937 231.035L690.839 238.934L691.873 237.901L683.97 230.002Z" fill="#625240"/>
<path d="M723.266 269.242L722.232 270.275L730.135 278.175L731.169 277.141L723.266 269.242Z" fill="#625240"/>
<path d="M736.352 282.328L735.318 283.361L743.22 291.261L744.254 290.227L736.352 282.328Z" fill="#625240"/>
<path d="M697.071 243.086L696.037 244.119L703.939 252.018L704.973 250.985L697.071 243.086Z" fill="#625240"/>
<path d="M801.406 269.67L800.372 270.703L808.274 278.602L809.308 277.569L801.406 269.67Z" fill="#625240"/>
<path d="M696.643 164.953L695.609 165.986L703.512 173.886L704.546 172.852L696.643 164.953Z" fill="#625240"/>
<path d="M775.22 243.525L774.186 244.559L782.089 252.458L783.123 251.424L775.22 243.525Z" fill="#625240"/>
<path d="M788.305 256.564L787.271 257.598L795.174 265.497L796.208 264.463L788.305 256.564Z" fill="#625240"/>
<path d="M722.839 191.117L721.805 192.15L729.708 200.05L730.742 199.016L722.839 191.117Z" fill="#625240"/>
<path d="M749.035 217.302L748.001 218.336L755.903 226.235L756.937 225.202L749.035 217.302Z" fill="#625240"/>
<path d="M709.754 178.033L708.72 179.066L716.623 186.966L717.656 185.932L709.754 178.033Z" fill="#625240"/>
<path d="M735.924 204.224L734.89 205.258L742.793 213.157L743.827 212.124L735.924 204.224Z" fill="#625240"/>
<path d="M762.11 230.398L761.076 231.432L768.978 239.331L770.012 238.297L762.11 230.398Z" fill="#625240"/>
<path d="M814.501 282.765L813.467 283.799L821.37 291.698L822.404 290.665L814.501 282.765Z" fill="#625240"/>
<path d="M526.415 -5.21128L525.381 -4.17773L533.284 3.72153L534.318 2.68798L526.415 -5.21128Z" fill="#625240"/>
<path d="M539.511 7.8688L538.477 8.90234L546.379 16.8016L547.413 15.7681L539.511 7.8688Z" fill="#625240"/>
<path d="M683.558 151.845L682.524 152.879L690.427 160.778L691.461 159.745L683.558 151.845Z" fill="#625240"/>
<path d="M565.696 34.0602L564.662 35.0938L572.565 42.993L573.598 41.9595L565.696 34.0602Z" fill="#625240"/>
<path d="M552.6 20.9645L551.567 21.998L559.469 29.8973L560.503 28.8638L552.6 20.9645Z" fill="#625240"/>
<path d="M578.796 47.1286L577.762 48.1621L585.665 56.0614L586.699 55.0278L578.796 47.1286Z" fill="#625240"/>
<path d="M657.363 125.681L656.329 126.715L664.231 134.614L665.265 133.581L657.363 125.681Z" fill="#625240"/>
<path d="M644.273 112.586L643.239 113.619L651.141 121.518L652.175 120.485L644.273 112.586Z" fill="#625240"/>
<path d="M670.458 138.777L669.424 139.811L677.327 147.71L678.361 146.676L670.458 138.777Z" fill="#625240"/>
<path d="M618.067 86.4118L617.033 87.4453L624.935 95.3446L625.969 94.311L618.067 86.4118Z" fill="#625240"/>
<path d="M604.992 73.3297L603.958 74.3633L611.86 82.2625L612.894 81.229L604.992 73.3297Z" fill="#625240"/>
<path d="M631.177 99.4899L630.143 100.523L638.046 108.423L639.08 107.389L631.177 99.4899Z" fill="#625240"/>
<path d="M591.881 60.236L590.847 61.2695L598.75 69.1688L599.784 68.1352L591.881 60.236Z" fill="#625240"/>
<path d="M656.946 47.568L655.912 48.6016L663.815 56.5008L664.848 55.4673L656.946 47.568Z" fill="#625240"/>
<path d="M630.761 21.3922L629.727 22.4258L637.629 30.325L638.663 29.2915L630.761 21.3922Z" fill="#625240"/>
<path d="M643.835 34.4723L642.801 35.5059L650.704 43.4051L651.738 42.3716L643.835 34.4723Z" fill="#625240"/>
<path d="M670.042 60.6618L669.008 61.6953L676.91 69.5946L677.944 68.561L670.042 60.6618Z" fill="#625240"/>
<path d="M617.65 8.29653L616.616 9.33008L624.519 17.2293L625.553 16.1958L617.65 8.29653Z" fill="#625240"/>
<path d="M709.302 99.9196L708.268 100.953L716.17 108.852L717.204 107.819L709.302 99.9196Z" fill="#625240"/>
<path d="M696.237 86.8289L695.193 87.873L703.095 95.7723L704.14 94.7282L696.237 86.8289Z" fill="#625240"/>
<path d="M683.131 73.7438L682.097 74.7773L690 82.6766L691.034 81.6431L683.131 73.7438Z" fill="#625240"/>
<path d="M604.554 -4.79918L603.521 -3.76562L611.423 4.13364L612.457 3.10009L604.554 -4.79918Z" fill="#625240"/>
<path d="M722.412 113.013L721.378 114.047L729.281 121.946L730.315 120.913L722.412 113.013Z" fill="#625240"/>
<path d="M892.64 283.177L891.606 284.211L899.509 292.11L900.543 291.077L892.64 283.177Z" fill="#625240"/>
<path d="M866.455 256.957L865.421 257.99L873.324 265.89L874.358 264.856L866.455 256.957Z" fill="#625240"/>
<path d="M879.566 270.084L878.532 271.117L886.434 279.016L887.468 277.983L879.566 270.084Z" fill="#625240"/>
<path d="M853.359 243.953L852.325 244.986L860.228 252.886L861.262 251.852L853.359 243.953Z" fill="#625240"/>
<path d="M840.27 230.826L839.236 231.859L847.138 239.759L848.172 238.725L840.27 230.826Z" fill="#625240"/>
<path d="M827.174 217.732L826.14 218.766L834.043 226.665L835.077 225.631L827.174 217.732Z" fill="#625240"/>
<path d="M735.508 126.109L734.474 127.143L742.376 135.042L743.41 134.008L735.508 126.109Z" fill="#625240"/>
<path d="M774.804 165.365L773.77 166.398L781.672 174.298L782.706 173.264L774.804 165.365Z" fill="#625240"/>
<path d="M748.597 139.189L747.563 140.223L755.466 148.122L756.5 147.088L748.597 139.189Z" fill="#625240"/>
<path d="M761.693 152.285L760.659 153.318L768.562 161.218L769.596 160.184L761.693 152.285Z" fill="#625240"/>
<path d="M787.878 178.461L786.844 179.494L794.747 187.393L795.781 186.36L787.878 178.461Z" fill="#625240"/>
<path d="M814.064 204.636L813.03 205.67L820.932 213.569L821.966 212.536L814.064 204.636Z" fill="#625240"/>
<path d="M800.989 191.556L799.955 192.59L807.857 200.489L808.891 199.456L800.989 191.556Z" fill="#625240"/>
<path d="M735.07 47.9957L734.036 49.0293L741.939 56.9286L742.973 55.895L735.07 47.9957Z" fill="#625240"/>
<path d="M721.996 34.9001L720.962 35.9336L728.864 43.8329L729.898 42.7993L721.996 34.9001Z" fill="#625240"/>
<path d="M708.885 21.8063L707.851 22.8398L715.753 30.7391L716.787 29.7056L708.885 21.8063Z" fill="#625240"/>
<path d="M695.789 8.72427L694.755 9.75781L702.658 17.6571L703.692 16.6235L695.789 8.72427Z" fill="#625240"/>
<path d="M761.266 74.1813L760.232 75.2148L768.134 83.1141L769.168 82.0805L761.266 74.1813Z" fill="#625240"/>
<path d="M748.181 61.0758L747.147 62.1094L755.049 70.0086L756.083 68.9751L748.181 61.0758Z" fill="#625240"/>
<path d="M774.366 87.2516L773.332 88.2852L781.234 96.1844L782.268 95.1509L774.366 87.2516Z" fill="#625240"/>
<path d="M682.7 -4.37143L681.666 -3.33789L689.568 4.56137L690.602 3.52783L682.7 -4.37143Z" fill="#625240"/>
<path d="M787.477 100.361L786.443 101.395L794.345 109.294L795.379 108.26L787.477 100.361Z" fill="#625240"/>
<path d="M931.52 244.334L930.486 245.367L938.388 253.266L939.422 252.233L931.52 244.334Z" fill="#625240"/>
<path d="M905.313 218.158L904.279 219.191L912.182 227.091L913.216 226.057L905.313 218.158Z" fill="#625240"/>
<path d="M800.551 113.441L799.517 114.475L807.42 122.374L808.454 121.34L800.551 113.441Z" fill="#625240"/>
<path d="M918.409 231.256L917.375 232.289L925.277 240.188L926.311 239.155L918.409 231.256Z" fill="#625240"/>
<path d="M944.594 257.416L943.56 258.449L951.463 266.348L952.497 265.315L944.594 257.416Z" fill="#625240"/>
<path d="M826.758 139.617L825.724 140.65L833.626 148.55L834.66 147.516L826.758 139.617Z" fill="#625240"/>
<path d="M813.647 126.523L812.613 127.557L820.515 135.456L821.549 134.422L813.647 126.523Z" fill="#625240"/>
<path d="M839.832 152.713L838.798 153.746L846.701 161.645L847.735 160.612L839.832 152.713Z" fill="#625240"/>
<path d="M892.224 205.064L891.19 206.098L899.092 213.997L900.126 212.963L892.224 205.064Z" fill="#625240"/>
<path d="M879.128 191.968L878.094 193.002L885.997 200.901L887.031 199.868L879.128 191.968Z" fill="#625240"/>
<path d="M866.028 178.898L864.994 179.932L872.897 187.831L873.931 186.797L866.028 178.898Z" fill="#625240"/>
<path d="M852.943 165.808L851.909 166.842L859.811 174.741L860.845 173.708L852.943 165.808Z" fill="#625240"/>
<path d="M800.135 35.3278L799.101 36.3613L807.003 44.2606L808.037 43.2271L800.135 35.3278Z" fill="#625240"/>
<path d="M787.035 22.2438L786.001 23.2773L793.903 31.1766L794.937 30.1431L787.035 22.2438Z" fill="#625240"/>
<path d="M773.949 9.13832L772.916 10.1719L780.818 18.0711L781.852 17.0376L773.949 9.13832Z" fill="#625240"/>
<path d="M813.22 48.4196L812.186 49.4531L820.088 57.3524L821.122 56.3188L813.22 48.4196Z" fill="#625240"/>
<path d="M826.32 61.5036L825.286 62.5371L833.189 70.4364L834.223 69.4028L826.32 61.5036Z" fill="#625240"/>
<path d="M760.839 -3.9437L759.805 -2.91016L767.707 4.98911L768.741 3.95556L760.839 -3.9437Z" fill="#625240"/>
<path d="M839.416 74.5836L838.382 75.6172L846.284 83.5165L847.318 82.4829L839.416 74.5836Z" fill="#625240"/>
<path d="M878.697 113.855L877.663 114.889L885.565 122.788L886.599 121.754L878.697 113.855Z" fill="#625240"/>
<path d="M852.516 87.6891L851.482 88.7227L859.384 96.6219L860.418 95.5884L852.516 87.6891Z" fill="#625240"/>
<path d="M891.797 126.961L890.763 127.994L898.665 135.893L899.699 134.86L891.797 126.961Z" fill="#625240"/>
<path d="M865.601 100.775L864.567 101.809L872.469 109.708L873.503 108.674L865.601 100.775Z" fill="#625240"/>
<path d="M904.897 140.045L903.863 141.078L911.765 148.977L912.799 147.944L904.897 140.045Z" fill="#625240"/>
<path d="M944.178 179.3L943.144 180.334L951.046 188.233L952.08 187.2L944.178 179.3Z" fill="#625240"/>
<path d="M917.997 153.166L916.963 154.199L924.865 162.098L925.899 161.065L917.997 153.166Z" fill="#625240"/>
<path d="M931.082 166.22L930.048 167.254L937.951 175.153L938.984 174.12L931.082 166.22Z" fill="#625240"/>
<path d="M852.089 9.56607L851.055 10.5996L858.957 18.4989L859.991 17.4653L852.089 9.56607Z" fill="#625240"/>
<path d="M839.003 -3.50425L837.969 -2.4707L845.872 5.42856L846.906 4.39502L839.003 -3.50425Z" fill="#625240"/>
<path d="M865.174 22.6559L864.14 23.6895L872.042 31.5887L873.076 30.5552L865.174 22.6559Z" fill="#625240"/>
<path d="M878.284 35.7516L877.25 36.7852L885.153 44.6844L886.187 43.6509L878.284 35.7516Z" fill="#625240"/>
<path d="M891.37 48.8375L890.336 49.8711L898.238 57.7704L899.272 56.7368L891.37 48.8375Z" fill="#625240"/>
<path d="M904.455 61.9274L903.421 62.9609L911.323 70.8602L912.357 69.8267L904.455 61.9274Z" fill="#625240"/>
<path d="M917.565 75.0231L916.531 76.0566L924.434 83.9559L925.468 82.9224L917.565 75.0231Z" fill="#625240"/>
<path d="M930.651 88.1071L929.617 89.1406L937.519 97.0399L938.553 96.0064L930.651 88.1071Z" fill="#625240"/>
<path d="M943.751 101.197L942.717 102.23L950.619 110.13L951.653 109.096L943.751 101.197Z" fill="#625240"/>
<path d="M930.223 10.0035L929.189 11.0371L937.092 18.9364L938.126 17.9028L930.223 10.0035Z" fill="#625240"/>
<path d="M917.138 -3.10189L916.104 -2.06836L924.007 5.8309L925.041 4.79737L917.138 -3.10189Z" fill="#625240"/>
<path d="M943.334 23.0836L942.3 24.1172L950.203 32.0164L951.237 30.9829L943.334 23.0836Z" fill="#625240"/>
<path d="M937.625 281.044L929.722 288.943L930.756 289.977L938.659 282.078L937.625 281.044Z" fill="#625240"/>
<path d="M950.71 267.909L942.808 275.809L943.842 276.842L951.744 268.943L950.71 267.909Z" fill="#625240"/>
<path d="M924.952 216.05L917.05 223.949L918.084 224.983L925.986 217.083L924.952 216.05Z" fill="#625240"/>
<path d="M951.138 189.845L943.236 197.744L944.27 198.778L952.172 190.878L951.138 189.845Z" fill="#625240"/>
<path d="M938.063 202.941L930.161 210.84L931.195 211.873L939.097 203.974L938.063 202.941Z" fill="#625240"/>
<path d="M911.852 229.112L903.949 237.012L904.983 238.045L912.886 230.146L911.852 229.112Z" fill="#625240"/>
<path d="M898.766 242.226L890.864 250.125L891.898 251.159L899.8 243.259L898.766 242.226Z" fill="#625240"/>
<path d="M885.666 255.284L877.763 263.184L878.797 264.217L886.7 256.318L885.666 255.284Z" fill="#625240"/>
<path d="M872.565 268.39L864.663 276.289L865.697 277.323L873.599 269.423L872.565 268.39Z" fill="#625240"/>
<path d="M859.48 281.476L851.577 289.375L852.611 290.409L860.514 282.509L859.48 281.476Z" fill="#625240"/>
<path d="M925.365 137.913L917.463 145.812L918.497 146.846L926.399 138.947L925.365 137.913Z" fill="#625240"/>
<path d="M938.466 124.823L930.563 132.723L931.597 133.756L939.5 125.857L938.466 124.823Z" fill="#625240"/>
<path d="M951.577 111.728L943.674 119.627L944.708 120.66L952.611 112.761L951.577 111.728Z" fill="#625240"/>
<path d="M912.29 151.007L904.388 158.906L905.422 159.94L913.324 152.041L912.29 151.007Z" fill="#625240"/>
<path d="M886.104 177.183L878.202 185.082L879.236 186.116L887.138 178.216L886.104 177.183Z" fill="#625240"/>
<path d="M899.179 164.087L891.277 171.986L892.311 173.02L900.213 165.121L899.179 164.087Z" fill="#625240"/>
<path d="M872.993 190.261L865.091 198.16L866.125 199.194L874.027 191.294L872.993 190.261Z" fill="#625240"/>
<path d="M859.893 203.368L851.99 211.268L853.024 212.301L860.927 204.402L859.893 203.368Z" fill="#625240"/>
<path d="M820.621 242.663L812.719 250.562L813.752 251.596L821.655 243.697L820.621 242.663Z" fill="#625240"/>
<path d="M833.707 229.527L825.804 237.426L826.838 238.459L834.741 230.56L833.707 229.527Z" fill="#625240"/>
<path d="M846.817 216.448L838.915 224.348L839.949 225.381L847.851 217.482L846.817 216.448Z" fill="#625240"/>
<path d="M807.531 255.714L799.629 263.613L800.663 264.647L808.565 256.748L807.531 255.714Z" fill="#625240"/>
<path d="M794.42 268.808L786.518 276.707L787.552 277.741L795.454 269.841L794.42 268.808Z" fill="#625240"/>
<path d="M781.334 281.913L773.432 289.812L774.466 290.846L782.368 282.947L781.334 281.913Z" fill="#625240"/>
<path d="M860.331 125.249L852.429 133.148L853.463 134.182L861.365 126.283L860.331 125.249Z" fill="#625240"/>
<path d="M873.421 112.155L865.519 120.055L866.553 121.088L874.455 113.189L873.421 112.155Z" fill="#625240"/>
<path d="M886.507 99.0636L878.604 106.963L879.638 107.996L887.541 100.097L886.507 99.0636Z" fill="#625240"/>
<path d="M899.618 85.9679L891.715 93.8672L892.749 94.9007L900.652 87.0015L899.618 85.9679Z" fill="#625240"/>
<path d="M821.044 164.515L813.142 172.414L814.176 173.448L822.078 165.548L821.044 164.515Z" fill="#625240"/>
<path d="M847.22 138.329L839.318 146.229L840.352 147.262L848.254 139.363L847.22 138.329Z" fill="#625240"/>
<path d="M834.145 151.409L826.243 159.309L827.277 160.342L835.179 152.443L834.145 151.409Z" fill="#625240"/>
<path d="M951.979 33.6086L944.077 41.5078L945.111 42.5414L953.013 34.6421L951.979 33.6086Z" fill="#625240"/>
<path d="M807.948 177.609L800.046 185.508L801.08 186.541L808.982 178.642L807.948 177.609Z" fill="#625240"/>
<path d="M912.693 72.8898L904.79 80.7891L905.824 81.8226L913.727 73.9234L912.693 72.8898Z" fill="#625240"/>
<path d="M925.804 59.8097L917.901 67.709L918.935 68.7425L926.838 60.8432L925.804 59.8097Z" fill="#625240"/>
<path d="M938.904 46.7023L931.002 54.6016L932.036 55.6351L939.938 47.7358L938.904 46.7023Z" fill="#625240"/>
<path d="M781.747 203.784L773.845 211.684L774.879 212.717L782.781 204.818L781.747 203.784Z" fill="#625240"/>
<path d="M768.662 216.859L760.76 224.758L761.793 225.791L769.696 217.892L768.662 216.859Z" fill="#625240"/>
<path d="M794.858 190.689L786.956 198.588L787.99 199.621L795.892 191.722L794.858 190.689Z" fill="#625240"/>
<path d="M755.572 229.939L747.669 237.838L748.703 238.871L756.606 230.972L755.572 229.939Z" fill="#625240"/>
<path d="M742.461 243.05L734.558 250.949L735.592 251.983L743.495 244.084L742.461 243.05Z" fill="#625240"/>
<path d="M703.189 282.314L695.287 290.213L696.321 291.246L704.223 283.347L703.189 282.314Z" fill="#625240"/>
<path d="M716.285 269.234L708.383 277.133L709.417 278.166L717.319 270.267L716.285 269.234Z" fill="#625240"/>
<path d="M729.386 256.13L721.483 264.029L722.517 265.063L730.42 257.164L729.386 256.13Z" fill="#625240"/>
<path d="M860.733 47.1008L852.831 55L853.865 56.0335L861.767 48.1343L860.733 47.1008Z" fill="#625240"/>
<path d="M821.462 86.4093L813.56 94.3086L814.594 95.3421L822.496 87.4429L821.462 86.4093Z" fill="#625240"/>
<path d="M847.659 60.2101L839.756 68.1094L840.79 69.1429L848.692 61.2437L847.659 60.2101Z" fill="#625240"/>
<path d="M834.558 73.3L826.656 81.1992L827.689 82.2328L835.592 74.3335L834.558 73.3Z" fill="#625240"/>
<path d="M769.086 138.771L761.183 146.67L762.217 147.703L770.119 139.804L769.086 138.771Z" fill="#625240"/>
<path d="M782.175 125.675L774.273 133.574L775.307 134.608L783.209 126.708L782.175 125.675Z" fill="#625240"/>
<path d="M808.372 99.4914L800.469 107.391L801.503 108.424L809.406 100.525L808.372 99.4914Z" fill="#625240"/>
<path d="M795.286 112.581L787.384 120.48L788.418 121.514L796.32 113.615L795.286 112.581Z" fill="#625240"/>
<path d="M873.845 34.0343L865.942 41.9336L866.976 42.9671L874.879 35.0679L873.845 34.0343Z" fill="#625240"/>
<path d="M755.989 151.851L748.087 159.75L749.121 160.784L757.023 152.884L755.989 151.851Z" fill="#625240"/>
<path d="M886.935 20.9562L879.032 28.8555L880.066 29.889L887.969 21.9898L886.935 20.9562Z" fill="#625240"/>
<path d="M913.131 -5.22933L905.229 2.66992L906.263 3.70347L914.165 -4.19578L913.131 -5.22933Z" fill="#625240"/>
<path d="M900.045 7.86052L892.143 15.7598L893.177 16.7933L901.079 8.89406L900.045 7.86052Z" fill="#625240"/>
<path d="M638.14 269.652L630.238 277.551L631.272 278.584L639.174 270.685L638.14 269.652Z" fill="#625240"/>
<path d="M742.899 164.931L734.997 172.83L736.031 173.864L743.933 165.964L742.899 164.931Z" fill="#625240"/>
<path d="M625.04 282.741L617.137 290.641L618.171 291.674L626.074 283.775L625.04 282.741Z" fill="#625240"/>
<path d="M703.613 204.195L695.71 212.094L696.744 213.127L704.647 205.228L703.613 204.195Z" fill="#625240"/>
<path d="M651.23 256.556L643.328 264.455L644.362 265.489L652.264 257.589L651.23 256.556Z" fill="#625240"/>
<path d="M729.799 178.036L721.896 185.936L722.93 186.969L730.833 179.07L729.799 178.036Z" fill="#625240"/>
<path d="M716.703 191.116L708.8 199.016L709.834 200.049L717.737 192.15L716.703 191.116Z" fill="#625240"/>
<path d="M690.527 217.3L682.625 225.199L683.659 226.233L691.561 218.334L690.527 217.3Z" fill="#625240"/>
<path d="M664.326 243.476L656.424 251.375L657.458 252.409L665.36 244.509L664.326 243.476Z" fill="#625240"/>
<path d="M677.416 230.366L669.514 238.266L670.548 239.299L678.45 231.4L677.416 230.366Z" fill="#625240"/>
<path d="M612.367 217.718L604.465 225.617L605.499 226.651L613.401 218.751L612.367 217.718Z" fill="#625240"/>
<path d="M625.457 204.638L617.555 212.537L618.589 213.571L626.491 205.671L625.457 204.638Z" fill="#625240"/>
<path d="M599.267 230.837L591.364 238.736L592.398 239.77L600.301 231.871L599.267 230.837Z" fill="#625240"/>
<path d="M690.94 139.173L683.038 147.072L684.072 148.106L691.974 140.207L690.94 139.173Z" fill="#625240"/>
<path d="M677.855 152.278L669.952 160.178L670.986 161.211L678.889 153.312L677.855 152.278Z" fill="#625240"/>
<path d="M638.568 191.542L630.666 199.441L631.7 200.475L639.602 192.576L638.568 191.542Z" fill="#625240"/>
<path d="M664.754 165.368L656.852 173.268L657.886 174.301L665.788 166.402L664.754 165.368Z" fill="#625240"/>
<path d="M586.183 243.901L578.28 251.799L579.313 252.833L587.217 244.935L586.183 243.901Z" fill="#625240"/>
<path d="M651.654 178.452L643.751 186.352L644.785 187.385L652.688 179.486L651.654 178.452Z" fill="#625240"/>
<path d="M573.096 256.999L565.193 264.898L566.227 265.932L574.129 258.033L573.096 256.999Z" fill="#625240"/>
<path d="M559.995 270.089L552.093 277.988L553.126 279.022L561.029 271.123L559.995 270.089Z" fill="#625240"/>
<path d="M546.895 283.157L538.992 291.057L540.026 292.09L547.929 284.191L546.895 283.157Z" fill="#625240"/>
<path d="M834.961 -4.81723L827.058 3.08203L828.092 4.11558L835.994 -3.78369L834.961 -4.81723Z" fill="#625240"/>
<path d="M821.9 8.30777L813.998 16.207L815.032 17.2406L822.934 9.34131L821.9 8.30777Z" fill="#625240"/>
<path d="M808.785 21.3664L800.883 29.2656L801.917 30.2992L809.819 22.3999L808.785 21.3664Z" fill="#625240"/>
<path d="M704.041 126.103L696.138 134.002L697.172 135.035L705.075 127.136L704.041 126.103Z" fill="#625240"/>
<path d="M730.216 99.9328L722.314 107.832L723.348 108.866L731.25 100.966L730.216 99.9328Z" fill="#625240"/>
<path d="M743.327 86.8234L735.425 94.7227L736.459 95.7562L744.361 87.857L743.327 86.8234Z" fill="#625240"/>
<path d="M795.7 34.4523L787.797 42.3516L788.831 43.3851L796.733 35.4859L795.7 34.4523Z" fill="#625240"/>
<path d="M717.126 112.997L709.224 120.896L710.258 121.93L718.16 114.031L717.126 112.997Z" fill="#625240"/>
<path d="M782.599 47.5285L774.697 55.4277L775.73 56.4613L783.633 48.562L782.599 47.5285Z" fill="#625240"/>
<path d="M756.413 73.7336L748.51 81.6328L749.544 82.6664L757.447 74.7671L756.413 73.7336Z" fill="#625240"/>
<path d="M769.513 60.6769L761.611 68.5762L762.645 69.6097L770.547 61.7104L769.513 60.6769Z" fill="#625240"/>
<path d="M586.609 165.784L578.707 173.684L579.741 174.717L587.643 166.818L586.609 165.784Z" fill="#625240"/>
<path d="M638.992 113.425L631.089 121.324L632.123 122.358L640.026 114.459L638.992 113.425Z" fill="#625240"/>
<path d="M573.508 178.89L565.606 186.789L566.64 187.823L574.542 179.923L573.508 178.89Z" fill="#625240"/>
<path d="M599.695 152.694L591.792 160.594L592.826 161.627L600.729 153.728L599.695 152.694Z" fill="#625240"/>
<path d="M625.896 126.519L617.993 134.418L619.027 135.452L626.93 127.552L625.896 126.519Z" fill="#625240"/>
<path d="M547.323 205.066L539.42 212.965L540.454 213.998L548.357 206.099L547.323 205.066Z" fill="#625240"/>
<path d="M612.795 139.611L604.893 147.51L605.927 148.543L613.829 140.644L612.795 139.611Z" fill="#625240"/>
<path d="M560.423 191.96L552.521 199.859L553.554 200.893L561.457 192.994L560.423 191.96Z" fill="#625240"/>
<path d="M494.92 257.429L487.018 265.328L488.052 266.362L495.954 258.462L494.92 257.429Z" fill="#625240"/>
<path d="M534.232 218.144L526.33 226.043L527.364 227.077L535.266 219.177L534.232 218.144Z" fill="#625240"/>
<path d="M521.151 231.21L513.249 239.109L514.283 240.143L522.185 232.244L521.151 231.21Z" fill="#625240"/>
<path d="M508.036 244.331L500.134 252.23L501.168 253.264L509.07 245.365L508.036 244.331Z" fill="#625240"/>
<path d="M756.856 -4.36019L748.953 3.53906L749.987 4.57261L757.89 -3.32664L756.856 -4.36019Z" fill="#625240"/>
<path d="M743.751 8.69058L735.848 16.5898L736.882 17.6234L744.785 9.72413L743.751 8.69058Z" fill="#625240"/>
<path d="M678.268 74.171L670.365 82.0703L671.399 83.1039L679.302 75.2046L678.268 74.171Z" fill="#625240"/>
<path d="M652.082 100.345L644.179 108.244L645.213 109.278L653.116 101.378L652.082 100.345Z" fill="#625240"/>
<path d="M665.182 87.2531L657.28 95.1523L658.314 96.1859L666.216 88.2866L665.182 87.2531Z" fill="#625240"/>
<path d="M691.368 61.0949L683.466 68.9941L684.5 70.0277L692.402 62.1284L691.368 61.0949Z" fill="#625240"/>
<path d="M730.655 21.8L722.752 29.6992L723.786 30.7328L731.689 22.8335L730.655 21.8Z" fill="#625240"/>
<path d="M704.454 47.9738L696.551 55.873L697.585 56.9066L705.488 49.0073L704.454 47.9738Z" fill="#625240"/>
<path d="M717.554 34.8898L709.652 42.7891L710.686 43.8226L718.588 35.9233L717.554 34.8898Z" fill="#625240"/>
<path d="M534.65 140.027L526.748 147.926L527.782 148.959L535.684 141.06L534.65 140.027Z" fill="#625240"/>
<path d="M521.549 153.132L513.647 161.031L514.681 162.065L522.583 154.166L521.549 153.132Z" fill="#625240"/>
<path d="M547.761 126.946L539.859 134.846L540.893 135.879L548.795 127.98L547.761 126.946Z" fill="#625240"/>
<path d="M573.936 100.761L566.034 108.66L567.068 109.694L574.97 101.794L573.936 100.761Z" fill="#625240"/>
<path d="M560.836 113.851L552.934 121.75L553.968 122.784L561.87 114.884L560.836 113.851Z" fill="#625240"/>
<path d="M508.474 166.21L500.572 174.109L501.606 175.143L509.508 167.244L508.474 166.21Z" fill="#625240"/>
<path d="M495.363 179.306L487.461 187.205L488.495 188.239L496.397 180.339L495.363 179.306Z" fill="#625240"/>
<path d="M587.033 87.6808L579.13 95.5801L580.164 96.6136L588.067 88.7144L587.033 87.6808Z" fill="#625240"/>
<path d="M600.123 74.5851L592.22 82.4844L593.254 83.5179L601.157 75.6187L600.123 74.5851Z" fill="#625240"/>
<path d="M626.309 48.4113L618.406 56.3105L619.44 57.3441L627.343 49.4448L626.309 48.4113Z" fill="#625240"/>
<path d="M639.409 35.3058L631.507 43.2051L632.541 44.2386L640.443 36.3394L639.409 35.3058Z" fill="#625240"/>
<path d="M613.234 61.4914L605.331 69.3906L606.365 70.4242L614.268 62.5249L613.234 61.4914Z" fill="#625240"/>
<path d="M652.52 22.2414L644.618 30.1406L645.652 31.1742L653.554 23.2749L652.52 22.2414Z" fill="#625240"/>
<path d="M678.696 -3.94418L670.793 3.95508L671.827 4.98863L679.73 -2.91063L678.696 -3.94418Z" fill="#625240"/>
<path d="M665.595 9.13199L657.693 17.0312L658.727 18.0648L666.629 10.1655L665.595 9.13199Z" fill="#625240"/>
<path d="M495.802 101.189L487.899 109.088L488.933 110.121L496.836 102.222L495.802 101.189Z" fill="#625240"/>
<path d="M508.892 88.0929L500.989 95.9922L502.023 97.0257L509.926 89.1265L508.892 88.0929Z" fill="#625240"/>
<path d="M521.988 75.0128L514.085 82.9121L515.119 83.9457L523.022 76.0464L521.988 75.0128Z" fill="#625240"/>
<path d="M535.063 61.9328L527.161 69.832L528.195 70.8656L536.097 62.9663L535.063 61.9328Z" fill="#625240"/>
<path d="M548.178 48.8136L540.276 56.7129L541.31 57.7464L549.212 49.8472L548.178 48.8136Z" fill="#625240"/>
<path d="M561.274 35.7336L553.372 43.6328L554.406 44.6664L562.308 36.7671L561.274 35.7336Z" fill="#625240"/>
<path d="M574.364 22.6671L566.462 30.5664L567.496 31.6L575.398 23.7007L574.364 22.6671Z" fill="#625240"/>
<path d="M600.561 -3.5477L592.659 4.35156L593.693 5.38511L601.595 -2.51416L600.561 -3.5477Z" fill="#625240"/>
<path d="M587.45 9.56168L579.548 17.4609L580.582 18.4945L588.484 10.5952L587.45 9.56168Z" fill="#625240"/>
<path d="M496.215 23.0812L488.312 30.9805L489.346 32.014L497.249 24.1148L496.215 23.0812Z" fill="#625240"/>
<path d="M509.315 9.98941L501.413 17.8887L502.447 18.9222L510.349 11.023L509.315 9.98941Z" fill="#625240"/>
<path d="M522.405 -3.10629L514.503 4.79297L515.537 5.82652L523.439 -2.07274L522.405 -3.10629Z" fill="#625240"/>
</g>
<g clip-path="url(#clip2_938_6005)">
<path d="M18.7376 267.963L17.7036 268.996L25.606 276.895L26.64 275.862L18.7376 267.963Z" fill="#625240"/>
<path d="M31.8334 281.058L30.7994 282.092L38.7018 289.991L39.7358 288.957L31.8334 281.058Z" fill="#625240"/>
<path d="M109.972 281.47L108.938 282.504L116.841 290.403L117.875 289.37L109.972 281.47Z" fill="#625240"/>
<path d="M83.7874 255.297L82.7534 256.33L90.6558 264.229L91.6898 263.196L83.7874 255.297Z" fill="#625240"/>
<path d="M96.8723 268.4L95.8384 269.434L103.741 277.333L104.775 276.299L96.8723 268.4Z" fill="#625240"/>
<path d="M18.3211 189.849L17.2871 190.883L25.1895 198.782L26.2235 197.749L18.3211 189.849Z" fill="#625240"/>
<path d="M70.6917 242.185L69.6577 243.219L77.5601 251.118L78.5941 250.084L70.6917 242.185Z" fill="#625240"/>
<path d="M31.3958 202.943L30.3618 203.977L38.2642 211.876L39.2982 210.842L31.3958 202.943Z" fill="#625240"/>
<path d="M44.4914 216.025L43.4574 217.059L51.3598 224.958L52.3938 223.924L44.4914 216.025Z" fill="#625240"/>
<path d="M57.6021 229.119L56.5681 230.152L64.4705 238.052L65.5045 237.018L57.6021 229.119Z" fill="#625240"/>
<path d="M188.122 281.91L187.088 282.943L194.991 290.843L196.025 289.809L188.122 281.91Z" fill="#625240"/>
<path d="M122.641 216.463L121.607 217.496L129.51 225.395L130.544 224.362L122.641 216.463Z" fill="#625240"/>
<path d="M148.841 242.625L147.807 243.658L155.71 251.557L156.744 250.524L148.841 242.625Z" fill="#625240"/>
<path d="M109.556 203.373L108.522 204.406L116.424 212.306L117.458 211.272L109.556 203.373Z" fill="#625240"/>
<path d="M175.033 268.807L173.988 269.852L181.891 277.751L182.935 276.707L175.033 268.807Z" fill="#625240"/>
<path d="M161.927 255.724L160.893 256.758L168.795 264.657L169.829 263.624L161.927 255.724Z" fill="#625240"/>
<path d="M135.741 229.548L134.707 230.582L142.61 238.481L143.644 237.448L135.741 229.548Z" fill="#625240"/>
<path d="M30.9793 124.83L29.9453 125.863L37.8477 133.763L38.8817 132.729L30.9793 124.83Z" fill="#625240"/>
<path d="M44.0792 137.922L43.0453 138.955L50.9477 146.854L51.9817 145.821L44.0792 137.922Z" fill="#625240"/>
<path d="M17.8939 111.746L16.86 112.779L24.7624 120.679L25.7964 119.645L17.8939 111.746Z" fill="#625240"/>
<path d="M96.4453 190.277L95.4114 191.311L103.314 199.21L104.348 198.176L96.4453 190.277Z" fill="#625240"/>
<path d="M57.1643 151.006L56.1304 152.039L64.0328 159.938L65.0668 158.905L57.1643 151.006Z" fill="#625240"/>
<path d="M83.3601 177.193L82.3262 178.227L90.2286 186.126L91.2625 185.092L83.3601 177.193Z" fill="#625240"/>
<path d="M70.26 164.101L69.2261 165.135L77.1285 173.034L78.1625 172L70.26 164.101Z" fill="#625240"/>
<path d="M148.41 164.525L147.376 165.559L155.278 173.458L156.312 172.424L148.41 164.525Z" fill="#625240"/>
<path d="M135.314 151.429L134.28 152.463L142.183 160.362L143.217 159.329L135.314 151.429Z" fill="#625240"/>
<path d="M122.214 138.339L121.18 139.373L129.083 147.272L130.117 146.239L122.214 138.339Z" fill="#625240"/>
<path d="M109.129 125.254L108.095 126.287L115.997 134.186L117.031 133.153L109.129 125.254Z" fill="#625240"/>
<path d="M161.51 177.609L160.476 178.643L168.378 186.542L169.412 185.508L161.51 177.609Z" fill="#625240"/>
<path d="M174.595 190.701L173.561 191.734L181.463 199.634L182.497 198.6L174.595 190.701Z" fill="#625240"/>
<path d="M187.695 203.785L186.661 204.818L194.564 212.718L195.598 211.684L187.695 203.785Z" fill="#625240"/>
<path d="M17.4519 33.6227L16.418 34.6562L24.3204 42.5555L25.3544 41.522L17.4519 33.6227Z" fill="#625240"/>
<path d="M30.5626 46.7157L29.5181 47.7598L37.4205 55.659L38.465 54.6149L30.5626 46.7157Z" fill="#625240"/>
<path d="M200.791 216.865L199.757 217.898L207.659 225.798L208.693 224.764L200.791 216.865Z" fill="#625240"/>
<path d="M43.6477 59.8082L42.6138 60.8418L50.5162 68.7411L51.5501 67.7075L43.6477 59.8082Z" fill="#625240"/>
<path d="M82.9331 99.068L81.8992 100.102L89.8016 108.001L90.8355 106.967L82.9331 99.068Z" fill="#625240"/>
<path d="M56.7478 72.8922L55.7139 73.9258L63.6163 81.825L64.6502 80.7915L56.7478 72.8922Z" fill="#625240"/>
<path d="M96.0288 112.162L94.9949 113.195L102.897 121.095L103.931 120.061L96.0288 112.162Z" fill="#625240"/>
<path d="M69.833 85.984L68.7991 87.0176L76.7015 94.9168L77.7355 93.8833L69.833 85.984Z" fill="#625240"/>
<path d="M240.076 256.131L239.042 257.164L246.945 265.063L247.979 264.03L240.076 256.131Z" fill="#625240"/>
<path d="M213.876 230.002L212.842 231.035L220.744 238.934L221.778 237.901L213.876 230.002Z" fill="#625240"/>
<path d="M253.172 269.242L252.138 270.275L260.04 278.175L261.074 277.141L253.172 269.242Z" fill="#625240"/>
<path d="M266.257 282.328L265.223 283.361L273.126 291.261L274.16 290.227L266.257 282.328Z" fill="#625240"/>
<path d="M226.976 243.086L225.942 244.119L233.845 252.018L234.879 250.985L226.976 243.086Z" fill="#625240"/>
<path d="M331.311 269.67L330.277 270.703L338.18 278.602L339.213 277.569L331.311 269.67Z" fill="#625240"/>
<path d="M226.549 164.953L225.515 165.986L233.417 173.886L234.451 172.852L226.549 164.953Z" fill="#625240"/>
<path d="M305.126 243.525L304.092 244.559L311.994 252.458L313.028 251.424L305.126 243.525Z" fill="#625240"/>
<path d="M318.211 256.564L317.177 257.598L325.079 265.497L326.113 264.463L318.211 256.564Z" fill="#625240"/>
<path d="M252.745 191.117L251.711 192.15L259.613 200.05L260.647 199.016L252.745 191.117Z" fill="#625240"/>
<path d="M278.94 217.302L277.906 218.336L285.809 226.235L286.843 225.202L278.94 217.302Z" fill="#625240"/>
<path d="M239.66 178.033L238.626 179.066L246.528 186.966L247.562 185.932L239.66 178.033Z" fill="#625240"/>
<path d="M265.83 204.224L264.796 205.258L272.698 213.157L273.732 212.124L265.83 204.224Z" fill="#625240"/>
<path d="M292.015 230.398L290.981 231.432L298.884 239.331L299.918 238.297L292.015 230.398Z" fill="#625240"/>
<path d="M344.407 282.765L343.373 283.799L351.275 291.698L352.309 290.665L344.407 282.765Z" fill="#625240"/>
<path d="M56.3207 -5.21128L55.2867 -4.17773L63.1892 3.72153L64.2231 2.68798L56.3207 -5.21128Z" fill="#625240"/>
<path d="M69.4165 7.8688L68.3826 8.90234L76.285 16.8016L77.3189 15.7681L69.4165 7.8688Z" fill="#625240"/>
<path d="M213.464 151.845L212.43 152.879L220.332 160.778L221.366 159.745L213.464 151.845Z" fill="#625240"/>
<path d="M95.6016 34.0602L94.5676 35.0938L102.47 42.993L103.504 41.9595L95.6016 34.0602Z" fill="#625240"/>
<path d="M82.506 20.9645L81.472 21.998L89.3745 29.8973L90.4084 28.8638L82.506 20.9645Z" fill="#625240"/>
<path d="M108.702 47.1286L107.668 48.1621L115.57 56.0614L116.604 55.0278L108.702 47.1286Z" fill="#625240"/>
<path d="M187.268 125.681L186.234 126.715L194.137 134.614L195.171 133.581L187.268 125.681Z" fill="#625240"/>
<path d="M174.178 112.586L173.145 113.619L181.047 121.518L182.081 120.485L174.178 112.586Z" fill="#625240"/>
<path d="M200.364 138.777L199.33 139.811L207.232 147.71L208.266 146.676L200.364 138.777Z" fill="#625240"/>
<path d="M147.972 86.4118L146.938 87.4453L154.841 95.3446L155.875 94.311L147.972 86.4118Z" fill="#625240"/>
<path d="M134.897 73.3297L133.864 74.3633L141.766 82.2625L142.8 81.229L134.897 73.3297Z" fill="#625240"/>
<path d="M161.083 99.4899L160.049 100.523L167.951 108.423L168.985 107.389L161.083 99.4899Z" fill="#625240"/>
<path d="M121.787 60.236L120.753 61.2695L128.655 69.1688L129.689 68.1352L121.787 60.236Z" fill="#625240"/>
<path d="M186.852 47.568L185.818 48.6016L193.72 56.5008L194.754 55.4673L186.852 47.568Z" fill="#625240"/>
<path d="M160.666 21.3922L159.632 22.4258L167.535 30.325L168.569 29.2915L160.666 21.3922Z" fill="#625240"/>
<path d="M173.741 34.4723L172.707 35.5059L180.609 43.4051L181.643 42.3716L173.741 34.4723Z" fill="#625240"/>
<path d="M199.947 60.6618L198.913 61.6953L206.815 69.5946L207.849 68.561L199.947 60.6618Z" fill="#625240"/>
<path d="M147.556 8.29653L146.522 9.33008L154.424 17.2293L155.458 16.1958L147.556 8.29653Z" fill="#625240"/>
<path d="M239.207 99.9196L238.173 100.953L246.076 108.852L247.109 107.819L239.207 99.9196Z" fill="#625240"/>
<path d="M226.143 86.8289L225.098 87.873L233.001 95.7723L234.045 94.7282L226.143 86.8289Z" fill="#625240"/>
<path d="M213.037 73.7438L212.003 74.7773L219.905 82.6766L220.939 81.6431L213.037 73.7438Z" fill="#625240"/>
<path d="M134.46 -4.79918L133.426 -3.76562L141.328 4.13364L142.362 3.10009L134.46 -4.79918Z" fill="#625240"/>
<path d="M252.318 113.013L251.284 114.047L259.186 121.946L260.22 120.913L252.318 113.013Z" fill="#625240"/>
<path d="M422.546 283.177L421.512 284.211L429.414 292.11L430.448 291.077L422.546 283.177Z" fill="#625240"/>
<path d="M396.361 256.957L395.327 257.99L403.229 265.89L404.263 264.856L396.361 256.957Z" fill="#625240"/>
<path d="M409.471 270.084L408.437 271.117L416.34 279.016L417.374 277.983L409.471 270.084Z" fill="#625240"/>
<path d="M383.265 243.953L382.231 244.986L390.133 252.886L391.167 251.852L383.265 243.953Z" fill="#625240"/>
<path d="M370.176 230.826L369.142 231.859L377.044 239.759L378.078 238.725L370.176 230.826Z" fill="#625240"/>
<path d="M357.08 217.732L356.046 218.766L363.948 226.665L364.982 225.631L357.08 217.732Z" fill="#625240"/>
<path d="M265.413 126.109L264.379 127.143L272.282 135.042L273.316 134.008L265.413 126.109Z" fill="#625240"/>
<path d="M304.709 165.365L303.675 166.398L311.578 174.298L312.612 173.264L304.709 165.365Z" fill="#625240"/>
<path d="M278.503 139.189L277.469 140.223L285.371 148.122L286.405 147.088L278.503 139.189Z" fill="#625240"/>
<path d="M291.599 152.285L290.565 153.318L298.467 161.218L299.501 160.184L291.599 152.285Z" fill="#625240"/>
<path d="M317.784 178.461L316.75 179.494L324.652 187.393L325.686 186.36L317.784 178.461Z" fill="#625240"/>
<path d="M343.969 204.636L342.935 205.67L350.837 213.569L351.871 212.536L343.969 204.636Z" fill="#625240"/>
<path d="M330.895 191.556L329.861 192.59L337.763 200.489L338.797 199.456L330.895 191.556Z" fill="#625240"/>
<path d="M264.976 47.9957L263.942 49.0293L271.844 56.9286L272.878 55.895L264.976 47.9957Z" fill="#625240"/>
<path d="M251.901 34.9001L250.867 35.9336L258.77 43.8329L259.804 42.7993L251.901 34.9001Z" fill="#625240"/>
<path d="M238.791 21.8063L237.757 22.8398L245.659 30.7391L246.693 29.7056L238.791 21.8063Z" fill="#625240"/>
<path d="M225.695 8.72427L224.661 9.75781L232.563 17.6571L233.597 16.6235L225.695 8.72427Z" fill="#625240"/>
<path d="M291.171 74.1813L290.137 75.2148L298.04 83.1141L299.074 82.0805L291.171 74.1813Z" fill="#625240"/>
<path d="M278.086 61.0758L277.052 62.1094L284.955 70.0086L285.989 68.9751L278.086 61.0758Z" fill="#625240"/>
<path d="M304.272 87.2516L303.238 88.2852L311.14 96.1844L312.174 95.1509L304.272 87.2516Z" fill="#625240"/>
<path d="M212.605 -4.37143L211.571 -3.33789L219.474 4.56137L220.508 3.52783L212.605 -4.37143Z" fill="#625240"/>
<path d="M317.382 100.361L316.348 101.395L324.251 109.294L325.285 108.26L317.382 100.361Z" fill="#625240"/>
<path d="M461.425 244.334L460.391 245.367L468.294 253.266L469.328 252.233L461.425 244.334Z" fill="#625240"/>
<path d="M435.219 218.158L434.185 219.191L442.087 227.091L443.121 226.057L435.219 218.158Z" fill="#625240"/>
<path d="M330.457 113.441L329.423 114.475L337.325 122.374L338.359 121.34L330.457 113.441Z" fill="#625240"/>
<path d="M448.314 231.256L447.281 232.289L455.183 240.188L456.217 239.155L448.314 231.256Z" fill="#625240"/>
<path d="M474.5 257.416L473.466 258.449L481.368 266.348L482.402 265.315L474.5 257.416Z" fill="#625240"/>
<path d="M356.663 139.617L355.629 140.65L363.532 148.55L364.566 147.516L356.663 139.617Z" fill="#625240"/>
<path d="M343.553 126.523L342.519 127.557L350.421 135.456L351.455 134.422L343.553 126.523Z" fill="#625240"/>
<path d="M369.738 152.713L368.704 153.746L376.606 161.645L377.64 160.612L369.738 152.713Z" fill="#625240"/>
<path d="M422.129 205.064L421.095 206.098L428.998 213.997L430.032 212.963L422.129 205.064Z" fill="#625240"/>
<path d="M409.034 191.968L408 193.002L415.902 200.901L416.936 199.868L409.034 191.968Z" fill="#625240"/>
<path d="M395.934 178.898L394.9 179.932L402.802 187.831L403.836 186.797L395.934 178.898Z" fill="#625240"/>
<path d="M382.848 165.808L381.814 166.842L389.717 174.741L390.751 173.708L382.848 165.808Z" fill="#625240"/>
<path d="M330.04 35.3278L329.006 36.3613L336.909 44.2606L337.943 43.2271L330.04 35.3278Z" fill="#625240"/>
<path d="M316.94 22.2438L315.906 23.2773L323.809 31.1766L324.843 30.1431L316.94 22.2438Z" fill="#625240"/>
<path d="M303.855 9.13832L302.821 10.1719L310.723 18.0711L311.757 17.0376L303.855 9.13832Z" fill="#625240"/>
<path d="M343.126 48.4196L342.092 49.4531L349.994 57.3524L351.028 56.3188L343.126 48.4196Z" fill="#625240"/>
<path d="M356.225 61.5036L355.192 62.5371L363.094 70.4364L364.128 69.4028L356.225 61.5036Z" fill="#625240"/>
<path d="M290.744 -3.9437L289.71 -2.91016L297.613 4.98911L298.647 3.95556L290.744 -3.9437Z" fill="#625240"/>
<path d="M369.321 74.5836L368.287 75.6172L376.19 83.5165L377.224 82.4829L369.321 74.5836Z" fill="#625240"/>
<path d="M408.602 113.855L407.568 114.889L415.471 122.788L416.505 121.754L408.602 113.855Z" fill="#625240"/>
<path d="M382.421 87.6891L381.387 88.7227L389.29 96.6219L390.324 95.5884L382.421 87.6891Z" fill="#625240"/>
<path d="M421.702 126.961L420.668 127.994L428.571 135.893L429.605 134.86L421.702 126.961Z" fill="#625240"/>
<path d="M395.506 100.775L394.472 101.809L402.375 109.708L403.409 108.674L395.506 100.775Z" fill="#625240"/>
<path d="M434.802 140.045L433.768 141.078L441.671 148.977L442.705 147.944L434.802 140.045Z" fill="#625240"/>
<path d="M474.083 179.3L473.049 180.334L480.952 188.233L481.986 187.2L474.083 179.3Z" fill="#625240"/>
<path d="M447.902 153.166L446.868 154.199L454.771 162.098L455.805 161.065L447.902 153.166Z" fill="#625240"/>
<path d="M460.988 166.22L459.954 167.254L467.856 175.153L468.89 174.12L460.988 166.22Z" fill="#625240"/>
<path d="M381.994 9.56607L380.96 10.5996L388.863 18.4989L389.897 17.4653L381.994 9.56607Z" fill="#625240"/>
<path d="M368.909 -3.50425L367.875 -2.4707L375.777 5.42856L376.811 4.39502L368.909 -3.50425Z" fill="#625240"/>
<path d="M395.079 22.6559L394.045 23.6895L401.948 31.5887L402.982 30.5552L395.079 22.6559Z" fill="#625240"/>
<path d="M408.19 35.7516L407.156 36.7852L415.058 44.6844L416.092 43.6509L408.19 35.7516Z" fill="#625240"/>
<path d="M421.275 48.8375L420.241 49.8711L428.144 57.7704L429.178 56.7368L421.275 48.8375Z" fill="#625240"/>
<path d="M434.36 61.9274L433.326 62.9609L441.229 70.8602L442.263 69.8267L434.36 61.9274Z" fill="#625240"/>
<path d="M447.471 75.0231L446.437 76.0566L454.339 83.9559L455.373 82.9224L447.471 75.0231Z" fill="#625240"/>
<path d="M460.556 88.1071L459.522 89.1406L467.425 97.0399L468.458 96.0064L460.556 88.1071Z" fill="#625240"/>
<path d="M473.656 101.197L472.622 102.23L480.525 110.13L481.559 109.096L473.656 101.197Z" fill="#625240"/>
<path d="M460.129 10.0035L459.095 11.0371L466.997 18.9364L468.031 17.9028L460.129 10.0035Z" fill="#625240"/>
<path d="M447.044 -3.10189L446.01 -2.06836L453.912 5.8309L454.946 4.79737L447.044 -3.10189Z" fill="#625240"/>
<path d="M473.24 23.0836L472.206 24.1172L480.108 32.0164L481.142 30.9829L473.24 23.0836Z" fill="#625240"/>
<path d="M467.53 281.044L459.628 288.943L460.662 289.977L468.564 282.078L467.53 281.044Z" fill="#625240"/>
<path d="M480.616 267.909L472.713 275.809L473.747 276.842L481.65 268.943L480.616 267.909Z" fill="#625240"/>
<path d="M454.858 216.05L446.955 223.949L447.989 224.983L455.892 217.083L454.858 216.05Z" fill="#625240"/>
<path d="M481.044 189.845L473.141 197.744L474.175 198.778L482.078 190.878L481.044 189.845Z" fill="#625240"/>
<path d="M467.969 202.941L460.066 210.84L461.1 211.873L469.003 203.974L467.969 202.941Z" fill="#625240"/>
<path d="M441.757 229.112L433.855 237.012L434.889 238.045L442.791 230.146L441.757 229.112Z" fill="#625240"/>
<path d="M428.672 242.226L420.769 250.125L421.803 251.159L429.706 243.259L428.672 242.226Z" fill="#625240"/>
<path d="M415.571 255.284L407.669 263.184L408.703 264.217L416.605 256.318L415.571 255.284Z" fill="#625240"/>
<path d="M402.471 268.39L394.568 276.289L395.602 277.323L403.504 269.423L402.471 268.39Z" fill="#625240"/>
<path d="M389.385 281.476L381.483 289.375L382.517 290.409L390.419 282.509L389.385 281.476Z" fill="#625240"/>
<path d="M455.271 137.913L447.368 145.812L448.402 146.846L456.305 138.947L455.271 137.913Z" fill="#625240"/>
<path d="M468.371 124.823L460.469 132.723L461.503 133.756L469.405 125.857L468.371 124.823Z" fill="#625240"/>
<path d="M481.482 111.728L473.58 119.627L474.614 120.66L482.516 112.761L481.482 111.728Z" fill="#625240"/>
<path d="M442.196 151.007L434.293 158.906L435.327 159.94L443.23 152.041L442.196 151.007Z" fill="#625240"/>
<path d="M416.01 177.183L408.107 185.082L409.141 186.116L417.044 178.216L416.01 177.183Z" fill="#625240"/>
<path d="M429.085 164.087L421.182 171.986L422.216 173.02L430.119 165.121L429.085 164.087Z" fill="#625240"/>
<path d="M402.899 190.261L394.996 198.16L396.03 199.194L403.932 191.294L402.899 190.261Z" fill="#625240"/>
<path d="M389.798 203.368L381.896 211.268L382.929 212.301L390.832 204.402L389.798 203.368Z" fill="#625240"/>
<path d="M350.526 242.663L342.624 250.562L343.658 251.596L351.56 243.697L350.526 242.663Z" fill="#625240"/>
<path d="M363.612 229.527L355.709 237.426L356.743 238.459L364.646 230.56L363.612 229.527Z" fill="#625240"/>
<path d="M376.723 216.448L368.821 224.348L369.855 225.381L377.757 217.482L376.723 216.448Z" fill="#625240"/>
<path d="M337.437 255.714L329.534 263.613L330.568 264.647L338.471 256.748L337.437 255.714Z" fill="#625240"/>
<path d="M324.326 268.808L316.423 276.707L317.457 277.741L325.359 269.841L324.326 268.808Z" fill="#625240"/>
<path d="M311.24 281.913L303.337 289.812L304.371 290.846L312.274 282.947L311.24 281.913Z" fill="#625240"/>
<path d="M390.237 125.249L382.334 133.148L383.368 134.182L391.271 126.283L390.237 125.249Z" fill="#625240"/>
<path d="M403.326 112.155L395.424 120.055L396.458 121.088L404.36 113.189L403.326 112.155Z" fill="#625240"/>
<path d="M416.412 99.0636L408.51 106.963L409.544 107.996L417.446 100.097L416.412 99.0636Z" fill="#625240"/>
<path d="M429.523 85.9679L421.621 93.8672L422.655 94.9007L430.557 87.0015L429.523 85.9679Z" fill="#625240"/>
<path d="M350.95 164.515L343.048 172.414L344.082 173.448L351.984 165.548L350.95 164.515Z" fill="#625240"/>
<path d="M377.126 138.329L369.223 146.229L370.257 147.262L378.16 139.363L377.126 138.329Z" fill="#625240"/>
<path d="M364.051 151.409L356.148 159.309L357.182 160.342L365.085 152.443L364.051 151.409Z" fill="#625240"/>
<path d="M481.885 33.6086L473.982 41.5078L475.016 42.5414L482.919 34.6421L481.885 33.6086Z" fill="#625240"/>
<path d="M337.854 177.609L329.951 185.508L330.985 186.541L338.888 178.642L337.854 177.609Z" fill="#625240"/>
<path d="M442.598 72.8898L434.696 80.7891L435.73 81.8226L443.632 73.9234L442.598 72.8898Z" fill="#625240"/>
<path d="M455.709 59.8097L447.807 67.709L448.841 68.7425L456.743 60.8432L455.709 59.8097Z" fill="#625240"/>
<path d="M468.81 46.7023L460.907 54.6016L461.941 55.6351L469.844 47.7358L468.81 46.7023Z" fill="#625240"/>
<path d="M311.653 203.784L303.75 211.684L304.784 212.717L312.687 204.818L311.653 203.784Z" fill="#625240"/>
<path d="M298.567 216.859L290.665 224.758L291.699 225.791L299.601 217.892L298.567 216.859Z" fill="#625240"/>
<path d="M324.764 190.689L316.862 198.588L317.896 199.621L325.798 191.722L324.764 190.689Z" fill="#625240"/>
<path d="M285.477 229.939L277.575 237.838L278.609 238.871L286.511 230.972L285.477 229.939Z" fill="#625240"/>
<path d="M272.366 243.05L264.464 250.949L265.498 251.983L273.4 244.084L272.366 243.05Z" fill="#625240"/>
<path d="M233.095 282.314L225.192 290.213L226.226 291.246L234.129 283.347L233.095 282.314Z" fill="#625240"/>
<path d="M246.191 269.234L238.289 277.133L239.323 278.166L247.225 270.267L246.191 269.234Z" fill="#625240"/>
<path d="M259.291 256.13L251.389 264.029L252.423 265.063L260.325 257.164L259.291 256.13Z" fill="#625240"/>
<path d="M390.639 47.1008L382.737 55L383.771 56.0335L391.673 48.1343L390.639 47.1008Z" fill="#625240"/>
<path d="M351.368 86.4093L343.465 94.3086L344.499 95.3421L352.401 87.4429L351.368 86.4093Z" fill="#625240"/>
<path d="M377.564 60.2101L369.662 68.1094L370.696 69.1429L378.598 61.2437L377.564 60.2101Z" fill="#625240"/>
<path d="M364.463 73.3L356.561 81.1992L357.595 82.2328L365.497 74.3335L364.463 73.3Z" fill="#625240"/>
<path d="M298.991 138.771L291.089 146.67L292.122 147.703L300.025 139.804L298.991 138.771Z" fill="#625240"/>
<path d="M312.081 125.675L304.178 133.574L305.212 134.608L313.115 126.708L312.081 125.675Z" fill="#625240"/>
<path d="M338.277 99.4914L330.375 107.391L331.409 108.424L339.311 100.525L338.277 99.4914Z" fill="#625240"/>
<path d="M325.192 112.581L317.29 120.48L318.324 121.514L326.226 113.615L325.192 112.581Z" fill="#625240"/>
<path d="M403.75 34.0343L395.848 41.9336L396.882 42.9671L404.784 35.0679L403.75 34.0343Z" fill="#625240"/>
<path d="M285.895 151.851L277.992 159.75L279.026 160.784L286.929 152.884L285.895 151.851Z" fill="#625240"/>
<path d="M416.84 20.9562L408.938 28.8555L409.971 29.889L417.874 21.9898L416.84 20.9562Z" fill="#625240"/>
<path d="M443.037 -5.22933L435.134 2.66992L436.168 3.70347L444.071 -4.19578L443.037 -5.22933Z" fill="#625240"/>
<path d="M429.951 7.86052L422.049 15.7598L423.083 16.7933L430.985 8.89406L429.951 7.86052Z" fill="#625240"/>
<path d="M168.046 269.652L160.143 277.551L161.177 278.584L169.08 270.685L168.046 269.652Z" fill="#625240"/>
<path d="M272.805 164.931L264.902 172.83L265.936 173.864L273.839 165.964L272.805 164.931Z" fill="#625240"/>
<path d="M154.945 282.741L147.043 290.641L148.077 291.674L155.979 283.775L154.945 282.741Z" fill="#625240"/>
<path d="M233.518 204.195L225.616 212.094L226.65 213.127L234.552 205.228L233.518 204.195Z" fill="#625240"/>
<path d="M181.136 256.556L173.233 264.455L174.267 265.489L182.17 257.589L181.136 256.556Z" fill="#625240"/>
<path d="M259.704 178.036L251.802 185.936L252.836 186.969L260.738 179.07L259.704 178.036Z" fill="#625240"/>
<path d="M246.608 191.116L238.706 199.016L239.74 200.049L247.642 192.15L246.608 191.116Z" fill="#625240"/>
<path d="M220.433 217.3L212.53 225.199L213.564 226.233L221.467 218.334L220.433 217.3Z" fill="#625240"/>
<path d="M194.232 243.476L186.329 251.375L187.363 252.409L195.266 244.509L194.232 243.476Z" fill="#625240"/>
<path d="M207.322 230.366L199.419 238.266L200.453 239.299L208.356 231.4L207.322 230.366Z" fill="#625240"/>
<path d="M142.273 217.718L134.37 225.617L135.404 226.651L143.306 218.751L142.273 217.718Z" fill="#625240"/>
<path d="M155.363 204.638L147.46 212.537L148.494 213.571L156.397 205.671L155.363 204.638Z" fill="#625240"/>
<path d="M129.172 230.837L121.27 238.736L122.304 239.77L130.206 231.871L129.172 230.837Z" fill="#625240"/>
<path d="M220.846 139.173L212.943 147.072L213.977 148.106L221.88 140.207L220.846 139.173Z" fill="#625240"/>
<path d="M207.76 152.278L199.858 160.178L200.892 161.211L208.794 153.312L207.76 152.278Z" fill="#625240"/>
<path d="M168.474 191.542L160.571 199.441L161.605 200.475L169.508 192.576L168.474 191.542Z" fill="#625240"/>
<path d="M194.66 165.368L186.757 173.268L187.791 174.301L195.694 166.402L194.66 165.368Z" fill="#625240"/>
<path d="M116.089 243.901L108.185 251.799L109.219 252.833L117.123 244.935L116.089 243.901Z" fill="#625240"/>
<path d="M181.559 178.452L173.657 186.352L174.691 187.385L182.593 179.486L181.559 178.452Z" fill="#625240"/>
<path d="M103.001 256.999L95.0986 264.898L96.1326 265.932L104.035 258.033L103.001 256.999Z" fill="#625240"/>
<path d="M89.9005 270.089L81.998 277.988L83.032 279.022L90.9344 271.123L89.9005 270.089Z" fill="#625240"/>
<path d="M76.8001 283.157L68.8977 291.057L69.9317 292.09L77.8341 284.191L76.8001 283.157Z" fill="#625240"/>
<path d="M364.866 -4.81723L356.964 3.08203L357.998 4.11558L365.9 -3.78369L364.866 -4.81723Z" fill="#625240"/>
<path d="M351.806 8.30777L343.904 16.207L344.938 17.2406L352.84 9.34131L351.806 8.30777Z" fill="#625240"/>
<path d="M338.691 21.3664L330.788 29.2656L331.822 30.2992L339.724 22.3999L338.691 21.3664Z" fill="#625240"/>
<path d="M233.946 126.103L226.044 134.002L227.078 135.035L234.98 127.136L233.946 126.103Z" fill="#625240"/>
<path d="M260.122 99.9328L252.219 107.832L253.253 108.866L261.156 100.966L260.122 99.9328Z" fill="#625240"/>
<path d="M273.233 86.8234L265.33 94.7227L266.364 95.7562L274.267 87.857L273.233 86.8234Z" fill="#625240"/>
<path d="M325.605 34.4523L317.703 42.3516L318.737 43.3851L326.639 35.4859L325.605 34.4523Z" fill="#625240"/>
<path d="M247.032 112.997L239.129 120.896L240.163 121.93L248.066 114.031L247.032 112.997Z" fill="#625240"/>
<path d="M312.504 47.5285L304.602 55.4277L305.636 56.4613L313.538 48.562L312.504 47.5285Z" fill="#625240"/>
<path d="M286.318 73.7336L278.416 81.6328L279.45 82.6664L287.352 74.7671L286.318 73.7336Z" fill="#625240"/>
<path d="M299.419 60.6769L291.516 68.5762L292.55 69.6097L300.453 61.7104L299.419 60.6769Z" fill="#625240"/>
<path d="M116.515 165.784L108.612 173.684L109.646 174.717L117.549 166.818L116.515 165.784Z" fill="#625240"/>
<path d="M168.897 113.425L160.995 121.324L162.029 122.358L169.931 114.459L168.897 113.425Z" fill="#625240"/>
<path d="M103.414 178.89L95.5116 186.789L96.5456 187.823L104.448 179.923L103.414 178.89Z" fill="#625240"/>
<path d="M129.6 152.694L121.698 160.594L122.732 161.627L130.634 153.728L129.6 152.694Z" fill="#625240"/>
<path d="M155.801 126.519L147.899 134.418L148.933 135.452L156.835 127.552L155.801 126.519Z" fill="#625240"/>
<path d="M77.2281 205.066L69.3257 212.965L70.3597 213.998L78.2621 206.099L77.2281 205.066Z" fill="#625240"/>
<path d="M142.701 139.611L134.798 147.51L135.832 148.543L143.734 140.644L142.701 139.611Z" fill="#625240"/>
<path d="M90.3284 191.96L82.426 199.859L83.46 200.893L91.3624 192.994L90.3284 191.96Z" fill="#625240"/>
<path d="M24.826 257.429L16.9236 265.328L17.9575 266.362L25.86 258.462L24.826 257.429Z" fill="#625240"/>
<path d="M64.138 218.144L56.2356 226.043L57.2696 227.077L65.172 219.177L64.138 218.144Z" fill="#625240"/>
<path d="M51.057 231.21L43.1545 239.109L44.1885 240.143L52.0909 232.244L51.057 231.21Z" fill="#625240"/>
<path d="M37.9415 244.331L30.0391 252.23L31.073 253.264L38.9755 245.365L37.9415 244.331Z" fill="#625240"/>
<path d="M286.761 -4.36019L278.859 3.53906L279.893 4.57261L287.795 -3.32664L286.761 -4.36019Z" fill="#625240"/>
<path d="M273.656 8.69058L265.754 16.5898L266.788 17.6234L274.69 9.72413L273.656 8.69058Z" fill="#625240"/>
<path d="M208.173 74.171L200.271 82.0703L201.305 83.1039L209.207 75.2046L208.173 74.171Z" fill="#625240"/>
<path d="M181.987 100.345L174.085 108.244L175.119 109.278L183.021 101.378L181.987 100.345Z" fill="#625240"/>
<path d="M195.088 87.2531L187.185 95.1523L188.219 96.1859L196.122 88.2866L195.088 87.2531Z" fill="#625240"/>
<path d="M221.274 61.0949L213.371 68.9941L214.405 70.0277L222.308 62.1284L221.274 61.0949Z" fill="#625240"/>
<path d="M260.56 21.8L252.658 29.6992L253.692 30.7328L261.594 22.8335L260.56 21.8Z" fill="#625240"/>
<path d="M234.359 47.9738L226.457 55.873L227.491 56.9066L235.393 49.0073L234.359 47.9738Z" fill="#625240"/>
<path d="M247.46 34.8898L239.557 42.7891L240.591 43.8226L248.494 35.9233L247.46 34.8898Z" fill="#625240"/>
<path d="M64.5555 140.027L56.6531 147.926L57.687 148.959L65.5895 141.06L64.5555 140.027Z" fill="#625240"/>
<path d="M51.4549 153.132L43.5525 161.031L44.5864 162.065L52.4889 154.166L51.4549 153.132Z" fill="#625240"/>
<path d="M77.6666 126.946L69.7642 134.846L70.7981 135.879L78.7005 127.98L77.6666 126.946Z" fill="#625240"/>
<path d="M103.842 100.761L95.9396 108.66L96.9735 109.694L104.876 101.794L103.842 100.761Z" fill="#625240"/>
<path d="M90.7415 113.851L82.8391 121.75L83.8731 122.784L91.7755 114.884L90.7415 113.851Z" fill="#625240"/>
<path d="M38.38 166.21L30.4775 174.109L31.5115 175.143L39.4139 167.244L38.38 166.21Z" fill="#625240"/>
<path d="M25.2689 179.306L17.3665 187.205L18.4004 188.239L26.3028 180.339L25.2689 179.306Z" fill="#625240"/>
<path d="M116.938 87.6808L109.036 95.5801L110.07 96.6136L117.972 88.7144L116.938 87.6808Z" fill="#625240"/>
<path d="M130.028 74.5851L122.126 82.4844L123.16 83.5179L131.062 75.6187L130.028 74.5851Z" fill="#625240"/>
<path d="M156.214 48.4113L148.312 56.3105L149.346 57.3441L157.248 49.4448L156.214 48.4113Z" fill="#625240"/>
<path d="M169.315 35.3058L161.412 43.2051L162.446 44.2386L170.349 36.3394L169.315 35.3058Z" fill="#625240"/>
<path d="M143.139 61.4914L135.237 69.3906L136.271 70.4242L144.173 62.5249L143.139 61.4914Z" fill="#625240"/>
<path d="M182.426 22.2414L174.523 30.1406L175.557 31.1742L183.46 23.2749L182.426 22.2414Z" fill="#625240"/>
<path d="M208.601 -3.94418L200.699 3.95508L201.733 4.98863L209.635 -2.91063L208.601 -3.94418Z" fill="#625240"/>
<path d="M195.501 9.13199L187.598 17.0312L188.632 18.0648L196.535 10.1655L195.501 9.13199Z" fill="#625240"/>
<path d="M25.7073 101.189L17.8049 109.088L18.8389 110.121L26.7413 102.222L25.7073 101.189Z" fill="#625240"/>
<path d="M38.7973 88.0929L30.8949 95.9922L31.9289 97.0257L39.8313 89.1265L38.7973 88.0929Z" fill="#625240"/>
<path d="M51.8934 75.0128L43.991 82.9121L45.0249 83.9457L52.9273 76.0464L51.8934 75.0128Z" fill="#625240"/>
<path d="M64.9686 61.9328L57.0662 69.832L58.1001 70.8656L66.0025 62.9663L64.9686 61.9328Z" fill="#625240"/>
<path d="M78.0838 48.8136L70.1814 56.7129L71.2154 57.7464L79.1178 49.8472L78.0838 48.8136Z" fill="#625240"/>
<path d="M91.18 35.7336L83.2776 43.6328L84.3116 44.6664L92.214 36.7671L91.18 35.7336Z" fill="#625240"/>
<path d="M104.27 22.6671L96.3674 30.5664L97.4014 31.6L105.304 23.7007L104.27 22.6671Z" fill="#625240"/>
<path d="M130.467 -3.5477L122.564 4.35156L123.598 5.38511L131.501 -2.51416L130.467 -3.5477Z" fill="#625240"/>
<path d="M117.356 9.56168L109.453 17.4609L110.487 18.4945L118.389 10.5952L117.356 9.56168Z" fill="#625240"/>
<path d="M26.1204 23.0812L18.218 30.9805L19.252 32.014L27.1544 24.1148L26.1204 23.0812Z" fill="#625240"/>
<path d="M39.2209 9.98941L31.3185 17.8887L32.3524 18.9222L40.2549 11.023L39.2209 9.98941Z" fill="#625240"/>
<path d="M52.3109 -3.10629L44.4084 4.79297L45.4424 5.82652L53.3448 -2.07274L52.3109 -3.10629Z" fill="#625240"/>
</g>
<g clip-path="url(#clip3_938_6005)">
<path d="M956.269 267.963L955.235 268.996L963.138 276.895L964.172 275.862L956.269 267.963Z" fill="#625240"/>
<path d="M969.365 281.058L968.331 282.092L976.233 289.991L977.267 288.957L969.365 281.058Z" fill="#625240"/>
<path d="M1047.5 281.47L1046.47 282.504L1054.37 290.403L1055.41 289.37L1047.5 281.47Z" fill="#625240"/>
<path d="M1021.32 255.297L1020.29 256.33L1028.19 264.229L1029.22 263.196L1021.32 255.297Z" fill="#625240"/>
<path d="M1034.4 268.4L1033.37 269.434L1041.27 277.333L1042.31 276.299L1034.4 268.4Z" fill="#625240"/>
<path d="M955.853 189.849L954.819 190.883L962.721 198.782L963.755 197.749L955.853 189.849Z" fill="#625240"/>
<path d="M1008.22 242.185L1007.19 243.219L1015.09 251.118L1016.13 250.084L1008.22 242.185Z" fill="#625240"/>
<path d="M968.928 202.943L967.894 203.977L975.796 211.876L976.83 210.842L968.928 202.943Z" fill="#625240"/>
<path d="M982.023 216.025L980.989 217.059L988.892 224.958L989.926 223.924L982.023 216.025Z" fill="#625240"/>
<path d="M995.134 229.119L994.1 230.152L1002 238.052L1003.04 237.018L995.134 229.119Z" fill="#625240"/>
<path d="M1125.65 281.91L1124.62 282.943L1132.52 290.843L1133.56 289.809L1125.65 281.91Z" fill="#625240"/>
<path d="M1060.17 216.463L1059.14 217.496L1067.04 225.395L1068.08 224.362L1060.17 216.463Z" fill="#625240"/>
<path d="M1086.37 242.625L1085.34 243.658L1093.24 251.557L1094.28 250.524L1086.37 242.625Z" fill="#625240"/>
<path d="M1047.09 203.373L1046.05 204.406L1053.96 212.306L1054.99 211.272L1047.09 203.373Z" fill="#625240"/>
<path d="M1112.56 268.807L1111.52 269.852L1119.42 277.751L1120.47 276.707L1112.56 268.807Z" fill="#625240"/>
<path d="M1099.46 255.724L1098.42 256.758L1106.33 264.657L1107.36 263.624L1099.46 255.724Z" fill="#625240"/>
<path d="M1073.27 229.548L1072.24 230.582L1080.14 238.481L1081.18 237.448L1073.27 229.548Z" fill="#625240"/>
<path d="M968.511 124.83L967.477 125.863L975.379 133.763L976.413 132.729L968.511 124.83Z" fill="#625240"/>
<path d="M981.611 137.922L980.577 138.955L988.479 146.854L989.513 145.821L981.611 137.922Z" fill="#625240"/>
<path d="M955.426 111.746L954.392 112.779L962.294 120.679L963.328 119.645L955.426 111.746Z" fill="#625240"/>
<path d="M1033.98 190.277L1032.94 191.311L1040.85 199.21L1041.88 198.176L1033.98 190.277Z" fill="#625240"/>
<path d="M994.696 151.006L993.662 152.039L1001.56 159.938L1002.6 158.905L994.696 151.006Z" fill="#625240"/>
<path d="M1020.89 177.193L1019.86 178.227L1027.76 186.126L1028.79 185.092L1020.89 177.193Z" fill="#625240"/>
<path d="M1007.79 164.101L1006.76 165.135L1014.66 173.034L1015.69 172L1007.79 164.101Z" fill="#625240"/>
<path d="M1085.94 164.525L1084.91 165.559L1092.81 173.458L1093.84 172.424L1085.94 164.525Z" fill="#625240"/>
<path d="M1072.85 151.429L1071.81 152.463L1079.71 160.362L1080.75 159.329L1072.85 151.429Z" fill="#625240"/>
<path d="M1059.75 138.339L1058.71 139.373L1066.61 147.272L1067.65 146.239L1059.75 138.339Z" fill="#625240"/>
<path d="M1046.66 125.254L1045.63 126.287L1053.53 134.186L1054.56 133.153L1046.66 125.254Z" fill="#625240"/>
<path d="M1099.04 177.609L1098.01 178.643L1105.91 186.542L1106.94 185.508L1099.04 177.609Z" fill="#625240"/>
<path d="M1112.13 190.701L1111.09 191.734L1119 199.634L1120.03 198.6L1112.13 190.701Z" fill="#625240"/>
<path d="M1125.23 203.785L1124.19 204.818L1132.1 212.718L1133.13 211.684L1125.23 203.785Z" fill="#625240"/>
<path d="M954.984 33.6227L953.95 34.6562L961.852 42.5555L962.886 41.522L954.984 33.6227Z" fill="#625240"/>
<path d="M968.094 46.7157L967.05 47.7598L974.952 55.659L975.997 54.6149L968.094 46.7157Z" fill="#625240"/>
<path d="M1138.32 216.865L1137.29 217.898L1145.19 225.798L1146.22 224.764L1138.32 216.865Z" fill="#625240"/>
<path d="M981.179 59.8082L980.146 60.8418L988.048 68.7411L989.082 67.7075L981.179 59.8082Z" fill="#625240"/>
<path d="M1020.46 99.068L1019.43 100.102L1027.33 108.001L1028.37 106.967L1020.46 99.068Z" fill="#625240"/>
<path d="M994.28 72.8922L993.246 73.9258L1001.15 81.825L1002.18 80.7915L994.28 72.8922Z" fill="#625240"/>
<path d="M1033.56 112.162L1032.53 113.195L1040.43 121.095L1041.46 120.061L1033.56 112.162Z" fill="#625240"/>
<path d="M1007.36 85.984L1006.33 87.0176L1014.23 94.9168L1015.27 93.8833L1007.36 85.984Z" fill="#625240"/>
<path d="M1177.61 256.131L1176.57 257.164L1184.48 265.063L1185.51 264.03L1177.61 256.131Z" fill="#625240"/>
<path d="M1151.41 230.002L1150.37 231.035L1158.28 238.934L1159.31 237.901L1151.41 230.002Z" fill="#625240"/>
<path d="M1190.7 269.242L1189.67 270.275L1197.57 278.175L1198.61 277.141L1190.7 269.242Z" fill="#625240"/>
<path d="M1203.79 282.328L1202.75 283.361L1210.66 291.261L1211.69 290.227L1203.79 282.328Z" fill="#625240"/>
<path d="M1164.51 243.086L1163.47 244.119L1171.38 252.018L1172.41 250.985L1164.51 243.086Z" fill="#625240"/>
<path d="M1268.84 269.67L1267.81 270.703L1275.71 278.602L1276.75 277.569L1268.84 269.67Z" fill="#625240"/>
<path d="M1164.08 164.953L1163.05 165.986L1170.95 173.886L1171.98 172.852L1164.08 164.953Z" fill="#625240"/>
<path d="M1242.66 243.525L1241.62 244.559L1249.53 252.458L1250.56 251.424L1242.66 243.525Z" fill="#625240"/>
<path d="M1255.74 256.564L1254.71 257.598L1262.61 265.497L1263.65 264.463L1255.74 256.564Z" fill="#625240"/>
<path d="M1190.28 191.117L1189.24 192.15L1197.14 200.05L1198.18 199.016L1190.28 191.117Z" fill="#625240"/>
<path d="M1216.47 217.302L1215.44 218.336L1223.34 226.235L1224.37 225.202L1216.47 217.302Z" fill="#625240"/>
<path d="M1177.19 178.033L1176.16 179.066L1184.06 186.966L1185.09 185.932L1177.19 178.033Z" fill="#625240"/>
<path d="M1203.36 204.224L1202.33 205.258L1210.23 213.157L1211.26 212.124L1203.36 204.224Z" fill="#625240"/>
<path d="M1229.55 230.398L1228.51 231.432L1236.42 239.331L1237.45 238.297L1229.55 230.398Z" fill="#625240"/>
<path d="M1281.94 282.765L1280.9 283.799L1288.81 291.698L1289.84 290.665L1281.94 282.765Z" fill="#625240"/>
<path d="M993.853 -5.21128L992.819 -4.17773L1000.72 3.72153L1001.75 2.68798L993.853 -5.21128Z" fill="#625240"/>
<path d="M1006.95 7.8688L1005.91 8.90234L1013.82 16.8016L1014.85 15.7681L1006.95 7.8688Z" fill="#625240"/>
<path d="M1151 151.845L1149.96 152.879L1157.86 160.778L1158.9 159.745L1151 151.845Z" fill="#625240"/>
<path d="M1033.13 34.0602L1032.1 35.0938L1040 42.993L1041.04 41.9595L1033.13 34.0602Z" fill="#625240"/>
<path d="M1020.04 20.9645L1019 21.998L1026.91 29.8973L1027.94 28.8638L1020.04 20.9645Z" fill="#625240"/>
<path d="M1046.23 47.1286L1045.2 48.1621L1053.1 56.0614L1054.14 55.0278L1046.23 47.1286Z" fill="#625240"/>
<path d="M1124.8 125.681L1123.77 126.715L1131.67 134.614L1132.7 133.581L1124.8 125.681Z" fill="#625240"/>
<path d="M1111.71 112.586L1110.68 113.619L1118.58 121.518L1119.61 120.485L1111.71 112.586Z" fill="#625240"/>
<path d="M1137.9 138.777L1136.86 139.811L1144.76 147.71L1145.8 146.676L1137.9 138.777Z" fill="#625240"/>
<path d="M1085.5 86.4118L1084.47 87.4453L1092.37 95.3446L1093.41 94.311L1085.5 86.4118Z" fill="#625240"/>
<path d="M1072.43 73.3297L1071.4 74.3633L1079.3 82.2625L1080.33 81.229L1072.43 73.3297Z" fill="#625240"/>
<path d="M1098.61 99.4899L1097.58 100.523L1105.48 108.423L1106.52 107.389L1098.61 99.4899Z" fill="#625240"/>
<path d="M1059.32 60.236L1058.28 61.2695L1066.19 69.1688L1067.22 68.1352L1059.32 60.236Z" fill="#625240"/>
<path d="M1124.38 47.568L1123.35 48.6016L1131.25 56.5008L1132.29 55.4673L1124.38 47.568Z" fill="#625240"/>
<path d="M1098.2 21.3922L1097.16 22.4258L1105.07 30.325L1106.1 29.2915L1098.2 21.3922Z" fill="#625240"/>
<path d="M1111.27 34.4723L1110.24 35.5059L1118.14 43.4051L1119.17 42.3716L1111.27 34.4723Z" fill="#625240"/>
<path d="M1137.48 60.6618L1136.44 61.6953L1144.35 69.5946L1145.38 68.561L1137.48 60.6618Z" fill="#625240"/>
<path d="M1085.09 8.29653L1084.05 9.33008L1091.96 17.2293L1092.99 16.1958L1085.09 8.29653Z" fill="#625240"/>
<path d="M1176.74 99.9196L1175.7 100.953L1183.61 108.852L1184.64 107.819L1176.74 99.9196Z" fill="#625240"/>
<path d="M1163.67 86.8289L1162.63 87.873L1170.53 95.7723L1171.58 94.7282L1163.67 86.8289Z" fill="#625240"/>
<path d="M1150.57 73.7438L1149.53 74.7773L1157.44 82.6766L1158.47 81.6431L1150.57 73.7438Z" fill="#625240"/>
<path d="M1071.99 -4.79918L1070.96 -3.76562L1078.86 4.13364L1079.89 3.10009L1071.99 -4.79918Z" fill="#625240"/>
<path d="M1189.85 113.013L1188.82 114.047L1196.72 121.946L1197.75 120.913L1189.85 113.013Z" fill="#625240"/>
<path d="M1360.08 283.177L1359.04 284.211L1366.95 292.11L1367.98 291.077L1360.08 283.177Z" fill="#625240"/>
<path d="M1333.89 256.957L1332.86 257.99L1340.76 265.89L1341.79 264.856L1333.89 256.957Z" fill="#625240"/>
<path d="M1347 270.084L1345.97 271.117L1353.87 279.016L1354.91 277.983L1347 270.084Z" fill="#625240"/>
<path d="M1320.8 243.953L1319.76 244.986L1327.67 252.886L1328.7 251.852L1320.8 243.953Z" fill="#625240"/>
<path d="M1307.71 230.826L1306.67 231.859L1314.58 239.759L1315.61 238.725L1307.71 230.826Z" fill="#625240"/>
<path d="M1294.61 217.732L1293.58 218.766L1301.48 226.665L1302.51 225.631L1294.61 217.732Z" fill="#625240"/>
<path d="M1202.95 126.109L1201.91 127.143L1209.81 135.042L1210.85 134.008L1202.95 126.109Z" fill="#625240"/>
<path d="M1242.24 165.365L1241.21 166.398L1249.11 174.298L1250.14 173.264L1242.24 165.365Z" fill="#625240"/>
<path d="M1216.03 139.189L1215 140.223L1222.9 148.122L1223.94 147.088L1216.03 139.189Z" fill="#625240"/>
<path d="M1229.13 152.285L1228.1 153.318L1236 161.218L1237.03 160.184L1229.13 152.285Z" fill="#625240"/>
<path d="M1255.32 178.461L1254.28 179.494L1262.18 187.393L1263.22 186.36L1255.32 178.461Z" fill="#625240"/>
<path d="M1281.5 204.636L1280.47 205.67L1288.37 213.569L1289.4 212.536L1281.5 204.636Z" fill="#625240"/>
<path d="M1268.43 191.556L1267.39 192.59L1275.29 200.489L1276.33 199.456L1268.43 191.556Z" fill="#625240"/>
<path d="M1202.51 47.9957L1201.47 49.0293L1209.38 56.9286L1210.41 55.895L1202.51 47.9957Z" fill="#625240"/>
<path d="M1189.43 34.9001L1188.4 35.9336L1196.3 43.8329L1197.34 42.7993L1189.43 34.9001Z" fill="#625240"/>
<path d="M1176.32 21.8063L1175.29 22.8398L1183.19 30.7391L1184.22 29.7056L1176.32 21.8063Z" fill="#625240"/>
<path d="M1163.23 8.72427L1162.19 9.75781L1170.1 17.6571L1171.13 16.6235L1163.23 8.72427Z" fill="#625240"/>
<path d="M1228.7 74.1813L1227.67 75.2148L1235.57 83.1141L1236.61 82.0805L1228.7 74.1813Z" fill="#625240"/>
<path d="M1215.62 61.0758L1214.58 62.1094L1222.49 70.0086L1223.52 68.9751L1215.62 61.0758Z" fill="#625240"/>
<path d="M1241.8 87.2516L1240.77 88.2852L1248.67 96.1844L1249.71 95.1509L1241.8 87.2516Z" fill="#625240"/>
<path d="M1150.14 -4.37143L1149.1 -3.33789L1157.01 4.56137L1158.04 3.52783L1150.14 -4.37143Z" fill="#625240"/>
<path d="M1254.91 100.361L1253.88 101.395L1261.78 109.294L1262.82 108.26L1254.91 100.361Z" fill="#625240"/>
<path d="M1398.96 244.334L1397.92 245.367L1405.83 253.266L1406.86 252.233L1398.96 244.334Z" fill="#625240"/>
<path d="M1372.75 218.158L1371.72 219.191L1379.62 227.091L1380.65 226.057L1372.75 218.158Z" fill="#625240"/>
<path d="M1267.99 113.441L1266.95 114.475L1274.86 122.374L1275.89 121.34L1267.99 113.441Z" fill="#625240"/>
<path d="M1385.85 231.256L1384.81 232.289L1392.71 240.188L1393.75 239.155L1385.85 231.256Z" fill="#625240"/>
<path d="M1412.03 257.416L1411 258.449L1418.9 266.348L1419.93 265.315L1412.03 257.416Z" fill="#625240"/>
<path d="M1294.19 139.617L1293.16 140.65L1301.06 148.55L1302.1 147.516L1294.19 139.617Z" fill="#625240"/>
<path d="M1281.08 126.523L1280.05 127.557L1287.95 135.456L1288.99 134.422L1281.08 126.523Z" fill="#625240"/>
<path d="M1307.27 152.713L1306.24 153.746L1314.14 161.645L1315.17 160.612L1307.27 152.713Z" fill="#625240"/>
<path d="M1359.66 205.064L1358.63 206.098L1366.53 213.997L1367.56 212.963L1359.66 205.064Z" fill="#625240"/>
<path d="M1346.57 191.968L1345.53 193.002L1353.43 200.901L1354.47 199.868L1346.57 191.968Z" fill="#625240"/>
<path d="M1333.47 178.898L1332.43 179.932L1340.33 187.831L1341.37 186.797L1333.47 178.898Z" fill="#625240"/>
<path d="M1320.38 165.808L1319.35 166.842L1327.25 174.741L1328.28 173.708L1320.38 165.808Z" fill="#625240"/>
<path d="M1267.57 35.3278L1266.54 36.3613L1274.44 44.2606L1275.47 43.2271L1267.57 35.3278Z" fill="#625240"/>
<path d="M1254.47 22.2438L1253.44 23.2773L1261.34 31.1766L1262.37 30.1431L1254.47 22.2438Z" fill="#625240"/>
<path d="M1241.39 9.13832L1240.35 10.1719L1248.26 18.0711L1249.29 17.0376L1241.39 9.13832Z" fill="#625240"/>
<path d="M1280.66 48.4196L1279.62 49.4531L1287.53 57.3524L1288.56 56.3188L1280.66 48.4196Z" fill="#625240"/>
<path d="M1293.76 61.5036L1292.72 62.5371L1300.63 70.4364L1301.66 69.4028L1293.76 61.5036Z" fill="#625240"/>
<path d="M1228.28 -3.9437L1227.24 -2.91016L1235.14 4.98911L1236.18 3.95556L1228.28 -3.9437Z" fill="#625240"/>
<path d="M1306.85 74.5836L1305.82 75.6172L1313.72 83.5165L1314.76 82.4829L1306.85 74.5836Z" fill="#625240"/>
<path d="M1346.13 113.855L1345.1 114.889L1353 122.788L1354.04 121.754L1346.13 113.855Z" fill="#625240"/>
<path d="M1319.95 87.6891L1318.92 88.7227L1326.82 96.6219L1327.86 95.5884L1319.95 87.6891Z" fill="#625240"/>
<path d="M1359.23 126.961L1358.2 127.994L1366.1 135.893L1367.14 134.86L1359.23 126.961Z" fill="#625240"/>
<path d="M1333.04 100.775L1332 101.809L1339.91 109.708L1340.94 108.674L1333.04 100.775Z" fill="#625240"/>
<path d="M1372.33 140.045L1371.3 141.078L1379.2 148.977L1380.24 147.944L1372.33 140.045Z" fill="#625240"/>
<path d="M1411.61 179.3L1410.58 180.334L1418.48 188.233L1419.52 187.2L1411.61 179.3Z" fill="#625240"/>
<path d="M1385.43 153.166L1384.4 154.199L1392.3 162.098L1393.34 161.065L1385.43 153.166Z" fill="#625240"/>
<path d="M1398.52 166.22L1397.49 167.254L1405.39 175.153L1406.42 174.12L1398.52 166.22Z" fill="#625240"/>
<path d="M1319.53 9.56607L1318.49 10.5996L1326.39 18.4989L1327.43 17.4653L1319.53 9.56607Z" fill="#625240"/>
<path d="M1306.44 -3.50425L1305.41 -2.4707L1313.31 5.42856L1314.34 4.39502L1306.44 -3.50425Z" fill="#625240"/>
<path d="M1332.61 22.6559L1331.58 23.6895L1339.48 31.5887L1340.51 30.5552L1332.61 22.6559Z" fill="#625240"/>
<path d="M1345.72 35.7516L1344.69 36.7852L1352.59 44.6844L1353.62 43.6509L1345.72 35.7516Z" fill="#625240"/>
<path d="M1358.81 48.8375L1357.77 49.8711L1365.68 57.7704L1366.71 56.7368L1358.81 48.8375Z" fill="#625240"/>
<path d="M1371.89 61.9274L1370.86 62.9609L1378.76 70.8602L1379.79 69.8267L1371.89 61.9274Z" fill="#625240"/>
<path d="M1385 75.0231L1383.97 76.0566L1391.87 83.9559L1392.91 82.9224L1385 75.0231Z" fill="#625240"/>
<path d="M1398.09 88.1071L1397.05 89.1406L1404.96 97.0399L1405.99 96.0064L1398.09 88.1071Z" fill="#625240"/>
<path d="M1411.19 101.197L1410.15 102.23L1418.06 110.13L1419.09 109.096L1411.19 101.197Z" fill="#625240"/>
<path d="M1397.66 10.0035L1396.63 11.0371L1404.53 18.9364L1405.56 17.9028L1397.66 10.0035Z" fill="#625240"/>
<path d="M1384.58 -3.10189L1383.54 -2.06836L1391.44 5.8309L1392.48 4.79737L1384.58 -3.10189Z" fill="#625240"/>
<path d="M1410.77 23.0836L1409.74 24.1172L1417.64 32.0164L1418.67 30.9829L1410.77 23.0836Z" fill="#625240"/>
<path d="M1405.06 281.044L1397.16 288.943L1398.19 289.977L1406.1 282.078L1405.06 281.044Z" fill="#625240"/>
<path d="M1418.15 267.909L1410.25 275.809L1411.28 276.842L1419.18 268.943L1418.15 267.909Z" fill="#625240"/>
<path d="M1392.39 216.05L1384.49 223.949L1385.52 224.983L1393.42 217.083L1392.39 216.05Z" fill="#625240"/>
<path d="M1418.58 189.845L1410.67 197.744L1411.71 198.778L1419.61 190.878L1418.58 189.845Z" fill="#625240"/>
<path d="M1405.5 202.941L1397.6 210.84L1398.63 211.873L1406.53 203.974L1405.5 202.941Z" fill="#625240"/>
<path d="M1379.29 229.112L1371.39 237.012L1372.42 238.045L1380.32 230.146L1379.29 229.112Z" fill="#625240"/>
<path d="M1366.2 242.226L1358.3 250.125L1359.33 251.159L1367.24 243.259L1366.2 242.226Z" fill="#625240"/>
<path d="M1353.1 255.284L1345.2 263.184L1346.23 264.217L1354.14 256.318L1353.1 255.284Z" fill="#625240"/>
<path d="M1340 268.39L1332.1 276.289L1333.13 277.323L1341.04 269.423L1340 268.39Z" fill="#625240"/>
<path d="M1326.92 281.476L1319.01 289.375L1320.05 290.409L1327.95 282.509L1326.92 281.476Z" fill="#625240"/>
<path d="M1392.8 137.913L1384.9 145.812L1385.93 146.846L1393.84 138.947L1392.8 137.913Z" fill="#625240"/>
<path d="M1405.9 124.823L1398 132.723L1399.03 133.756L1406.94 125.857L1405.9 124.823Z" fill="#625240"/>
<path d="M1419.01 111.728L1411.11 119.627L1412.15 120.66L1420.05 112.761L1419.01 111.728Z" fill="#625240"/>
<path d="M1379.73 151.007L1371.82 158.906L1372.86 159.94L1380.76 152.041L1379.73 151.007Z" fill="#625240"/>
<path d="M1353.54 177.183L1345.64 185.082L1346.67 186.116L1354.58 178.216L1353.54 177.183Z" fill="#625240"/>
<path d="M1366.62 164.087L1358.71 171.986L1359.75 173.02L1367.65 165.121L1366.62 164.087Z" fill="#625240"/>
<path d="M1340.43 190.261L1332.53 198.16L1333.56 199.194L1341.46 191.294L1340.43 190.261Z" fill="#625240"/>
<path d="M1327.33 203.368L1319.43 211.268L1320.46 212.301L1328.36 204.402L1327.33 203.368Z" fill="#625240"/>
<path d="M1288.06 242.663L1280.16 250.562L1281.19 251.596L1289.09 243.697L1288.06 242.663Z" fill="#625240"/>
<path d="M1301.14 229.527L1293.24 237.426L1294.28 238.459L1302.18 230.56L1301.14 229.527Z" fill="#625240"/>
<path d="M1314.25 216.448L1306.35 224.348L1307.39 225.381L1315.29 217.482L1314.25 216.448Z" fill="#625240"/>
<path d="M1274.97 255.714L1267.07 263.613L1268.1 264.647L1276 256.748L1274.97 255.714Z" fill="#625240"/>
<path d="M1261.86 268.808L1253.95 276.707L1254.99 277.741L1262.89 269.841L1261.86 268.808Z" fill="#625240"/>
<path d="M1248.77 281.913L1240.87 289.812L1241.9 290.846L1249.81 282.947L1248.77 281.913Z" fill="#625240"/>
<path d="M1327.77 125.249L1319.87 133.148L1320.9 134.182L1328.8 126.283L1327.77 125.249Z" fill="#625240"/>
<path d="M1340.86 112.155L1332.96 120.055L1333.99 121.088L1341.89 113.189L1340.86 112.155Z" fill="#625240"/>
<path d="M1353.94 99.0636L1346.04 106.963L1347.08 107.996L1354.98 100.097L1353.94 99.0636Z" fill="#625240"/>
<path d="M1367.05 85.9679L1359.15 93.8672L1360.19 94.9007L1368.09 87.0015L1367.05 85.9679Z" fill="#625240"/>
<path d="M1288.48 164.515L1280.58 172.414L1281.61 173.448L1289.52 165.548L1288.48 164.515Z" fill="#625240"/>
<path d="M1314.66 138.329L1306.75 146.229L1307.79 147.262L1315.69 139.363L1314.66 138.329Z" fill="#625240"/>
<path d="M1301.58 151.409L1293.68 159.309L1294.71 160.342L1302.62 152.443L1301.58 151.409Z" fill="#625240"/>
<path d="M1419.42 33.6086L1411.51 41.5078L1412.55 42.5414L1420.45 34.6421L1419.42 33.6086Z" fill="#625240"/>
<path d="M1275.39 177.609L1267.48 185.508L1268.52 186.541L1276.42 178.642L1275.39 177.609Z" fill="#625240"/>
<path d="M1380.13 72.8898L1372.23 80.7891L1373.26 81.8226L1381.16 73.9234L1380.13 72.8898Z" fill="#625240"/>
<path d="M1393.24 59.8097L1385.34 67.709L1386.37 68.7425L1394.27 60.8432L1393.24 59.8097Z" fill="#625240"/>
<path d="M1406.34 46.7023L1398.44 54.6016L1399.47 55.6351L1407.38 47.7358L1406.34 46.7023Z" fill="#625240"/>
<path d="M1249.18 203.784L1241.28 211.684L1242.32 212.717L1250.22 204.818L1249.18 203.784Z" fill="#625240"/>
<path d="M1236.1 216.859L1228.2 224.758L1229.23 225.791L1237.13 217.892L1236.1 216.859Z" fill="#625240"/>
<path d="M1262.3 190.689L1254.39 198.588L1255.43 199.621L1263.33 191.722L1262.3 190.689Z" fill="#625240"/>
<path d="M1223.01 229.939L1215.11 237.838L1216.14 238.871L1224.04 230.972L1223.01 229.939Z" fill="#625240"/>
<path d="M1209.9 243.05L1202 250.949L1203.03 251.983L1210.93 244.084L1209.9 243.05Z" fill="#625240"/>
<path d="M1170.63 282.314L1162.72 290.213L1163.76 291.246L1171.66 283.347L1170.63 282.314Z" fill="#625240"/>
<path d="M1183.72 269.234L1175.82 277.133L1176.85 278.166L1184.76 270.267L1183.72 269.234Z" fill="#625240"/>
<path d="M1196.82 256.13L1188.92 264.029L1189.95 265.063L1197.86 257.164L1196.82 256.13Z" fill="#625240"/>
<path d="M1328.17 47.1008L1320.27 55L1321.3 56.0335L1329.2 48.1343L1328.17 47.1008Z" fill="#625240"/>
<path d="M1288.9 86.4093L1281 94.3086L1282.03 95.3421L1289.93 87.4429L1288.9 86.4093Z" fill="#625240"/>
<path d="M1315.1 60.2101L1307.19 68.1094L1308.23 69.1429L1316.13 61.2437L1315.1 60.2101Z" fill="#625240"/>
<path d="M1302 73.3L1294.09 81.1992L1295.13 82.2328L1303.03 74.3335L1302 73.3Z" fill="#625240"/>
<path d="M1236.52 138.771L1228.62 146.67L1229.65 147.703L1237.56 139.804L1236.52 138.771Z" fill="#625240"/>
<path d="M1249.61 125.675L1241.71 133.574L1242.74 134.608L1250.65 126.708L1249.61 125.675Z" fill="#625240"/>
<path d="M1275.81 99.4914L1267.91 107.391L1268.94 108.424L1276.84 100.525L1275.81 99.4914Z" fill="#625240"/>
<path d="M1262.72 112.581L1254.82 120.48L1255.86 121.514L1263.76 113.615L1262.72 112.581Z" fill="#625240"/>
<path d="M1341.28 34.0343L1333.38 41.9336L1334.41 42.9671L1342.32 35.0679L1341.28 34.0343Z" fill="#625240"/>
<path d="M1223.43 151.851L1215.52 159.75L1216.56 160.784L1224.46 152.884L1223.43 151.851Z" fill="#625240"/>
<path d="M1354.37 20.9562L1346.47 28.8555L1347.5 29.889L1355.41 21.9898L1354.37 20.9562Z" fill="#625240"/>
<path d="M1380.57 -5.22933L1372.67 2.66992L1373.7 3.70347L1381.6 -4.19578L1380.57 -5.22933Z" fill="#625240"/>
<path d="M1367.48 7.86052L1359.58 15.7598L1360.61 16.7933L1368.52 8.89406L1367.48 7.86052Z" fill="#625240"/>
<path d="M1105.58 269.652L1097.68 277.551L1098.71 278.584L1106.61 270.685L1105.58 269.652Z" fill="#625240"/>
<path d="M1210.34 164.931L1202.43 172.83L1203.47 173.864L1211.37 165.964L1210.34 164.931Z" fill="#625240"/>
<path d="M1092.48 282.741L1084.57 290.641L1085.61 291.674L1093.51 283.775L1092.48 282.741Z" fill="#625240"/>
<path d="M1171.05 204.195L1163.15 212.094L1164.18 213.127L1172.08 205.228L1171.05 204.195Z" fill="#625240"/>
<path d="M1118.67 256.556L1110.76 264.455L1111.8 265.489L1119.7 257.589L1118.67 256.556Z" fill="#625240"/>
<path d="M1197.24 178.036L1189.33 185.936L1190.37 186.969L1198.27 179.07L1197.24 178.036Z" fill="#625240"/>
<path d="M1184.14 191.116L1176.24 199.016L1177.27 200.049L1185.17 192.15L1184.14 191.116Z" fill="#625240"/>
<path d="M1157.96 217.3L1150.06 225.199L1151.1 226.233L1159 218.334L1157.96 217.3Z" fill="#625240"/>
<path d="M1131.76 243.476L1123.86 251.375L1124.9 252.409L1132.8 244.509L1131.76 243.476Z" fill="#625240"/>
<path d="M1144.85 230.366L1136.95 238.266L1137.98 239.299L1145.89 231.4L1144.85 230.366Z" fill="#625240"/>
<path d="M1079.8 217.718L1071.9 225.617L1072.94 226.651L1080.84 218.751L1079.8 217.718Z" fill="#625240"/>
<path d="M1092.89 204.638L1084.99 212.537L1086.03 213.571L1093.93 205.671L1092.89 204.638Z" fill="#625240"/>
<path d="M1066.7 230.837L1058.8 238.736L1059.84 239.77L1067.74 231.871L1066.7 230.837Z" fill="#625240"/>
<path d="M1158.38 139.173L1150.48 147.072L1151.51 148.106L1159.41 140.207L1158.38 139.173Z" fill="#625240"/>
<path d="M1145.29 152.278L1137.39 160.178L1138.42 161.211L1146.33 153.312L1145.29 152.278Z" fill="#625240"/>
<path d="M1106.01 191.542L1098.1 199.441L1099.14 200.475L1107.04 192.576L1106.01 191.542Z" fill="#625240"/>
<path d="M1132.19 165.368L1124.29 173.268L1125.32 174.301L1133.23 166.402L1132.19 165.368Z" fill="#625240"/>
<path d="M1053.62 243.901L1045.72 251.799L1046.75 252.833L1054.65 244.935L1053.62 243.901Z" fill="#625240"/>
<path d="M1119.09 178.452L1111.19 186.352L1112.22 187.385L1120.12 179.486L1119.09 178.452Z" fill="#625240"/>
<path d="M1040.53 256.999L1032.63 264.898L1033.66 265.932L1041.57 258.033L1040.53 256.999Z" fill="#625240"/>
<path d="M1027.43 270.089L1019.53 277.988L1020.56 279.022L1028.47 271.123L1027.43 270.089Z" fill="#625240"/>
<path d="M1014.33 283.157L1006.43 291.057L1007.46 292.09L1015.37 284.191L1014.33 283.157Z" fill="#625240"/>
<path d="M1302.4 -4.81723L1294.5 3.08203L1295.53 4.11558L1303.43 -3.78369L1302.4 -4.81723Z" fill="#625240"/>
<path d="M1289.34 8.30777L1281.44 16.207L1282.47 17.2406L1290.37 9.34131L1289.34 8.30777Z" fill="#625240"/>
<path d="M1276.22 21.3664L1268.32 29.2656L1269.35 30.2992L1277.26 22.3999L1276.22 21.3664Z" fill="#625240"/>
<path d="M1171.48 126.103L1163.58 134.002L1164.61 135.035L1172.51 127.136L1171.48 126.103Z" fill="#625240"/>
<path d="M1197.65 99.9328L1189.75 107.832L1190.79 108.866L1198.69 100.966L1197.65 99.9328Z" fill="#625240"/>
<path d="M1210.76 86.8234L1202.86 94.7227L1203.9 95.7562L1211.8 87.857L1210.76 86.8234Z" fill="#625240"/>
<path d="M1263.14 34.4523L1255.23 42.3516L1256.27 43.3851L1264.17 35.4859L1263.14 34.4523Z" fill="#625240"/>
<path d="M1184.56 112.997L1176.66 120.896L1177.7 121.93L1185.6 114.031L1184.56 112.997Z" fill="#625240"/>
<path d="M1250.04 47.5285L1242.13 55.4277L1243.17 56.4613L1251.07 48.562L1250.04 47.5285Z" fill="#625240"/>
<path d="M1223.85 73.7336L1215.95 81.6328L1216.98 82.6664L1224.88 74.7671L1223.85 73.7336Z" fill="#625240"/>
<path d="M1236.95 60.6769L1229.05 68.5762L1230.08 69.6097L1237.98 61.7104L1236.95 60.6769Z" fill="#625240"/>
<path d="M1054.05 165.784L1046.14 173.684L1047.18 174.717L1055.08 166.818L1054.05 165.784Z" fill="#625240"/>
<path d="M1106.43 113.425L1098.53 121.324L1099.56 122.358L1107.46 114.459L1106.43 113.425Z" fill="#625240"/>
<path d="M1040.95 178.89L1033.04 186.789L1034.08 187.823L1041.98 179.923L1040.95 178.89Z" fill="#625240"/>
<path d="M1067.13 152.694L1059.23 160.594L1060.26 161.627L1068.17 153.728L1067.13 152.694Z" fill="#625240"/>
<path d="M1093.33 126.519L1085.43 134.418L1086.46 135.452L1094.37 127.552L1093.33 126.519Z" fill="#625240"/>
<path d="M1014.76 205.066L1006.86 212.965L1007.89 213.998L1015.79 206.099L1014.76 205.066Z" fill="#625240"/>
<path d="M1080.23 139.611L1072.33 147.51L1073.36 148.543L1081.27 140.644L1080.23 139.611Z" fill="#625240"/>
<path d="M1027.86 191.96L1019.96 199.859L1020.99 200.893L1028.89 192.994L1027.86 191.96Z" fill="#625240"/>
<path d="M962.358 257.429L954.455 265.328L955.489 266.362L963.392 258.462L962.358 257.429Z" fill="#625240"/>
<path d="M1001.67 218.144L993.767 226.043L994.801 227.077L1002.7 219.177L1001.67 218.144Z" fill="#625240"/>
<path d="M988.589 231.21L980.686 239.109L981.72 240.143L989.623 232.244L988.589 231.21Z" fill="#625240"/>
<path d="M975.473 244.331L967.571 252.23L968.605 253.264L976.507 245.365L975.473 244.331Z" fill="#625240"/>
<path d="M1224.29 -4.36019L1216.39 3.53906L1217.42 4.57261L1225.33 -3.32664L1224.29 -4.36019Z" fill="#625240"/>
<path d="M1211.19 8.69058L1203.29 16.5898L1204.32 17.6234L1212.22 9.72413L1211.19 8.69058Z" fill="#625240"/>
<path d="M1145.7 74.171L1137.8 82.0703L1138.84 83.1039L1146.74 75.2046L1145.7 74.171Z" fill="#625240"/>
<path d="M1119.52 100.345L1111.62 108.244L1112.65 109.278L1120.55 101.378L1119.52 100.345Z" fill="#625240"/>
<path d="M1132.62 87.2531L1124.72 95.1523L1125.75 96.1859L1133.65 88.2866L1132.62 87.2531Z" fill="#625240"/>
<path d="M1158.81 61.0949L1150.9 68.9941L1151.94 70.0277L1159.84 62.1284L1158.81 61.0949Z" fill="#625240"/>
<path d="M1198.09 21.8L1190.19 29.6992L1191.22 30.7328L1199.13 22.8335L1198.09 21.8Z" fill="#625240"/>
<path d="M1171.89 47.9738L1163.99 55.873L1165.02 56.9066L1172.92 49.0073L1171.89 47.9738Z" fill="#625240"/>
<path d="M1184.99 34.8898L1177.09 42.7891L1178.12 43.8226L1186.03 35.9233L1184.99 34.8898Z" fill="#625240"/>
<path d="M1002.09 140.027L994.185 147.926L995.219 148.959L1003.12 141.06L1002.09 140.027Z" fill="#625240"/>
<path d="M988.987 153.132L981.084 161.031L982.118 162.065L990.021 154.166L988.987 153.132Z" fill="#625240"/>
<path d="M1015.2 126.946L1007.3 134.846L1008.33 135.879L1016.23 127.98L1015.2 126.946Z" fill="#625240"/>
<path d="M1041.37 100.761L1033.47 108.66L1034.51 109.694L1042.41 101.794L1041.37 100.761Z" fill="#625240"/>
<path d="M1028.27 113.851L1020.37 121.75L1021.4 122.784L1029.31 114.884L1028.27 113.851Z" fill="#625240"/>
<path d="M975.912 166.21L968.009 174.109L969.043 175.143L976.946 167.244L975.912 166.21Z" fill="#625240"/>
<path d="M962.801 179.306L954.898 187.205L955.932 188.239L963.835 180.339L962.801 179.306Z" fill="#625240"/>
<path d="M1054.47 87.6808L1046.57 95.5801L1047.6 96.6136L1055.5 88.7144L1054.47 87.6808Z" fill="#625240"/>
<path d="M1067.56 74.5851L1059.66 82.4844L1060.69 83.5179L1068.59 75.6187L1067.56 74.5851Z" fill="#625240"/>
<path d="M1093.75 48.4113L1085.84 56.3105L1086.88 57.3441L1094.78 49.4448L1093.75 48.4113Z" fill="#625240"/>
<path d="M1106.85 35.3058L1098.94 43.2051L1099.98 44.2386L1107.88 36.3394L1106.85 35.3058Z" fill="#625240"/>
<path d="M1080.67 61.4914L1072.77 69.3906L1073.8 70.4242L1081.7 62.5249L1080.67 61.4914Z" fill="#625240"/>
<path d="M1119.96 22.2414L1112.05 30.1406L1113.09 31.1742L1120.99 23.2749L1119.96 22.2414Z" fill="#625240"/>
<path d="M1146.13 -3.94418L1138.23 3.95508L1139.26 4.98863L1147.17 -2.91063L1146.13 -3.94418Z" fill="#625240"/>
<path d="M1133.03 9.13199L1125.13 17.0312L1126.16 18.0648L1134.07 10.1655L1133.03 9.13199Z" fill="#625240"/>
<path d="M963.239 101.189L955.337 109.088L956.371 110.121L964.273 102.222L963.239 101.189Z" fill="#625240"/>
<path d="M976.329 88.0929L968.427 95.9922L969.461 97.0257L977.363 89.1265L976.329 88.0929Z" fill="#625240"/>
<path d="M989.425 75.0128L981.523 82.9121L982.557 83.9457L990.459 76.0464L989.425 75.0128Z" fill="#625240"/>
<path d="M1002.5 61.9328L994.598 69.832L995.632 70.8656L1003.53 62.9663L1002.5 61.9328Z" fill="#625240"/>
<path d="M1015.62 48.8136L1007.71 56.7129L1008.75 57.7464L1016.65 49.8472L1015.62 48.8136Z" fill="#625240"/>
<path d="M1028.71 35.7336L1020.81 43.6328L1021.84 44.6664L1029.75 36.7671L1028.71 35.7336Z" fill="#625240"/>
<path d="M1041.8 22.6671L1033.9 30.5664L1034.93 31.6L1042.84 23.7007L1041.8 22.6671Z" fill="#625240"/>
<path d="M1068 -3.5477L1060.1 4.35156L1061.13 5.38511L1069.03 -2.51416L1068 -3.5477Z" fill="#625240"/>
<path d="M1054.89 9.56168L1046.98 17.4609L1048.02 18.4945L1055.92 10.5952L1054.89 9.56168Z" fill="#625240"/>
<path d="M963.652 23.0812L955.75 30.9805L956.784 32.014L964.686 24.1148L963.652 23.0812Z" fill="#625240"/>
<path d="M976.753 9.98941L968.85 17.8887L969.884 18.9222L977.787 11.023L976.753 9.98941Z" fill="#625240"/>
<path d="M989.843 -3.10629L981.94 4.79297L982.974 5.82652L990.877 -2.07274L989.843 -3.10629Z" fill="#625240"/>
</g>
</g>
<rect width="1450" height="668" fill="url(#paint0_radial_938_6005)"/>
<g filter="url(#filter0_f_938_6005)">
<rect x="670" y="-58" width="100" height="78" fill="#FFCF23"/>
</g>
</g>
<defs>
<filter id="filter0_f_938_6005" x="370" y="-358" width="700" height="678" filterUnits="userSpaceOnUse" color-interpolation-filters="sRGB">
<feFlood flood-opacity="0" result="BackgroundImageFix"/>
<feBlend mode="normal" in="SourceGraphic" in2="BackgroundImageFix" result="shape"/>
<feGaussianBlur stdDeviation="150" result="effect1_foregroundBlur_938_6005"/>
</filter>
<radialGradient id="paint0_radial_938_6005" cx="0" cy="0" r="1" gradientUnits="userSpaceOnUse" gradientTransform="translate(788.482 -46.159) rotate(-90) scale(1330.77 2202.33)">
<stop offset="0.210054" stop-color="#0B0A09" stop-opacity="0"/>
<stop offset="0.314497" stop-color="#0B0A09"/>
</radialGradient>
<clipPath id="clip0_938_6005">
<rect width="1450" height="406" fill="white"/>
</clipPath>
<clipPath id="clip1_938_6005">
<rect width="470.693" height="370.065" fill="white" transform="translate(486.094 -78.168)"/>
</clipPath>
<clipPath id="clip2_938_6005">
<rect width="470.693" height="370.065" fill="white" transform="translate(16 -78.168)"/>
</clipPath>
<clipPath id="clip3_938_6005">
<rect width="470.693" height="370.065" fill="white" transform="translate(953.532 -78.168)"/>
</clipPath>
</defs>
</svg>
