<svg width="44" height="44" viewBox="0 0 44 44" fill="none" xmlns="http://www.w3.org/2000/svg">
<path d="M24.0786 0H26.8676V5.67112H24.0786V0Z" fill="white"/>
<path d="M31.5162 0H34.3052V5.67112H31.5162V0Z" fill="white"/>
<path d="M16.6412 0H19.4303V5.67112H16.6412V0Z" fill="white"/>
<path d="M9.2038 0H11.9928V5.67112H9.2038V0Z" fill="white"/>
<path d="M0 16.6414H5.67112V19.4304H0V16.6414Z" fill="white"/>
<path d="M0 9.20361H5.67112V11.9926H0V9.20361Z" fill="white"/>
<path d="M0 24.0789H5.67112V26.8679H0V24.0789Z" fill="white"/>
<path d="M0 31.5161H5.67112V34.3051H0V31.5161Z" fill="white"/>
<path d="M16.6412 37.8391H19.4303V43.5102H16.6412V37.8391Z" fill="white"/>
<path d="M9.2038 37.8391H11.9928V43.5102H9.2038V37.8391Z" fill="white"/>
<path d="M24.0786 37.8391H26.8676V43.5102H24.0786V37.8391Z" fill="white"/>
<path d="M31.5162 37.8391H34.3052V43.5102H31.5162V37.8391Z" fill="white"/>
<path d="M37.8394 24.0789H43.5105V26.8679H37.8394V24.0789Z" fill="white"/>
<path d="M37.8394 31.5161H43.5105V34.3051H37.8394V31.5161Z" fill="white"/>
<path d="M37.8394 16.6414H43.5105V19.4304H37.8394V16.6414Z" fill="white"/>
<path d="M37.8394 9.20361H43.5105V11.9926H37.8394V9.20361Z" fill="white"/>
<path d="M12.8745 30.7016H30.6343V12.8076H12.8745V30.7016ZM27.2389 26.5731H25.2012V20.0329H27.2389V26.5731ZM26.2199 16.9361C26.8698 16.9361 27.3603 17.4295 27.3642 18.085C27.3726 18.3917 27.2641 18.6771 27.0585 18.8898C26.8419 19.1139 26.5353 19.2372 26.195 19.2372C25.5603 19.2372 25.0633 18.7346 25.0633 18.0929C25.0631 17.4442 25.5713 16.9361 26.2199 16.9361ZM18.7737 17.182H20.7594L23.9642 26.573H21.8102L20.9068 23.9129H18.5794L17.701 26.573H15.5828L18.7737 17.182Z" fill="white"/>
<path d="M19.7455 20.3086C19.7434 20.3031 19.7416 20.2973 19.7397 20.2917L19.119 22.1258H20.3639L19.7455 20.3086Z" fill="white"/>
<path d="M5.6825 5.57812V37.9309H37.8266V5.57812H5.6825ZM33.4395 32.1039C33.4395 32.8785 32.8115 33.5065 32.037 33.5065H11.4719C10.6973 33.5065 10.0693 32.8785 10.0693 32.1039V11.4051C10.0693 10.6306 10.6973 10.0026 11.4719 10.0026H32.037C32.8115 10.0026 33.4395 10.6306 33.4395 11.4051L33.4397 32.1039H33.4395Z" fill="white"/>
</svg>
