<svg width="386" height="740" viewBox="0 0 386 740" fill="none" xmlns="http://www.w3.org/2000/svg">
<g clip-path="url(#clip0_861_744)">
<g filter="url(#filter0_d_861_744)">
<rect width="386" height="740" rx="5" fill="#171D27"/>
</g>
<mask id="mask0_861_744" style="mask-type:alpha" maskUnits="userSpaceOnUse" x="0" y="0" width="386" height="740">
<rect width="386" height="740" rx="5" fill="#171D27"/>
</mask>
<g mask="url(#mask0_861_744)">
<g opacity="0.02">
<line x1="11.4883" y1="-1.01587" x2="11.4882" y2="791.841" stroke="white"/>
<line x1="23.4883" y1="-1.01587" x2="23.4882" y2="791.841" stroke="white"/>
<line x1="35.4883" y1="-1.01587" x2="35.4882" y2="791.841" stroke="white"/>
<line x1="47.4883" y1="-1.01587" x2="47.4882" y2="791.841" stroke="white"/>
<line x1="59.4883" y1="-1.01587" x2="59.4882" y2="791.841" stroke="white"/>
<line x1="71.4883" y1="-1.01587" x2="71.4882" y2="791.841" stroke="white"/>
<line x1="83.4883" y1="-1.01587" x2="83.4882" y2="791.841" stroke="white"/>
<line x1="95.4883" y1="-1.01587" x2="95.4882" y2="791.841" stroke="white"/>
<line x1="107.488" y1="-1.01587" x2="107.488" y2="791.841" stroke="white"/>
<line x1="119.488" y1="-1.01587" x2="119.488" y2="791.841" stroke="white"/>
<line x1="131.488" y1="-1.01587" x2="131.488" y2="791.841" stroke="white"/>
<line x1="143.488" y1="-1.01587" x2="143.488" y2="791.841" stroke="white"/>
<line x1="155.488" y1="-1.01587" x2="155.488" y2="791.841" stroke="white"/>
<line x1="167.488" y1="-1.01587" x2="167.488" y2="791.841" stroke="white"/>
<line x1="179.488" y1="-1.01587" x2="179.488" y2="791.841" stroke="white"/>
<line x1="191.488" y1="-1.01587" x2="191.488" y2="791.841" stroke="white"/>
<line x1="203.488" y1="-1.01587" x2="203.488" y2="791.841" stroke="white"/>
<line x1="215.488" y1="-1.01587" x2="215.488" y2="791.841" stroke="white"/>
<line x1="227.488" y1="-1.01587" x2="227.488" y2="791.841" stroke="white"/>
<line x1="239.488" y1="-1.01587" x2="239.488" y2="791.841" stroke="white"/>
<line x1="251.488" y1="-1.01587" x2="251.488" y2="791.841" stroke="white"/>
<line x1="263.488" y1="-1.01587" x2="263.488" y2="791.841" stroke="white"/>
<line x1="275.488" y1="-1.01587" x2="275.488" y2="791.841" stroke="white"/>
<line x1="287.488" y1="-1.01587" x2="287.488" y2="791.841" stroke="white"/>
<line x1="299.488" y1="-1.01587" x2="299.488" y2="791.841" stroke="white"/>
<line x1="311.488" y1="-1.01587" x2="311.488" y2="791.841" stroke="white"/>
<line x1="323.488" y1="-1.01587" x2="323.488" y2="791.841" stroke="white"/>
<line x1="335.488" y1="-1.01587" x2="335.488" y2="791.841" stroke="white"/>
<line x1="347.488" y1="-1.01587" x2="347.488" y2="791.841" stroke="white"/>
<line x1="359.488" y1="-1.01587" x2="359.488" y2="791.841" stroke="white"/>
<line x1="371.488" y1="-1.01587" x2="371.488" y2="791.841" stroke="white"/>
<line x1="383.488" y1="-1.01587" x2="383.488" y2="791.841" stroke="white"/>
</g>
</g>
<g clip-path="url(#clip1_861_744)">
<g opacity="0.02">
<line x1="1427" y1="11.6809" x2="-13" y2="11.6808" stroke="white"/>
<line x1="1427" y1="23.8784" x2="-13" y2="23.8783" stroke="white"/>
<line x1="1427" y1="36.0771" x2="-13" y2="36.077" stroke="white"/>
<line x1="1427" y1="48.2739" x2="-13" y2="48.2738" stroke="white"/>
<line x1="1427" y1="60.4727" x2="-13" y2="60.4725" stroke="white"/>
<line x1="1427" y1="72.6694" x2="-13" y2="72.6693" stroke="white"/>
<line x1="1427" y1="84.8682" x2="-13" y2="84.868" stroke="white"/>
<line x1="1427" y1="97.0659" x2="-13" y2="97.0658" stroke="white"/>
<line x1="1427" y1="109.263" x2="-13" y2="109.263" stroke="white"/>
<line x1="1427" y1="121.461" x2="-13" y2="121.461" stroke="white"/>
<line x1="1427" y1="133.658" x2="-13" y2="133.658" stroke="white"/>
<line x1="1427" y1="145.857" x2="-13" y2="145.857" stroke="white"/>
<line x1="1427" y1="158.054" x2="-13" y2="158.054" stroke="white"/>
<line x1="1427" y1="170.252" x2="-13" y2="170.252" stroke="white"/>
<line x1="1427" y1="182.45" x2="-13" y2="182.45" stroke="white"/>
<line x1="1427" y1="194.648" x2="-13" y2="194.648" stroke="white"/>
<line x1="1427" y1="206.845" x2="-13" y2="206.845" stroke="white"/>
<line x1="1427" y1="219.043" x2="-13" y2="219.043" stroke="white"/>
<line x1="1427" y1="231.241" x2="-13" y2="231.241" stroke="white"/>
<line x1="1427" y1="243.439" x2="-13" y2="243.439" stroke="white"/>
<line x1="1427" y1="255.637" x2="-13" y2="255.637" stroke="white"/>
<line x1="1427" y1="267.835" x2="-13" y2="267.835" stroke="white"/>
<line x1="1427" y1="280.032" x2="-13" y2="280.032" stroke="white"/>
<line x1="1427" y1="292.23" x2="-13" y2="292.23" stroke="white"/>
<line x1="1427" y1="304.428" x2="-13" y2="304.428" stroke="white"/>
<line x1="1427" y1="316.626" x2="-13" y2="316.626" stroke="white"/>
<line x1="1427" y1="328.824" x2="-13" y2="328.824" stroke="white"/>
<line x1="1427" y1="341.022" x2="-13" y2="341.022" stroke="white"/>
<line x1="1427" y1="353.219" x2="-13" y2="353.219" stroke="white"/>
<line x1="1427" y1="365.417" x2="-13" y2="365.417" stroke="white"/>
<line x1="1427" y1="377.615" x2="-13" y2="377.615" stroke="white"/>
<line x1="1427" y1="389.813" x2="-13" y2="389.813" stroke="white"/>
<line x1="1427" y1="402.011" x2="-13" y2="402.011" stroke="white"/>
<line x1="1427" y1="414.209" x2="-13" y2="414.209" stroke="white"/>
<line x1="1427" y1="426.406" x2="-13" y2="426.406" stroke="white"/>
<line x1="1427" y1="438.604" x2="-13" y2="438.604" stroke="white"/>
<line x1="1427" y1="450.801" x2="-13" y2="450.801" stroke="white"/>
<line x1="1427" y1="462.999" x2="-13" y2="462.999" stroke="white"/>
<line x1="1427" y1="475.197" x2="-13" y2="475.197" stroke="white"/>
<line x1="1427" y1="487.395" x2="-13" y2="487.394" stroke="white"/>
<line x1="1427" y1="499.593" x2="-13" y2="499.593" stroke="white"/>
<line x1="1427" y1="511.79" x2="-13" y2="511.79" stroke="white"/>
<line x1="1427" y1="523.988" x2="-13" y2="523.988" stroke="white"/>
<line x1="1427" y1="536.187" x2="-13" y2="536.186" stroke="white"/>
<line x1="1427" y1="548.384" x2="-13" y2="548.384" stroke="white"/>
<line x1="1427" y1="560.582" x2="-13" y2="560.582" stroke="white"/>
<line x1="1427" y1="572.779" x2="-13" y2="572.779" stroke="white"/>
<line x1="1427" y1="584.978" x2="-13" y2="584.977" stroke="white"/>
<line x1="1427" y1="597.175" x2="-13" y2="597.175" stroke="white"/>
<line x1="1427" y1="609.373" x2="-13" y2="609.373" stroke="white"/>
<line x1="1427" y1="621.571" x2="-13" y2="621.571" stroke="white"/>
<line x1="1427" y1="633.769" x2="-13" y2="633.768" stroke="white"/>
<line x1="1427" y1="645.967" x2="-13" y2="645.967" stroke="white"/>
<line x1="1427" y1="658.164" x2="-13" y2="658.164" stroke="white"/>
<line x1="1427" y1="670.362" x2="-13" y2="670.362" stroke="white"/>
<line x1="1427" y1="682.561" x2="-13" y2="682.56" stroke="white"/>
<line x1="1427" y1="694.758" x2="-13" y2="694.758" stroke="white"/>
<line x1="1427" y1="706.956" x2="-13" y2="706.956" stroke="white"/>
<line x1="1427" y1="719.153" x2="-13" y2="719.153" stroke="white"/>
<line x1="1427" y1="731.352" x2="-13" y2="731.351" stroke="white"/>
</g>
</g>
<rect width="386" height="740" rx="5" fill="url(#paint0_radial_861_744)"/>
<rect x="0.5" y="0.5" width="385" height="739" rx="4.5" stroke="url(#paint1_linear_861_744)" stroke-opacity="0.15"/>
<g opacity="0.5" filter="url(#filter1_f_861_744)">
<ellipse cx="377.5" cy="660" rx="87.5" ry="116" fill="#284068"/>
</g>
<g opacity="0.15" filter="url(#filter2_f_861_744)">
<ellipse cx="30.5" cy="690.5" rx="64.5" ry="75.5" fill="#AD8B3A"/>
</g>
</g>
<defs>
<filter id="filter0_d_861_744" x="-50" y="-40" width="486" height="840" filterUnits="userSpaceOnUse" color-interpolation-filters="sRGB">
<feFlood flood-opacity="0" result="BackgroundImageFix"/>
<feColorMatrix in="SourceAlpha" type="matrix" values="0 0 0 0 0 0 0 0 0 0 0 0 0 0 0 0 0 0 127 0" result="hardAlpha"/>
<feOffset dy="10"/>
<feGaussianBlur stdDeviation="25"/>
<feComposite in2="hardAlpha" operator="out"/>
<feColorMatrix type="matrix" values="0 0 0 0 0.0431373 0 0 0 0 0.054902 0 0 0 0 0.0745098 0 0 0 0.5 0"/>
<feBlend mode="normal" in2="BackgroundImageFix" result="effect1_dropShadow_861_744"/>
<feBlend mode="normal" in="SourceGraphic" in2="effect1_dropShadow_861_744" result="shape"/>
</filter>
<filter id="filter1_f_861_744" x="90" y="344" width="575" height="632" filterUnits="userSpaceOnUse" color-interpolation-filters="sRGB">
<feFlood flood-opacity="0" result="BackgroundImageFix"/>
<feBlend mode="normal" in="SourceGraphic" in2="BackgroundImageFix" result="shape"/>
<feGaussianBlur stdDeviation="100" result="effect1_foregroundBlur_861_744"/>
</filter>
<filter id="filter2_f_861_744" x="-234" y="415" width="529" height="551" filterUnits="userSpaceOnUse" color-interpolation-filters="sRGB">
<feFlood flood-opacity="0" result="BackgroundImageFix"/>
<feBlend mode="normal" in="SourceGraphic" in2="BackgroundImageFix" result="shape"/>
<feGaussianBlur stdDeviation="100" result="effect1_foregroundBlur_861_744"/>
</filter>
<radialGradient id="paint0_radial_861_744" cx="0" cy="0" r="1" gradientUnits="userSpaceOnUse" gradientTransform="translate(35.5 25) rotate(41.3771) scale(352.49 232.828)">
<stop stop-color="#242C39" stop-opacity="0"/>
<stop offset="1" stop-color="#171D27"/>
</radialGradient>
<linearGradient id="paint1_linear_861_744" x1="193" y1="0" x2="193" y2="740" gradientUnits="userSpaceOnUse">
<stop stop-color="white"/>
<stop offset="1" stop-color="white" stop-opacity="0"/>
</linearGradient>
<clipPath id="clip0_861_744">
<rect width="386" height="740" fill="white"/>
</clipPath>
<clipPath id="clip1_861_744">
<rect width="386" height="741" fill="white" transform="translate(0 -1)"/>
</clipPath>
</defs>
</svg>
