<svg width="13" height="20" viewBox="0 0 13 20" fill="none" xmlns="http://www.w3.org/2000/svg">
<path d="M5.11006 19.9999H6.90783C7.31616 19.9999 7.65492 19.6698 7.65492 19.2611V17.5523L8.02831 17.4537C11.0761 16.6952 12.1569 14.6221 12.1569 13.0806C12.1569 10.2243 9.66674 9.03744 7.22643 8.24936C4.93573 7.50085 4.20358 7.04763 4.20358 6.37784C4.20358 5.7771 4.90569 5.17611 6.47953 5.17611C8.21255 5.17611 9.29817 5.66357 9.76118 5.87545C9.86087 5.91962 9.9653 5.94448 10.0698 5.94448C10.3586 5.94448 10.6225 5.77709 10.7471 5.52081L11.4593 4.02856C11.5438 3.85624 11.554 3.64937 11.4841 3.46705C11.4193 3.27981 11.28 3.13204 11.1006 3.04831C10.2441 2.64951 9.31292 2.39315 8.26188 2.27025L7.82367 2.21614V0.733815C7.82367 0.330006 7.48989 0 7.07657 0H5.30869C4.90035 0 4.56159 0.330085 4.56159 0.733815V2.38353L4.1882 2.47719C1.72797 3.09279 0.258877 4.65385 0.258877 6.64866C0.258877 9.27866 2.89343 10.4505 5.47799 11.2534C7.86331 12.0217 8.18706 12.6865 8.18706 13.2381C8.18706 14.0902 7.07155 14.7105 5.53775 14.7105C4.23291 14.7105 2.82869 14.3805 1.78275 13.829C1.67326 13.7699 1.55372 13.7403 1.42921 13.7403C1.34959 13.7403 1.26975 13.7552 1.19014 13.7798C0.996047 13.8488 0.836591 13.9917 0.75192 14.1786L0.0645922 15.6905C-0.0898853 16.0401 0.0397668 16.4439 0.378213 16.6311C1.24959 17.1285 2.54439 17.4979 3.91905 17.6506L4.36225 17.695V19.2611C4.36271 19.67 4.69649 20 5.1098 20L5.11006 19.9999Z" fill="#FFBB38"/>
</svg>
