<svg width="62" height="60" viewBox="0 0 62 60" fill="none" xmlns="http://www.w3.org/2000/svg">
<path d="M4.96337 0C2.24926 0 0 2.24252 0 4.96118V55.0246C0 57.7433 2.24931 59.9998 4.96337 59.9998L42.2956 60C45.0097 60 47.2484 57.7435 47.2484 55.0248V43.5216L56.9672 33.7935L59.3521 31.4082C61.9218 28.8343 62.0234 24.6275 59.4718 22.0717C58.1961 20.7938 56.5018 20.177 54.8115 20.2052C53.1211 20.2332 51.4218 20.9048 50.137 22.1917L47.77 24.5665L47.2487 25.0886L47.2483 4.96169C47.2483 2.24298 45.0095 0.000507206 42.2955 0.000507206L4.96337 0ZM4.96337 3.61324H42.2956C43.0739 3.61324 43.6412 4.1818 43.6412 4.96118V28.7012L33.8447 38.5107C33.8435 38.5119 33.8425 38.5131 33.8413 38.5143C33.839 38.5165 33.8368 38.5189 33.8346 38.5211L30.5127 41.8485C30.2454 42.1167 30.0693 42.4625 30.0088 42.8365L28.73 50.7829L28.7302 50.7831C28.6396 51.3545 28.8276 51.9349 29.2361 52.3439C29.6446 52.753 30.224 52.9414 30.7944 52.8508L38.7274 51.5699C39.1009 51.5095 39.446 51.3329 39.7137 51.0653L43.6415 47.1308V55.0245C43.6415 55.8039 43.0741 56.3865 42.2958 56.3865H4.96361C4.18534 56.3865 3.60737 55.8039 3.60737 55.0245V4.96112C3.60737 4.18174 4.18518 3.61318 4.96361 3.61318L4.96337 3.61324ZM9.97248 9.93619C9.49591 9.93699 9.03909 10.1268 8.70191 10.464C8.36469 10.8012 8.17423 11.2584 8.17245 11.7357C8.17424 12.2131 8.36471 12.6703 8.70191 13.0075C9.0391 13.3447 9.49592 13.5345 9.97248 13.5353H22.2346C22.7106 13.5335 23.1664 13.3433 23.503 13.0061C23.8394 12.6691 24.0293 12.2126 24.0311 11.7358C24.0293 11.259 23.8394 10.8025 23.503 10.4655C23.1664 10.1283 22.7106 9.93808 22.2346 9.93629L9.97248 9.93619ZM9.97248 19.3505C9.49591 19.3513 9.03909 19.5411 8.70191 19.8783C8.36469 20.2155 8.17423 20.6727 8.17245 21.15C8.17065 21.6298 8.35932 22.0906 8.69695 22.4308C9.03456 22.7712 9.49357 22.9628 9.97253 22.9638H36.9169H36.9167C37.3977 22.9656 37.8592 22.7752 38.1993 22.4346C38.5391 22.094 38.7294 21.6316 38.7274 21.15C38.7256 20.6708 38.5337 20.2121 38.1943 19.8747C37.8547 19.5371 37.395 19.3485 36.9167 19.3505L9.97248 19.3505ZM54.8467 23.7823C55.6042 23.7665 56.3481 24.0511 56.9145 24.6184C58.0473 25.7532 58.0435 27.5947 56.7947 28.8456L55.6922 29.95L51.5919 25.8427L52.6944 24.7384C53.3187 24.113 54.0894 23.7976 54.8466 23.7822L54.8467 23.7823ZM49.0343 28.4047L53.1346 32.5119L44.2014 41.4603C44.1822 41.4789 44.1632 41.4977 44.1449 41.5171L41.7636 43.9024L37.6633 39.7952L49.0343 28.4047ZM9.97248 28.7647C9.49351 28.7655 9.03449 28.9572 8.6969 29.2974C8.35928 29.6378 8.1706 30.0986 8.17239 30.5784C8.17419 31.0556 8.36466 31.5128 8.70186 31.8499C9.03905 32.1871 9.49587 32.3769 9.97243 32.3779H36.9168H36.9166C37.395 32.3797 37.8546 32.1911 38.1942 31.8537C38.5336 31.5161 38.7255 31.0573 38.7273 30.5784C38.7293 30.0968 38.539 29.6342 38.1992 29.2938C37.8592 28.9533 37.3975 28.7627 36.9166 28.7647H9.97248ZM35.1131 42.3495L39.2134 46.4568L37.5719 48.1047L32.6826 48.8915L33.4682 43.9939L35.1131 42.3495Z" fill="#FFCF23"/>
</svg>
