<svg width="67" height="60" viewBox="0 0 67 60" fill="none" xmlns="http://www.w3.org/2000/svg">
<path d="M61.093 23.8914C60.7323 23.8946 60.3728 23.9309 60.0188 24L51.7846 9.7382C52.7032 8.67988 53.2114 7.3272 53.2171 5.92584C53.2218 4.0546 52.3373 2.29219 50.834 1.17793C49.3306 0.0634058 47.3876 -0.270721 45.5983 0.277502C43.8091 0.825929 42.3868 2.19151 41.766 3.95685H25.2888C24.7128 2.29837 23.427 0.983242 21.7817 0.370422C20.1364 -0.242393 18.3037 -0.0892551 16.783 0.788328C15.2622 1.6659 14.2126 3.17597 13.9201 4.90726C13.6274 6.63829 14.1224 8.40961 15.2702 9.73816L7.03608 24C5.30403 23.6629 3.51209 24.1173 2.15044 25.2396C0.788604 26.3618 0 28.0339 0 29.7983C0 31.5626 0.788604 33.2347 2.15044 34.357C3.51209 35.4792 5.30403 35.9336 7.03608 35.5965L15.2702 49.8584C14.3519 50.9167 13.8437 52.2694 13.8378 53.6707C13.833 55.542 14.7176 57.3044 16.2209 58.4186C17.7242 59.5331 19.6673 59.8673 21.4566 59.3191C23.2458 58.7706 24.6681 57.405 25.2888 55.6397H41.7661C42.3421 57.2982 43.6279 58.6133 45.2731 59.2261C46.9184 59.839 48.7511 59.6858 50.2719 58.8082C51.7926 57.9307 52.8422 56.4206 53.1348 54.6893C53.4274 52.9583 52.9324 51.1869 51.7846 49.8584L60.0188 35.5966C61.6509 35.9001 63.3352 35.5021 64.659 34.5005C65.9828 33.4988 66.8236 31.9863 66.9753 30.3331C67.1269 28.6801 66.5755 27.0396 65.4563 25.8137C64.3368 24.5878 62.7529 23.8902 61.093 23.8914V23.8914ZM47.3104 47.764C46.0927 47.7677 44.9064 48.1483 43.9137 48.8533C42.921 49.5584 42.171 50.5536 41.7663 51.7019H25.289C24.8363 50.3706 23.916 49.2489 22.6991 48.5446C21.4821 47.8406 20.0509 47.6017 18.6714 47.8726L10.4372 33.6101H10.437C11.3603 32.5551 11.8692 31.2007 11.8692 29.7985C11.8692 28.3963 11.3603 27.042 10.437 25.9868L18.6712 11.7244C20.0509 11.9954 21.4822 11.7564 22.6991 11.0524C23.9163 10.3481 24.8366 9.22638 25.2893 7.89509H41.7665C42.2192 9.22638 43.1396 10.3481 44.3565 11.0524C45.5734 11.7564 47.0046 11.9953 48.3842 11.7244L56.6183 25.9868H56.6186C55.6952 27.0419 55.1863 28.3963 55.1863 29.7985C55.1863 31.2007 55.6952 32.555 56.6186 33.6101L48.3844 47.8726C48.0304 47.8035 47.6709 47.7672 47.3104 47.764ZM47.3104 3.95704C47.8327 3.95704 48.3334 4.16462 48.7026 4.5338C49.072 4.90299 49.2794 5.40393 49.2794 5.926C49.2794 6.44832 49.072 6.949 48.7026 7.3182C48.3334 7.68763 47.8327 7.89496 47.3104 7.89496C46.7881 7.89496 46.2874 7.68763 45.9182 7.3182C45.5488 6.94901 45.3415 6.44832 45.3415 5.926C45.342 5.40393 45.5495 4.90351 45.9187 4.53431C46.2879 4.16538 46.7884 3.95753 47.3104 3.95704ZM19.7453 3.95704C20.2676 3.95704 20.7683 4.16462 21.1375 4.5338C21.5069 4.90299 21.7142 5.40393 21.7142 5.926C21.7142 6.44832 21.5069 6.949 21.1375 7.3182C20.7683 7.68763 20.2676 7.89496 19.7453 7.89496C19.2229 7.89496 18.7223 7.68763 18.3531 7.3182C17.9836 6.94901 17.7763 6.44832 17.7763 5.926C17.7768 5.40393 17.9844 4.90351 18.3536 4.53431C18.7227 4.16538 19.2232 3.95753 19.7453 3.95704ZM3.99355 29.7987C3.99355 29.2764 4.20089 28.7757 4.57032 28.4065C4.9395 28.0371 5.44019 27.8298 5.96251 27.8298C6.48483 27.8298 6.98552 28.0371 7.35471 28.4065C7.72414 28.7757 7.93148 29.2764 7.93148 29.7987C7.93148 30.3211 7.72414 30.8217 7.35471 31.1909C6.98553 31.5604 6.48483 31.7677 5.96251 31.7677C5.44044 31.7672 4.94002 31.5596 4.57083 31.1904C4.20164 30.8213 3.99405 30.3208 3.99355 29.7987ZM19.7453 55.6404C19.2229 55.6404 18.7223 55.4329 18.3531 55.0637C17.9836 54.6945 17.7763 54.1936 17.7763 53.6715C17.7763 53.1492 17.9836 52.6485 18.3531 52.2793C18.7222 51.9099 19.2229 51.7025 19.7453 51.7025C20.2676 51.7025 20.7683 51.9099 21.1375 52.2793C21.5069 52.6485 21.7142 53.1492 21.7142 53.6715C21.7137 54.1936 21.5061 54.694 21.137 55.0632C20.7678 55.4321 20.2673 55.64 19.7453 55.6404ZM47.3104 55.6404C46.7881 55.6404 46.2874 55.4329 45.9182 55.0637C45.5488 54.6945 45.3415 54.1936 45.3415 53.6715C45.3415 53.1492 45.5488 52.6485 45.9182 52.2793C46.2874 51.9099 46.7881 51.7025 47.3104 51.7025C47.8327 51.7025 48.3334 51.9099 48.7026 52.2793C49.072 52.6485 49.2794 53.1492 49.2794 53.6715C49.2789 54.1936 49.0713 54.694 48.7021 55.0632C48.3329 55.4321 47.8325 55.64 47.3104 55.6404ZM61.093 31.7679C60.5707 31.7679 60.07 31.5605 59.7008 31.1911C59.3314 30.8219 59.124 30.3212 59.124 29.7989C59.124 29.2766 59.3314 28.7759 59.7008 28.4067C60.07 28.0373 60.5707 27.8299 61.093 27.8299C61.6153 27.8299 62.116 28.0373 62.4852 28.4067C62.8546 28.7759 63.062 29.2766 63.062 29.7989C63.0615 30.321 62.8539 30.8214 62.4847 31.1906C62.1155 31.5598 61.6151 31.7674 61.093 31.7679Z" fill="#FFCF23"/>
<path d="M33.5291 12.0771C28.8292 12.0771 24.3218 13.9442 20.9984 17.2673C17.6753 20.5907 15.8082 25.098 15.8082 29.798C15.8082 34.4981 17.6753 39.0053 20.9984 42.3288C24.3218 45.6519 28.8291 47.5189 33.5291 47.5189C38.2292 47.5189 42.7364 45.6519 46.0598 42.3288C49.383 39.0054 51.25 34.4981 51.25 29.798C51.2448 25.0999 49.3763 20.5952 46.0541 17.273C42.7319 13.9509 38.2273 12.0824 33.5291 12.0771ZM33.5291 43.5806C29.8736 43.5806 26.368 42.1285 23.7834 39.5437C21.1987 36.9589 19.7465 33.4533 19.7465 29.798C19.7465 26.1426 21.1986 22.6368 23.7834 20.0523C26.3682 17.4675 29.8738 16.0154 33.5291 16.0154C37.1845 16.0154 40.6903 17.4675 43.2748 20.0523C45.8596 22.637 47.3117 26.1426 47.3117 29.798C47.3077 33.4522 45.8544 36.9553 43.2704 39.5392C40.6866 42.1233 37.1832 43.5766 33.5291 43.5806Z" fill="#FFCF23"/>
<path d="M33.5291 25.2039C34.9765 25.1989 36.3401 25.8811 37.2042 27.0421C37.5177 27.4605 37.9846 27.737 38.5023 27.8105C39.0198 27.8844 39.5454 27.7494 39.9633 27.4354C40.3812 27.1212 40.6569 26.6538 40.73 26.1362C40.8031 25.6186 40.6671 25.0933 40.3526 24.6759C39.1521 23.0858 37.4357 21.9628 35.4981 21.4992V20.6097C35.4981 19.9061 35.1227 19.2562 34.5136 18.9045C33.9045 18.5527 33.1538 18.5527 32.5446 18.9045C31.9355 19.2562 31.5601 19.9061 31.5601 20.6097V21.5044C29.0507 22.0971 26.9445 23.7941 25.8315 26.1198C24.7187 28.4458 24.7187 31.1506 25.8315 33.4763C26.9445 35.8021 29.0507 37.499 31.5601 38.0918V38.9865C31.5601 39.6901 31.9355 40.34 32.5446 40.6917C33.1537 41.0435 33.9045 41.0435 34.5136 40.6917C35.1227 40.3399 35.4981 39.6901 35.4981 38.9865V38.097C37.4357 37.6333 39.1519 36.5103 40.3526 34.9203C40.6671 34.5029 40.8031 33.9776 40.73 33.46C40.6569 32.9424 40.3812 32.475 39.9633 32.1608C39.5454 31.8468 39.0199 31.7118 38.5023 31.7856C37.9847 31.8592 37.5178 32.1357 37.2042 32.5541C36.2488 33.8279 34.7023 34.5163 33.1164 34.3734C31.5306 34.2304 30.1319 33.2765 29.4199 31.8523C28.7079 30.4282 28.784 28.737 29.621 27.3826C30.4581 26.0282 31.9368 25.2039 33.5291 25.2039Z" fill="#FFCF23"/>
</svg>
