<svg width="61" height="59" viewBox="0 0 61 59" fill="none" xmlns="http://www.w3.org/2000/svg">
<path d="M60.2276 21.7199H20.0548L60.1362 12.4629L58.0914 3.59201C57.5176 1.10565 55.0645 -0.45008 52.6117 0.11642L3.53442 11.4515C1.44904 11.9332 0.0331198 13.7942 0.0072579 15.8723H0L0.010985 54.3769C0.010985 56.9293 2.07813 59 4.62665 59H55.6423C58.1909 59 60.258 56.9289 60.258 54.3769L60.2276 21.7199ZM47.3554 4.92326L55.2923 10.1057L49.1723 11.518L41.235 6.33964L47.3554 4.92326ZM35.009 7.77721L42.9459 12.9596L36.8259 14.372L28.889 9.19359L35.009 7.77721ZM22.9604 10.5612L30.8972 15.7436L24.7773 17.1559L16.8404 11.9735L22.9604 10.5612ZM10.6471 13.4045L18.5805 18.5864L12.4605 19.9988L4.52766 14.8204L10.6471 13.4045ZM55.6383 54.3767H4.61755V26.3319H55.6383V54.3767Z" fill="#FFCF23"/>
<path d="M25.3132 33.0417V48.0512L37.3211 40.5447L25.3132 33.0417Z" fill="#FFCF23"/>
</svg>
