<svg width="61" height="55" viewBox="0 0 61 55" fill="none" xmlns="http://www.w3.org/2000/svg">
<path d="M23.2058 31.7269H21.8487C20.288 31.7269 19.0666 32.9497 19.0666 34.5124V51.2249C19.0666 52.7875 20.288 54.0104 21.8487 54.0104H23.2058C24.7665 54.0104 25.9878 52.7875 25.9878 51.2249V34.5124C25.9199 33.0178 24.6985 31.7271 23.2058 31.7271V31.7269ZM7.66758 37.2976H6.31045C4.74976 37.2976 3.5284 38.5204 3.5284 40.083V51.2249C3.5284 52.7875 4.74976 54.0104 6.31045 54.0104H7.66758C9.22827 54.0104 10.4496 52.7875 10.4496 51.2249L10.4494 40.083C10.4494 38.5204 9.16028 37.2976 7.66758 37.2976ZM54.2827 23.3706H52.9256C51.3649 23.3706 50.1436 24.5935 50.1436 26.1561V51.2249C50.1436 52.7875 51.3649 54.0104 52.9256 54.0104H54.2827C55.8434 54.0104 57.0648 52.7875 57.0648 51.2249L57.0646 26.1561C57.0646 24.6615 55.8432 23.3708 54.2827 23.3708V23.3706ZM38.744 42.8682H37.3191C35.7584 42.8682 34.537 44.0911 34.537 45.6537V51.2244C34.537 52.787 35.7584 54.0099 37.3191 54.0099H38.6762C40.2369 54.0099 41.4583 52.787 41.4583 51.2244V45.6537C41.4583 44.1592 40.2369 42.8682 38.744 42.8682ZM60.6608 0.407623C60.3894 0.135942 60.0501 0 59.643 0H43.2223C42.4759 0 41.8652 0.611435 41.8652 1.35881V3.39693C41.8652 4.14431 42.4759 4.75574 43.2223 4.75574H50.6863C47.0223 9.71509 37.5227 22.2836 36.3695 22.2836C34.9446 22.2836 21.442 11.6853 20.1524 11.6853C18.8633 11.6851 0 31.2513 0 31.2513C0 31.2513 18.2527 20.1094 19.5417 20.1094C20.8308 20.1094 35.7588 31.7267 37.1155 31.7267C38.2011 31.7267 51.0253 15.2857 56.2501 8.55989V17.7992C56.2501 18.5466 56.8608 19.158 57.6073 19.158H59.6429C60.3893 19.158 61 18.5466 61 17.7992V3.53236V3.39642V1.3583C61 1.01895 60.8642 0.679203 60.6607 0.407522L60.6608 0.407623Z" fill="#FFCF23"/>
</svg>
