<svg width="50" height="52" viewBox="0 0 50 52" fill="none" xmlns="http://www.w3.org/2000/svg">
<path d="M32.076 40.3171C33.6163 40.3246 35.1004 39.7173 36.2192 38.6215C37.3381 37.5257 38.006 36.0256 38.0838 34.4331V34.348L43.9121 27.5719C44.504 26.8617 45.3374 26.4147 46.2392 26.3236C47.1411 26.2327 48.0421 26.5048 48.7554 27.0834C49.4685 27.6939 49.9133 28.5769 49.9886 29.5317C50.0639 30.4866 49.7637 31.4325 49.1556 32.1547L37.5195 45.962C36.7526 46.8718 35.8064 47.6007 34.7443 48.0999C33.6823 48.5992 32.5293 48.8571 31.3629 48.8563H13.8729L10.8357 52L0 41.0657L7.76249 33.1H7.76266C9.33906 31.4782 11.3246 30.3487 13.4922 29.8407C15.6597 29.3326 17.922 29.4664 20.0195 30.227L21.7228 30.8483H32.2148C33.1091 30.848 33.9655 31.2227 34.5882 31.8872C35.2109 32.5518 35.5466 33.4493 35.5189 34.3744C35.4625 35.2751 35.0735 36.1187 34.4325 36.7306C33.7917 37.3424 32.9481 37.6758 32.0764 37.6617H25.7812C25.3231 37.6617 24.8996 37.9148 24.6705 38.3255C24.4413 38.7362 24.4413 39.2424 24.6705 39.6531C24.8996 40.0638 25.3231 40.3169 25.7812 40.3169L32.076 40.3171ZM25.7244 14.9119C26.571 15.4085 27.4545 15.8346 28.3665 16.1862C28.7565 16.3456 29.1463 16.5102 29.531 16.6855H29.5312C29.9905 16.8886 30.4205 17.1567 30.8087 17.482C31.1115 17.6966 31.3264 18.0202 31.4114 18.3898C31.4966 18.7592 31.4457 19.1483 31.2688 19.4811C31.0919 19.814 30.8017 20.0667 30.4546 20.1903C29.7585 20.4934 28.9965 20.5961 28.2486 20.4878C27.0142 20.3478 25.8147 19.9772 24.7085 19.3938C24.4773 19.246 24.215 19.1585 23.9441 19.1389C23.3285 19.1389 23.1386 19.7815 23.0309 20.1267C22.8308 20.7905 22.6513 21.4597 22.4767 22.1287C22.1895 23.2226 22.369 23.6316 23.3592 24.1306C24.4473 24.6421 25.602 24.9856 26.7864 25.1504C26.9745 25.1718 27.1602 25.2128 27.3404 25.2724C27.3793 25.4769 27.3948 25.6855 27.3866 25.8937V27.2054C27.3658 27.5441 27.4855 27.8758 27.7157 28.1171C27.946 28.3586 28.265 28.4867 28.5923 28.4694H30.4905C30.8105 28.4878 31.1223 28.361 31.3449 28.1225C31.5675 27.8839 31.6789 27.5571 31.65 27.2267V26.6319V25.4158C31.65 25.0121 31.7424 24.8847 32.1631 24.7625V24.7627C33.5227 24.3931 34.7349 23.5884 35.6262 22.4632C36.7907 21.0092 37.2686 19.0935 36.9294 17.2377C36.5479 15.2596 35.3349 13.5601 33.6202 12.6017C32.6554 12.075 31.6619 11.6068 30.6445 11.1997L30.2545 11.0351C29.6586 10.7878 29.0991 10.4552 28.5922 10.0474C28.2355 9.78013 28.0406 9.33843 28.0792 8.88434C28.1625 8.42038 28.4767 8.03662 28.9052 7.87549C29.2123 7.74929 29.5393 7.68257 29.8697 7.67894C31.2266 7.59389 32.5819 7.87186 33.8049 8.48604C35.0671 9.11803 35.3441 8.16745 35.4466 7.76382C35.616 7.23277 35.7648 6.70172 35.9136 6.14404L36.0879 5.50687C36.1953 5.20435 36.1796 4.8697 36.0442 4.57926C35.9089 4.28902 35.6654 4.06791 35.3697 3.96696C34.5004 3.56989 33.5845 3.29311 32.6454 3.14375C31.7988 3.00563 31.7988 3.00563 31.7988 2.12419C31.7988 0.270878 31.6604 0 29.9108 0H28.9668C27.9407 0.0318075 27.6637 0.345216 27.6381 1.38603V2.10826V2.496C27.6381 3.27668 27.6381 3.27668 26.8891 3.55809C24.1596 4.58301 22.6923 6.51602 22.5281 9.29871C22.3791 11.6405 23.4309 13.4887 25.7243 14.9119L25.7244 14.9119Z" fill="#FFCF23"/>
</svg>
