<svg width="29" height="25" viewBox="0 0 29 25" fill="none" xmlns="http://www.w3.org/2000/svg">
<path d="M28.3145 10.3941L18.768 0.735678C18.334 0.273637 17.734 0.0084116 17.104 0.000196659C16.4741 -0.00801682 15.8675 0.241347 15.4219 0.691841C14.9761 1.14244 14.7291 1.75587 14.7367 2.39326C14.7443 3.03056 15.0059 3.63788 15.4622 4.0774L21.1054 9.77798H2.3373C1.50226 9.77798 0.730668 10.2287 0.313133 10.9603C-0.104378 11.692 -0.104378 12.5935 0.313133 13.325C0.730644 14.0567 1.50226 14.5075 2.3373 14.5075H21.0532L15.4622 20.1728C14.8965 20.775 14.6846 21.6334 14.9041 22.4339C15.1236 23.2344 15.7422 23.8598 16.5337 24.0812C17.3251 24.3025 18.1734 24.0874 18.7681 23.5145L28.3145 13.8561C28.7545 13.4136 29.0009 12.8114 28.9989 12.1837C29.0004 12.1643 29.0004 12.1446 28.9989 12.1251C29.0003 12.1055 29.0003 12.0859 28.9989 12.0665C28.9987 11.4393 28.7525 10.8378 28.3145 10.3941L28.3145 10.3941Z" fill="#0A0D12"/>
</svg>
